<svg width="32" height="32" viewBox="0 0 32 32" fill="none" xmlns="http://www.w3.org/2000/svg">
<path d="M20.0003 24.0002V25.0002C20.0003 26.0611 19.5789 27.0785 18.8287 27.8287C18.0786 28.5788 17.0612 29.0002 16.0003 29.0002C14.9394 29.0002 13.922 28.5788 13.1719 27.8287C12.4217 27.0785 12.0003 26.0611 12.0003 25.0002V24.0002M26.7303 21.9646C25.1253 20.0002 23.9922 19.0002 23.9922 13.5846C23.9922 8.62524 21.4597 6.85837 19.3753 6.00024C19.0984 5.88649 18.8378 5.62524 18.7534 5.34087C18.3878 4.09649 17.3628 3.00024 16.0003 3.00024C14.6378 3.00024 13.6122 4.09712 13.2503 5.34212C13.1659 5.62962 12.9053 5.88649 12.6284 6.00024C10.5416 6.85962 8.01156 8.62024 8.01156 13.5846C8.00843 19.0002 6.87531 20.0002 5.27031 21.9646C4.60531 22.7784 5.18781 24.0002 6.35093 24.0002H25.6559C26.8128 24.0002 27.3916 22.7746 26.7303 21.9646Z" stroke="#EB6649" stroke-width="2" stroke-linecap="round" stroke-linejoin="round"/>
</svg>
