<svg width="32" height="32" viewBox="0 0 32 32" fill="none" xmlns="http://www.w3.org/2000/svg">
<path d="M25.125 10.5002C24.9419 13.0421 23.0562 15.0002 21 15.0002C18.9437 15.0002 17.055 13.0427 16.875 10.5002C16.6875 7.85587 18.5231 6.00024 21 6.00024C23.4769 6.00024 25.3125 7.90399 25.125 10.5002Z" stroke="#EB6649" stroke-width="2.4" stroke-linecap="round" stroke-linejoin="round"/>
<path d="M20.9998 19.0002C16.9266 19.0002 13.0098 21.0234 12.0285 24.9634C11.8985 25.4846 12.2254 26.0002 12.761 26.0002H29.2391C29.7747 26.0002 30.0997 25.4846 29.9716 24.9634C28.9904 20.9602 25.0735 19.0002 20.9998 19.0002Z" stroke="#EB6649" stroke-width="2.4" stroke-miterlimit="10"/>
<path d="M12.5001 11.6215C12.3539 13.6515 10.8301 15.2502 9.18761 15.2502C7.54511 15.2502 6.01886 13.6521 5.87511 11.6215C5.72573 9.50962 7.20886 8.00024 9.18761 8.00024C11.1664 8.00024 12.6495 9.54837 12.5001 11.6215Z" stroke="#EB6649" stroke-width="2.4" stroke-linecap="round" stroke-linejoin="round"/>
<path d="M12.8751 19.1253C11.747 18.6084 10.5045 18.4097 9.18762 18.4097C5.93762 18.4097 2.80637 20.0253 2.022 23.1722C1.91887 23.5884 2.18012 24.0003 2.60762 24.0003H9.62512" stroke="#EB6649" stroke-width="2.4" stroke-miterlimit="10" stroke-linecap="round"/>
</svg>
