<svg width="16" height="16" viewBox="0 0 16 16" fill="none" xmlns="http://www.w3.org/2000/svg">
<g clip-path="url(#clip0_571_427)">
<path fill-rule="evenodd" clip-rule="evenodd" d="M15.4327 11.1337C15.5709 10.8947 15.489 10.5891 15.2496 10.4509L11.0018 8L15.2496 5.54906C15.489 5.41094 15.5709 5.10531 15.4327 4.86594L14.4321 3.13375C14.294 2.89469 13.9881 2.8125 13.7487 2.95062L9.50087 5.40156V0.5C9.50087 0.22375 9.2768 0 9.00055 0H6.9993C6.72305 0 6.49899 0.22375 6.49899 0.5V5.40188L2.25118 2.95094C2.0118 2.81281 1.70587 2.895 1.56774 3.13406L0.567116 4.86594C0.428991 5.105 0.510866 5.41094 0.750241 5.54906L4.99805 8L0.750241 10.4509C0.510866 10.5891 0.428991 10.895 0.567116 11.1341L1.56774 12.8663C1.70587 13.1053 2.0118 13.1872 2.25118 13.0494L6.49899 10.5984V15.5C6.49899 15.7762 6.72305 16 6.9993 16H9.00055C9.2768 16 9.50087 15.7762 9.50087 15.5V10.5981L13.7487 13.0491C13.9881 13.1872 14.294 13.1053 14.4321 12.8659L15.4327 11.1337ZM13.816 4.06632L8.50087 7.13307V1H7.49899V7.13338L2.18385 4.06661L1.68333 4.93292L6.999 8L1.68329 11.0671L2.18389 11.9337L7.49899 8.86693V15H8.50087V8.86662L13.816 11.9334L14.3164 11.067L9.00086 8L14.3166 4.9329L13.816 4.06632Z" fill="#EB6649"/>
</g>
<defs>
<clipPath id="clip0_571_427">
<rect width="16" height="16" fill="white"/>
</clipPath>
</defs>
</svg>
