<svg width="32" height="32" viewBox="0 0 32 32" fill="none" xmlns="http://www.w3.org/2000/svg">
<g clip-path="url(#clip0_21_509)">
<path d="M22.5 12.5C24.1569 12.5 25.5 11.1569 25.5 9.5C25.5 7.84315 24.1569 6.5 22.5 6.5C20.8431 6.5 19.5 7.84315 19.5 9.5C19.5 11.1569 20.8431 12.5 22.5 12.5Z" fill="#A83229"/>
<path d="M20.5 31.5H3.5L12 23L20.5 31.5Z" fill="#4A9BF6"/>
<path d="M31.5 3.5V28.5C31.5 29.2956 31.1839 30.0587 30.6213 30.6213C30.0587 31.1839 29.2956 31.5 28.5 31.5H26.5L15 20L18.805 16.195C19.9565 17.6969 21.1901 19.1341 22.5 20.5C22.5 20.5 29.5 13.365 29.5 9.5C29.5006 8.38081 29.2313 7.27797 28.715 6.285L31.5 3.5Z" fill="#D3D9F2"/>
<path d="M31.5 3.5L28.715 6.285C28.0519 4.99692 27.0031 3.94809 25.715 3.285L28.5 0.5C29.2957 0.5 30.0587 0.81607 30.6213 1.37868C31.184 1.94129 31.5 2.70435 31.5 3.5Z" fill="#FFDF64"/>
<path d="M26.5 31.5H20.5L12 23L15 20L26.5 31.5Z" fill="#F7F7FF"/>
<path d="M18.805 16.195L15 20L12 23L3.5 31.5C2.70435 31.5 1.94129 31.1839 1.37868 30.6213C0.81607 30.0587 0.5 29.2956 0.5 28.5L16.445 12.555C17.1261 13.8336 17.9157 15.0514 18.805 16.195Z" fill="#FFDF64"/>
<path d="M28.5 0.5L25.715 3.285C24.6483 2.73206 23.4573 2.46316 22.2565 2.50421C21.0558 2.54525 19.8858 2.89486 18.8594 3.51934C17.833 4.14383 16.9847 5.02214 16.3963 6.06964C15.8079 7.11715 15.4992 8.29855 15.5 9.5C15.5777 10.5771 15.901 11.6221 16.445 12.555L0.5 28.5V3.5C0.5 2.70435 0.81607 1.94129 1.37868 1.37868C1.94129 0.81607 2.70435 0.5 3.5 0.5H28.5Z" fill="#28BE77"/>
<path d="M28.715 6.285C29.2313 7.27797 29.5006 8.38081 29.5 9.5C29.5 13.365 22.5 20.5 22.5 20.5C21.1901 19.1341 19.9565 17.6969 18.805 16.195C17.9157 15.0514 17.1261 13.8336 16.445 12.555C15.901 11.6221 15.5777 10.5771 15.5 9.5C15.5013 7.9323 16.0288 6.41042 16.998 5.17821C17.9672 3.94601 19.322 3.07481 20.8453 2.70422C22.3685 2.33364 23.9721 2.48511 25.3991 3.13438C26.826 3.78364 27.9937 4.89311 28.715 6.285ZM25.5 9.5C25.5 8.90666 25.3241 8.32664 24.9944 7.83329C24.6648 7.33995 24.1962 6.95543 23.6481 6.72837C23.0999 6.5013 22.4967 6.44189 21.9147 6.55765C21.3328 6.6734 20.7982 6.95913 20.3787 7.37868C19.9591 7.79824 19.6734 8.33279 19.5576 8.91473C19.4419 9.49668 19.5013 10.0999 19.7284 10.6481C19.9554 11.1962 20.3399 11.6648 20.8333 11.9944C21.3266 12.3241 21.9067 12.5 22.5 12.5C23.2956 12.5 24.0587 12.1839 24.6213 11.6213C25.1839 11.0587 25.5 10.2957 25.5 9.5Z" fill="#D73D3F"/>
<path d="M5.5 29.5L3.5 31.5H20.5L18.5 29.5H5.5Z" fill="#3B7CC4"/>
<path d="M28.5 29.5H24.5L26.5 31.5H28.5C29.2956 31.5 30.0587 31.1839 30.6213 30.6213C31.1839 30.0587 31.5 29.2956 31.5 28.5V26.5C31.5 27.2956 31.1839 28.0587 30.6213 28.6213C30.0587 29.1839 29.2956 29.5 28.5 29.5Z" fill="#AEB2D4"/>
<path d="M31.0585 3.9415C31.3471 4.41011 31.4999 4.94965 31.5 5.5V3.5L31.0585 3.9415Z" fill="#B8BCE0"/>
<path d="M28.5 2.5C29.0143 2.50046 29.5199 2.63331 29.968 2.88578C30.4161 3.13825 30.7916 3.50182 31.0585 3.9415L31.5 3.5C31.5 2.70435 31.1839 1.94129 30.6213 1.37868C30.0587 0.81607 29.2956 0.5 28.5 0.5L26.5 2.5H28.5Z" fill="#FFB844"/>
<path d="M18.5 29.5L20.5 31.5H26.5L24.5 29.5H18.5Z" fill="#CACFE8"/>
<path d="M3.5 29.5C2.98567 29.4995 2.48012 29.3667 2.03202 29.1142C1.58392 28.8618 1.20836 28.4982 0.9415 28.0585L0.5 28.5C0.5 29.2957 0.81607 30.0587 1.37868 30.6213C1.94129 31.1839 2.70435 31.5 3.5 31.5L5.5 29.5H3.5Z" fill="#FFB844"/>
<path d="M0.5 26.5V28.5L0.9415 28.0585C0.652894 27.5899 0.500052 27.0504 0.5 26.5Z" fill="#1FA463"/>
<path d="M3.5 2.5H26.5L28.5 0.5H3.5C2.70435 0.5 1.94129 0.81607 1.37868 1.37868C0.81607 1.94129 0.5 2.70435 0.5 3.5V5.5C0.5 4.70435 0.81607 3.94129 1.37868 3.37868C1.94129 2.81607 2.70435 2.5 3.5 2.5Z" fill="#1FA463"/>
<path d="M6.50001 11C5.73897 11.0001 4.99034 10.8071 4.32415 10.4392C3.65796 10.0712 3.09596 9.54036 2.69072 8.89618C2.28548 8.25201 2.05023 7.51558 2.00697 6.75577C1.96371 5.99596 2.11387 5.23759 2.44338 4.55158C2.7729 3.86558 3.27102 3.27435 3.89115 2.83319C4.51128 2.39204 5.23317 2.11536 5.9893 2.02904C6.74543 1.94272 7.5111 2.04958 8.2147 2.33962C8.9183 2.62966 9.53686 3.09341 10.0125 3.6875L8.45001 4.9375C8.10838 4.51145 7.63664 4.20898 7.1069 4.07632C6.57715 3.94366 6.01854 3.98811 5.51644 4.20287C5.01434 4.41763 4.59637 4.79089 4.32641 5.26561C4.05645 5.74032 3.94936 6.29037 4.0215 6.83169C4.09364 7.373 4.34105 7.87581 4.7259 8.26326C5.11076 8.6507 5.61189 8.90148 6.15271 8.97725C6.69353 9.05303 7.24429 8.94963 7.7208 8.68287C8.19732 8.4161 8.57338 8.00065 8.79151 7.5H6.50001V5.5H10C10.2652 5.5 10.5196 5.60536 10.7071 5.79289C10.8946 5.98043 11 6.23478 11 6.5C10.9986 7.69303 10.524 8.83678 9.68038 9.68037C8.83678 10.524 7.69303 10.9985 6.50001 11Z" fill="#F7F7FF"/>
<path d="M22.5 8.5C23.1198 8.50071 23.7242 8.69337 24.23 9.0515C24.7359 9.40963 25.1184 9.91565 25.325 10.5C25.4868 10.0472 25.5374 9.56222 25.4726 9.0858C25.4078 8.60939 25.2294 8.15554 24.9524 7.76249C24.6755 7.36944 24.3082 7.0487 23.8814 6.82731C23.4546 6.60592 22.9808 6.49036 22.5 6.49036C22.0192 6.49036 21.5454 6.60592 21.1186 6.82731C20.6918 7.0487 20.3245 7.36944 20.0476 7.76249C19.7706 8.15554 19.5922 8.60939 19.5274 9.0858C19.4626 9.56222 19.5132 10.0472 19.675 10.5C19.8816 9.91565 20.2641 9.40963 20.77 9.0515C21.2758 8.69337 21.8802 8.50071 22.5 8.5Z" fill="#91323C"/>
<path d="M15.6 10.355C15.5354 10.7333 15.502 11.1162 15.5 11.5C15.5178 12.07 15.6307 12.6331 15.834 13.166L16.445 12.555C16.0679 11.862 15.7838 11.1223 15.6 10.355Z" fill="#1FA463"/>
<path d="M29.3965 10.3675C28.541 14.3405 22.5 20.5 22.5 20.5C21.1901 19.1341 19.9566 17.6969 18.805 16.195L17.965 17.035C18.2395 17.4285 18.519 17.818 18.805 18.195C19.9566 19.6969 21.1901 21.1341 22.5 22.5C22.5 22.5 29.5 15.365 29.5 11.5C29.4966 11.1203 29.462 10.7415 29.3965 10.3675Z" fill="#AEB2D4"/>
<path d="M16.445 12.555L15.834 13.166C16.0049 13.6427 16.209 14.1069 16.445 14.555C16.8957 15.4147 17.4035 16.2432 17.965 17.035L18.805 16.195C17.9157 15.0514 17.1261 13.8336 16.445 12.555Z" fill="#FFB844"/>
</g>
<defs>
<clipPath id="clip0_21_509">
<rect width="32" height="32" fill="white"/>
</clipPath>
</defs>
</svg>
