<svg width="16" height="16" viewBox="0 0 16 16" fill="none" xmlns="http://www.w3.org/2000/svg">
<path d="M15.4996 6.79295L9.20703 0.500343C8.53991 -0.166719 7.46018 -0.166844 6.79296 0.500343L0.500355 6.79295C-0.166769 7.46004 -0.166801 8.53993 0.500355 9.20705L6.79296 15.4997C7.46008 16.1667 8.53981 16.1668 9.20703 15.4997L15.4996 9.20705C16.1668 8.53996 16.1668 7.46007 15.4996 6.79295ZM14.7926 8.49996L8.49997 14.7926C8.22361 15.0689 7.77641 15.0689 7.50002 14.7926L1.20741 8.49996C0.931115 8.22366 0.931084 7.7764 1.20741 7.50001L7.50002 1.20743C7.77638 0.931104 8.22358 0.931073 8.49997 1.20743L14.7926 7.50004C14.7926 7.50885 14.9997 7.67103 14.9997 8.00001C14.9997 8.18888 14.9261 8.3664 14.7926 8.49996Z" fill="white"/>
<path d="M11.6674 6.44762C11.6282 6.38831 11.749 6.51686 9.91006 4.64923C9.71632 4.45246 9.39974 4.44999 9.203 4.64377C9.00623 4.83751 9.00379 5.15405 9.1975 5.35079L10.0828 6.24994H5.25016C4.97402 6.24994 4.75018 6.4738 4.75018 6.74991V9.99976C4.75018 10.2759 4.97402 10.4997 5.25016 10.4997C5.5263 10.4997 5.75014 10.2759 5.75014 9.99976V7.24989H10.029L9.14366 8.14903C8.83164 8.46593 9.06035 8.99981 9.49989 8.99981C9.62917 8.99981 9.75835 8.95 9.85619 8.85063L11.497 7.18417C11.7755 7.02534 11.8121 6.66667 11.6674 6.44762Z" fill="white"/>
</svg>
