<svg width="43" height="49" viewBox="0 0 43 49" fill="none" xmlns="http://www.w3.org/2000/svg">
<g clip-path="url(#clip0_21_193)">
<path d="M23.1658 16.4107C23.1658 16.7733 23.0582 17.1278 22.8568 17.4292C22.6553 17.7307 22.369 17.9657 22.034 18.1045C21.699 18.2432 21.3304 18.2795 20.9748 18.2088C20.6191 18.1381 20.2925 17.9635 20.0361 17.7071C19.7797 17.4507 19.6051 17.124 19.5343 16.7684C19.4636 16.4127 19.4999 16.0441 19.6387 15.7091C19.7774 15.3741 20.0124 15.0878 20.3139 14.8863C20.6154 14.6849 20.9698 14.5774 21.3324 14.5774C21.8187 14.5774 22.285 14.7705 22.6288 15.1143C22.9726 15.4582 23.1658 15.9245 23.1658 16.4107ZM25.8699 20.9546L21.3324 25.394L16.8023 20.961C15.9032 20.0648 15.2902 18.9219 15.0408 17.6772C14.7914 16.4324 14.9169 15.1416 15.4013 13.9682C15.8857 12.7947 16.7073 11.7913 17.7622 11.085C18.8171 10.3786 20.0577 10.001 21.3272 10C22.5968 9.99898 23.838 10.3745 24.894 11.0792C25.95 11.7838 26.7733 12.7859 27.2596 13.9586C27.7459 15.1312 27.8735 16.4218 27.6261 17.667C27.3787 18.9122 26.7676 20.0569 25.8699 20.9546ZM24.9991 16.4107C24.9991 15.6855 24.7841 14.9766 24.3812 14.3736C23.9783 13.7706 23.4056 13.3007 22.7356 13.0231C22.0656 12.7456 21.3284 12.673 20.6171 12.8145C19.9058 12.956 19.2525 13.3052 18.7397 13.818C18.2269 14.3308 17.8777 14.9841 17.7362 15.6954C17.5947 16.4066 17.6674 17.1439 17.9449 17.8139C18.2224 18.4839 18.6924 19.0565 19.2953 19.4594C19.8983 19.8623 20.6072 20.0774 21.3324 20.0774C22.3049 20.0774 23.2375 19.6911 23.9252 19.0034C24.6128 18.3158 24.9991 17.3832 24.9991 16.4107ZM30.3772 19.7226L29.0618 19.2826C28.6524 20.3979 28.0056 21.411 27.1661 22.2517L21.3324 27.9607L15.5208 22.2774C14.4176 21.1782 13.6484 19.789 13.3024 18.2706C12.9245 18.2358 12.5435 18.2805 12.1839 18.4017C11.8243 18.523 11.494 18.7181 11.2143 18.9746C10.9346 19.2311 10.7116 19.5432 10.5598 19.891C10.4079 20.2388 10.3305 20.6145 10.3324 20.994V29.9334L17.6502 32.0243L25.0019 30.1909L32.3352 31.9766V22.3534C32.3348 21.7627 32.1442 21.1877 31.7915 20.7137C31.4389 20.2397 30.943 19.8928 30.3772 19.7226Z" fill="#CAF7FF"/>
</g>
<path d="M13.2181 41.5697C13.1755 41.2099 13.0027 40.9305 12.6997 40.7317C12.3966 40.5328 12.0249 40.4334 11.5846 40.4334C11.2626 40.4334 10.9809 40.4855 10.7394 40.5896C10.5003 40.6938 10.3133 40.837 10.1784 41.0193C10.0458 41.2016 9.97949 41.4088 9.97949 41.6408C9.97949 41.8349 10.0257 42.0018 10.118 42.1415C10.2127 42.2788 10.3334 42.3936 10.4802 42.4859C10.627 42.5759 10.7809 42.6505 10.9418 42.7097C11.1028 42.7665 11.2508 42.8126 11.3857 42.8482L12.1244 43.047C12.3138 43.0967 12.5245 43.1654 12.7565 43.253C12.9909 43.3406 13.2146 43.4601 13.4276 43.6116C13.6431 43.7608 13.8206 43.9526 13.9603 44.1869C14.1 44.4213 14.1698 44.709 14.1698 45.0499C14.1698 45.4429 14.0668 45.798 13.8609 46.1152C13.6573 46.4324 13.359 46.6846 12.966 46.8716C12.5754 47.0586 12.1007 47.1521 11.542 47.1521C11.0212 47.1521 10.5702 47.0681 10.189 46.9C9.81022 46.7319 9.51192 46.4975 9.29412 46.1969C9.07868 45.8962 8.95676 45.547 8.92835 45.1493H9.83744C9.86112 45.4239 9.95344 45.6512 10.1144 45.8311C10.2778 46.0087 10.4837 46.1412 10.7323 46.2288C10.9833 46.3141 11.2532 46.3567 11.542 46.3567C11.8782 46.3567 12.18 46.3022 12.4475 46.1933C12.715 46.0821 12.9269 45.9282 13.0832 45.7317C13.2394 45.5328 13.3176 45.3008 13.3176 45.0357C13.3176 44.7942 13.2501 44.5977 13.1151 44.4462C12.9802 44.2947 12.8026 44.1715 12.5825 44.0768C12.3623 43.9822 12.1244 43.8993 11.8687 43.8283L10.9738 43.5726C10.4056 43.4092 9.95581 43.176 9.62437 42.873C9.29293 42.57 9.12721 42.1734 9.12721 41.6834C9.12721 41.2762 9.2373 40.9211 9.45747 40.618C9.68001 40.3126 9.9783 40.0759 10.3524 39.9078C10.7288 39.7374 11.149 39.6521 11.613 39.6521C12.0818 39.6521 12.4984 39.7362 12.863 39.9043C13.2276 40.07 13.5164 40.2973 13.7295 40.5861C13.9449 40.8749 14.0586 41.2028 14.0704 41.5697H13.2181ZM15.5042 47.0243V41.5697H16.3422V47.0243H15.5042ZM15.9303 40.6607C15.767 40.6607 15.6261 40.605 15.5077 40.4938C15.3917 40.3825 15.3337 40.2487 15.3337 40.0925C15.3337 39.9362 15.3917 39.8025 15.5077 39.6912C15.6261 39.5799 15.767 39.5243 15.9303 39.5243C16.0937 39.5243 16.2333 39.5799 16.3493 39.6912C16.4677 39.8025 16.5269 39.9362 16.5269 40.0925C16.5269 40.2487 16.4677 40.3825 16.3493 40.4938C16.2333 40.605 16.0937 40.6607 15.9303 40.6607ZM20.2494 41.5697V42.28H17.4227V41.5697H20.2494ZM18.2465 40.2629H19.0846V45.4618C19.0846 45.6985 19.1189 45.8761 19.1876 45.9945C19.2586 46.1105 19.3486 46.1886 19.4575 46.2288C19.5687 46.2667 19.6859 46.2857 19.809 46.2857C19.9014 46.2857 19.9771 46.2809 20.0363 46.2715C20.0955 46.2596 20.1428 46.2501 20.1784 46.243L20.3488 46.9959C20.292 47.0172 20.2127 47.0385 20.1109 47.0598C20.0091 47.0835 19.8801 47.0953 19.7238 47.0953C19.4871 47.0953 19.2551 47.0444 19.0278 46.9426C18.8029 46.8408 18.6159 46.6858 18.4667 46.4774C18.3199 46.2691 18.2465 46.0063 18.2465 45.6891V40.2629ZM21.51 47.0243V41.5697H22.3481V47.0243H21.51ZM21.9362 40.6607C21.7728 40.6607 21.6319 40.605 21.5136 40.4938C21.3976 40.3825 21.3396 40.2487 21.3396 40.0925C21.3396 39.9362 21.3976 39.8025 21.5136 39.6912C21.6319 39.5799 21.7728 39.5243 21.9362 39.5243C22.0995 39.5243 22.2392 39.5799 22.3552 39.6912C22.4736 39.8025 22.5328 39.9362 22.5328 40.0925C22.5328 40.2487 22.4736 40.3825 22.3552 40.4938C22.2392 40.605 22.0995 40.6607 21.9362 40.6607ZM26.099 47.1379C25.6066 47.1379 25.1745 47.0207 24.8028 46.7864C24.4335 46.552 24.1447 46.2241 23.9363 45.8027C23.7304 45.3813 23.6274 44.8889 23.6274 44.3254C23.6274 43.7572 23.7304 43.2613 23.9363 42.8375C24.1447 42.4137 24.4335 42.0847 24.8028 41.8503C25.1745 41.6159 25.6066 41.4987 26.099 41.4987C26.5914 41.4987 27.0223 41.6159 27.3916 41.8503C27.7633 42.0847 28.0521 42.4137 28.2581 42.8375C28.4664 43.2613 28.5706 43.7572 28.5706 44.3254C28.5706 44.8889 28.4664 45.3813 28.2581 45.8027C28.0521 46.2241 27.7633 46.552 27.3916 46.7864C27.0223 47.0207 26.5914 47.1379 26.099 47.1379ZM26.099 46.3851C26.473 46.3851 26.7808 46.2892 27.0223 46.0974C27.2638 45.9057 27.4425 45.6536 27.5585 45.3411C27.6745 45.0286 27.7325 44.69 27.7325 44.3254C27.7325 43.9608 27.6745 43.6211 27.5585 43.3063C27.4425 42.9914 27.2638 42.7369 27.0223 42.5428C26.7808 42.3486 26.473 42.2516 26.099 42.2516C25.7249 42.2516 25.4172 42.3486 25.1757 42.5428C24.9342 42.7369 24.7555 42.9914 24.6395 43.3063C24.5235 43.6211 24.4655 43.9608 24.4655 44.3254C24.4655 44.69 24.5235 45.0286 24.6395 45.3411C24.7555 45.6536 24.9342 45.9057 25.1757 46.0974C25.4172 46.2892 25.7249 46.3851 26.099 46.3851ZM33.7135 42.7913L32.9607 43.0044C32.9133 42.8789 32.8435 42.757 32.7511 42.6386C32.6612 42.5179 32.5381 42.4185 32.3818 42.3403C32.2256 42.2622 32.0255 42.2232 31.7817 42.2232C31.4479 42.2232 31.1697 42.3001 30.9472 42.454C30.727 42.6055 30.6169 42.7984 30.6169 43.0328C30.6169 43.2411 30.6927 43.4057 30.8442 43.5264C30.9957 43.6472 31.2324 43.7478 31.5544 43.8283L32.3641 44.0271C32.8518 44.1455 33.2152 44.3266 33.4543 44.5705C33.6934 44.8119 33.8129 45.1233 33.8129 45.5044C33.8129 45.8169 33.723 46.0963 33.5431 46.3425C33.3655 46.5887 33.1169 46.7828 32.7973 46.9249C32.4777 47.0669 32.106 47.1379 31.6823 47.1379C31.1259 47.1379 30.6654 47.0172 30.3009 46.7757C29.9363 46.5342 29.7055 46.1815 29.6084 45.7175L30.4038 45.5186C30.4796 45.8122 30.6228 46.0323 30.8335 46.1791C31.0466 46.3259 31.3248 46.3993 31.6681 46.3993C32.0587 46.3993 32.3688 46.3164 32.5984 46.1507C32.8305 45.9826 32.9465 45.7814 32.9465 45.547C32.9465 45.3576 32.8802 45.199 32.7476 45.0712C32.615 44.941 32.4114 44.8439 32.1368 44.78L31.2277 44.5669C30.7282 44.4485 30.3612 44.2651 30.1269 44.0165C29.8949 43.7655 29.7788 43.4518 29.7788 43.0754C29.7788 42.7677 29.8653 42.4954 30.0381 42.2587C30.2133 42.0219 30.4512 41.8361 30.7519 41.7011C31.0549 41.5662 31.3982 41.4987 31.7817 41.4987C32.3215 41.4987 32.7452 41.6171 33.053 41.8538C33.3631 42.0906 33.5833 42.4031 33.7135 42.7913Z" fill="#CAF7FF"/>
<defs>
<clipPath id="clip0_21_193">
<rect width="42.0028" height="42.0243" fill="white" transform="translate(0.332397)"/>
</clipPath>
</defs>
</svg>
