<svg width="42" height="48" viewBox="0 0 42 48" fill="none" xmlns="http://www.w3.org/2000/svg">
<path d="M25.5833 26.5053V32.0053H29.25C30.7688 32.0053 32 30.7741 32 29.2553V20.8944C32.0002 20.4182 31.8151 19.9605 31.4839 19.6184L23.6941 11.1969C22.3196 9.70979 19.9998 9.61848 18.5127 10.993C18.442 11.0583 18.374 11.1263 18.3087 11.1969L10.5326 19.6156C10.1913 19.9592 9.99987 20.4239 10 20.9081V29.2553C10 30.7741 11.2312 32.0053 12.75 32.0053H16.4167V26.5053C16.4338 24.0057 18.4519 21.9645 20.8885 21.9057C23.4067 21.845 25.5641 23.9209 25.5833 26.5053Z" fill="#CAF7FF"/>
<path d="M21 23.7553C19.4812 23.7553 18.25 24.9865 18.25 26.5053V32.0053H23.75V26.5053C23.75 24.9865 22.5188 23.7553 21 23.7553Z" fill="#CAF7FF"/>
<path d="M10.3639 39.7326V47.0053H9.48322V39.7326H10.3639ZM12.8541 43.7241V47.0053H12.0161V41.5508H12.8257V42.403H12.8968C13.0246 42.126 13.2187 41.9035 13.4791 41.7354C13.7396 41.565 14.0757 41.4797 14.4877 41.4797C14.857 41.4797 15.1801 41.5555 15.4571 41.707C15.7341 41.8562 15.9495 42.0834 16.1034 42.3888C16.2573 42.6919 16.3343 43.0754 16.3343 43.5394V47.0053H15.4962V43.5962C15.4962 43.1677 15.3849 42.8339 15.1624 42.5948C14.9398 42.3533 14.6344 42.2326 14.2462 42.2326C13.9787 42.2326 13.7396 42.2906 13.5289 42.4066C13.3205 42.5226 13.156 42.6919 13.0352 42.9144C12.9145 43.1369 12.8541 43.4068 12.8541 43.7241ZM17.8657 47.0053V41.5508H18.7037V47.0053H17.8657ZM18.2918 40.6417C18.1285 40.6417 17.9876 40.586 17.8692 40.4748C17.7532 40.3635 17.6952 40.2297 17.6952 40.0735C17.6952 39.9172 17.7532 39.7835 17.8692 39.6722C17.9876 39.5609 18.1285 39.5053 18.2918 39.5053C18.4552 39.5053 18.5948 39.5609 18.7108 39.6722C18.8292 39.7835 18.8884 39.9172 18.8884 40.0735C18.8884 40.2297 18.8292 40.3635 18.7108 40.4748C18.5948 40.586 18.4552 40.6417 18.2918 40.6417ZM22.4546 47.1189C21.9433 47.1189 21.5029 46.9982 21.1336 46.7567C20.7643 46.5153 20.4802 46.1826 20.2813 45.7589C20.0825 45.3351 19.983 44.851 19.983 44.3064C19.983 43.7525 20.0848 43.2636 20.2884 42.8398C20.4944 42.4137 20.7809 42.0811 21.1478 41.842C21.5171 41.6005 21.948 41.4797 22.4404 41.4797C22.824 41.4797 23.1696 41.5508 23.4774 41.6928C23.7851 41.8349 24.0373 42.0337 24.2338 42.2894C24.4302 42.5451 24.5522 42.8434 24.5995 43.1843H23.7615C23.6975 42.9357 23.5555 42.7155 23.3353 42.5238C23.1175 42.3296 22.824 42.2326 22.4546 42.2326C22.1279 42.2326 21.8415 42.3178 21.5953 42.4883C21.3514 42.6564 21.1608 42.8943 21.0235 43.202C20.8886 43.5074 20.8211 43.8661 20.8211 44.278C20.8211 44.6994 20.8874 45.0664 21.02 45.3789C21.1549 45.6914 21.3443 45.9341 21.5882 46.1069C21.8344 46.2797 22.1232 46.3661 22.4546 46.3661C22.6724 46.3661 22.8701 46.3282 23.0477 46.2525C23.2252 46.1767 23.3756 46.0678 23.4987 45.9258C23.6218 45.7837 23.7094 45.6133 23.7615 45.4144H24.5995C24.5522 45.7364 24.435 46.0264 24.248 46.2844C24.0633 46.5401 23.8183 46.7437 23.5129 46.8952C23.2098 47.0444 22.8571 47.1189 22.4546 47.1189ZM25.8247 47.0053V41.5508H26.6627V47.0053H25.8247ZM26.2508 40.6417C26.0874 40.6417 25.9466 40.586 25.8282 40.4748C25.7122 40.3635 25.6542 40.2297 25.6542 40.0735C25.6542 39.9172 25.7122 39.7835 25.8282 39.6722C25.9466 39.5609 26.0874 39.5053 26.2508 39.5053C26.4142 39.5053 26.5538 39.5609 26.6698 39.6722C26.7882 39.7835 26.8474 39.9172 26.8474 40.0735C26.8474 40.2297 26.7882 40.3635 26.6698 40.4748C26.5538 40.586 26.4142 40.6417 26.2508 40.6417ZM30.4136 47.1189C29.9212 47.1189 29.4891 47.0018 29.1175 46.7674C28.7481 46.533 28.4593 46.2051 28.251 45.7837C28.045 45.3623 27.942 44.8699 27.942 44.3064C27.942 43.7383 28.045 43.2423 28.251 42.8185C28.4593 42.3948 28.7481 42.0657 29.1175 41.8313C29.4891 41.5969 29.9212 41.4797 30.4136 41.4797C30.906 41.4797 31.3369 41.5969 31.7062 41.8313C32.0779 42.0657 32.3667 42.3948 32.5727 42.8185C32.781 43.2423 32.8852 43.7383 32.8852 44.3064C32.8852 44.8699 32.781 45.3623 32.5727 45.7837C32.3667 46.2051 32.0779 46.533 31.7062 46.7674C31.3369 47.0018 30.906 47.1189 30.4136 47.1189ZM30.4136 46.3661C30.7877 46.3661 31.0954 46.2702 31.3369 46.0785C31.5784 45.8867 31.7571 45.6346 31.8731 45.3221C31.9891 45.0096 32.0471 44.671 32.0471 44.3064C32.0471 43.9419 31.9891 43.6021 31.8731 43.2873C31.7571 42.9724 31.5784 42.7179 31.3369 42.5238C31.0954 42.3296 30.7877 42.2326 30.4136 42.2326C30.0396 42.2326 29.7318 42.3296 29.4903 42.5238C29.2488 42.7179 29.0701 42.9724 28.9541 43.2873C28.8381 43.6021 28.7801 43.9419 28.7801 44.3064C28.7801 44.671 28.8381 45.0096 28.9541 45.3221C29.0701 45.6346 29.2488 45.8867 29.4903 46.0785C29.7318 46.2702 30.0396 46.3661 30.4136 46.3661Z" fill="#CAF7FF"/>
</svg>
