<svg width="43" height="50" viewBox="0 0 43 50" fill="none" xmlns="http://www.w3.org/2000/svg">
<path d="M18.0009 16.4994L16.9431 19.0376L15.2509 18.3327L16.7314 15.9705L18.0009 16.4994ZM32.6676 21.0121C32.6676 27.0777 27.7332 32.0121 21.6676 32.0121C15.602 32.0121 10.6676 27.0777 10.6676 21.0121C10.6676 14.9466 15.602 10.0121 21.6676 10.0121C27.7332 10.0121 32.6676 14.9466 32.6676 21.0121ZM21.6676 30.1788V27.8871L19.8343 27.4288L18.0009 25.5955V23.7621L20.2926 21.9288H22.5843L25.3343 23.7621H26.7093L28.0843 25.1371L29.7517 25.3296C29.9662 24.9291 30.1523 24.5111 30.3063 24.0775L27.1676 22.3871L28.0843 21.4705V20.5538L25.3343 19.6371V18.2621H28.0843V16.4288H26.2509L25.3343 18.2621L23.9593 18.7205L24.4176 20.0955L23.5009 20.5538L22.1259 19.1788L20.7509 21.0121H19.8343L18.9176 19.6371L20.2926 16.4288L23.5009 15.0538V14.1371L20.7509 14.5955L20.2926 13.6788L21.2038 11.8574C16.3638 12.0994 12.5009 16.1135 12.5009 21.0121C12.5009 26.0666 16.6131 30.1788 21.6676 30.1788Z" fill="#CAF7FF"/>
<path d="M9.4184 39.7394H10.4695L12.9411 45.7764H13.0264L15.4979 39.7394H16.5491V47.0121H15.7252V41.4866H15.6542L13.3815 47.0121H12.586L10.3133 41.4866H10.2423V47.0121H9.4184V39.7394ZM19.8064 47.14C19.4607 47.14 19.147 47.0749 18.8653 46.9447C18.5836 46.8121 18.3599 46.6215 18.1941 46.3729C18.0284 46.122 17.9456 45.819 17.9456 45.4639C17.9456 45.1514 18.0071 44.898 18.1302 44.7039C18.2533 44.5074 18.4179 44.3535 18.6238 44.2423C18.8298 44.131 19.0571 44.0481 19.3057 43.9937C19.5566 43.9369 19.8087 43.8919 20.062 43.8587C20.3935 43.8161 20.6622 43.7842 20.8682 43.7629C21.0765 43.7392 21.228 43.7001 21.3227 43.6457C21.4198 43.5912 21.4683 43.4965 21.4683 43.3616V43.3332C21.4683 42.9828 21.3724 42.7105 21.1807 42.5164C20.9913 42.3223 20.7036 42.2252 20.3177 42.2252C19.9176 42.2252 19.6039 42.3128 19.3767 42.488C19.1494 42.6632 18.9896 42.8502 18.8973 43.0491L18.1018 42.765C18.2439 42.4335 18.4333 42.1755 18.67 41.9908C18.9091 41.8038 19.1695 41.6736 19.4512 41.6002C19.7353 41.5245 20.0147 41.4866 20.2893 41.4866C20.4645 41.4866 20.6657 41.5079 20.893 41.5505C21.1227 41.5907 21.344 41.6748 21.5571 41.8026C21.7725 41.9305 21.9512 42.1234 22.0933 42.3815C22.2353 42.6395 22.3064 42.9852 22.3064 43.4184V47.0121H21.4683V46.2735H21.4257C21.3689 46.3919 21.2742 46.5185 21.1416 46.6535C21.009 46.7884 20.8326 46.9032 20.6125 46.9979C20.3923 47.0926 20.1236 47.14 19.8064 47.14ZM19.9342 46.3871C20.2656 46.3871 20.545 46.322 20.7723 46.1918C21.0019 46.0616 21.1747 45.8935 21.2907 45.6876C21.4091 45.4816 21.4683 45.265 21.4683 45.0377V44.2707C21.4328 44.3133 21.3547 44.3523 21.2339 44.3879C21.1155 44.421 20.9782 44.4506 20.822 44.4766C20.6681 44.5003 20.5178 44.5216 20.371 44.5406C20.2266 44.5571 20.1094 44.5713 20.0194 44.5832C19.8016 44.6116 19.598 44.6577 19.4086 44.7217C19.2216 44.7832 19.0701 44.8767 18.9541 45.0022C18.8405 45.1253 18.7836 45.2934 18.7836 45.5065C18.7836 45.7977 18.8914 46.0178 19.1068 46.167C19.3246 46.3138 19.6004 46.3871 19.9342 46.3871ZM23.836 49.0576V41.5576H24.6457V42.4241H24.7451C24.8067 42.3294 24.8919 42.2086 25.0008 42.0619C25.1121 41.9127 25.2707 41.7801 25.4766 41.6641C25.685 41.5458 25.9667 41.4866 26.3218 41.4866C26.7811 41.4866 27.1859 41.6014 27.5363 41.831C27.8867 42.0607 28.1601 42.3862 28.3566 42.8076C28.5531 43.229 28.6514 43.7262 28.6514 44.2991C28.6514 44.8767 28.5531 45.3774 28.3566 45.8012C28.1601 46.2226 27.8879 46.5493 27.5399 46.7813C27.1918 47.011 26.7906 47.1258 26.336 47.1258C25.9856 47.1258 25.7051 47.0678 25.4944 46.9518C25.2837 46.8334 25.1215 46.6996 25.0079 46.5505C24.8943 46.399 24.8067 46.2735 24.7451 46.1741H24.6741V49.0576H23.836ZM24.6599 44.2849C24.6599 44.6968 24.7202 45.0602 24.841 45.3751C24.9617 45.6876 25.1381 45.9326 25.3701 46.1102C25.6021 46.2853 25.8862 46.3729 26.2224 46.3729C26.5728 46.3729 26.8651 46.2806 27.0995 46.096C27.3363 45.9089 27.5138 45.658 27.6322 45.3431C27.7529 45.0259 27.8133 44.6731 27.8133 44.2849C27.8133 43.9014 27.7541 43.5557 27.6357 43.2479C27.5197 42.9378 27.3434 42.6928 27.1066 42.5129C26.8722 42.3306 26.5775 42.2394 26.2224 42.2394C25.8815 42.2394 25.595 42.3258 25.363 42.4987C25.131 42.6691 24.9558 42.9082 24.8374 43.216C24.7191 43.5214 24.6599 43.8777 24.6599 44.2849ZM31.5349 47.14C31.1892 47.14 30.8756 47.0749 30.5938 46.9447C30.3121 46.8121 30.0884 46.6215 29.9227 46.3729C29.7569 46.122 29.6741 45.819 29.6741 45.4639C29.6741 45.1514 29.7356 44.898 29.8587 44.7039C29.9818 44.5074 30.1464 44.3535 30.3524 44.2423C30.5583 44.131 30.7856 44.0481 31.0342 43.9937C31.2851 43.9369 31.5372 43.8919 31.7906 43.8587C32.122 43.8161 32.3907 43.7842 32.5967 43.7629C32.805 43.7392 32.9565 43.7001 33.0512 43.6457C33.1483 43.5912 33.1968 43.4965 33.1968 43.3616V43.3332C33.1968 42.9828 33.1009 42.7105 32.9092 42.5164C32.7198 42.3223 32.4321 42.2252 32.0462 42.2252C31.6461 42.2252 31.3325 42.3128 31.1052 42.488C30.8779 42.6632 30.7181 42.8502 30.6258 43.0491L29.8303 42.765C29.9724 42.4335 30.1618 42.1755 30.3985 41.9908C30.6376 41.8038 30.898 41.6736 31.1798 41.6002C31.4639 41.5245 31.7432 41.4866 32.0178 41.4866C32.193 41.4866 32.3943 41.5079 32.6215 41.5505C32.8512 41.5907 33.0725 41.6748 33.2856 41.8026C33.501 41.9305 33.6798 42.1234 33.8218 42.3815C33.9639 42.6395 34.0349 42.9852 34.0349 43.4184V47.0121H33.1968V46.2735H33.1542C33.0974 46.3919 33.0027 46.5185 32.8701 46.6535C32.7375 46.7884 32.5612 46.9032 32.341 46.9979C32.1208 47.0926 31.8521 47.14 31.5349 47.14ZM31.6627 46.3871C31.9942 46.3871 32.2735 46.322 32.5008 46.1918C32.7304 46.0616 32.9033 45.8935 33.0193 45.6876C33.1376 45.4816 33.1968 45.265 33.1968 45.0377V44.2707C33.1613 44.3133 33.0832 44.3523 32.9624 44.3879C32.8441 44.421 32.7068 44.4506 32.5505 44.4766C32.3966 44.5003 32.2463 44.5216 32.0995 44.5406C31.9551 44.5571 31.8379 44.5713 31.7479 44.5832C31.5301 44.6116 31.3265 44.6577 31.1372 44.7217C30.9501 44.7832 30.7986 44.8767 30.6826 45.0022C30.569 45.1253 30.5122 45.2934 30.5122 45.5065C30.5122 45.7977 30.6199 46.0178 30.8353 46.167C31.0531 46.3138 31.3289 46.3871 31.6627 46.3871Z" fill="#CAF7FF"/>
</svg>
