<svg width="992" height="1667" viewBox="0 0 992 1667" fill="none" xmlns="http://www.w3.org/2000/svg">
<path fill-rule="evenodd" clip-rule="evenodd" d="M991.915 474.249V1645.18C902.432 1675.74 850.838 1676.34 804.725 1626.8C756.895 1575.42 664.647 1547.55 608 1557.5C534 1570.5 393.5 1575.41 337.5 1544C291.16 1518.01 209.67 1471 156 1471C85.6697 1471 57.6116 1487.98 0 1518V474.249H991.915Z" fill="url(#paint0_linear_864_69448)" fill-opacity="0.06"/>
<path fill-rule="evenodd" clip-rule="evenodd" d="M990.65 2.87158V1450.29C897.72 1483.01 793 1482.35 752.5 1435.28C712 1388.21 639.5 1365.36 579.154 1373.42C462.5 1389 383 1380.68 321 1338C282.5 1311.5 196.5 1277.5 128.5 1277.5C60.5 1277.5 37.8076 1295.86 0 1309.5V2.87158H990.65Z" fill="url(#paint1_linear_864_69448)"/>
<path fill-rule="evenodd" clip-rule="evenodd" d="M0 2.87188C10.9765 102.311 219.685 633.193 341.01 683.85C439.674 723.804 503.249 814.8 547.786 910.475C613.968 1056.48 694.059 1116.14 775.953 1188.61C842.612 1242.43 861.748 1278.45 875.777 1368.14C898.33 1435.36 935.428 1439.45 991.59 1449C991.696 312.381 992 0 992 0L0 2.87188Z" fill="url(#paint2_linear_864_69448)"/>
<defs>
<linearGradient id="paint0_linear_864_69448" x1="1547.95" y1="1207.41" x2="2608.72" y2="1813.32" gradientUnits="userSpaceOnUse">
<stop stop-color="#9F5AF6"/>
<stop offset="1" stop-color="#E00DFF"/>
</linearGradient>
<linearGradient id="paint1_linear_864_69448" x1="77.3626" y1="800.707" x2="1130.56" y2="1393.56" gradientUnits="userSpaceOnUse">
<stop stop-color="#9F5AF6"/>
<stop offset="1" stop-color="#E00DFF"/>
</linearGradient>
<linearGradient id="paint2_linear_864_69448" x1="541.181" y1="1117.6" x2="1052.57" y2="735.897" gradientUnits="userSpaceOnUse">
<stop stop-color="#DC12FF"/>
<stop offset="1" stop-color="#9F5AF6"/>
</linearGradient>
</defs>
</svg>
