<svg width="44" height="44" viewBox="0 0 44 44" fill="none" xmlns="http://www.w3.org/2000/svg">
<path d="M44 22C44 34.1503 34.1503 44 22 44C9.84974 44 0 34.1503 0 22C0 9.84974 9.84974 0 22 0C34.1503 0 44 9.84974 44 22Z" fill="url(#paint0_linear_819_69381)"/>
<path d="M16.4323 11.9853C16.2682 11.8207 16.2682 11.554 16.4323 11.3896C19.5012 8.31971 24.4988 8.31971 27.5677 11.3896C27.8314 11.6535 27.6452 12.1082 27.2687 12.1082C27.1632 12.1082 27.0548 12.0672 26.9727 11.9853C24.2291 9.24338 19.7679 9.24338 17.0273 11.9853C16.8632 12.1498 16.5964 12.1498 16.4323 11.9853ZM24.9824 14.3952C25.3587 14.3952 25.5452 13.9406 25.2814 13.6765C23.4721 11.8646 20.5292 11.8633 18.7186 13.6765C18.5545 13.8411 18.5545 14.1077 18.7186 14.2722C18.8828 14.4362 19.1495 14.4362 19.3136 14.2722C20.7933 12.7921 23.2014 12.7915 24.6817 14.2705C24.7644 14.3532 24.8752 14.3952 24.9824 14.3952ZM29.9888 26.3013V28.4525C29.9888 28.7826 29.7191 29.0511 29.3908 29.0511H29.1856C28.6023 29.0511 28.0953 29.3834 27.8637 29.9185C27.6702 30.3649 27.4241 30.7899 27.1339 31.1818C26.7851 31.6501 26.7499 32.2555 27.043 32.7613C27.1632 32.9693 27.2754 33.1241 27.2042 33.393C27.1631 33.5481 27.0635 33.6778 26.9257 33.7569L25.0615 34.8327C24.7772 34.9979 24.4108 34.8996 24.2437 34.6132L24.1412 34.4358C23.8488 33.928 23.3022 33.6572 22.7313 33.7244C22.2447 33.7799 21.7523 33.7799 21.2686 33.7244C20.6912 33.6586 20.149 33.9309 19.8587 34.4358C19.7404 34.6411 19.6574 34.8202 19.3927 34.8917C19.2374 34.9332 19.0732 34.912 18.9384 34.8327L17.0742 33.7569C16.787 33.5918 16.6902 33.2252 16.8544 32.9394L16.957 32.7613C17.25 32.2555 17.2149 31.6502 16.8661 31.1818C16.5759 30.7894 16.3296 30.3649 16.1362 29.9185C15.9047 29.3834 15.3976 29.0511 14.8142 29.0511H14.6091C14.2808 29.0511 14.0112 28.7825 14.0112 28.4525V26.3013C14.0112 25.9712 14.2808 25.7022 14.6091 25.7022H14.8142C15.3975 25.7022 15.9046 25.3703 16.1362 24.8352C16.3296 24.3888 16.5759 23.9638 16.8661 23.5718C17.2149 23.103 17.25 22.4982 16.957 21.9923C16.8367 21.7843 16.7246 21.6295 16.7958 21.3606C16.8368 21.2056 16.9364 21.0759 17.0742 20.9968L18.9384 19.9209C19.2217 19.7553 19.5892 19.8557 19.7562 20.1405L19.8587 20.3179C20.149 20.8227 20.6883 21.095 21.2686 21.0293C21.7552 20.9737 22.2447 20.9737 22.7313 21.0293C23.3087 21.095 23.851 20.8227 24.1412 20.3179C24.2608 20.1101 24.3384 19.9339 24.6072 19.862C24.7626 19.8204 24.9238 19.8412 25.0616 19.9209L26.9258 20.9968C27.2101 21.1618 27.3098 21.5285 27.1456 21.8143L27.0401 21.9929C26.75 22.4981 26.7851 23.1035 27.131 23.5724C27.4241 23.9642 27.6704 24.3893 27.8638 24.8351C28.0953 25.3702 28.6024 25.7021 29.1857 25.7021H29.3909C29.7191 25.7022 29.9888 25.9711 29.9888 26.3013ZM24.0415 23.8391C22.0923 22.7128 19.5892 23.3838 18.4636 25.3343C17.3351 27.285 18.0063 29.7883 19.9584 30.9146C21.8914 32.0303 24.3999 31.3888 25.5364 29.4192C26.6649 27.4687 25.9937 24.9655 24.0415 23.8391ZM21.9985 15.0971C22.5877 15.0971 23.0684 15.5766 23.0684 16.1655C23.0684 16.754 22.5877 17.233 21.9985 17.233C21.4123 17.233 20.9316 16.754 20.9316 16.1655C20.9316 15.5766 21.4123 15.0971 21.9985 15.0971ZM21.7728 16.1656C21.7728 16.4607 22.2242 16.4641 22.2242 16.1656C22.2242 15.8658 21.7728 15.8692 21.7728 16.1656Z" fill="#FAF7FF"/>
<defs>
<linearGradient id="paint0_linear_819_69381" x1="2.57506" y1="1.00586" x2="11.7961" y2="46.5328" gradientUnits="userSpaceOnUse">
<stop stop-color="#9F5AF6"/>
<stop offset="1" stop-color="#E506FF"/>
</linearGradient>
</defs>
</svg>
