<svg width="48" height="49" viewBox="0 0 48 49" fill="none" xmlns="http://www.w3.org/2000/svg">
<path d="M48 24.5C48 37.7548 37.2548 48.5 24 48.5C10.7452 48.5 0 37.7548 0 24.5C0 11.2452 10.7452 0.5 24 0.5C37.2548 0.5 48 11.2452 48 24.5Z" fill="url(#paint0_linear_818_69375)"/>
<path d="M26.9011 24.2551L29.1369 26.4909C29.1413 26.4952 29.1439 26.5004 29.1482 26.5048C28.5974 26.4246 28.0316 26.4796 27.5071 26.6841L25.9896 25.1667C25.4869 24.6639 24.6693 24.6639 24.1666 25.1667C23.6639 25.6693 23.6639 26.487 24.1666 26.9896C24.2524 27.0754 26.5317 29.3547 26.4024 29.2254C26.9091 29.7322 27.7404 29.7105 28.2254 29.2254C28.4767 28.9742 28.8857 28.9742 29.1369 29.2254L29.5282 29.6167C29.4197 29.8012 29.2953 29.9786 29.1369 30.137C28.1822 31.0917 26.5387 31.168 25.5048 30.1483C25.5004 30.144 25.4952 30.1413 25.4909 30.137L23.2551 27.9012C22.2483 26.8943 22.2483 25.262 23.2551 24.2551C24.262 23.2483 25.8943 23.2483 26.9011 24.2551Z" fill="#FAF7FF"/>
<path d="M28.488 31.311L30.0104 32.8334C30.513 33.3361 31.3307 33.3361 31.8333 32.8334C32.336 32.3307 32.336 31.5131 31.8333 31.0104C31.7476 30.9246 29.4634 28.6404 29.5927 28.7697C29.086 28.263 28.2547 28.2846 27.7696 28.7697C27.5184 29.021 27.1094 29.021 26.8581 28.7697L26.4668 28.3784C26.5754 28.194 26.6998 28.0165 26.8581 27.8582C27.8111 26.9052 29.4533 26.8241 30.4903 27.8469C30.4946 27.8512 30.4998 27.8539 30.5042 27.8582L32.7449 30.0989C33.7517 31.1057 33.7517 32.7381 32.7449 33.7449C31.738 34.7517 30.1056 34.7517 29.0988 33.7449L26.8582 31.5042C26.8539 31.4999 26.8512 31.4947 26.8469 31.4903C27.3977 31.5706 27.9635 31.5156 28.488 31.311Z" fill="#FAF7FF"/>
<path d="M24.1856 32.9638H18.542C16.8762 32.9638 15.5213 31.5954 15.5213 29.9133V23.3496C15.5213 22.3835 15.9815 21.465 16.7521 20.8925L22.4864 16.634C23.5575 15.8389 24.9957 15.8389 26.0661 16.634L31.8003 20.8925C32.1386 21.1441 32.6144 21.0701 32.8637 20.7288C33.1125 20.3869 33.0401 19.9063 32.7013 19.6548L26.9672 15.3963C25.3582 14.2014 23.1951 14.201 21.5854 15.3963L15.8508 19.655C14.6919 20.5159 14 21.897 14 23.3496V29.9133C14 32.4425 16.0376 34.5 18.542 34.5H24.1857C24.6058 34.5 24.9463 34.1561 24.9463 33.7319C24.9463 33.3077 24.6057 32.9638 24.1856 32.9638Z" fill="#FAF7FF"/>
<defs>
<linearGradient id="paint0_linear_818_69375" x1="2.80916" y1="1.5973" x2="12.8685" y2="51.263" gradientUnits="userSpaceOnUse">
<stop stop-color="#9F5AF6"/>
<stop offset="1" stop-color="#E506FF"/>
</linearGradient>
</defs>
</svg>
