<svg width="44" height="44" viewBox="0 0 44 44" fill="none" xmlns="http://www.w3.org/2000/svg">
<circle cx="22" cy="22" r="22" fill="url(#paint0_linear_345_84377)"/>
<rect x="11.0215" y="11.0215" width="21.957" height="21.957" stroke="#9F5AF6" stroke-width="0.0429688"/>
<path d="M25.4375 11.6875H18.5625C17.4234 11.6875 16.5 12.6109 16.5 13.75V30.25C16.5 31.3891 17.4234 32.3125 18.5625 32.3125H25.4375C26.5766 32.3125 27.5 31.3891 27.5 30.25V13.75C27.5 12.6109 26.5766 11.6875 25.4375 11.6875Z" stroke="#FAF7FF" stroke-width="1.375" stroke-linecap="round" stroke-linejoin="round"/>
<path d="M18.5625 11.6875H19.5938C19.6849 11.6875 19.7724 11.7237 19.8368 11.7882C19.9013 11.8526 19.9375 11.9401 19.9375 12.0312C19.9375 12.2136 20.0099 12.3885 20.1389 12.5174C20.2678 12.6463 20.4427 12.7188 20.625 12.7188H23.375C23.5573 12.7188 23.7322 12.6463 23.8611 12.5174C23.9901 12.3885 24.0625 12.2136 24.0625 12.0312C24.0625 11.9401 24.0987 11.8526 24.1632 11.7882C24.2276 11.7237 24.3151 11.6875 24.4062 11.6875H25.4375" stroke="#FAF7FF" stroke-width="1.375" stroke-linecap="round" stroke-linejoin="round"/>
<defs>
<linearGradient id="paint0_linear_345_84377" x1="2.57506" y1="1.00586" x2="11.7961" y2="46.5328" gradientUnits="userSpaceOnUse">
<stop stop-color="#9F5AF6"/>
<stop offset="1" stop-color="#E506FF"/>
</linearGradient>
</defs>
</svg>
