<svg width="2673" height="158" viewBox="0 0 2673 158" fill="none" xmlns="http://www.w3.org/2000/svg">
<path d="M831 0H0.5V144.5H2672.5V0H1935.5L1885 75H1772.5L1794.5 30H1648.5L1616.5 86.5H1470L1445.5 129.5H1216L1235 86.5H1026.5L1061.5 15H968L951 45H802.5L831 0Z" fill="black" fill-opacity="0.28"/>
<path d="M830.462 14H0.5V158H2672.5V14H1931.78L1881.91 88.7405H1769.68L1790.63 43.8962H1645.98L1614.06 100.201H1467.91L1443.47 143.052H1214.53L1233.48 100.201H1025.49L1060.9 28.9481H966.132L950.171 58.8443H802.031L830.462 14Z" fill="white"/>
</svg>
