<svg width="1440" height="158" viewBox="0 0 1440 158" fill="none" xmlns="http://www.w3.org/2000/svg">
<path d="M222 0H0V144.5H1443.5V0H1326.5L1276 75H1163.5L1185.5 30H1039.5L1007.5 86.5H861L836.5 129.5H607L626 86.5H417.5L452.5 15H359L342 45H193.5L222 0Z" fill="black" fill-opacity="0.28"/>
<g filter="url(#filter0_i_504_2754)">
<path d="M221.462 14H0V158H1440V14H1322.78L1272.91 88.7405H1160.68L1181.63 43.8962H1036.98L1005.06 100.201H858.912L834.472 143.052H605.528L624.482 100.201H416.488L451.902 28.9481H357.132L341.171 58.8443H193.031L221.462 14Z" fill="white"/>
</g>
<rect y="145" width="1440" height="13" fill="white"/>
<defs>
<filter id="filter0_i_504_2754" x="0" y="14" width="1440" height="149" filterUnits="userSpaceOnUse" color-interpolation-filters="sRGB">
<feFlood flood-opacity="0" result="BackgroundImageFix"/>
<feBlend mode="normal" in="SourceGraphic" in2="BackgroundImageFix" result="shape"/>
<feColorMatrix in="SourceAlpha" type="matrix" values="0 0 0 0 0 0 0 0 0 0 0 0 0 0 0 0 0 0 127 0" result="hardAlpha"/>
<feOffset dy="5"/>
<feGaussianBlur stdDeviation="5"/>
<feComposite in2="hardAlpha" operator="arithmetic" k2="-1" k3="1"/>
<feColorMatrix type="matrix" values="0 0 0 0 0.0666667 0 0 0 0 0.313726 0 0 0 0 0.00392157 0 0 0 0.25 0"/>
<feBlend mode="normal" in2="shape" result="effect1_innerShadow_504_2754"/>
</filter>
</defs>
</svg>
