<svg width="190" height="181" viewBox="0 0 190 181" fill="none" xmlns="http://www.w3.org/2000/svg">
<g filter="url(#filter0_d_484_3068)">
<path fill-rule="evenodd" clip-rule="evenodd" d="M7 3.03825V65.8679C7.25203 108.695 18.1733 128.443 58.7252 132.751H104.865L82.6335 101.681H66.6052C47.3115 101.219 35.8564 101.815 35.5504 73.6316L35.7069 3.06955L7 3.03825Z" stroke="white" stroke-width="4.90613"/>
<path fill-rule="evenodd" clip-rule="evenodd" d="M63.6 3.00745H128.214C153.374 2.68608 178.128 12.7024 178.553 45.5826C178.975 78.2699 166.345 85.2961 156.764 89.9109L181.5 132.782H150.961L130.218 97.925L106.175 98.1755L97.6601 88.4082H63.8505V64.8666H139.484C155.816 64.016 156.439 39.9551 139.484 36.5667H63.6V3.00745Z" stroke="white" stroke-width="4.90613"/>
<path d="M7.504 172C6.832 172 6.496 171.664 6.496 170.992V156.736C6.496 156.064 6.832 155.728 7.504 155.728C8.176 155.728 8.512 156.064 8.512 156.736V169.984H15.16C15.832 169.984 16.168 170.32 16.168 170.992C16.168 171.664 15.832 172 15.16 172H7.504ZM20.4884 172C19.8164 172 19.4804 171.664 19.4804 170.992V156.736C19.4804 156.064 19.8164 155.728 20.4884 155.728H29.1044C29.7764 155.728 30.1124 156.064 30.1124 156.736C30.1124 157.408 29.7764 157.744 29.1044 157.744H21.4964V162.784H26.2724C26.9444 162.784 27.2804 163.12 27.2804 163.792C27.2804 164.464 26.9444 164.8 26.2724 164.8H21.4964V169.984H29.1044C29.7764 169.984 30.1124 170.32 30.1124 170.992C30.1124 171.664 29.7764 172 29.1044 172H20.4884ZM33.1733 171.904C32.5333 171.656 32.3413 171.216 32.5973 170.584L38.3093 156.52C38.5493 155.992 38.9253 155.728 39.4373 155.728H39.4853C40.0053 155.752 40.3573 156.016 40.5413 156.52L46.3493 170.584C46.6053 171.216 46.4213 171.656 45.7973 171.904C45.1653 172.152 44.7253 171.968 44.4773 171.352L43.1813 168.208H35.7053L34.4693 171.352C34.2213 171.976 33.7893 172.16 33.1733 171.904ZM36.4973 166.192H42.3533L39.3653 158.92L36.4973 166.192ZM54.4913 172C52.6593 172 51.3033 171.564 50.4233 170.692C49.5513 169.812 49.1153 168.456 49.1153 166.624V161.104C49.1153 159.256 49.5513 157.896 50.4233 157.024C51.2953 156.144 52.6433 155.712 54.4673 155.728H57.3713C58.8753 155.728 60.0233 156.04 60.8153 156.664C61.6073 157.28 62.0673 158.256 62.1953 159.592C62.2433 159.928 62.1793 160.184 62.0033 160.36C61.8273 160.536 61.5713 160.624 61.2353 160.624C60.6273 160.624 60.2753 160.288 60.1793 159.616C60.0993 158.88 59.8433 158.384 59.4113 158.128C58.9873 157.872 58.3073 157.744 57.3713 157.744H54.4673C53.6193 157.736 52.9513 157.832 52.4633 158.032C51.9833 158.232 51.6393 158.58 51.4313 159.076C51.2313 159.564 51.1313 160.24 51.1313 161.104V166.624C51.1313 167.48 51.2313 168.152 51.4313 168.64C51.6393 169.128 51.9873 169.476 52.4753 169.684C52.9633 169.884 53.6353 169.984 54.4913 169.984H57.3713C58.1153 169.984 58.6953 169.904 59.1113 169.744C59.5353 169.576 59.8313 169.284 59.9993 168.868C60.1673 168.452 60.2513 167.864 60.2513 167.104V165.976L58.3793 165.952C57.7073 165.952 57.3713 165.616 57.3713 164.944C57.3713 164.272 57.7073 163.936 58.3793 163.936L61.2593 163.96C61.9313 163.96 62.2673 164.296 62.2673 164.968V167.104C62.2673 168.808 61.8713 170.052 61.0793 170.836C60.2873 171.612 59.0513 172 57.3713 172H54.4913ZM71.7051 172C69.8731 172 68.5171 171.564 67.6371 170.692C66.7651 169.812 66.3291 168.456 66.3291 166.624V156.736C66.3291 156.4 66.4131 156.148 66.5811 155.98C66.7491 155.812 67.0011 155.728 67.3371 155.728C67.6731 155.728 67.9251 155.812 68.0931 155.98C68.2611 156.148 68.3451 156.4 68.3451 156.736V166.624C68.3451 167.48 68.4451 168.152 68.6451 168.64C68.8531 169.128 69.2011 169.476 69.6891 169.684C70.1771 169.884 70.8491 169.984 71.7051 169.984H74.5851C75.4411 169.984 76.1131 169.884 76.6011 169.684C77.0891 169.476 77.4331 169.128 77.6331 168.64C77.8411 168.152 77.9451 167.48 77.9451 166.624V156.736C77.9451 156.4 78.0291 156.148 78.1971 155.98C78.3651 155.812 78.6171 155.728 78.9531 155.728C79.2891 155.728 79.5411 155.812 79.7091 155.98C79.8771 156.148 79.9611 156.4 79.9611 156.736V166.624C79.9611 168.456 79.5251 169.812 78.6531 170.692C77.7811 171.564 76.4251 172 74.5851 172H71.7051ZM85.8321 172C85.1601 172 84.8241 171.664 84.8241 170.992V156.736C84.8241 156.064 85.1601 155.728 85.8321 155.728H94.4481C95.1201 155.728 95.4561 156.064 95.4561 156.736C95.4561 157.408 95.1201 157.744 94.4481 157.744H86.8401V162.784H91.6161C92.2881 162.784 92.6241 163.12 92.6241 163.792C92.6241 164.464 92.2881 164.8 91.6161 164.8H86.8401V169.984H94.4481C95.1201 169.984 95.4561 170.32 95.4561 170.992C95.4561 171.664 95.1201 172 94.4481 172H85.8321ZM117.296 172.048C117.032 172.216 116.78 172.268 116.54 172.204C116.3 172.14 116.096 171.976 115.928 171.712L112.208 165.52H108.848V170.992C108.848 171.664 108.512 172 107.84 172C107.168 172 106.832 171.664 106.832 170.992V156.736C106.832 156.064 107.168 155.728 107.84 155.728H113.456C114.92 155.728 116.04 156.12 116.816 156.904C117.6 157.68 117.992 158.8 117.992 160.264V160.984C117.992 162.256 117.696 163.272 117.104 164.032C116.512 164.784 115.656 165.252 114.536 165.436L117.68 170.68C117.984 171.24 117.856 171.696 117.296 172.048ZM108.848 163.504H113.456C114.368 163.504 115.016 163.312 115.4 162.928C115.784 162.544 115.976 161.896 115.976 160.984V160.264C115.976 159.36 115.784 158.716 115.4 158.332C115.016 157.94 114.368 157.744 113.456 157.744H108.848V163.504ZM121.064 171.904C120.424 171.656 120.232 171.216 120.488 170.584L126.2 156.52C126.44 155.992 126.816 155.728 127.328 155.728H127.376C127.896 155.752 128.248 156.016 128.432 156.52L134.24 170.584C134.496 171.216 134.312 171.656 133.688 171.904C133.056 172.152 132.616 171.968 132.368 171.352L131.072 168.208H123.596L122.36 171.352C122.112 171.976 121.68 172.16 121.064 171.904ZM124.388 166.192H130.244L127.256 158.92L124.388 166.192ZM138.824 172C138.152 172 137.816 171.664 137.816 170.992V156.736C137.816 156.064 138.152 155.728 138.824 155.728C139.168 155.728 139.504 155.928 139.832 156.328L149.48 168.76H148.976V156.736C148.976 156.064 149.312 155.728 149.984 155.728C150.656 155.728 150.992 156.064 150.992 156.736V170.992C150.992 171.664 150.656 172 149.984 172C149.624 172 149.288 171.8 148.976 171.4L139.328 158.968H139.832V170.992C139.832 171.664 139.496 172 138.824 172ZM156.988 172C156.316 172 155.98 171.664 155.98 170.992V156.736C155.98 156.064 156.316 155.728 156.988 155.728C157.66 155.728 157.996 156.064 157.996 156.736V162.436L164.116 156.112C164.58 155.616 165.052 155.608 165.532 156.088C166.028 156.552 166.036 157.024 165.556 157.504L160.456 162.772L166.468 170.248C166.876 170.784 166.828 171.256 166.324 171.664C165.804 172.088 165.332 172.04 164.908 171.52L159.04 164.248L157.996 165.328V170.992C157.996 171.664 157.66 172 156.988 172ZM174.134 172C172.766 172 171.698 171.724 170.93 171.172C170.17 170.62 169.694 169.768 169.502 168.616C169.47 168.264 169.542 168 169.718 167.824C169.894 167.648 170.15 167.56 170.486 167.56C170.822 167.56 171.066 167.64 171.218 167.8C171.378 167.96 171.486 168.208 171.542 168.544C171.662 169.096 171.918 169.476 172.31 169.684C172.71 169.884 173.318 169.984 174.134 169.984H177.59C178.622 169.984 179.322 169.8 179.69 169.432C180.066 169.056 180.254 168.36 180.254 167.344C180.254 166.312 180.062 165.608 179.678 165.232C179.294 164.848 178.598 164.656 177.59 164.656H174.614C173.102 164.656 171.978 164.288 171.242 163.552C170.514 162.808 170.15 161.68 170.15 160.168C170.15 158.664 170.51 157.548 171.23 156.82C171.958 156.092 173.078 155.728 174.59 155.728H177.446C178.718 155.728 179.714 155.988 180.434 156.508C181.162 157.028 181.622 157.824 181.814 158.896C181.862 159.24 181.798 159.504 181.622 159.688C181.446 159.864 181.182 159.952 180.83 159.952C180.51 159.952 180.27 159.868 180.11 159.7C179.95 159.532 179.846 159.288 179.798 158.968C179.67 158.496 179.426 158.176 179.066 158.008C178.706 157.832 178.166 157.744 177.446 157.744H174.59C173.63 157.744 172.986 157.916 172.658 158.26C172.33 158.596 172.166 159.232 172.166 160.168C172.166 161.112 172.334 161.76 172.67 162.112C173.006 162.464 173.654 162.64 174.614 162.64H177.59C179.166 162.64 180.338 163.024 181.106 163.792C181.882 164.56 182.27 165.744 182.27 167.344C182.27 168.936 181.886 170.112 181.118 170.872C180.35 171.624 179.174 172 177.59 172H174.134Z" fill="white"/>
</g>
<defs>
<filter id="filter0_d_484_3068" x="0.546875" y="0.546875" width="189.201" height="179.754" filterUnits="userSpaceOnUse" color-interpolation-filters="sRGB">
<feFlood flood-opacity="0" result="BackgroundImageFix"/>
<feColorMatrix in="SourceAlpha" type="matrix" values="0 0 0 0 0 0 0 0 0 0 0 0 0 0 0 0 0 0 127 0" result="hardAlpha"/>
<feOffset dy="4"/>
<feGaussianBlur stdDeviation="2"/>
<feComposite in2="hardAlpha" operator="out"/>
<feColorMatrix type="matrix" values="0 0 0 0 0 0 0 0 0 0 0 0 0 0 0 0 0 0 0.25 0"/>
<feBlend mode="normal" in2="BackgroundImageFix" result="effect1_dropShadow_484_3068"/>
<feBlend mode="normal" in="SourceGraphic" in2="effect1_dropShadow_484_3068" result="shape"/>
</filter>
</defs>
</svg>
