<svg width="87" height="82" viewBox="0 0 87 82" fill="none" xmlns="http://www.w3.org/2000/svg">
<g filter="url(#filter0_d_484_3036)">
<path fill-rule="evenodd" clip-rule="evenodd" d="M3.36133 2.01693V29.8342C3.4757 48.7956 8.4319 57.5387 26.8347 59.4462H47.7733L37.6846 45.6902H30.4108C21.6551 45.4855 16.4567 45.7494 16.3178 33.2716L16.3888 2.03079L3.36133 2.01693Z" stroke="white" stroke-width="2.1993"/>
<path fill-rule="evenodd" clip-rule="evenodd" d="M29.047 2.0033H58.3695C69.7875 1.86102 81.021 6.29567 81.2138 20.8531C81.4055 35.3251 75.6737 38.4359 71.326 40.4791L82.5512 59.4599H68.6924L59.2787 44.0272L48.368 44.1381L44.5038 39.8138H29.1606V29.3909H63.4839C70.8955 29.0143 71.1782 18.3616 63.4839 16.8614H29.047V2.0033Z" stroke="white" stroke-width="2.1993"/>
<path d="M3.57076 77.6406C3.26952 77.6406 3.1189 77.49 3.1189 77.1888V70.7981C3.1189 70.4969 3.26952 70.3463 3.57076 70.3463C3.872 70.3463 4.02262 70.4969 4.02262 70.7981V76.7369H7.00276C7.304 76.7369 7.45462 76.8875 7.45462 77.1888C7.45462 77.49 7.304 77.6406 7.00276 77.6406H3.57076ZM9.39134 77.6406C9.0901 77.6406 8.93948 77.49 8.93948 77.1888V70.7981C8.93948 70.4969 9.0901 70.3463 9.39134 70.3463H13.2537C13.5549 70.3463 13.7055 70.4969 13.7055 70.7981C13.7055 71.0994 13.5549 71.25 13.2537 71.25H9.8432V73.5093H11.9842C12.2854 73.5093 12.436 73.6599 12.436 73.9612C12.436 74.2624 12.2854 74.413 11.9842 74.413H9.8432V76.7369H13.2537C13.5549 76.7369 13.7055 76.8875 13.7055 77.1888C13.7055 77.49 13.5549 77.6406 13.2537 77.6406H9.39134ZM15.0777 77.5976C14.7908 77.4864 14.7047 77.2892 14.8195 77.0059L17.38 70.7013C17.4876 70.4646 17.6562 70.3463 17.8857 70.3463H17.9072C18.1403 70.357 18.2981 70.4754 18.3806 70.7013L20.9842 77.0059C21.0989 77.2892 21.0165 77.4864 20.7367 77.5976C20.4534 77.7088 20.2562 77.6263 20.145 77.3501L19.564 75.9408H16.2127L15.6587 77.3501C15.5475 77.6299 15.3538 77.7123 15.0777 77.5976ZM16.5678 75.037H19.1929L17.8534 71.7772L16.5678 75.037ZM24.634 77.6406C23.8128 77.6406 23.2049 77.4452 22.8105 77.0543C22.4196 76.6598 22.2241 76.0519 22.2241 75.2307V72.7562C22.2241 71.9278 22.4196 71.3181 22.8105 70.9272C23.2013 70.5328 23.8056 70.3391 24.6233 70.3463H25.9251C26.5993 70.3463 27.1139 70.4861 27.4689 70.7659C27.824 71.042 28.0302 71.4795 28.0876 72.0784C28.1091 72.229 28.0804 72.3438 28.0015 72.4227C27.9226 72.5016 27.8078 72.541 27.6572 72.541C27.3847 72.541 27.2269 72.3904 27.1838 72.0892C27.148 71.7592 27.0332 71.5369 26.8396 71.4221C26.6495 71.3074 26.3447 71.25 25.9251 71.25H24.6233C24.2431 71.2464 23.9437 71.2895 23.7249 71.3791C23.5098 71.4688 23.3556 71.6248 23.2623 71.8471C23.1727 72.0659 23.1278 72.3689 23.1278 72.7562V75.2307C23.1278 75.6144 23.1727 75.9157 23.2623 76.1344C23.3556 76.3532 23.5116 76.5092 23.7303 76.6024C23.9491 76.6921 24.2503 76.7369 24.634 76.7369H25.9251C26.2586 76.7369 26.5186 76.701 26.7051 76.6293C26.8951 76.554 27.0278 76.4231 27.1031 76.2366C27.1785 76.0501 27.2161 75.7866 27.2161 75.4459V74.9402L26.3769 74.9295C26.0757 74.9295 25.9251 74.7788 25.9251 74.4776C25.9251 74.1763 26.0757 74.0257 26.3769 74.0257L27.668 74.0365C27.9692 74.0365 28.1198 74.1871 28.1198 74.4883V75.4459C28.1198 76.2097 27.9423 76.7674 27.5873 77.1188C27.2322 77.4667 26.6782 77.6406 25.9251 77.6406H24.634ZM32.3506 77.6406C31.5293 77.6406 30.9215 77.4452 30.527 77.0543C30.1361 76.6598 29.9406 76.0519 29.9406 75.2307V70.7981C29.9406 70.6475 29.9783 70.5346 30.0536 70.4592C30.1289 70.3839 30.2419 70.3463 30.3925 70.3463C30.5431 70.3463 30.6561 70.3839 30.7314 70.4592C30.8067 70.5346 30.8444 70.6475 30.8444 70.7981V75.2307C30.8444 75.6144 30.8892 75.9157 30.9789 76.1344C31.0721 76.3532 31.2281 76.5092 31.4469 76.6024C31.6656 76.6921 31.9669 76.7369 32.3506 76.7369H33.6416C34.0253 76.7369 34.3266 76.6921 34.5453 76.6024C34.7641 76.5092 34.9183 76.3532 35.008 76.1344C35.1012 75.9157 35.1478 75.6144 35.1478 75.2307V70.7981C35.1478 70.6475 35.1855 70.5346 35.2608 70.4592C35.3361 70.3839 35.4491 70.3463 35.5997 70.3463C35.7503 70.3463 35.8633 70.3839 35.9386 70.4592C36.0139 70.5346 36.0515 70.6475 36.0515 70.7981V75.2307C36.0515 76.0519 35.8561 76.6598 35.4652 77.0543C35.0743 77.4452 34.4664 77.6406 33.6416 77.6406H32.3506ZM38.6834 77.6406C38.3821 77.6406 38.2315 77.49 38.2315 77.1888V70.7981C38.2315 70.4969 38.3821 70.3463 38.6834 70.3463H42.5457C42.847 70.3463 42.9976 70.4969 42.9976 70.7981C42.9976 71.0994 42.847 71.25 42.5457 71.25H39.1352V73.5093H41.2762C41.5774 73.5093 41.7281 73.6599 41.7281 73.9612C41.7281 74.2624 41.5774 74.413 41.2762 74.413H39.1352V76.7369H42.5457C42.847 76.7369 42.9976 76.8875 42.9976 77.1888C42.9976 77.49 42.847 77.6406 42.5457 77.6406H38.6834ZM52.7878 77.6621C52.6695 77.7375 52.5565 77.7608 52.4489 77.7321C52.3414 77.7034 52.2499 77.6299 52.1746 77.5115L50.507 74.7358H49.0008V77.1888C49.0008 77.49 48.8502 77.6406 48.5489 77.6406C48.2477 77.6406 48.0971 77.49 48.0971 77.1888V70.7981C48.0971 70.4969 48.2477 70.3463 48.5489 70.3463H51.0665C51.7227 70.3463 52.2248 70.522 52.5727 70.8735C52.9241 71.2213 53.0998 71.7234 53.0998 72.3797V72.7024C53.0998 73.2726 52.9671 73.7281 52.7018 74.0688C52.4364 74.4059 52.0527 74.6157 51.5506 74.6981L52.96 77.0489C53.0962 77.2999 53.0389 77.5043 52.7878 77.6621ZM49.0008 73.8321H51.0665C51.4753 73.8321 51.7658 73.746 51.9379 73.5739C52.11 73.4017 52.1961 73.1112 52.1961 72.7024V72.3797C52.1961 71.9744 52.11 71.6857 51.9379 71.5136C51.7658 71.3379 51.4753 71.25 51.0665 71.25H49.0008V73.8321ZM54.4769 77.5976C54.19 77.4864 54.104 77.2892 54.2187 77.0059L56.7793 70.7013C56.8869 70.4646 57.0554 70.3463 57.2849 70.3463H57.3065C57.5396 70.357 57.6974 70.4754 57.7798 70.7013L60.3834 77.0059C60.4982 77.2892 60.4157 77.4864 60.136 77.5976C59.8527 77.7088 59.6554 77.6263 59.5443 77.3501L58.9633 75.9408H55.612L55.0579 77.3501C54.9467 77.6299 54.7531 77.7123 54.4769 77.5976ZM55.967 75.037H58.5921L57.2527 71.7772L55.967 75.037ZM62.4385 77.6406C62.1372 77.6406 61.9866 77.49 61.9866 77.1888V70.7981C61.9866 70.4969 62.1372 70.3463 62.4385 70.3463C62.5927 70.3463 62.7433 70.4359 62.8904 70.6152L67.2153 76.1882H66.9894V70.7981C66.9894 70.4969 67.14 70.3463 67.4412 70.3463C67.7425 70.3463 67.8931 70.4969 67.8931 70.7981V77.1888C67.8931 77.49 67.7425 77.6406 67.4412 77.6406C67.2799 77.6406 67.1292 77.551 66.9894 77.3717L62.6644 71.7987H62.8904V77.1888C62.8904 77.49 62.7397 77.6406 62.4385 77.6406ZM70.581 77.6406C70.2798 77.6406 70.1291 77.49 70.1291 77.1888V70.7981C70.1291 70.4969 70.2798 70.3463 70.581 70.3463C70.8822 70.3463 71.0329 70.4969 71.0329 70.7981V73.3533L73.7763 70.5184C73.9843 70.2961 74.1959 70.2925 74.4111 70.5077C74.6334 70.7157 74.637 70.9272 74.4218 71.1424L72.1356 73.5039L74.8307 76.8552C75.0135 77.0955 74.992 77.3071 74.7661 77.49C74.533 77.6801 74.3214 77.6586 74.1313 77.4255L71.5009 74.1656L71.0329 74.6497V77.1888C71.0329 77.49 70.8822 77.6406 70.581 77.6406ZM78.2671 77.6406C77.6539 77.6406 77.1751 77.5169 76.8308 77.2695C76.4901 77.022 76.2768 76.6401 76.1907 76.1237C76.1763 75.9659 76.2086 75.8475 76.2875 75.7686C76.3664 75.6897 76.4812 75.6503 76.6318 75.6503C76.7824 75.6503 76.8918 75.6861 76.9599 75.7579C77.0317 75.8296 77.0801 75.9408 77.1052 76.0914C77.159 76.3388 77.2737 76.5092 77.4495 76.6024C77.6288 76.6921 77.9013 76.7369 78.2671 76.7369H79.8163C80.279 76.7369 80.5928 76.6544 80.7577 76.4895C80.9263 76.3209 81.0106 76.0089 81.0106 75.5535C81.0106 75.0908 80.9245 74.7752 80.7523 74.6067C80.5802 74.4346 80.2682 74.3485 79.8163 74.3485H78.4823C77.8045 74.3485 77.3006 74.1835 76.9707 73.8536C76.6443 73.5201 76.4812 73.0144 76.4812 72.3366C76.4812 71.6624 76.6426 71.1621 76.9653 70.8358C77.2917 70.5095 77.7937 70.3463 78.4715 70.3463H79.7518C80.322 70.3463 80.7685 70.4628 81.0912 70.6959C81.4176 70.929 81.6238 71.2859 81.7099 71.7664C81.7314 71.9206 81.7027 72.039 81.6238 72.1215C81.5449 72.2003 81.4266 72.2398 81.2688 72.2398C81.1253 72.2398 81.0177 72.2021 80.946 72.1268C80.8743 72.0515 80.8277 71.9421 80.8061 71.7987C80.7488 71.5871 80.6394 71.4437 80.478 71.3683C80.3166 71.2895 80.0746 71.25 79.7518 71.25H78.4715C78.0412 71.25 77.7525 71.3271 77.6055 71.4813C77.4584 71.6319 77.3849 71.917 77.3849 72.3366C77.3849 72.7598 77.4602 73.0503 77.6108 73.2081C77.7615 73.3659 78.0519 73.4448 78.4823 73.4448H79.8163C80.5228 73.4448 81.0482 73.6169 81.3925 73.9612C81.7403 74.3055 81.9143 74.8362 81.9143 75.5535C81.9143 76.2671 81.7421 76.7943 81.3979 77.135C81.0536 77.4721 80.5264 77.6406 79.8163 77.6406H78.2671Z" fill="white"/>
</g>
<defs>
<filter id="filter0_d_484_3036" x="0.468615" y="0.898438" width="85.803" height="80.4612" filterUnits="userSpaceOnUse" color-interpolation-filters="sRGB">
<feFlood flood-opacity="0" result="BackgroundImageFix"/>
<feColorMatrix in="SourceAlpha" type="matrix" values="0 0 0 0 0 0 0 0 0 0 0 0 0 0 0 0 0 0 127 0" result="hardAlpha"/>
<feOffset dy="1.7931"/>
<feGaussianBlur stdDeviation="0.896552"/>
<feComposite in2="hardAlpha" operator="out"/>
<feColorMatrix type="matrix" values="0 0 0 0 0 0 0 0 0 0 0 0 0 0 0 0 0 0 0.25 0"/>
<feBlend mode="normal" in2="BackgroundImageFix" result="effect1_dropShadow_484_3036"/>
<feBlend mode="normal" in="SourceGraphic" in2="effect1_dropShadow_484_3036" result="shape"/>
</filter>
</defs>
</svg>
