<svg width="24" height="24" viewBox="0 0 24 24" fill="none" xmlns="http://www.w3.org/2000/svg">
<path d="M12 24C18.6274 24 24 18.6274 24 12C24 5.3726 18.6274 1.52588e-05 12 1.52588e-05C5.37258 1.52588e-05 0 5.3726 0 12C0 18.6274 5.37258 24 12 24Z" fill="#F0F0F0"/>
<path d="M2.48062 4.69417C1.53802 5.92056 0.82725 7.33408 0.41339 8.86966H6.65611L2.48062 4.69417Z" fill="#0052B4"/>
<path d="M23.5866 8.86966C23.1727 7.33412 22.4619 5.92061 21.5194 4.69422L17.344 8.86966H23.5866Z" fill="#0052B4"/>
<path d="M0.41339 15.1305C0.827296 16.666 1.53806 18.0796 2.48062 19.3059L6.65597 15.1305H0.41339Z" fill="#0052B4"/>
<path d="M19.3058 2.48069C18.0795 1.53808 16.666 0.827312 15.1304 0.413405V6.65608L19.3058 2.48069Z" fill="#0052B4"/>
<path d="M4.69416 21.5193C5.92055 22.462 7.33406 23.1727 8.86959 23.5866V17.344L4.69416 21.5193Z" fill="#0052B4"/>
<path d="M8.86955 0.413405C7.33401 0.827312 5.9205 1.53808 4.69416 2.48064L8.86955 6.65603V0.413405Z" fill="#0052B4"/>
<path d="M15.1305 23.5866C16.666 23.1727 18.0795 22.462 19.3058 21.5194L15.1305 17.344V23.5866Z" fill="#0052B4"/>
<path d="M17.344 15.1305L21.5194 19.306C22.4619 18.0796 23.1727 16.666 23.5866 15.1305H17.344Z" fill="#0052B4"/>
<path d="M23.8984 10.4348H13.5653L13.5653 0.101593C13.0529 0.0348903 12.5305 1.52588e-05 12 1.52588e-05C11.4694 1.52588e-05 10.9471 0.0348903 10.4348 0.101593V10.4347L0.101578 10.4348C0.034875 10.9472 0 11.4695 0 12C0 12.5306 0.034875 13.0529 0.101578 13.5652H10.4347L10.4347 23.8984C10.9471 23.9651 11.4694 24 12 24C12.5305 24 13.0529 23.9652 13.5652 23.8984V13.5653L23.8984 13.5653C23.9651 13.0529 24 12.5306 24 12C24 11.4695 23.9651 10.9472 23.8984 10.4348Z" fill="#D80027"/>
<path d="M15.1305 15.1305L20.4853 20.4853C20.7315 20.2391 20.9665 19.9817 21.1906 19.7149L16.6062 15.1305L15.1305 15.1305Z" fill="#D80027"/>
<path d="M8.86955 15.1305L3.51469 20.4853C3.76088 20.7316 4.01827 20.9665 4.28508 21.1907L8.86955 16.6061V15.1305Z" fill="#D80027"/>
<path d="M8.86955 8.86966L3.51473 3.5147C3.26845 3.76089 3.03352 4.01828 2.80936 4.28509L7.39387 8.86961L8.86955 8.86966Z" fill="#D80027"/>
<path d="M15.1305 8.86966L20.4853 3.51475C20.2391 3.26847 19.9817 3.03353 19.7149 2.80942L15.1305 7.39394V8.86966Z" fill="#D80027"/>
</svg>
