<svg width="24" height="24" viewBox="0 0 24 24" fill="none" xmlns="http://www.w3.org/2000/svg">
<path d="M0.746391 16.1739C2.44191 20.7435 6.84042 24 12 24C17.1596 24 21.5581 20.7435 23.2536 16.1739L12 15.1305L0.746391 16.1739Z" fill="#FFDA44"/>
<path d="M12 3.05176e-05C6.84042 3.05176e-05 2.44191 3.25653 0.746391 7.82614L12 8.86958L23.2536 7.82609C21.5581 3.25653 17.1596 3.05176e-05 12 3.05176e-05Z" fill="black"/>
<path d="M0.746391 7.82614C0.264047 9.12612 0 10.5322 0 12C0 13.4679 0.264047 14.8739 0.746391 16.1739H23.2536C23.736 14.8739 24 13.4679 24 12C24 10.5322 23.736 9.12608 23.2536 7.82609L0.746391 7.82614Z" fill="#D80027"/>
</svg>
