<svg width="24" height="24" viewBox="0 0 24 24" fill="none" xmlns="http://www.w3.org/2000/svg">
<path d="M16.8439 5.3102C17.1041 5.05561 17.25 4.71181 17.25 4.35354C17.25 3.99526 17.1041 3.65147 16.8439 3.39688C16.7162 3.27118 16.5639 3.17136 16.396 3.10322C16.2281 3.03509 16.0479 3 15.8658 3C15.6837 3 15.5035 3.03509 15.3356 3.10322C15.1677 3.17136 15.0154 3.27118 14.8877 3.39688L7.15542 11.0424C6.89564 11.2975 6.75 11.6416 6.75 12C6.75 12.3584 6.89564 12.7025 7.15542 12.9576L14.8877 20.6031C15.0154 20.7288 15.1677 20.8286 15.3356 20.8968C15.5035 20.9649 15.6837 21 15.8658 21C16.0479 21 16.2281 20.9649 16.396 20.8968C16.5639 20.8286 16.7162 20.7288 16.8439 20.6031C17.1037 20.348 17.2494 20.0039 17.2494 19.6455C17.2494 19.287 17.1037 18.943 16.8439 18.6878L10.5027 11.9971L16.8439 5.3102Z" fill="white"/>
</svg>
