<svg width="53" height="47" viewBox="0 0 53 47" fill="none" xmlns="http://www.w3.org/2000/svg">
<path d="M30.3854 11.177C31.0323 11.3988 31.621 11.7635 32.1078 12.244L33.6258 13.7638C34.1068 14.2499 34.4719 14.8384 34.6937 15.4853H30.3854V11.177ZM34.9687 17.3186V28.3186C34.9672 29.5338 34.4839 30.6987 33.6247 31.5579C32.7654 32.4172 31.6005 32.9005 30.3854 32.902H23.052C21.8369 32.9005 20.672 32.4172 19.8127 31.5579C18.9535 30.6987 18.4701 29.5338 18.4687 28.3186V15.4853C18.4701 14.2702 18.9535 13.1052 19.8127 12.246C20.672 11.3868 21.8369 10.9034 23.052 10.902H28.552V15.4853C28.552 15.9715 28.7452 16.4379 29.089 16.7817C29.4328 17.1255 29.8991 17.3186 30.3854 17.3186H34.9687ZM31.126 26.8639C31.0553 26.766 30.9659 26.6831 30.8631 26.6199C30.7602 26.5567 30.6459 26.5144 30.5266 26.4955C30.4074 26.4766 30.2856 26.4814 30.1682 26.5097C30.0508 26.538 29.9402 26.5892 29.8427 26.6604C29.2268 27.0891 28.5074 27.3452 27.7591 27.402C27.4659 27.394 27.1852 27.2819 26.9671 27.0857C26.4887 26.7061 25.8984 26.4951 25.2878 26.4853C24.2709 26.5809 23.3023 26.9644 22.4956 27.5908C22.3955 27.6622 22.3107 27.753 22.2464 27.8578C22.1821 27.9626 22.1395 28.0792 22.1212 28.2008C22.1029 28.3224 22.1093 28.4464 22.1399 28.5655C22.1705 28.6846 22.2248 28.7963 22.2995 28.894C22.3741 28.9916 22.4677 29.0733 22.5746 29.1341C22.6815 29.1949 22.7995 29.2335 22.9216 29.2477C23.0437 29.262 23.1675 29.2515 23.2855 29.2169C23.4035 29.1823 23.5133 29.1244 23.6084 29.0465C24.0967 28.6641 24.6749 28.4135 25.2878 28.3186C25.5133 28.3186 25.6279 28.3901 25.9294 28.5936C26.4518 29.0062 27.0972 29.2321 27.7628 29.2353C28.902 29.1832 30.002 28.8035 30.9308 28.1417C31.1255 27.9977 31.2554 27.7825 31.292 27.5431C31.3286 27.3037 31.2689 27.0595 31.126 26.8639ZM31.302 23.7353C31.302 23.4922 31.2054 23.259 31.0335 23.0871C30.8616 22.9152 30.6285 22.8186 30.3854 22.8186H23.052C22.8089 22.8186 22.5757 22.9152 22.4038 23.0871C22.2319 23.259 22.1354 23.4922 22.1354 23.7353C22.1354 23.9784 22.2319 24.2116 22.4038 24.3835C22.5757 24.5554 22.8089 24.652 23.052 24.652H30.3854C30.6285 24.652 30.8616 24.5554 31.0335 24.3835C31.2054 24.2116 31.302 23.9784 31.302 23.7353ZM31.302 20.0686C31.302 19.8255 31.2054 19.5924 31.0335 19.4205C30.8616 19.2486 30.6285 19.152 30.3854 19.152H23.052C22.8089 19.152 22.5757 19.2486 22.4038 19.4205C22.2319 19.5924 22.1354 19.8255 22.1354 20.0686C22.1354 20.3118 22.2319 20.5449 22.4038 20.7168C22.5757 20.8887 22.8089 20.9853 23.052 20.9853H30.3854C30.6285 20.9853 30.8616 20.8887 31.0335 20.7168C31.2054 20.5449 31.302 20.3118 31.302 20.0686Z" fill="#CAF7FF"/>
<path d="M5.91035 41.402C5.83222 41.1629 5.72924 40.9486 5.6014 40.7592C5.47592 40.5675 5.32559 40.4041 5.1504 40.2692C4.97758 40.1342 4.78108 40.0312 4.56091 39.9602C4.34074 39.8892 4.09927 39.8537 3.83648 39.8537C3.40561 39.8537 3.0138 39.965 2.66106 40.1875C2.30831 40.41 2.02777 40.7379 1.81944 41.1712C1.6111 41.6044 1.50694 42.1359 1.50694 42.7656C1.50694 43.3953 1.61229 43.9268 1.82299 44.3601C2.03369 44.7933 2.31896 45.1212 2.67881 45.3437C3.03866 45.5663 3.44349 45.6775 3.8933 45.6775C4.30997 45.6775 4.67692 45.5888 4.99415 45.4112C5.31375 45.2313 5.56233 44.978 5.73989 44.6513C5.91981 44.3222 6.00978 43.9351 6.00978 43.49L6.27966 43.5469H4.09216V42.7656H6.86205V43.5469C6.86205 44.1458 6.73421 44.6667 6.47853 45.1094C6.22521 45.5521 5.87483 45.8953 5.42739 46.1392C4.98231 46.3807 4.47095 46.5014 3.8933 46.5014C3.24936 46.5014 2.68355 46.3499 2.19586 46.0469C1.71053 45.7438 1.33175 45.313 1.05949 44.7543C0.789606 44.1955 0.654663 43.5327 0.654663 42.7656C0.654663 42.1903 0.731604 41.673 0.885487 41.2138C1.04174 40.7521 1.26191 40.3591 1.546 40.0348C1.83009 39.7105 2.16626 39.4619 2.55452 39.2891C2.94278 39.1162 3.3701 39.0298 3.83648 39.0298C4.22 39.0298 4.57749 39.0878 4.90892 39.2038C5.24273 39.3175 5.53984 39.4796 5.80026 39.6903C6.06304 39.8987 6.28203 40.1484 6.45722 40.4396C6.63241 40.7284 6.75315 41.0492 6.81944 41.402H5.91035Z" fill="#CAF7FF"/>
<path d="M10.5437 46.5156C10.0181 46.5156 9.56476 46.3996 9.18361 46.1676C8.80482 45.9332 8.51244 45.6065 8.30647 45.1875C8.10288 44.7661 8.00108 44.276 8.00108 43.7173C8.00108 43.1586 8.10288 42.6662 8.30647 42.24C8.51244 41.8115 8.7989 41.4777 9.16585 41.2386C9.53517 40.9971 9.96604 40.8764 10.4585 40.8764C10.7426 40.8764 11.0231 40.9238 11.3001 41.0185C11.5771 41.1132 11.8292 41.267 12.0565 41.4801C12.2837 41.6908 12.4649 41.9702 12.5998 42.3182C12.7347 42.6662 12.8022 43.0947 12.8022 43.6037V43.9588H8.59767V43.2344H11.9499C11.9499 42.9266 11.8884 42.652 11.7653 42.4105C11.6445 42.169 11.4717 41.9784 11.2468 41.8388C11.0243 41.6991 10.7615 41.6293 10.4585 41.6293C10.1247 41.6293 9.83583 41.7121 9.59199 41.8778C9.35051 42.0412 9.16467 42.2543 9.03446 42.517C8.90425 42.7798 8.83914 43.0615 8.83914 43.3622V43.8452C8.83914 44.2571 8.91017 44.6063 9.05221 44.8927C9.19663 45.1768 9.39667 45.3935 9.65236 45.5426C9.90804 45.6894 10.2051 45.7628 10.5437 45.7628C10.7639 45.7628 10.9627 45.732 11.1403 45.6704C11.3202 45.6065 11.4753 45.5118 11.6055 45.3864C11.7357 45.2585 11.8363 45.0999 11.9073 44.9105L12.717 45.1378C12.6318 45.4124 12.4885 45.6539 12.2873 45.8622C12.0861 46.0682 11.8375 46.2292 11.5416 46.3452C11.2456 46.4588 10.913 46.5156 10.5437 46.5156Z" fill="#CAF7FF"/>
<path d="M17.9407 42.169L17.1879 42.3821C17.1405 42.2566 17.0707 42.1347 16.9783 42.0163C16.8884 41.8956 16.7653 41.7962 16.609 41.718C16.4528 41.6399 16.2527 41.6008 16.0089 41.6008C15.6751 41.6008 15.3969 41.6778 15.1744 41.8317C14.9542 41.9832 14.8441 42.1761 14.8441 42.4105C14.8441 42.6188 14.9199 42.7834 15.0714 42.9041C15.2229 43.0248 15.4596 43.1255 15.7816 43.206L16.5913 43.4048C17.079 43.5232 17.4424 43.7043 17.6815 43.9481C17.9206 44.1896 18.0401 44.5009 18.0401 44.8821C18.0401 45.1946 17.9502 45.4739 17.7703 45.7202C17.5927 45.9664 17.3441 46.1605 17.0245 46.3025C16.7049 46.4446 16.3332 46.5156 15.9095 46.5156C15.3531 46.5156 14.8926 46.3949 14.5281 46.1534C14.1635 45.9119 13.9327 45.5592 13.8356 45.0952L14.631 44.8963C14.7068 45.1899 14.85 45.41 15.0607 45.5568C15.2738 45.7036 15.552 45.777 15.8953 45.777C16.2859 45.777 16.596 45.6941 16.8257 45.5284C17.0577 45.3603 17.1737 45.1591 17.1737 44.9247C17.1737 44.7353 17.1074 44.5767 16.9748 44.4489C16.8422 44.3186 16.6386 44.2216 16.364 44.1577L15.4549 43.9446C14.9554 43.8262 14.5884 43.6427 14.3541 43.3942C14.1221 43.1432 14.006 42.8295 14.006 42.4531C14.006 42.1453 14.0925 41.8731 14.2653 41.6364C14.4405 41.3996 14.6784 41.2138 14.9791 41.0788C15.2821 40.9439 15.6254 40.8764 16.0089 40.8764C16.5487 40.8764 16.9724 40.9948 17.2802 41.2315C17.5903 41.4683 17.8105 41.7808 17.9407 42.169Z" fill="#CAF7FF"/>
<path d="M21.5176 46.5156C21.0062 46.5156 20.5659 46.3949 20.1966 46.1534C19.8272 45.9119 19.5432 45.5793 19.3443 45.1555C19.1454 44.7318 19.046 44.2476 19.046 43.7031C19.046 43.1491 19.1478 42.6603 19.3514 42.2365C19.5574 41.8104 19.8438 41.4777 20.2108 41.2386C20.5801 40.9971 21.011 40.8764 21.5034 40.8764C21.8869 40.8764 22.2326 40.9474 22.5403 41.0895C22.8481 41.2315 23.1002 41.4304 23.2967 41.6861C23.4932 41.9417 23.6151 42.24 23.6625 42.581H22.8244C22.7605 42.3324 22.6184 42.1122 22.3983 41.9204C22.1805 41.7263 21.8869 41.6293 21.5176 41.6293C21.1909 41.6293 20.9044 41.7145 20.6582 41.8849C20.4144 42.053 20.2238 42.2909 20.0865 42.5987C19.9515 42.9041 19.8841 43.2628 19.8841 43.6747C19.8841 44.0961 19.9504 44.4631 20.0829 44.7756C20.2179 45.0881 20.4073 45.3307 20.6511 45.5035C20.8973 45.6764 21.1862 45.7628 21.5176 45.7628C21.7354 45.7628 21.9331 45.7249 22.1106 45.6491C22.2882 45.5734 22.4385 45.4645 22.5616 45.3224C22.6847 45.1804 22.7723 45.0099 22.8244 44.8111H23.6625C23.6151 45.133 23.4979 45.423 23.3109 45.6811C23.1263 45.9368 22.8812 46.1404 22.5758 46.2919C22.2728 46.441 21.9201 46.5156 21.5176 46.5156Z" fill="#CAF7FF"/>
<path d="M25.7257 43.1207V46.402H24.8876V39.1293H25.7257V41.7997H25.7967C25.9245 41.518 26.1163 41.2943 26.372 41.1285C26.63 40.9605 26.9733 40.8764 27.4018 40.8764C27.7735 40.8764 28.099 40.951 28.3784 41.1001C28.6577 41.2469 28.8744 41.473 29.0282 41.7784C29.1845 42.0814 29.2626 42.4673 29.2626 42.9361V46.402H28.4245V42.9929C28.4245 42.5596 28.3121 42.2247 28.0872 41.9879C27.8647 41.7488 27.5557 41.6293 27.1603 41.6293C26.8857 41.6293 26.6395 41.6873 26.4217 41.8033C26.2063 41.9193 26.0358 42.0885 25.9103 42.3111C25.7872 42.5336 25.7257 42.8035 25.7257 43.1207Z" fill="#CAF7FF"/>
<path d="M30.7958 46.402V40.9474H31.6339V46.402H30.7958ZM31.222 40.0383C31.0586 40.0383 30.9177 39.9827 30.7994 39.8714C30.6834 39.7602 30.6254 39.6264 30.6254 39.4702C30.6254 39.3139 30.6834 39.1801 30.7994 39.0689C30.9177 38.9576 31.0586 38.902 31.222 38.902C31.3853 38.902 31.525 38.9576 31.641 39.0689C31.7594 39.1801 31.8185 39.3139 31.8185 39.4702C31.8185 39.6264 31.7594 39.7602 31.641 39.8714C31.525 39.9827 31.3853 40.0383 31.222 40.0383Z" fill="#CAF7FF"/>
<path d="M35.3848 46.5156C34.8734 46.5156 34.4331 46.3949 34.0638 46.1534C33.6944 45.9119 33.4103 45.5793 33.2115 45.1555C33.0126 44.7318 32.9132 44.2476 32.9132 43.7031C32.9132 43.1491 33.015 42.6603 33.2186 42.2365C33.4245 41.8104 33.711 41.4777 34.078 41.2386C34.4473 40.9971 34.8781 40.8764 35.3706 40.8764C35.7541 40.8764 36.0997 40.9474 36.4075 41.0895C36.7153 41.2315 36.9674 41.4304 37.1639 41.6861C37.3604 41.9417 37.4823 42.24 37.5297 42.581H36.6916C36.6277 42.3324 36.4856 42.1122 36.2655 41.9204C36.0477 41.7263 35.7541 41.6293 35.3848 41.6293C35.0581 41.6293 34.7716 41.7145 34.5254 41.8849C34.2816 42.053 34.091 42.2909 33.9537 42.5987C33.8187 42.9041 33.7513 43.2628 33.7513 43.6747C33.7513 44.0961 33.8175 44.4631 33.9501 44.7756C34.0851 45.0881 34.2745 45.3307 34.5183 45.5035C34.7645 45.6764 35.0533 45.7628 35.3848 45.7628C35.6026 45.7628 35.8003 45.7249 35.9778 45.6491C36.1554 45.5734 36.3057 45.4645 36.4288 45.3224C36.5519 45.1804 36.6395 45.0099 36.6916 44.8111H37.5297C37.4823 45.133 37.3651 45.423 37.1781 45.6811C36.9934 45.9368 36.7484 46.1404 36.443 46.2919C36.14 46.441 35.7872 46.5156 35.3848 46.5156Z" fill="#CAF7FF"/>
<path d="M39.5929 43.1207V46.402H38.7548V39.1293H39.5929V41.7997H39.6639C39.7917 41.518 39.9835 41.2943 40.2392 41.1285C40.4972 40.9605 40.8405 40.8764 41.269 40.8764C41.6407 40.8764 41.9662 40.951 42.2456 41.1001C42.5249 41.2469 42.7415 41.473 42.8954 41.7784C43.0517 42.0814 43.1298 42.4673 43.1298 42.9361V46.402H42.2917V42.9929C42.2917 42.5596 42.1793 42.2247 41.9544 41.9879C41.7318 41.7488 41.4229 41.6293 41.0275 41.6293C40.7529 41.6293 40.5067 41.6873 40.2889 41.8033C40.0735 41.9193 39.903 42.0885 39.7775 42.3111C39.6544 42.5336 39.5929 42.8035 39.5929 43.1207Z" fill="#CAF7FF"/>
<path d="M47.0352 40.9474V41.6577H44.2085V40.9474H47.0352ZM45.0323 39.6406H45.8704V44.8395C45.8704 45.0762 45.9047 45.2538 45.9734 45.3721C46.0444 45.4882 46.1344 45.5663 46.2433 45.6065C46.3545 45.6444 46.4717 45.6633 46.5948 45.6633C46.6872 45.6633 46.7629 45.6586 46.8221 45.6491C46.8813 45.6373 46.9286 45.6278 46.9641 45.6207L47.1346 46.3736C47.0778 46.3949 46.9985 46.4162 46.8967 46.4375C46.7949 46.4612 46.6658 46.473 46.5096 46.473C46.2729 46.473 46.0408 46.4221 45.8136 46.3203C45.5887 46.2185 45.4016 46.0634 45.2525 45.8551C45.1057 45.6468 45.0323 45.384 45.0323 45.0668V39.6406Z" fill="#CAF7FF"/>
<path d="M50.5242 46.5156C49.9986 46.5156 49.5452 46.3996 49.1641 46.1676C48.7853 45.9332 48.4929 45.6065 48.2869 45.1875C48.0833 44.7661 47.9815 44.276 47.9815 43.7173C47.9815 43.1586 48.0833 42.6662 48.2869 42.24C48.4929 41.8115 48.7794 41.4777 49.1463 41.2386C49.5156 40.9971 49.9465 40.8764 50.4389 40.8764C50.723 40.8764 51.0036 40.9238 51.2806 41.0185C51.5575 41.1132 51.8097 41.267 52.0369 41.4801C52.2642 41.6908 52.4453 41.9702 52.5803 42.3182C52.7152 42.6662 52.7827 43.0947 52.7827 43.6037V43.9588H48.5781V43.2344H51.9304C51.9304 42.9266 51.8689 42.652 51.7458 42.4105C51.625 42.169 51.4522 41.9784 51.2273 41.8388C51.0047 41.6991 50.742 41.6293 50.4389 41.6293C50.1051 41.6293 49.8163 41.7121 49.5725 41.8778C49.331 42.0412 49.1451 42.2543 49.0149 42.517C48.8847 42.7798 48.8196 43.0615 48.8196 43.3622V43.8452C48.8196 44.2571 48.8906 44.6063 49.0327 44.8927C49.1771 45.1768 49.3771 45.3935 49.6328 45.5426C49.8885 45.6894 50.1856 45.7628 50.5242 45.7628C50.7443 45.7628 50.9432 45.732 51.1208 45.6704C51.3007 45.6065 51.4557 45.5118 51.5859 45.3864C51.7162 45.2585 51.8168 45.0999 51.8878 44.9105L52.6975 45.1378C52.6122 45.4124 52.469 45.6539 52.2678 45.8622C52.0665 46.0682 51.818 46.2292 51.522 46.3452C51.2261 46.4588 50.8935 46.5156 50.5242 46.5156Z" fill="#CAF7FF"/>
</svg>
