<svg width="42" height="48" viewBox="0 0 42 48" fill="none" xmlns="http://www.w3.org/2000/svg">
<g clip-path="url(#clip0_58_319)">
<path d="M28.3333 16.0647V16.0839C28.3333 16.3956 28.0803 16.6486 27.7687 16.6486H27.479C27.3681 17.8173 26.9134 19.152 26.0059 20.1924C26.5028 20.494 27.0986 20.7094 27.8246 20.7782C28.1133 20.8057 28.3333 21.0495 28.3333 21.3401V21.3593C28.3333 21.6948 28.0437 21.9533 27.71 21.9212C26.6678 21.8213 25.8226 21.473 25.136 20.9844C24.4457 21.4776 23.5905 21.8232 22.54 21.9212C22.2063 21.9524 21.9176 21.6939 21.9176 21.3584V21.3392C21.9176 21.0449 22.1449 20.8038 22.4383 20.7763C23.1606 20.7076 23.7564 20.4949 24.2505 20.1943C23.9489 19.8487 23.6959 19.4701 23.4897 19.0759C23.2926 18.6992 23.5722 18.2482 23.9966 18.2482C24.2056 18.2482 24.3999 18.3609 24.4962 18.5461C24.6648 18.8688 24.8766 19.1786 25.1305 19.4628C25.8803 18.6194 26.2232 17.5304 26.3249 16.6477H22.4832C22.1715 16.6477 21.9185 16.3947 21.9185 16.083V16.0637C21.9185 15.7521 22.1715 15.4991 22.4832 15.4991H24.5521V15.1471C24.5521 14.8354 24.8051 14.5824 25.1167 14.5824H25.136C25.4477 14.5824 25.7007 14.8354 25.7007 15.1471V15.4991H27.7696C28.0813 15.4991 28.3342 15.7521 28.3342 16.0637L28.3333 16.0647ZM15.4872 15.8667C15.4523 15.8667 15.4221 15.8905 15.4148 15.9244L14.6713 19.075H16.2819L15.5605 15.9244C15.5523 15.8905 15.522 15.8667 15.4872 15.8667ZM32 15.0417V21.4583C32 24.2386 29.7377 26.5 26.9583 26.5H15.0417C12.2578 26.5 10 24.2432 10 21.4583V15.0417C10 12.2568 12.2578 10 15.0417 10H26.9583C29.7377 10 32 12.2614 32 15.0417ZM18.0703 21.132L16.8209 15.6797C16.7228 15.2543 16.4515 14.8675 16.0491 14.6988C15.2067 14.3459 14.3487 14.8409 14.1644 15.6348L12.8692 21.1283C12.7738 21.5308 13.08 21.9167 13.4934 21.9167C13.7904 21.9167 14.0489 21.7123 14.1177 21.4226L14.3688 20.3583H16.5771L16.82 21.4189C16.8869 21.7104 17.1463 21.9167 17.4452 21.9167H17.447C17.8586 21.9167 18.1638 21.5335 18.0722 21.132H18.0703ZM29.25 15.0417C29.25 13.7785 28.2224 12.75 26.9583 12.75H21V23.75H26.9583C28.2224 23.75 29.25 22.7215 29.25 21.4583V15.0417Z" fill="#CAF7FF"/>
</g>
<path d="M6.25749 39.9176C6.21487 39.5578 6.04205 39.2784 5.73902 39.0795C5.43599 38.8807 5.0643 38.7812 4.62396 38.7812C4.30199 38.7812 4.02027 38.8333 3.77879 38.9375C3.53968 39.0417 3.35266 39.1849 3.21771 39.3672C3.08514 39.5495 3.01885 39.7566 3.01885 39.9886C3.01885 40.1828 3.06501 40.3497 3.15734 40.4893C3.25204 40.6267 3.37278 40.7415 3.51956 40.8338C3.66634 40.9238 3.82022 40.9983 3.98121 41.0575C4.14219 41.1143 4.29016 41.1605 4.4251 41.196L5.16374 41.3949C5.35313 41.4446 5.56383 41.5133 5.79584 41.6009C6.03021 41.6884 6.25393 41.808 6.467 41.9595C6.68244 42.1087 6.85999 42.3004 6.99967 42.5348C7.13935 42.7692 7.20919 43.0568 7.20919 43.3977C7.20919 43.7907 7.10621 44.1458 6.90024 44.4631C6.69664 44.7803 6.39835 45.0324 6.00535 45.2195C5.61473 45.4065 5.14006 45.5 4.58135 45.5C4.06052 45.5 3.60952 45.416 3.22837 45.2479C2.84958 45.0798 2.55128 44.8454 2.33348 44.5447C2.11804 44.2441 1.99612 43.8949 1.96771 43.4972H2.8768C2.90048 43.7718 2.99281 43.9991 3.15379 44.179C3.31714 44.3565 3.52311 44.4891 3.77169 44.5767C4.02264 44.6619 4.29252 44.7045 4.58135 44.7045C4.91752 44.7045 5.21937 44.6501 5.48689 44.5412C5.75441 44.4299 5.96629 44.276 6.12254 44.0795C6.27879 43.8807 6.35692 43.6487 6.35692 43.3835C6.35692 43.142 6.28945 42.9455 6.1545 42.794C6.01956 42.6425 5.842 42.5194 5.62183 42.4247C5.40166 42.33 5.16374 42.2472 4.90805 42.1761L4.01317 41.9205C3.44499 41.7571 2.99517 41.5239 2.66374 41.2209C2.3323 40.9179 2.16658 40.5213 2.16658 40.0312C2.16658 39.6241 2.27666 39.2689 2.49683 38.9659C2.71937 38.6605 3.01766 38.4238 3.39172 38.2557C3.76814 38.0852 4.18836 38 4.65237 38C5.12112 38 5.53779 38.084 5.90237 38.2521C6.26695 38.4179 6.55578 38.6451 6.76885 38.9339C6.98428 39.2228 7.09792 39.5507 7.10976 39.9176H6.25749Z" fill="#CAF7FF"/>
<path d="M8.54353 47.4176V39.9176H9.35319V40.7841H9.45262C9.51417 40.6894 9.5994 40.5687 9.7083 40.4219C9.81957 40.2727 9.97819 40.1402 10.1842 40.0241C10.3925 39.9058 10.6742 39.8466 11.0293 39.8466C11.4886 39.8466 11.8934 39.9614 12.2438 40.1911C12.5942 40.4207 12.8676 40.7462 13.0641 41.1676C13.2606 41.589 13.3589 42.0862 13.3589 42.6591C13.3589 43.2367 13.2606 43.7375 13.0641 44.1612C12.8676 44.5826 12.5954 44.9093 12.2474 45.1413C11.8994 45.371 11.4981 45.4858 11.0435 45.4858C10.6932 45.4858 10.4126 45.4278 10.2019 45.3118C9.99121 45.1934 9.82904 45.0597 9.7154 44.9105C9.60177 44.759 9.51417 44.6335 9.45262 44.5341H9.3816V47.4176H8.54353ZM9.36739 42.6449C9.36739 43.0568 9.42776 43.4202 9.5485 43.7351C9.66924 44.0476 9.84561 44.2926 10.0776 44.4702C10.3096 44.6454 10.5937 44.733 10.9299 44.733C11.2803 44.733 11.5726 44.6406 11.807 44.456C12.0438 44.2689 12.2213 44.018 12.3397 43.7031C12.4604 43.3859 12.5208 43.0331 12.5208 42.6449C12.5208 42.2614 12.4616 41.9157 12.3432 41.608C12.2272 41.2978 12.0509 41.0528 11.8141 40.8729C11.5798 40.6906 11.285 40.5994 10.9299 40.5994C10.589 40.5994 10.3025 40.6858 10.0705 40.8587C9.83851 41.0291 9.66332 41.2682 9.54495 41.576C9.42658 41.8814 9.36739 42.2377 9.36739 42.6449Z" fill="#CAF7FF"/>
<path d="M14.6373 45.3722V39.9176H15.4469V40.7415H15.5038C15.6032 40.4716 15.7831 40.2526 16.0435 40.0845C16.3039 39.9164 16.5975 39.8324 16.9242 39.8324C16.9858 39.8324 17.0627 39.8336 17.155 39.8359C17.2474 39.8383 17.3172 39.8419 17.3646 39.8466V40.6989C17.3361 40.6918 17.271 40.6811 17.1692 40.6669C17.0698 40.6503 16.9645 40.642 16.8532 40.642C16.588 40.642 16.3513 40.6977 16.143 40.8089C15.937 40.9179 15.7736 41.0694 15.6529 41.2635C15.5345 41.4553 15.4753 41.6742 15.4753 41.9205V45.3722H14.6373Z" fill="#CAF7FF"/>
<path d="M19.9631 45.5C19.6175 45.5 19.3038 45.4349 19.022 45.3047C18.7403 45.1721 18.5166 44.9815 18.3509 44.733C18.1852 44.482 18.1023 44.179 18.1023 43.8239C18.1023 43.5114 18.1639 43.258 18.287 43.0639C18.4101 42.8674 18.5746 42.7135 18.7806 42.6023C18.9865 42.491 19.2138 42.4081 19.4624 42.3537C19.7133 42.2969 19.9655 42.2519 20.2188 42.2188C20.5502 42.1761 20.8189 42.1442 21.0249 42.1229C21.2332 42.0992 21.3847 42.0601 21.4794 42.0057C21.5765 41.9512 21.625 41.8565 21.625 41.7216V41.6932C21.625 41.3428 21.5291 41.0705 21.3374 40.8764C21.148 40.6823 20.8603 40.5852 20.4745 40.5852C20.0744 40.5852 19.7607 40.6728 19.5334 40.848C19.3061 41.0232 19.1463 41.2102 19.054 41.4091L18.2586 41.125C18.4006 40.7936 18.59 40.5355 18.8267 40.3509C19.0658 40.1638 19.3263 40.0336 19.608 39.9602C19.8921 39.8845 20.1714 39.8466 20.4461 39.8466C20.6212 39.8466 20.8225 39.8679 21.0497 39.9105C21.2794 39.9508 21.5007 40.0348 21.7138 40.1626C21.9292 40.2905 22.108 40.4834 22.25 40.7415C22.3921 40.9995 22.4631 41.3452 22.4631 41.7784V45.3722H21.625V44.6335H21.5824C21.5256 44.7519 21.4309 44.8786 21.2983 45.0135C21.1657 45.1484 20.9894 45.2633 20.7692 45.358C20.549 45.4527 20.2803 45.5 19.9631 45.5ZM20.0909 44.7472C20.4224 44.7472 20.7017 44.6821 20.929 44.5518C21.1586 44.4216 21.3315 44.2536 21.4475 44.0476C21.5658 43.8416 21.625 43.625 21.625 43.3977V42.6307C21.5895 42.6733 21.5114 42.7124 21.3907 42.7479C21.2723 42.781 21.135 42.8106 20.9787 42.8366C20.8248 42.8603 20.6745 42.8816 20.5277 42.9006C20.3833 42.9171 20.2661 42.9313 20.1762 42.9432C19.9584 42.9716 19.7548 43.0178 19.5654 43.0817C19.3783 43.1432 19.2268 43.2367 19.1108 43.3622C18.9972 43.4853 18.9404 43.6534 18.9404 43.8665C18.9404 44.1577 19.0481 44.3778 19.2635 44.527C19.4813 44.6738 19.7571 44.7472 20.0909 44.7472Z" fill="#CAF7FF"/>
<path d="M26.2087 45.4858C25.6973 45.4858 25.257 45.3651 24.8876 45.1236C24.5183 44.8821 24.2342 44.5495 24.0354 44.1257C23.8365 43.7019 23.7371 43.2178 23.7371 42.6733C23.7371 42.1193 23.8389 41.6304 24.0425 41.2067C24.2484 40.7805 24.5349 40.4479 24.9018 40.2088C25.2712 39.9673 25.702 39.8466 26.1945 39.8466C26.578 39.8466 26.9236 39.9176 27.2314 40.0597C27.5391 40.2017 27.7913 40.4006 27.9878 40.6562C28.1843 40.9119 28.3062 41.2102 28.3535 41.5511H27.5155C27.4516 41.3026 27.3095 41.0824 27.0893 40.8906C26.8715 40.6965 26.578 40.5994 26.2087 40.5994C25.882 40.5994 25.5955 40.6847 25.3493 40.8551C25.1054 41.0232 24.9149 41.2611 24.7775 41.5689C24.6426 41.8743 24.5751 42.233 24.5751 42.6449C24.5751 43.0663 24.6414 43.4332 24.774 43.7457C24.9089 44.0582 25.0983 44.3009 25.3422 44.4737C25.5884 44.6465 25.8772 44.733 26.2087 44.733C26.4265 44.733 26.6241 44.6951 26.8017 44.6193C26.9793 44.5436 27.1296 44.4347 27.2527 44.2926C27.3758 44.1506 27.4634 43.9801 27.5155 43.7813H28.3535C28.3062 44.1032 28.189 44.3932 28.002 44.6513C27.8173 44.907 27.5723 45.1106 27.2669 45.2621C26.9639 45.4112 26.6111 45.4858 26.2087 45.4858Z" fill="#CAF7FF"/>
<path d="M30.4168 42.0909V45.3722H29.5787V38.0994H30.4168V40.7699H30.4878C30.6156 40.4882 30.8074 40.2644 31.0631 40.0987C31.3211 39.9306 31.6644 39.8466 32.0929 39.8466C32.4646 39.8466 32.7901 39.9212 33.0695 40.0703C33.3488 40.2171 33.5654 40.4432 33.7193 40.7486C33.8756 41.0516 33.9537 41.4375 33.9537 41.9063V45.3722H33.1156V41.9631C33.1156 41.5298 33.0032 41.1948 32.7783 40.9581C32.5557 40.719 32.2468 40.5994 31.8514 40.5994C31.5768 40.5994 31.3306 40.6574 31.1128 40.7734C30.8973 40.8894 30.7269 41.0587 30.6014 41.2812C30.4783 41.5038 30.4168 41.7737 30.4168 42.0909Z" fill="#CAF7FF"/>
<path d="M37.7738 45.4858C37.2483 45.4858 36.7949 45.3698 36.4137 45.1378C36.0349 44.9034 35.7426 44.5767 35.5366 44.1577C35.333 43.7363 35.2312 43.2462 35.2312 42.6875C35.2312 42.1288 35.333 41.6364 35.5366 41.2102C35.7426 40.7817 36.029 40.4479 36.396 40.2088C36.7653 39.9673 37.1962 39.8466 37.6886 39.8466C37.9727 39.8466 38.2532 39.8939 38.5302 39.9886C38.8072 40.0833 39.0593 40.2372 39.2866 40.4503C39.5139 40.661 39.695 40.9403 39.8299 41.2884C39.9649 41.6364 40.0323 42.0649 40.0323 42.5739V42.929H35.8278V42.2045H39.1801C39.1801 41.8968 39.1185 41.6222 38.9954 41.3807C38.8747 41.1392 38.7018 40.9486 38.4769 40.8089C38.2544 40.6693 37.9916 40.5994 37.6886 40.5994C37.3548 40.5994 37.066 40.6823 36.8221 40.848C36.5806 41.0114 36.3948 41.2244 36.2646 41.4872C36.1344 41.75 36.0693 42.0317 36.0693 42.3324V42.8153C36.0693 43.2273 36.1403 43.5765 36.2823 43.8629C36.4268 44.147 36.6268 44.3636 36.8825 44.5128C37.1382 44.6596 37.4353 44.733 37.7738 44.733C37.994 44.733 38.1929 44.7022 38.3704 44.6406C38.5503 44.5767 38.7054 44.482 38.8356 44.3565C38.9658 44.2287 39.0664 44.0701 39.1375 43.8807L39.9471 44.108C39.8619 44.3826 39.7187 44.6241 39.5174 44.8324C39.3162 45.0384 39.0676 45.1993 38.7717 45.3153C38.4758 45.429 38.1431 45.4858 37.7738 45.4858Z" fill="#CAF7FF"/>
<defs>
<clipPath id="clip0_58_319">
<rect width="42" height="30" fill="white"/>
</clipPath>
</defs>
</svg>
