<svg width="42" height="47" viewBox="0 0 42 47" fill="none" xmlns="http://www.w3.org/2000/svg">
<path d="M25.5833 27.4519V32.9519H29.25C30.7688 32.9519 32 31.7207 32 30.2019V21.841C32.0002 21.3648 31.8151 20.9072 31.4839 20.565L23.6941 12.1436C22.3196 10.6564 19.9998 10.5651 18.5127 11.9396C18.442 12.0049 18.374 12.073 18.3087 12.1436L10.5326 20.5623C10.1913 20.9059 9.99987 21.3705 10 21.8548V30.2019C10 31.7207 11.2312 32.9519 12.75 32.9519H16.4167V27.4519C16.4338 24.9524 18.4519 22.9112 20.8885 22.8524C23.4067 22.7916 25.5641 24.8676 25.5833 27.4519Z" fill="#CAF7FF"/>
<path d="M21 24.7019C19.4812 24.7019 18.25 25.9332 18.25 27.4519V32.9519H23.75V27.4519C23.75 25.9332 22.5188 24.7019 21 24.7019Z" fill="#CAF7FF"/>
<path d="M14.1011 40.8696C14.0584 40.5097 13.8856 40.2304 13.5826 40.0315C13.2796 39.8326 12.9079 39.7332 12.4675 39.7332C12.1456 39.7332 11.8638 39.7853 11.6224 39.8895C11.3832 39.9936 11.1962 40.1369 11.0613 40.3192C10.9287 40.5014 10.8624 40.7086 10.8624 40.9406C10.8624 41.1347 10.9086 41.3016 11.0009 41.4413C11.0956 41.5786 11.2163 41.6934 11.3631 41.7858C11.5099 41.8757 11.6638 41.9503 11.8248 42.0095C11.9858 42.0663 12.1337 42.1125 12.2687 42.148L13.0073 42.3469C13.1967 42.3966 13.4074 42.4652 13.6394 42.5528C13.8738 42.6404 14.0975 42.76 14.3106 42.9115C14.526 43.0606 14.7036 43.2524 14.8432 43.4868C14.9829 43.7211 15.0528 44.0088 15.0528 44.3497C15.0528 44.7427 14.9498 45.0978 14.7438 45.415C14.5402 45.7323 14.2419 45.9844 13.8489 46.1714C13.4583 46.3585 12.9836 46.452 12.4249 46.452C11.9041 46.452 11.4531 46.3679 11.0719 46.1998C10.6931 46.0317 10.3948 45.7974 10.177 45.4967C9.96161 45.196 9.83969 44.8469 9.81128 44.4491H10.7204C10.744 44.7237 10.8364 44.951 10.9974 45.1309C11.1607 45.3085 11.3667 45.4411 11.6153 45.5287C11.8662 45.6139 12.1361 45.6565 12.4249 45.6565C12.7611 45.6565 13.0629 45.6021 13.3305 45.4932C13.598 45.3819 13.8099 45.228 13.9661 45.0315C14.1224 44.8326 14.2005 44.6006 14.2005 44.3355C14.2005 44.094 14.133 43.8975 13.9981 43.746C13.8631 43.5945 13.6856 43.4714 13.4654 43.3767C13.2452 43.282 13.0073 43.1991 12.7516 43.1281L11.8567 42.8724C11.2886 42.7091 10.8387 42.4759 10.5073 42.1728C10.1759 41.8698 10.0101 41.4733 10.0101 40.9832C10.0101 40.576 10.1202 40.2209 10.3404 39.9179C10.5629 39.6125 10.8612 39.3757 11.2353 39.2076C11.6117 39.0372 12.0319 38.952 12.4959 38.952C12.9647 38.952 13.3814 39.036 13.7459 39.2041C14.1105 39.3698 14.3993 39.5971 14.6124 39.8859C14.8279 40.1747 14.9415 40.5026 14.9533 40.8696H14.1011Z" fill="#CAF7FF"/>
<path d="M18.7593 40.8696V41.5798H15.9326V40.8696H18.7593ZM16.7564 39.5628H17.5945V44.7616C17.5945 44.9984 17.6288 45.1759 17.6975 45.2943C17.7685 45.4103 17.8585 45.4884 17.9674 45.5287C18.0786 45.5665 18.1958 45.5855 18.3189 45.5855C18.4112 45.5855 18.487 45.5808 18.5462 45.5713C18.6054 45.5594 18.6527 45.55 18.6882 45.5429L18.8587 46.2957C18.8019 46.317 18.7226 46.3383 18.6208 46.3596C18.519 46.3833 18.3899 46.3951 18.2337 46.3951C17.9969 46.3951 17.7649 46.3442 17.5377 46.2424C17.3128 46.1406 17.1257 45.9856 16.9766 45.7772C16.8298 45.5689 16.7564 45.3061 16.7564 44.9889V39.5628Z" fill="#CAF7FF"/>
<path d="M21.625 46.452C21.2794 46.452 20.9657 46.3869 20.684 46.2567C20.4022 46.1241 20.1785 45.9335 20.0128 45.6849C19.8471 45.434 19.7642 45.1309 19.7642 44.7758C19.7642 44.4633 19.8258 44.21 19.9489 44.0159C20.072 43.8194 20.2365 43.6655 20.4425 43.5542C20.6485 43.443 20.8757 43.3601 21.1243 43.3057C21.3753 43.2488 21.6274 43.2039 21.8807 43.1707C22.2121 43.1281 22.4808 43.0961 22.6868 43.0748C22.8951 43.0512 23.0467 43.0121 23.1414 42.9576C23.2384 42.9032 23.287 42.8085 23.287 42.6736V42.6451C23.287 42.2948 23.1911 42.0225 22.9993 41.8284C22.8099 41.6343 22.5223 41.5372 22.1364 41.5372C21.7363 41.5372 21.4226 41.6248 21.1953 41.8C20.9681 41.9752 20.8083 42.1622 20.7159 42.3611L19.9205 42.077C20.0625 41.7455 20.2519 41.4875 20.4887 41.3028C20.7278 41.1158 20.9882 40.9856 21.2699 40.9122C21.554 40.8364 21.8334 40.7986 22.108 40.7986C22.2832 40.7986 22.4844 40.8199 22.7117 40.8625C22.9413 40.9027 23.1627 40.9868 23.3757 41.1146C23.5912 41.2424 23.7699 41.4354 23.912 41.6934C24.054 41.9515 24.125 42.2971 24.125 42.7304V46.3241H23.287V45.5855H23.2443C23.1875 45.7039 23.0928 45.8305 22.9602 45.9655C22.8277 46.1004 22.6513 46.2152 22.4311 46.3099C22.211 46.4046 21.9423 46.452 21.625 46.452ZM21.7529 45.6991C22.0843 45.6991 22.3637 45.634 22.5909 45.5038C22.8206 45.3736 22.9934 45.2055 23.1094 44.9996C23.2278 44.7936 23.287 44.577 23.287 44.3497V43.5826C23.2514 43.6253 23.1733 43.6643 23.0526 43.6998C22.9342 43.733 22.7969 43.7626 22.6406 43.7886C22.4868 43.8123 22.3364 43.8336 22.1897 43.8525C22.0452 43.8691 21.9281 43.8833 21.8381 43.8951C21.6203 43.9236 21.4167 43.9697 21.2273 44.0336C21.0403 44.0952 20.8888 44.1887 20.7727 44.3142C20.6591 44.4373 20.6023 44.6054 20.6023 44.8184C20.6023 45.1096 20.71 45.3298 20.9254 45.479C21.1433 45.6257 21.4191 45.6991 21.7529 45.6991Z" fill="#CAF7FF"/>
<path d="M25.6547 46.3241V40.8696H26.4643V41.6934H26.5212C26.6206 41.4236 26.8005 41.2046 27.0609 41.0365C27.3213 40.8684 27.6149 40.7844 27.9416 40.7844C28.0032 40.7844 28.0801 40.7855 28.1724 40.7879C28.2648 40.7903 28.3346 40.7938 28.3819 40.7986V41.6508C28.3535 41.6437 28.2884 41.6331 28.1866 41.6189C28.0872 41.6023 27.9819 41.594 27.8706 41.594C27.6054 41.594 27.3687 41.6496 27.1604 41.7609C26.9544 41.8698 26.791 42.0213 26.6703 42.2155C26.5519 42.4072 26.4927 42.6262 26.4927 42.8724V46.3241H25.6547Z" fill="#CAF7FF"/>
<path d="M32.0893 40.8696V41.5798H29.2626V40.8696H32.0893ZM30.0865 39.5628H30.9246V44.7616C30.9246 44.9984 30.9589 45.1759 31.0275 45.2943C31.0986 45.4103 31.1885 45.4884 31.2974 45.5287C31.4087 45.5665 31.5259 45.5855 31.649 45.5855C31.7413 45.5855 31.8171 45.5808 31.8763 45.5713C31.9355 45.5594 31.9828 45.55 32.0183 45.5429L32.1888 46.2957C32.1319 46.317 32.0526 46.3383 31.9508 46.3596C31.849 46.3833 31.72 46.3951 31.5638 46.3951C31.327 46.3951 31.095 46.3442 30.8677 46.2424C30.6428 46.1406 30.4558 45.9856 30.3067 45.7772C30.1599 45.5689 30.0865 45.3061 30.0865 44.9889V39.5628Z" fill="#CAF7FF"/>
</svg>
