<?xml version="1.0" encoding="UTF-8" standalone="no"?>
<svg
   width="32"
   height="32"
   viewBox="0 0 32 32"
   fill="none"
   version="1.1"
   id="svg2"
   sodipodi:docname="ico-ira-xl.svg"
   inkscape:version="1.3 (0e150ed6c4, 2023-07-21)"
   xmlns:inkscape="http://www.inkscape.org/namespaces/inkscape"
   xmlns:sodipodi="http://sodipodi.sourceforge.net/DTD/sodipodi-0.dtd"
   xmlns="http://www.w3.org/2000/svg"
   xmlns:svg="http://www.w3.org/2000/svg">
  <defs
     id="defs2" />
  <sodipodi:namedview
     id="namedview2"
     pagecolor="#ffffff"
     bordercolor="#666666"
     borderopacity="1.0"
     inkscape:showpageshadow="2"
     inkscape:pageopacity="0.0"
     inkscape:pagecheckerboard="true"
     inkscape:deskcolor="#d1d1d1"
     inkscape:zoom="17.75"
     inkscape:cx="8"
     inkscape:cy="16.985915"
     inkscape:window-width="1280"
     inkscape:window-height="971"
     inkscape:window-x="1912"
     inkscape:window-y="-8"
     inkscape:window-maximized="1"
     inkscape:current-layer="svg2" />
  <path
     d="M 30.9992,13.5859 18.41406,1.0006864 c -1.33424,-1.33412402 -3.4937,-1.33437402 -4.82814,0 L 1.00071,13.5859 c -1.334248,1.33418 -1.334312,3.49396 0,4.8282 l 12.58521,12.5853 c 1.33424,1.334 3.4937,1.3342 4.82814,0 L 30.9992,18.4141 c 1.3344,-1.33418 1.3344,-3.49396 0,-4.8282 z m -1.414,3.41402 -12.58526,12.58528 c -0.55272,0.5526 -1.44712,0.5526 -1.9999,0 L 2.41482,16.99992 c -0.55259,-0.5526 -0.552652,-1.44712 0,-1.9999 L 15.00004,2.4148604 c 0.55272,-0.552652 1.44712,-0.552714 1.9999,0 L 29.5852,15.00008 c 0,0.01762 0.4142,0.34198 0.4142,0.99994 0,0.37774 -0.1472,0.73278 -0.4142,0.9999 z"
     fill="#ffffff"
     id="path1"
     style="stroke-width:2" />
  <path
     d="m 23.3348,12.89524 c -0.0784,-0.11862 0.1632,0.13848 -3.51468,-3.5967796 -0.38748,-0.39354 -1.02064,-0.39848 -1.41412,-0.01092 -0.39354,0.38748 -0.39842,1.0205596 -0.011,1.4140396 l 1.7706,1.7983 h -9.66528 c -0.55228,0 -0.99996,0.44772 -0.99996,0.99994 v 6.4997 c 0,0.55228 0.44768,0.99988 0.99996,0.99988 0.55228,0 0.99996,-0.4476 0.99996,-0.99988 V 14.49978 H 20.058 l -1.77068,1.79828 c -0.62404,0.6338 -0.16662,1.70156 0.71246,1.70156 0.25856,0 0.51692,-0.09962 0.7126,-0.29836 L 22.994,14.36834 c 0.557,-0.31766 0.6302,-1.035 0.3408,-1.4731 z"
     fill="#ffffff"
     id="path2"
     style="stroke-width:2" />
</svg>
