<svg width="43" height="46" viewBox="0 0 43 46" fill="none" xmlns="http://www.w3.org/2000/svg">
<path d="M17.7707 16.4958L16.7129 19.034L15.0207 18.3291L16.5011 15.9668L17.7707 16.4958ZM32.4374 21.0085C32.4374 27.0741 27.503 32.0085 21.4374 32.0085C15.3718 32.0085 10.4374 27.0741 10.4374 21.0085C10.4374 14.9429 15.3718 10.0085 21.4374 10.0085C27.503 10.0085 32.4374 14.9429 32.4374 21.0085ZM21.4374 30.1752V27.8835L19.604 27.4252L17.7707 25.5918V23.7585L20.0624 21.9252H22.354L25.104 23.7585H26.479L27.854 25.1335L29.5215 25.326C29.736 24.9254 29.922 24.5074 30.076 24.0738L26.9374 22.3835L27.854 21.4668V20.5502L25.104 19.6335V18.2585H27.854V16.4252H26.0207L25.104 18.2585L23.729 18.7168L24.1874 20.0918L23.2707 20.5502L21.8957 19.1752L20.5207 21.0085H19.604L18.6874 19.6335L20.0624 16.4252L23.2707 15.0502V14.1335L20.5207 14.5918L20.0624 13.6752L20.9735 11.8538C16.1335 12.0958 12.2707 16.1098 12.2707 21.0085C12.2707 26.063 16.3829 30.1752 21.4374 30.1752Z" fill="#CAF7FF"/>
<path d="M6.52747 45.2812V38.0085H7.40815V41.6165H7.49337L10.7604 38.0085H11.911L8.85701 41.2898L11.911 45.2812H10.8456L8.31724 41.9006L7.40815 42.9233V45.2812H6.52747Z" fill="#CAF7FF"/>
<path d="M14.5424 45.4091C14.1967 45.4091 13.8831 45.344 13.6013 45.2138C13.3196 45.0812 13.0959 44.8906 12.9302 44.642C12.7644 44.3911 12.6816 44.0881 12.6816 43.7329C12.6816 43.4204 12.7431 43.1671 12.8662 42.973C12.9894 42.7765 13.1539 42.6226 13.3599 42.5114C13.5658 42.4001 13.7931 42.3172 14.0417 42.2628C14.2926 42.206 14.5447 42.161 14.7981 42.1278C15.1295 42.0852 15.3982 42.0533 15.6042 42.032C15.8125 42.0083 15.964 41.9692 16.0587 41.9148C16.1558 41.8603 16.2043 41.7656 16.2043 41.6307V41.6023C16.2043 41.2519 16.1084 40.9796 15.9167 40.7855C15.7273 40.5914 15.4396 40.4943 15.0537 40.4943C14.6536 40.4943 14.34 40.5819 14.1127 40.7571C13.8854 40.9323 13.7256 41.1193 13.6333 41.3182L12.8378 41.0341C12.9799 40.7026 13.1693 40.4446 13.406 40.2599C13.6451 40.0729 13.9055 39.9427 14.1873 39.8693C14.4714 39.7936 14.7507 39.7557 15.0253 39.7557C15.2005 39.7557 15.4018 39.777 15.629 39.8196C15.8587 39.8598 16.08 39.9439 16.2931 40.0717C16.5085 40.1996 16.6873 40.3925 16.8293 40.6506C16.9714 40.9086 17.0424 41.2543 17.0424 41.6875V45.2812H16.2043V44.5426H16.1617C16.1049 44.661 16.0102 44.7876 15.8776 44.9226C15.745 45.0575 15.5687 45.1723 15.3485 45.267C15.1283 45.3617 14.8596 45.4091 14.5424 45.4091ZM14.6702 44.6562C15.0017 44.6562 15.281 44.5911 15.5083 44.4609C15.7379 44.3307 15.9108 44.1626 16.0268 43.9567C16.1451 43.7507 16.2043 43.5341 16.2043 43.3068V42.5398C16.1688 42.5824 16.0907 42.6214 15.9699 42.657C15.8516 42.6901 15.7143 42.7197 15.558 42.7457C15.4041 42.7694 15.2538 42.7907 15.107 42.8097C14.9626 42.8262 14.8454 42.8404 14.7554 42.8523C14.5376 42.8807 14.334 42.9268 14.1447 42.9908C13.9576 43.0523 13.8061 43.1458 13.6901 43.2713C13.5765 43.3944 13.5197 43.5625 13.5197 43.7756C13.5197 44.0668 13.6274 44.2869 13.8428 44.4361C14.0606 44.5829 14.3364 44.6562 14.6702 44.6562Z" fill="#CAF7FF"/>
<path d="M18.572 45.2812V39.8267H19.3817V40.6506H19.4385C19.5379 40.3807 19.7179 40.1617 19.9783 39.9936C20.2387 39.8255 20.5323 39.7415 20.859 39.7415C20.9205 39.7415 20.9975 39.7427 21.0898 39.745C21.1821 39.7474 21.252 39.7509 21.2993 39.7557V40.6079C21.2709 40.6008 21.2058 40.5902 21.104 40.576C21.0046 40.5594 20.8992 40.5511 20.7879 40.5511C20.5228 40.5511 20.286 40.6068 20.0777 40.718C19.8717 40.8269 19.7084 40.9784 19.5877 41.1726C19.4693 41.3643 19.4101 41.5833 19.4101 41.8295V45.2812H18.572Z" fill="#CAF7FF"/>
<path d="M25.0067 39.8267V40.5369H22.18V39.8267H25.0067ZM23.0039 38.5199H23.8419V43.7187C23.8419 43.9555 23.8762 44.133 23.9449 44.2514C24.0159 44.3674 24.1059 44.4455 24.2148 44.4858C24.3261 44.5237 24.4432 44.5426 24.5664 44.5426C24.6587 44.5426 24.7344 44.5379 24.7936 44.5284C24.8528 44.5166 24.9002 44.5071 24.9357 44.5L25.1061 45.2528C25.0493 45.2741 24.97 45.2954 24.8682 45.3168C24.7664 45.3404 24.6374 45.3523 24.4811 45.3523C24.2444 45.3523 24.0124 45.3014 23.7851 45.1996C23.5602 45.0978 23.3732 44.9427 23.224 44.7344C23.0772 44.526 23.0039 44.2632 23.0039 43.946V38.5199Z" fill="#CAF7FF"/>
<path d="M28.4957 45.3949C27.9701 45.3949 27.5168 45.2789 27.1356 45.0469C26.7568 44.8125 26.4644 44.4858 26.2585 44.0668C26.0549 43.6454 25.9531 43.1553 25.9531 42.5966C25.9531 42.0379 26.0549 41.5454 26.2585 41.1193C26.4644 40.6908 26.7509 40.357 27.1178 40.1179C27.4872 39.8764 27.918 39.7557 28.4105 39.7557C28.6945 39.7557 28.9751 39.803 29.2521 39.8977C29.5291 39.9924 29.7812 40.1463 30.0085 40.3594C30.2357 40.5701 30.4168 40.8494 30.5518 41.1974C30.6867 41.5454 30.7542 41.974 30.7542 42.4829V42.8381H26.5497V42.1136H29.9019C29.9019 41.8059 29.8404 41.5312 29.7173 41.2898C29.5965 41.0483 29.4237 40.8577 29.1988 40.718C28.9763 40.5784 28.7135 40.5085 28.4105 40.5085C28.0766 40.5085 27.7878 40.5914 27.544 40.7571C27.3025 40.9204 27.1167 41.1335 26.9865 41.3963C26.8562 41.6591 26.7911 41.9408 26.7911 42.2415V42.7244C26.7911 43.1364 26.8622 43.4856 27.0042 43.772C27.1486 44.0561 27.3487 44.2727 27.6043 44.4219C27.86 44.5686 28.1571 44.642 28.4957 44.642C28.7159 44.642 28.9147 44.6113 29.0923 44.5497C29.2722 44.4858 29.4273 44.3911 29.5575 44.2656C29.6877 44.1378 29.7883 43.9792 29.8593 43.7898L30.669 44.017C30.5838 44.2917 30.4405 44.5331 30.2393 44.7415C30.0381 44.9474 29.7895 45.1084 29.4936 45.2244C29.1976 45.3381 28.865 45.3949 28.4957 45.3949Z" fill="#CAF7FF"/>
<path d="M32.8671 42V45.2812H32.0291V39.8267H32.8387V40.679H32.9097C33.0376 40.402 33.2317 40.1794 33.4921 40.0114C33.7525 39.8409 34.0887 39.7557 34.5007 39.7557C34.87 39.7557 35.1931 39.8314 35.4701 39.9829C35.7471 40.1321 35.9625 40.3594 36.1164 40.6648C36.2703 40.9678 36.3472 41.3513 36.3472 41.8153V45.2812H35.5092V41.8722C35.5092 41.4436 35.3979 41.1098 35.1754 40.8707C34.9528 40.6293 34.6474 40.5085 34.2592 40.5085C33.9917 40.5085 33.7525 40.5665 33.5418 40.6825C33.3335 40.7985 33.169 40.9678 33.0482 41.1903C32.9275 41.4129 32.8671 41.6828 32.8671 42Z" fill="#CAF7FF"/>
</svg>
