<svg width="43" height="47" viewBox="0 0 43 47" fill="none" xmlns="http://www.w3.org/2000/svg">
<g clip-path="url(#clip0_14_1979)">
<path d="M23.0507 17.2934C23.0507 17.656 22.9431 18.0105 22.7417 18.312C22.5402 18.6135 22.2539 18.8485 21.9189 18.9872C21.5839 19.126 21.2153 19.1623 20.8597 19.0916C20.504 19.0208 20.1774 18.8462 19.921 18.5898C19.6646 18.3334 19.49 18.0067 19.4192 17.6511C19.3485 17.2955 19.3848 16.9269 19.5235 16.5919C19.6623 16.2569 19.8973 15.9705 20.1988 15.7691C20.5003 15.5676 20.8547 15.4601 21.2173 15.4601C21.7036 15.4601 22.1699 15.6533 22.5137 15.9971C22.8575 16.3409 23.0507 16.8072 23.0507 17.2934ZM25.7548 21.8374L21.2173 26.2768L16.6872 21.8438C15.7881 20.9475 15.1751 19.8047 14.9257 18.5599C14.6763 17.3151 14.8018 16.0244 15.2862 14.8509C15.7706 13.6775 16.5922 12.6741 17.6471 11.9677C18.7019 11.2614 19.9426 10.8838 21.2121 10.8828C22.4816 10.8817 23.7229 11.2573 24.7789 11.9619C25.8349 12.6666 26.6582 13.6686 27.1445 14.8413C27.6308 16.014 27.7584 17.3046 27.511 18.5497C27.2636 19.7949 26.6525 20.9396 25.7548 21.8374ZM24.884 17.2934C24.884 16.5683 24.6689 15.8593 24.266 15.2564C23.8631 14.6534 23.2905 14.1834 22.6205 13.9059C21.9505 13.6284 21.2133 13.5558 20.502 13.6972C19.7907 13.8387 19.1374 14.1879 18.6246 14.7007C18.1118 15.2135 17.7626 15.8669 17.6211 16.5781C17.4796 17.2894 17.5522 18.0266 17.8298 18.6966C18.1073 19.3666 18.5773 19.9393 19.1802 20.3422C19.7832 20.7451 20.4921 20.9601 21.2173 20.9601C22.1898 20.9601 23.1224 20.5738 23.81 19.8862C24.4977 19.1985 24.884 18.2659 24.884 17.2934ZM30.2621 20.6054L28.9467 20.1654C28.5373 21.2807 27.8905 22.2937 27.051 23.1344L21.2173 28.8435L15.4057 23.1601C14.3024 22.061 13.5333 20.6717 13.1873 19.1534C12.8094 19.1186 12.4284 19.1632 12.0688 19.2845C11.7092 19.4057 11.3789 19.6009 11.0992 19.8573C10.8195 20.1138 10.5965 20.426 10.4447 20.7738C10.2928 21.1216 10.2153 21.4973 10.2173 21.8768V30.8161L17.5351 32.907L24.8867 31.0737L32.2201 32.8594V23.2362C32.2197 22.6454 32.0291 22.0704 31.6764 21.5964C31.3238 21.1224 30.8278 20.7755 30.2621 20.6054Z" fill="#CAF7FF"/>
</g>
<path d="M11.2675 40.9525C11.2249 40.5926 11.0521 40.3133 10.749 40.1144C10.446 39.9156 10.0743 39.8161 9.63397 39.8161C9.312 39.8161 9.03028 39.8682 8.7888 39.9724C8.54969 40.0766 8.36267 40.2198 8.22772 40.4021C8.09515 40.5844 8.02886 40.7915 8.02886 41.0235C8.02886 41.2176 8.07502 41.3846 8.16735 41.5242C8.26205 41.6615 8.38279 41.7764 8.52957 41.8687C8.67635 41.9587 8.83023 42.0332 8.99122 42.0924C9.1522 42.1492 9.30017 42.1954 9.43511 42.2309L10.1737 42.4298C10.3631 42.4795 10.5738 42.5481 10.8058 42.6357C11.0402 42.7233 11.2639 42.8429 11.477 42.9944C11.6924 43.1435 11.87 43.3353 12.0097 43.5697C12.1494 43.8041 12.2192 44.0917 12.2192 44.4326C12.2192 44.8256 12.1162 45.1807 11.9103 45.498C11.7067 45.8152 11.4084 46.0673 11.0154 46.2543C10.6247 46.4414 10.1501 46.5349 9.59136 46.5349C9.07053 46.5349 8.61953 46.4508 8.23838 46.2828C7.85959 46.1147 7.56129 45.8803 7.34349 45.5796C7.12805 45.279 7.00613 44.9298 6.97772 44.532H7.88681C7.91049 44.8067 8.00282 45.0339 8.1638 45.2139C8.32715 45.3914 8.53312 45.524 8.7817 45.6116C9.03265 45.6968 9.30253 45.7394 9.59136 45.7394C9.92753 45.7394 10.2294 45.685 10.4969 45.5761C10.7644 45.4648 10.9763 45.3109 11.1326 45.1144C11.2888 44.9156 11.3669 44.6836 11.3669 44.4184C11.3669 44.1769 11.2995 43.9804 11.1645 43.8289C11.0296 43.6774 10.852 43.5543 10.6318 43.4596C10.4117 43.3649 10.1737 43.282 9.91806 43.211L9.02318 42.9553C8.455 42.792 8.00518 42.5588 7.67374 42.2558C7.34231 41.9527 7.17659 41.5562 7.17659 41.0661C7.17659 40.6589 7.28667 40.3038 7.50684 40.0008C7.72938 39.6954 8.02767 39.4587 8.40173 39.2906C8.77815 39.1201 9.19837 39.0349 9.66238 39.0349C10.1311 39.0349 10.5478 39.1189 10.9124 39.287C11.277 39.4527 11.5658 39.68 11.7789 39.9688C11.9943 40.2577 12.1079 40.5855 12.1198 40.9525H11.2675Z" fill="#CAF7FF"/>
<path d="M15.8405 46.5207C15.3149 46.5207 14.8615 46.4047 14.4804 46.1727C14.1016 45.9383 13.8092 45.6116 13.6033 45.1926C13.3997 44.7712 13.2979 44.2811 13.2979 43.7224C13.2979 43.1637 13.3997 42.6712 13.6033 42.2451C13.8092 41.8166 14.0957 41.4828 14.4626 41.2437C14.8319 41.0022 15.2628 40.8815 15.7552 40.8815C16.0393 40.8815 16.3199 40.9288 16.5969 41.0235C16.8739 41.1182 17.126 41.2721 17.3533 41.4852C17.5805 41.6959 17.7616 41.9752 17.8966 42.3232C18.0315 42.6712 18.099 43.0998 18.099 43.6087V43.9639H13.8944V43.2394H17.2467C17.2467 42.9317 17.1852 42.657 17.0621 42.4156C16.9413 42.1741 16.7685 41.9835 16.5436 41.8438C16.3211 41.7042 16.0583 41.6343 15.7552 41.6343C15.4214 41.6343 15.1326 41.7172 14.8888 41.8829C14.6473 42.0462 14.4614 42.2593 14.3312 42.5221C14.201 42.7849 14.1359 43.0666 14.1359 43.3673V43.8502C14.1359 44.2622 14.2069 44.6114 14.349 44.8978C14.4934 45.1819 14.6935 45.3985 14.9491 45.5477C15.2048 45.6944 15.5019 45.7678 15.8405 45.7678C16.0606 45.7678 16.2595 45.7371 16.4371 45.6755C16.617 45.6116 16.7721 45.5169 16.9023 45.3914C17.0325 45.2636 17.1331 45.105 17.2041 44.9156L18.0138 45.1428C17.9285 45.4175 17.7853 45.6589 17.5841 45.8673C17.3828 46.0732 17.1343 46.2342 16.8383 46.3502C16.5424 46.4639 16.2098 46.5207 15.8405 46.5207Z" fill="#CAF7FF"/>
<path d="M19.3739 46.407V40.9525H20.2119V46.407H19.3739ZM19.8 40.0434C19.6366 40.0434 19.4958 39.9878 19.3774 39.8765C19.2614 39.7652 19.2034 39.6315 19.2034 39.4752C19.2034 39.319 19.2614 39.1852 19.3774 39.0739C19.4958 38.9627 19.6366 38.907 19.8 38.907C19.9633 38.907 20.103 38.9627 20.219 39.0739C20.3374 39.1852 20.3966 39.319 20.3966 39.4752C20.3966 39.6315 20.3374 39.7652 20.219 39.8765C20.103 39.9878 19.9633 40.0434 19.8 40.0434Z" fill="#CAF7FF"/>
<path d="M24.1191 40.9525V41.6627H21.2924V40.9525H24.1191ZM22.1162 39.6457H22.9543V44.8445C22.9543 45.0813 22.9886 45.2588 23.0573 45.3772C23.1283 45.4932 23.2183 45.5713 23.3272 45.6116C23.4384 45.6495 23.5556 45.6684 23.6787 45.6684C23.771 45.6684 23.8468 45.6637 23.906 45.6542C23.9652 45.6424 24.0125 45.6329 24.048 45.6258L24.2185 46.3786C24.1617 46.3999 24.0824 46.4212 23.9806 46.4426C23.8788 46.4662 23.7497 46.4781 23.5935 46.4781C23.3567 46.4781 23.1247 46.4272 22.8975 46.3254C22.6726 46.2236 22.4855 46.0685 22.3364 45.8602C22.1896 45.6518 22.1162 45.3891 22.1162 45.0718V39.6457Z" fill="#CAF7FF"/>
<path d="M27.608 46.5207C27.0825 46.5207 26.6291 46.4047 26.248 46.1727C25.8692 45.9383 25.5768 45.6116 25.3708 45.1926C25.1672 44.7712 25.0654 44.2811 25.0654 43.7224C25.0654 43.1637 25.1672 42.6712 25.3708 42.2451C25.5768 41.8166 25.8633 41.4828 26.2302 41.2437C26.5995 41.0022 27.0304 40.8815 27.5228 40.8815C27.8069 40.8815 28.0875 40.9288 28.3644 41.0235C28.6414 41.1182 28.8936 41.2721 29.1208 41.4852C29.3481 41.6959 29.5292 41.9752 29.6642 42.3232C29.7991 42.6712 29.8666 43.0998 29.8666 43.6087V43.9639H25.662V43.2394H29.0143C29.0143 42.9317 28.9527 42.657 28.8296 42.4156C28.7089 42.1741 28.5361 41.9835 28.3112 41.8438C28.0886 41.7042 27.8259 41.6343 27.5228 41.6343C27.189 41.6343 26.9002 41.7172 26.6563 41.8829C26.4149 42.0462 26.229 42.2593 26.0988 42.5221C25.9686 42.7849 25.9035 43.0666 25.9035 43.3673V43.8502C25.9035 44.2622 25.9745 44.6114 26.1166 44.8978C26.261 45.1819 26.461 45.3985 26.7167 45.5477C26.9724 45.6944 27.2695 45.7678 27.608 45.7678C27.8282 45.7678 28.0271 45.7371 28.2046 45.6755C28.3846 45.6116 28.5396 45.5169 28.6698 45.3914C28.8 45.2636 28.9007 45.105 28.9717 44.9156L29.7813 45.1428C29.6961 45.4175 29.5529 45.6589 29.3517 45.8673C29.1504 46.0732 28.9018 46.2342 28.6059 46.3502C28.31 46.4639 27.9774 46.5207 27.608 46.5207Z" fill="#CAF7FF"/>
<path d="M31.9795 43.1258V46.407H31.1414V40.9525H31.9511V41.8048H32.0221C32.15 41.5278 32.3441 41.3052 32.6045 41.1372C32.8649 40.9667 33.2011 40.8815 33.613 40.8815C33.9823 40.8815 34.3055 40.9572 34.5825 41.1087C34.8595 41.2579 35.0749 41.4852 35.2288 41.7906C35.3827 42.0936 35.4596 42.4771 35.4596 42.9411V46.407H34.6215V42.998C34.6215 42.5694 34.5103 42.2356 34.2877 41.9965C34.0652 41.7551 33.7598 41.6343 33.3715 41.6343C33.104 41.6343 32.8649 41.6923 32.6542 41.8083C32.4459 41.9243 32.2813 42.0936 32.1606 42.3161C32.0399 42.5387 31.9795 42.8086 31.9795 43.1258Z" fill="#CAF7FF"/>
<defs>
<clipPath id="clip0_14_1979">
<rect width="42.0028" height="42.0243" fill="white" transform="translate(0.217285 0.882751)"/>
</clipPath>
</defs>
</svg>
