<svg width="32" height="39" viewBox="0 0 32 39" fill="none" xmlns="http://www.w3.org/2000/svg">
<path d="M16 38.2107L14.8901 37.2593C13.36 35.9782 0 24.4399 0 16C0 7.16346 7.16346 0 16 0C24.8365 0 32 7.16346 32 16C32 24.44 18.64 35.9782 17.1162 37.2657L16 38.2107ZM16 3.45967C9.07746 3.4675 3.46758 9.07738 3.45974 15.9999C3.45974 21.3021 11.6794 29.7722 16 33.6489C20.3207 29.7706 28.5403 21.2957 28.5403 15.9999C28.5324 9.07738 22.9226 3.46758 16 3.45967Z" fill="#F76868"/>
<path d="M16 22.3422C12.4972 22.3422 9.65771 19.5027 9.65771 16C9.65771 12.4972 12.4972 9.65771 16 9.65771C19.5027 9.65771 22.3422 12.4972 22.3422 16C22.3422 19.5027 19.5028 22.3422 16 22.3422ZM16 12.8288C14.2486 12.8288 12.8288 14.2485 12.8288 15.9999C12.8288 17.7513 14.2486 19.171 16 19.171C17.7513 19.171 19.1711 17.7513 19.1711 15.9999C19.1711 14.2485 17.7514 12.8288 16 12.8288Z" fill="#F76868"/>
</svg>
