<svg width="16" height="20" viewBox="0 0 16 20" fill="none" xmlns="http://www.w3.org/2000/svg">
<path d="M8 19.1053L7.44506 18.6297C6.68002 17.9891 0 12.22 0 8C0 3.58173 3.58173 0 8 0C12.4183 0 16 3.58173 16 8C16 12.22 9.31998 17.9891 8.55811 18.6328L8 19.1053ZM8 1.72983C4.53873 1.73375 1.73379 4.53869 1.72987 7.99996C1.72987 10.651 5.83968 14.8861 8 16.8244C10.1604 14.8853 14.2701 10.6478 14.2701 7.99996C14.2662 4.53869 11.4613 1.73379 8 1.72983Z" fill="#565656"/>
<path d="M7.99999 11.1711C6.24862 11.1711 4.82886 9.75135 4.82886 7.99999C4.82886 6.24862 6.24862 4.82886 7.99999 4.82886C9.75135 4.82886 11.1711 6.24862 11.1711 7.99999C11.1711 9.75135 9.75139 11.1711 7.99999 11.1711ZM7.99999 6.41439C7.12431 6.41439 6.41442 7.12427 6.41442 7.99995C6.41442 8.87563 7.12431 9.58552 7.99999 9.58552C8.87567 9.58552 9.58555 8.87563 9.58555 7.99995C9.58555 7.12427 8.87571 6.41439 7.99999 6.41439Z" fill="#565656"/>
</svg>
