<svg width="42" height="46" viewBox="0 0 42 46" fill="none" xmlns="http://www.w3.org/2000/svg">
<g clip-path="url(#clip0_58_319)">
<path d="M28.3333 16.2629V16.2821C28.3333 16.5938 28.0803 16.8468 27.7687 16.8468H27.479C27.3681 18.0156 26.9134 19.3502 26.0059 20.3906C26.5028 20.6922 27.0986 20.9076 27.8246 20.9764C28.1133 21.0039 28.3333 21.2477 28.3333 21.5383V21.5576C28.3333 21.8931 28.0437 22.1516 27.71 22.1195C26.6678 22.0196 25.8226 21.6712 25.136 21.1826C24.4457 21.6758 23.5905 22.0214 22.54 22.1195C22.2063 22.1506 21.9176 21.8921 21.9176 21.5566V21.5374C21.9176 21.2431 22.1449 21.0021 22.4383 20.9746C23.1606 20.9058 23.7564 20.6931 24.2505 20.3925C23.9489 20.0469 23.6959 19.6683 23.4897 19.2741C23.2926 18.8974 23.5722 18.4464 23.9966 18.4464C24.2056 18.4464 24.3999 18.5591 24.4962 18.7443C24.6648 19.067 24.8766 19.3768 25.1305 19.661C25.8803 18.8176 26.2232 17.7286 26.3249 16.8459H22.4832C22.1715 16.8459 21.9185 16.5929 21.9185 16.2812V16.262C21.9185 15.9503 22.1715 15.6973 22.4832 15.6973H24.5521V15.3453C24.5521 15.0336 24.8051 14.7806 25.1167 14.7806H25.136C25.4477 14.7806 25.7007 15.0336 25.7007 15.3453V15.6973H27.7696C28.0813 15.6973 28.3342 15.9503 28.3342 16.262L28.3333 16.2629ZM15.4872 16.0649C15.4523 16.0649 15.4221 16.0887 15.4148 16.1226L14.6713 19.2732H16.2819L15.5605 16.1226C15.5523 16.0887 15.522 16.0649 15.4872 16.0649ZM32 15.2399V21.6566C32 24.4368 29.7377 26.6982 26.9583 26.6982H15.0417C12.2578 26.6982 10 24.4414 10 21.6566V15.2399C10 12.4551 12.2578 10.1982 15.0417 10.1982H26.9583C29.7377 10.1982 32 12.4596 32 15.2399ZM18.0703 21.3302L16.8209 15.8779C16.7228 15.4526 16.4515 15.0657 16.0491 14.8971C15.2067 14.5441 14.3487 15.0391 14.1644 15.833L12.8692 21.3266C12.7738 21.729 13.08 22.1149 13.4934 22.1149C13.7904 22.1149 14.0489 21.9105 14.1177 21.6208L14.3688 20.5566H16.5771L16.82 21.6171C16.8869 21.9086 17.1463 22.1149 17.4452 22.1149H17.447C17.8586 22.1149 18.1638 21.7317 18.0722 21.3302H18.0703ZM29.25 15.2399C29.25 13.9767 28.2224 12.9482 26.9583 12.9482H21V23.9482H26.9583C28.2224 23.9482 29.25 22.9197 29.25 21.6566V15.2399Z" fill="#CAF7FF"/>
</g>
<path d="M6.94062 38.4255V45.6982H6.05994V38.4255H6.94062Z" fill="#CAF7FF"/>
<path d="M10.6524 45.8119C10.1979 45.8119 9.79662 45.697 9.44861 45.4674C9.1006 45.2354 8.82834 44.9087 8.63185 44.4873C8.43535 44.0635 8.3371 43.5628 8.3371 42.9852C8.3371 42.4122 8.43535 41.9151 8.63185 41.4937C8.82834 41.0723 9.10178 40.7468 9.45216 40.5171C9.80254 40.2875 10.2074 40.1727 10.6666 40.1727C11.0218 40.1727 11.3023 40.2318 11.5083 40.3502C11.7166 40.4662 11.8752 40.5988 11.9841 40.7479C12.0954 40.8947 12.1818 41.0155 12.2434 41.1102H12.3144V38.4255H13.1524V45.6982H12.3428V44.8602H12.2434C12.1818 44.9596 12.0942 45.0851 11.9806 45.2366C11.8669 45.3857 11.7048 45.5195 11.4941 45.6379C11.2834 45.7539 11.0028 45.8119 10.6524 45.8119ZM10.7661 45.059C11.1023 45.059 11.3863 44.9714 11.6184 44.7962C11.8504 44.6187 12.0267 44.3737 12.1475 44.0612C12.2682 43.7463 12.3286 43.3829 12.3286 42.971C12.3286 42.5638 12.2694 42.2075 12.151 41.9021C12.0327 41.5943 11.8575 41.3552 11.6255 41.1847C11.3934 41.0119 11.107 40.9255 10.7661 40.9255C10.411 40.9255 10.115 41.0166 9.8783 41.1989C9.64392 41.3789 9.46755 41.6239 9.34918 41.934C9.23317 42.2418 9.17517 42.5874 9.17517 42.971C9.17517 43.3592 9.23436 43.712 9.35273 44.0292C9.47347 44.3441 9.65102 44.595 9.8854 44.782C10.1221 44.9667 10.4157 45.059 10.7661 45.059Z" fill="#CAF7FF"/>
<path d="M14.8037 45.6982V40.2437H15.6418V45.6982H14.8037ZM15.2299 39.3346C15.0665 39.3346 14.9256 39.279 14.8073 39.1677C14.6913 39.0564 14.6333 38.9227 14.6333 38.7664C14.6333 38.6102 14.6913 38.4764 14.8073 38.3651C14.9256 38.2539 15.0665 38.1982 15.2299 38.1982C15.3932 38.1982 15.5329 38.2539 15.6489 38.3651C15.7673 38.4764 15.8264 38.6102 15.8264 38.7664C15.8264 38.9227 15.7673 39.0564 15.6489 39.1677C15.5329 39.279 15.3932 39.3346 15.2299 39.3346Z" fill="#CAF7FF"/>
<path d="M19.3927 45.8119C18.9003 45.8119 18.4682 45.6947 18.0965 45.4603C17.7272 45.2259 17.4384 44.898 17.23 44.4766C17.0241 44.0552 16.9211 43.5628 16.9211 42.9994C16.9211 42.4312 17.0241 41.9352 17.23 41.5114C17.4384 41.0877 17.7272 40.7586 18.0965 40.5242C18.4682 40.2898 18.9003 40.1727 19.3927 40.1727C19.8851 40.1727 20.316 40.2898 20.6853 40.5242C21.057 40.7586 21.3458 41.0877 21.5518 41.5114C21.7601 41.9352 21.8643 42.4312 21.8643 42.9994C21.8643 43.5628 21.7601 44.0552 21.5518 44.4766C21.3458 44.898 21.057 45.2259 20.6853 45.4603C20.316 45.6947 19.8851 45.8119 19.3927 45.8119ZM19.3927 45.059C19.7667 45.059 20.0745 44.9631 20.316 44.7714C20.5575 44.5796 20.7362 44.3275 20.8522 44.015C20.9682 43.7025 21.0262 43.3639 21.0262 42.9994C21.0262 42.6348 20.9682 42.2951 20.8522 41.9802C20.7362 41.6653 20.5575 41.4108 20.316 41.2167C20.0745 41.0226 19.7667 40.9255 19.3927 40.9255C19.0186 40.9255 18.7109 41.0226 18.4694 41.2167C18.2279 41.4108 18.0492 41.6653 17.9332 41.9802C17.8172 42.2951 17.7592 42.6348 17.7592 42.9994C17.7592 43.3639 17.8172 43.7025 17.9332 44.015C18.0492 44.3275 18.2279 44.5796 18.4694 44.7714C18.7109 44.9631 19.0186 45.059 19.3927 45.059Z" fill="#CAF7FF"/>
<path d="M23.1436 45.6982V40.2437H23.9532V41.096H24.0242C24.1379 40.8048 24.3214 40.5787 24.5747 40.4177C24.828 40.2543 25.1322 40.1727 25.4873 40.1727C25.8472 40.1727 26.1466 40.2543 26.3858 40.4177C26.6272 40.5787 26.8154 40.8048 26.9504 41.096H27.0072C27.1469 40.8142 27.3564 40.5905 27.6358 40.4248C27.9151 40.2567 28.2501 40.1727 28.6407 40.1727C29.1284 40.1727 29.5273 40.3254 29.8375 40.6308C30.1476 40.9338 30.3027 41.4061 30.3027 42.0477V45.6982H29.4646V42.0477C29.4646 41.6452 29.3545 41.3576 29.1343 41.1847C28.9142 41.0119 28.6549 40.9255 28.3566 40.9255C27.9731 40.9255 27.676 41.0415 27.4653 41.2735C27.2546 41.5032 27.1492 41.7943 27.1492 42.1471V45.6982H26.297V41.9624C26.297 41.6523 26.1964 41.4025 25.9951 41.2131C25.7939 41.0214 25.5347 40.9255 25.2174 40.9255C24.9996 40.9255 24.796 40.9835 24.6066 41.0995C24.4196 41.2155 24.2681 41.3765 24.1521 41.5825C24.0385 41.7861 23.9816 42.0216 23.9816 42.2891V45.6982H23.1436Z" fill="#CAF7FF"/>
<path d="M33.4401 45.8261C33.0944 45.8261 32.7808 45.761 32.499 45.6308C32.2173 45.4982 31.9936 45.3076 31.8279 45.059C31.6621 44.8081 31.5793 44.505 31.5793 44.1499C31.5793 43.8374 31.6408 43.5841 31.7639 43.39C31.8871 43.1935 32.0516 43.0396 32.2576 42.9283C32.4635 42.8171 32.6908 42.7342 32.9394 42.6798C33.1903 42.6229 33.4425 42.578 33.6958 42.5448C34.0272 42.5022 34.2959 42.4702 34.5019 42.4489C34.7102 42.4253 34.8617 42.3862 34.9564 42.3317C35.0535 42.2773 35.102 42.1826 35.102 42.0477V42.0192C35.102 41.6689 35.0061 41.3966 34.8144 41.2025C34.625 41.0084 34.3373 40.9113 33.9514 40.9113C33.5514 40.9113 33.2377 40.9989 33.0104 41.1741C32.7831 41.3493 32.6233 41.5363 32.531 41.7352L31.7355 41.4511C31.8776 41.1196 32.067 40.8616 32.3037 40.6769C32.5428 40.4899 32.8032 40.3597 33.085 40.2863C33.3691 40.2105 33.6484 40.1727 33.923 40.1727C34.0982 40.1727 34.2995 40.194 34.5267 40.2366C34.7564 40.2768 34.9777 40.3609 35.1908 40.4887C35.4062 40.6166 35.585 40.8095 35.727 41.0675C35.8691 41.3256 35.9401 41.6712 35.9401 42.1045V45.6982H35.102V44.9596H35.0594C35.0026 45.078 34.9079 45.2046 34.7753 45.3396C34.6427 45.4745 34.4664 45.5893 34.2462 45.684C34.026 45.7787 33.7573 45.8261 33.4401 45.8261ZM33.5679 45.0732C33.8994 45.0732 34.1787 45.0081 34.406 44.8779C34.6356 44.7477 34.8085 44.5796 34.9245 44.3737C35.0428 44.1677 35.102 43.9511 35.102 43.7238V42.9567C35.0665 42.9994 34.9884 43.0384 34.8676 43.0739C34.7493 43.1071 34.612 43.1367 34.4557 43.1627C34.3018 43.1864 34.1515 43.2077 34.0047 43.2266C33.8603 43.2432 33.7431 43.2574 33.6532 43.2692C33.4354 43.2977 33.2318 43.3438 33.0424 43.4077C32.8553 43.4693 32.7038 43.5628 32.5878 43.6883C32.4742 43.8114 32.4174 43.9795 32.4174 44.1925C32.4174 44.4837 32.5251 44.7039 32.7405 44.8531C32.9583 44.9998 33.2341 45.0732 33.5679 45.0732Z" fill="#CAF7FF"/>
<defs>
<clipPath id="clip0_58_319">
<rect width="42" height="30" fill="white" transform="translate(0 0.198227)"/>
</clipPath>
</defs>
</svg>
