<svg width="37" height="49" viewBox="0 0 37 49" fill="none" xmlns="http://www.w3.org/2000/svg">
<path d="M22.1667 10.2871C22.8136 10.509 23.4024 10.8737 23.8891 11.3541L25.4071 12.874C25.8881 13.3601 26.2532 13.9486 26.475 14.5955H22.1667V10.2871ZM26.75 16.4288V27.4288C26.7485 28.6439 26.2652 29.8089 25.406 30.6681C24.5467 31.5273 23.3818 32.0107 22.1667 32.0121H14.8333C13.6182 32.0107 12.4533 31.5273 11.594 30.6681C10.7348 29.8089 10.2515 28.6439 10.25 27.4288V14.5955C10.2515 13.3804 10.7348 12.2154 11.594 11.3562C12.4533 10.497 13.6182 10.0136 14.8333 10.0121H20.3333V14.5955C20.3333 15.0817 20.5265 15.548 20.8703 15.8918C21.2141 16.2357 21.6804 16.4288 22.1667 16.4288H26.75ZM22.9073 25.9741C22.8366 25.8762 22.7473 25.7933 22.6444 25.7301C22.5415 25.6668 22.4272 25.6246 22.308 25.6057C22.1887 25.5867 22.0669 25.5916 21.9495 25.6199C21.8322 25.6482 21.7215 25.6994 21.624 25.7706C21.0081 26.1993 20.2887 26.4554 19.5404 26.5121C19.2472 26.5041 18.9665 26.392 18.7484 26.1959C18.27 25.8163 17.6797 25.6052 17.0691 25.5955C16.0522 25.6911 15.0836 26.0746 14.2769 26.701C14.1768 26.7724 14.0921 26.8631 14.0277 26.9679C13.9634 27.0727 13.9209 27.1894 13.9026 27.311C13.8843 27.4326 13.8906 27.5566 13.9212 27.6757C13.9518 27.7947 14.0061 27.9064 14.0808 28.0041C14.1555 28.1018 14.249 28.1835 14.3559 28.2442C14.4628 28.305 14.5808 28.3437 14.7029 28.3579C14.8251 28.3721 14.9488 28.3617 15.0668 28.3271C15.1848 28.2925 15.2946 28.2345 15.3898 28.1566C15.878 27.7743 16.4562 27.5236 17.0691 27.4288C17.2946 27.4288 17.4092 27.5003 17.7108 27.7038C18.2331 28.1164 18.8785 28.3423 19.5441 28.3455C20.6833 28.2934 21.7833 27.9137 22.7121 27.2519C22.9068 27.1079 23.0367 26.8927 23.0733 26.6533C23.1099 26.4138 23.0502 26.1696 22.9073 25.9741ZM23.0833 22.8455C23.0833 22.6024 22.9868 22.3692 22.8148 22.1973C22.6429 22.0254 22.4098 21.9288 22.1667 21.9288H14.8333C14.5902 21.9288 14.3571 22.0254 14.1852 22.1973C14.0132 22.3692 13.9167 22.6024 13.9167 22.8455C13.9167 23.0886 14.0132 23.3218 14.1852 23.4937C14.3571 23.6656 14.5902 23.7621 14.8333 23.7621H22.1667C22.4098 23.7621 22.6429 23.6656 22.8148 23.4937C22.9868 23.3218 23.0833 23.0886 23.0833 22.8455ZM23.0833 19.1788C23.0833 18.9357 22.9868 18.7025 22.8148 18.5306C22.6429 18.3587 22.4098 18.2621 22.1667 18.2621H14.8333C14.5902 18.2621 14.3571 18.3587 14.1852 18.5306C14.0132 18.7025 13.9167 18.9357 13.9167 19.1788C13.9167 19.4219 14.0132 19.6551 14.1852 19.827C14.3571 19.9989 14.5902 20.0955 14.8333 20.0955H22.1667C22.4098 20.0955 22.6429 19.9989 22.8148 19.827C22.9868 19.6551 23.0833 19.4219 23.0833 19.1788Z" fill="#CAF7FF"/>
<path d="M1.24592 47.0121V39.7394H2.1266V42.9781H6.00444V39.7394H6.88512V47.0121H6.00444V43.7593H2.1266V47.0121H1.24592ZM8.53462 47.0121V41.5576H9.37269V47.0121H8.53462ZM8.96076 40.6485C8.79741 40.6485 8.65655 40.5929 8.53817 40.4816C8.42217 40.3703 8.36417 40.2366 8.36417 40.0803C8.36417 39.9241 8.42217 39.7903 8.53817 39.679C8.65655 39.5678 8.79741 39.5121 8.96076 39.5121C9.12411 39.5121 9.26379 39.5678 9.37979 39.679C9.49817 39.7903 9.55735 39.9241 9.55735 40.0803C9.55735 40.2366 9.49817 40.3703 9.37979 40.4816C9.26379 40.5929 9.12411 40.6485 8.96076 40.6485ZM14.7713 42.7792L14.0185 42.9923C13.9711 42.8668 13.9013 42.7449 13.8089 42.6265C13.719 42.5058 13.5959 42.4063 13.4396 42.3282C13.2834 42.2501 13.0833 42.211 12.8395 42.211C12.5057 42.211 12.2275 42.288 12.005 42.4418C11.7848 42.5933 11.6747 42.7863 11.6747 43.0207C11.6747 43.229 11.7505 43.3935 11.902 43.5143C12.0535 43.635 12.2902 43.7356 12.6122 43.8161L13.4219 44.015C13.9096 44.1334 14.273 44.3145 14.5121 44.5583C14.7512 44.7998 14.8707 45.1111 14.8707 45.4923C14.8707 45.8048 14.7808 46.0841 14.6009 46.3303C14.4233 46.5765 14.1747 46.7707 13.8551 46.9127C13.5355 47.0548 13.1638 47.1258 12.7401 47.1258C12.1837 47.1258 11.7232 47.005 11.3587 46.7636C10.9941 46.5221 10.7633 46.1693 10.6662 45.7053L11.4616 45.5065C11.5374 45.8 11.6806 46.0202 11.8913 46.167C12.1044 46.3138 12.3826 46.3871 12.7259 46.3871C13.1165 46.3871 13.4266 46.3043 13.6562 46.1386C13.8883 45.9705 14.0043 45.7692 14.0043 45.5349C14.0043 45.3455 13.938 45.1869 13.8054 45.059C13.6728 44.9288 13.4692 44.8317 13.1946 44.7678L12.2855 44.5548C11.786 44.4364 11.419 44.2529 11.1847 44.0043C10.9527 43.7534 10.8366 43.4397 10.8366 43.0633C10.8366 42.7555 10.9231 42.4833 11.0959 42.2465C11.2711 42.0098 11.509 41.8239 11.8097 41.689C12.1127 41.554 12.456 41.4866 12.8395 41.4866C13.3793 41.4866 13.803 41.6049 14.1108 41.8417C14.4209 42.0784 14.6411 42.3909 14.7713 42.7792ZM18.5044 41.5576V42.2678H15.6777V41.5576H18.5044ZM16.5016 40.2508H17.3397V45.4496C17.3397 45.6864 17.374 45.8639 17.4426 45.9823C17.5137 46.0983 17.6036 46.1764 17.7125 46.2167C17.8238 46.2546 17.941 46.2735 18.0641 46.2735C18.1564 46.2735 18.2322 46.2688 18.2914 46.2593C18.3506 46.2475 18.3979 46.238 18.4334 46.2309L18.6039 46.9837C18.5471 47.005 18.4677 47.0264 18.3659 47.0477C18.2641 47.0713 18.1351 47.0832 17.9789 47.0832C17.7421 47.0832 17.5101 47.0323 17.2828 46.9305C17.0579 46.8287 16.8709 46.6736 16.7218 46.4653C16.575 46.2569 16.5016 45.9942 16.5016 45.6769V40.2508ZM21.9224 47.1258C21.43 47.1258 20.9979 47.0086 20.6262 46.7742C20.2569 46.5398 19.9681 46.212 19.7598 45.7906C19.5538 45.3692 19.4508 44.8767 19.4508 44.3133C19.4508 43.7451 19.5538 43.2491 19.7598 42.8254C19.9681 42.4016 20.2569 42.0725 20.6262 41.8381C20.9979 41.6038 21.43 41.4866 21.9224 41.4866C22.4148 41.4866 22.8457 41.6038 23.215 41.8381C23.5867 42.0725 23.8755 42.4016 24.0815 42.8254C24.2898 43.2491 24.394 43.7451 24.394 44.3133C24.394 44.8767 24.2898 45.3692 24.0815 45.7906C23.8755 46.212 23.5867 46.5398 23.215 46.7742C22.8457 47.0086 22.4148 47.1258 21.9224 47.1258ZM21.9224 46.3729C22.2965 46.3729 22.6042 46.2771 22.8457 46.0853C23.0872 45.8935 23.2659 45.6414 23.3819 45.3289C23.4979 45.0164 23.5559 44.6779 23.5559 44.3133C23.5559 43.9487 23.4979 43.609 23.3819 43.2941C23.2659 42.9792 23.0872 42.7247 22.8457 42.5306C22.6042 42.3365 22.2965 42.2394 21.9224 42.2394C21.5484 42.2394 21.2406 42.3365 20.9991 42.5306C20.7576 42.7247 20.5789 42.9792 20.4629 43.2941C20.3469 43.609 20.2889 43.9487 20.2889 44.3133C20.2889 44.6779 20.3469 45.0164 20.4629 45.3289C20.5789 45.6414 20.7576 45.8935 20.9991 46.0853C21.2406 46.2771 21.5484 46.3729 21.9224 46.3729ZM25.6733 47.0121V41.5576H26.483V42.3815H26.5398C26.6392 42.1116 26.8191 41.8926 27.0795 41.7245C27.34 41.5564 27.6335 41.4724 27.9602 41.4724C28.0218 41.4724 28.0987 41.4736 28.1911 41.4759C28.2834 41.4783 28.3532 41.4818 28.4006 41.4866V42.3389C28.3722 42.3317 28.3071 42.3211 28.2053 42.3069C28.1058 42.2903 28.0005 42.282 27.8892 42.282C27.6241 42.282 27.3873 42.3377 27.179 42.4489C26.973 42.5578 26.8097 42.7094 26.6889 42.9035C26.5705 43.0952 26.5114 43.3142 26.5114 43.5604V47.0121H25.6733ZM29.394 47.0121V41.5576H30.2321V47.0121H29.394ZM29.8201 40.6485C29.6568 40.6485 29.5159 40.5929 29.3975 40.4816C29.2815 40.3703 29.2235 40.2366 29.2235 40.0803C29.2235 39.9241 29.2815 39.7903 29.3975 39.679C29.5159 39.5678 29.6568 39.5121 29.8201 39.5121C29.9835 39.5121 30.1232 39.5678 30.2392 39.679C30.3575 39.7903 30.4167 39.9241 30.4167 40.0803C30.4167 40.2366 30.3575 40.3703 30.2392 40.4816C30.1232 40.5929 29.9835 40.6485 29.8201 40.6485ZM33.3722 47.14C33.0265 47.14 32.7128 47.0749 32.4311 46.9447C32.1494 46.8121 31.9257 46.6215 31.7599 46.3729C31.5942 46.122 31.5114 45.819 31.5114 45.4639C31.5114 45.1514 31.5729 44.898 31.696 44.7039C31.8191 44.5074 31.9837 44.3535 32.1896 44.2423C32.3956 44.131 32.6229 44.0481 32.8714 43.9937C33.1224 43.9369 33.3745 43.8919 33.6278 43.8587C33.9593 43.8161 34.228 43.7842 34.4339 43.7629C34.6423 43.7392 34.7938 43.7001 34.8885 43.6457C34.9856 43.5912 35.0341 43.4965 35.0341 43.3616V43.3332C35.0341 42.9828 34.9382 42.7105 34.7464 42.5164C34.5571 42.3223 34.2694 42.2252 33.8835 42.2252C33.4834 42.2252 33.1697 42.3128 32.9425 42.488C32.7152 42.6632 32.5554 42.8502 32.4631 43.0491L31.6676 42.765C31.8097 42.4335 31.9991 42.1755 32.2358 41.9908C32.4749 41.8038 32.7353 41.6736 33.017 41.6002C33.3011 41.5245 33.5805 41.4866 33.8551 41.4866C34.0303 41.4866 34.2315 41.5079 34.4588 41.5505C34.6884 41.5907 34.9098 41.6748 35.1229 41.8026C35.3383 41.9305 35.517 42.1234 35.6591 42.3815C35.8011 42.6395 35.8722 42.9852 35.8722 43.4184V47.0121H35.0341V46.2735H34.9915C34.9347 46.3919 34.84 46.5185 34.7074 46.6535C34.5748 46.7884 34.3984 46.9032 34.1783 46.9979C33.9581 47.0926 33.6894 47.14 33.3722 47.14ZM33.5 46.3871C33.8314 46.3871 34.1108 46.322 34.3381 46.1918C34.5677 46.0616 34.7405 45.8935 34.8565 45.6876C34.9749 45.4816 35.0341 45.265 35.0341 45.0377V44.2707C34.9986 44.3133 34.9205 44.3523 34.7997 44.3879C34.6813 44.421 34.544 44.4506 34.3878 44.4766C34.2339 44.5003 34.0836 44.5216 33.9368 44.5406C33.7924 44.5571 33.6752 44.5713 33.5852 44.5832C33.3674 44.6116 33.1638 44.6577 32.9744 44.7217C32.7874 44.7832 32.6359 44.8767 32.5199 45.0022C32.4063 45.1253 32.3494 45.2934 32.3494 45.5065C32.3494 45.7977 32.4571 46.0178 32.6726 46.167C32.8904 46.3138 33.1662 46.3871 33.5 46.3871Z" fill="#CAF7FF"/>
</svg>
