<?xml version="1.0" encoding="utf-8"?>
<svg xmlns="http://www.w3.org/2000/svg" xmlns:xlink="http://www.w3.org/1999/xlink" xml:space="preserve" width="1063.75" height="1241.0416666667" viewBox="0 0 1063.75 1241.0416666667"><rect width="984.85520833333" height="984.85520833333" fill="#f76868" x="44.322916666667" y="44.322916666667"/><g transform="scale(44.322916666667)" fill="#ffffff"><path d="M22.7,0H1.3C0.6,0,0,0.6,0,1.3v25.3C0,27.4,0.6,28,1.3,28h21.3c0.7,0,1.3-0.6,1.3-1.3V1.3C24,0.6,23.4,0,22.7,0 z M23,22c0,0.6-0.5,1-1,1H2c-0.6,0-1-0.5-1-1V2c0-0.6,0.5-1,1-1h20c0.6,0,1,0.5,1,1V22z"/></g><g fill="#ffffff">
<g transform="translate(290.375,106.375) scale(3.9483333333333)"><rect width="6" height="6"/></g>
<g transform="translate(313.375,106.375) scale(3.9483333333333)"><rect width="6" height="6"/></g>
<g transform="translate(336.375,106.375) scale(3.9483333333333)"><rect width="6" height="6"/></g>
<g transform="translate(405.375,106.375) scale(3.9483333333333)"><rect width="6" height="6"/></g>
<g transform="translate(428.375,106.375) scale(3.9483333333333)"><rect width="6" height="6"/></g>
<g transform="translate(451.375,106.375) scale(3.9483333333333)"><rect width="6" height="6"/></g>
<g transform="translate(497.375,106.375) scale(3.9483333333333)"><rect width="6" height="6"/></g>
<g transform="translate(566.375,106.375) scale(3.9483333333333)"><rect width="6" height="6"/></g>
<g transform="translate(704.375,106.375) scale(3.9483333333333)"><rect width="6" height="6"/></g>
<g transform="translate(750.375,106.375) scale(3.9483333333333)"><rect width="6" height="6"/></g>
<g transform="translate(313.375,129.375) scale(3.9483333333333)"><rect width="6" height="6"/></g>
<g transform="translate(336.375,129.375) scale(3.9483333333333)"><rect width="6" height="6"/></g>
<g transform="translate(359.375,129.375) scale(3.9483333333333)"><rect width="6" height="6"/></g>
<g transform="translate(428.375,129.375) scale(3.9483333333333)"><rect width="6" height="6"/></g>
<g transform="translate(451.375,129.375) scale(3.9483333333333)"><rect width="6" height="6"/></g>
<g transform="translate(474.375,129.375) scale(3.9483333333333)"><rect width="6" height="6"/></g>
<g transform="translate(497.375,129.375) scale(3.9483333333333)"><rect width="6" height="6"/></g>
<g transform="translate(543.375,129.375) scale(3.9483333333333)"><rect width="6" height="6"/></g>
<g transform="translate(589.375,129.375) scale(3.9483333333333)"><rect width="6" height="6"/></g>
<g transform="translate(635.375,129.375) scale(3.9483333333333)"><rect width="6" height="6"/></g>
<g transform="translate(658.375,129.375) scale(3.9483333333333)"><rect width="6" height="6"/></g>
<g transform="translate(681.375,129.375) scale(3.9483333333333)"><rect width="6" height="6"/></g>
<g transform="translate(727.375,129.375) scale(3.9483333333333)"><rect width="6" height="6"/></g>
<g transform="translate(313.375,152.375) scale(3.9483333333333)"><rect width="6" height="6"/></g>
<g transform="translate(382.375,152.375) scale(3.9483333333333)"><rect width="6" height="6"/></g>
<g transform="translate(405.375,152.375) scale(3.9483333333333)"><rect width="6" height="6"/></g>
<g transform="translate(428.375,152.375) scale(3.9483333333333)"><rect width="6" height="6"/></g>
<g transform="translate(451.375,152.375) scale(3.9483333333333)"><rect width="6" height="6"/></g>
<g transform="translate(474.375,152.375) scale(3.9483333333333)"><rect width="6" height="6"/></g>
<g transform="translate(497.375,152.375) scale(3.9483333333333)"><rect width="6" height="6"/></g>
<g transform="translate(543.375,152.375) scale(3.9483333333333)"><rect width="6" height="6"/></g>
<g transform="translate(566.375,152.375) scale(3.9483333333333)"><rect width="6" height="6"/></g>
<g transform="translate(589.375,152.375) scale(3.9483333333333)"><rect width="6" height="6"/></g>
<g transform="translate(612.375,152.375) scale(3.9483333333333)"><rect width="6" height="6"/></g>
<g transform="translate(635.375,152.375) scale(3.9483333333333)"><rect width="6" height="6"/></g>
<g transform="translate(727.375,152.375) scale(3.9483333333333)"><rect width="6" height="6"/></g>
<g transform="translate(359.375,175.375) scale(3.9483333333333)"><rect width="6" height="6"/></g>
<g transform="translate(382.375,175.375) scale(3.9483333333333)"><rect width="6" height="6"/></g>
<g transform="translate(451.375,175.375) scale(3.9483333333333)"><rect width="6" height="6"/></g>
<g transform="translate(543.375,175.375) scale(3.9483333333333)"><rect width="6" height="6"/></g>
<g transform="translate(566.375,175.375) scale(3.9483333333333)"><rect width="6" height="6"/></g>
<g transform="translate(612.375,175.375) scale(3.9483333333333)"><rect width="6" height="6"/></g>
<g transform="translate(635.375,175.375) scale(3.9483333333333)"><rect width="6" height="6"/></g>
<g transform="translate(681.375,175.375) scale(3.9483333333333)"><rect width="6" height="6"/></g>
<g transform="translate(704.375,175.375) scale(3.9483333333333)"><rect width="6" height="6"/></g>
<g transform="translate(290.375,198.375) scale(3.9483333333333)"><rect width="6" height="6"/></g>
<g transform="translate(313.375,198.375) scale(3.9483333333333)"><rect width="6" height="6"/></g>
<g transform="translate(336.375,198.375) scale(3.9483333333333)"><rect width="6" height="6"/></g>
<g transform="translate(382.375,198.375) scale(3.9483333333333)"><rect width="6" height="6"/></g>
<g transform="translate(405.375,198.375) scale(3.9483333333333)"><rect width="6" height="6"/></g>
<g transform="translate(451.375,198.375) scale(3.9483333333333)"><rect width="6" height="6"/></g>
<g transform="translate(497.375,198.375) scale(3.9483333333333)"><rect width="6" height="6"/></g>
<g transform="translate(520.375,198.375) scale(3.9483333333333)"><rect width="6" height="6"/></g>
<g transform="translate(543.375,198.375) scale(3.9483333333333)"><rect width="6" height="6"/></g>
<g transform="translate(566.375,198.375) scale(3.9483333333333)"><rect width="6" height="6"/></g>
<g transform="translate(635.375,198.375) scale(3.9483333333333)"><rect width="6" height="6"/></g>
<g transform="translate(681.375,198.375) scale(3.9483333333333)"><rect width="6" height="6"/></g>
<g transform="translate(704.375,198.375) scale(3.9483333333333)"><rect width="6" height="6"/></g>
<g transform="translate(290.375,221.375) scale(3.9483333333333)"><rect width="6" height="6"/></g>
<g transform="translate(313.375,221.375) scale(3.9483333333333)"><rect width="6" height="6"/></g>
<g transform="translate(382.375,221.375) scale(3.9483333333333)"><rect width="6" height="6"/></g>
<g transform="translate(451.375,221.375) scale(3.9483333333333)"><rect width="6" height="6"/></g>
<g transform="translate(497.375,221.375) scale(3.9483333333333)"><rect width="6" height="6"/></g>
<g transform="translate(520.375,221.375) scale(3.9483333333333)"><rect width="6" height="6"/></g>
<g transform="translate(543.375,221.375) scale(3.9483333333333)"><rect width="6" height="6"/></g>
<g transform="translate(566.375,221.375) scale(3.9483333333333)"><rect width="6" height="6"/></g>
<g transform="translate(612.375,221.375) scale(3.9483333333333)"><rect width="6" height="6"/></g>
<g transform="translate(704.375,221.375) scale(3.9483333333333)"><rect width="6" height="6"/></g>
<g transform="translate(727.375,221.375) scale(3.9483333333333)"><rect width="6" height="6"/></g>
<g transform="translate(750.375,221.375) scale(3.9483333333333)"><rect width="6" height="6"/></g>
<g transform="translate(290.375,244.375) scale(3.9483333333333)"><rect width="6" height="6"/></g>
<g transform="translate(336.375,244.375) scale(3.9483333333333)"><rect width="6" height="6"/></g>
<g transform="translate(382.375,244.375) scale(3.9483333333333)"><rect width="6" height="6"/></g>
<g transform="translate(428.375,244.375) scale(3.9483333333333)"><rect width="6" height="6"/></g>
<g transform="translate(474.375,244.375) scale(3.9483333333333)"><rect width="6" height="6"/></g>
<g transform="translate(520.375,244.375) scale(3.9483333333333)"><rect width="6" height="6"/></g>
<g transform="translate(566.375,244.375) scale(3.9483333333333)"><rect width="6" height="6"/></g>
<g transform="translate(612.375,244.375) scale(3.9483333333333)"><rect width="6" height="6"/></g>
<g transform="translate(658.375,244.375) scale(3.9483333333333)"><rect width="6" height="6"/></g>
<g transform="translate(704.375,244.375) scale(3.9483333333333)"><rect width="6" height="6"/></g>
<g transform="translate(750.375,244.375) scale(3.9483333333333)"><rect width="6" height="6"/></g>
<g transform="translate(336.375,267.375) scale(3.9483333333333)"><rect width="6" height="6"/></g>
<g transform="translate(405.375,267.375) scale(3.9483333333333)"><rect width="6" height="6"/></g>
<g transform="translate(451.375,267.375) scale(3.9483333333333)"><rect width="6" height="6"/></g>
<g transform="translate(474.375,267.375) scale(3.9483333333333)"><rect width="6" height="6"/></g>
<g transform="translate(520.375,267.375) scale(3.9483333333333)"><rect width="6" height="6"/></g>
<g transform="translate(589.375,267.375) scale(3.9483333333333)"><rect width="6" height="6"/></g>
<g transform="translate(612.375,267.375) scale(3.9483333333333)"><rect width="6" height="6"/></g>
<g transform="translate(658.375,267.375) scale(3.9483333333333)"><rect width="6" height="6"/></g>
<g transform="translate(704.375,267.375) scale(3.9483333333333)"><rect width="6" height="6"/></g>
<g transform="translate(750.375,267.375) scale(3.9483333333333)"><rect width="6" height="6"/></g>
<g transform="translate(129.375,290.375) scale(3.9483333333333)"><rect width="6" height="6"/></g>
<g transform="translate(152.375,290.375) scale(3.9483333333333)"><rect width="6" height="6"/></g>
<g transform="translate(175.375,290.375) scale(3.9483333333333)"><rect width="6" height="6"/></g>
<g transform="translate(198.375,290.375) scale(3.9483333333333)"><rect width="6" height="6"/></g>
<g transform="translate(221.375,290.375) scale(3.9483333333333)"><rect width="6" height="6"/></g>
<g transform="translate(244.375,290.375) scale(3.9483333333333)"><rect width="6" height="6"/></g>
<g transform="translate(267.375,290.375) scale(3.9483333333333)"><rect width="6" height="6"/></g>
<g transform="translate(336.375,290.375) scale(3.9483333333333)"><rect width="6" height="6"/></g>
<g transform="translate(359.375,290.375) scale(3.9483333333333)"><rect width="6" height="6"/></g>
<g transform="translate(382.375,290.375) scale(3.9483333333333)"><rect width="6" height="6"/></g>
<g transform="translate(428.375,290.375) scale(3.9483333333333)"><rect width="6" height="6"/></g>
<g transform="translate(451.375,290.375) scale(3.9483333333333)"><rect width="6" height="6"/></g>
<g transform="translate(520.375,290.375) scale(3.9483333333333)"><rect width="6" height="6"/></g>
<g transform="translate(635.375,290.375) scale(3.9483333333333)"><rect width="6" height="6"/></g>
<g transform="translate(658.375,290.375) scale(3.9483333333333)"><rect width="6" height="6"/></g>
<g transform="translate(681.375,290.375) scale(3.9483333333333)"><rect width="6" height="6"/></g>
<g transform="translate(704.375,290.375) scale(3.9483333333333)"><rect width="6" height="6"/></g>
<g transform="translate(819.375,290.375) scale(3.9483333333333)"><rect width="6" height="6"/></g>
<g transform="translate(842.375,290.375) scale(3.9483333333333)"><rect width="6" height="6"/></g>
<g transform="translate(934.375,290.375) scale(3.9483333333333)"><rect width="6" height="6"/></g>
<g transform="translate(129.375,313.375) scale(3.9483333333333)"><rect width="6" height="6"/></g>
<g transform="translate(152.375,313.375) scale(3.9483333333333)"><rect width="6" height="6"/></g>
<g transform="translate(175.375,313.375) scale(3.9483333333333)"><rect width="6" height="6"/></g>
<g transform="translate(267.375,313.375) scale(3.9483333333333)"><rect width="6" height="6"/></g>
<g transform="translate(290.375,313.375) scale(3.9483333333333)"><rect width="6" height="6"/></g>
<g transform="translate(313.375,313.375) scale(3.9483333333333)"><rect width="6" height="6"/></g>
<g transform="translate(336.375,313.375) scale(3.9483333333333)"><rect width="6" height="6"/></g>
<g transform="translate(359.375,313.375) scale(3.9483333333333)"><rect width="6" height="6"/></g>
<g transform="translate(405.375,313.375) scale(3.9483333333333)"><rect width="6" height="6"/></g>
<g transform="translate(428.375,313.375) scale(3.9483333333333)"><rect width="6" height="6"/></g>
<g transform="translate(474.375,313.375) scale(3.9483333333333)"><rect width="6" height="6"/></g>
<g transform="translate(497.375,313.375) scale(3.9483333333333)"><rect width="6" height="6"/></g>
<g transform="translate(566.375,313.375) scale(3.9483333333333)"><rect width="6" height="6"/></g>
<g transform="translate(589.375,313.375) scale(3.9483333333333)"><rect width="6" height="6"/></g>
<g transform="translate(635.375,313.375) scale(3.9483333333333)"><rect width="6" height="6"/></g>
<g transform="translate(681.375,313.375) scale(3.9483333333333)"><rect width="6" height="6"/></g>
<g transform="translate(750.375,313.375) scale(3.9483333333333)"><rect width="6" height="6"/></g>
<g transform="translate(888.375,313.375) scale(3.9483333333333)"><rect width="6" height="6"/></g>
<g transform="translate(129.375,336.375) scale(3.9483333333333)"><rect width="6" height="6"/></g>
<g transform="translate(198.375,336.375) scale(3.9483333333333)"><rect width="6" height="6"/></g>
<g transform="translate(244.375,336.375) scale(3.9483333333333)"><rect width="6" height="6"/></g>
<g transform="translate(290.375,336.375) scale(3.9483333333333)"><rect width="6" height="6"/></g>
<g transform="translate(313.375,336.375) scale(3.9483333333333)"><rect width="6" height="6"/></g>
<g transform="translate(359.375,336.375) scale(3.9483333333333)"><rect width="6" height="6"/></g>
<g transform="translate(405.375,336.375) scale(3.9483333333333)"><rect width="6" height="6"/></g>
<g transform="translate(451.375,336.375) scale(3.9483333333333)"><rect width="6" height="6"/></g>
<g transform="translate(497.375,336.375) scale(3.9483333333333)"><rect width="6" height="6"/></g>
<g transform="translate(681.375,336.375) scale(3.9483333333333)"><rect width="6" height="6"/></g>
<g transform="translate(704.375,336.375) scale(3.9483333333333)"><rect width="6" height="6"/></g>
<g transform="translate(727.375,336.375) scale(3.9483333333333)"><rect width="6" height="6"/></g>
<g transform="translate(796.375,336.375) scale(3.9483333333333)"><rect width="6" height="6"/></g>
<g transform="translate(865.375,336.375) scale(3.9483333333333)"><rect width="6" height="6"/></g>
<g transform="translate(888.375,336.375) scale(3.9483333333333)"><rect width="6" height="6"/></g>
<g transform="translate(934.375,336.375) scale(3.9483333333333)"><rect width="6" height="6"/></g>
<g transform="translate(106.375,359.375) scale(3.9483333333333)"><rect width="6" height="6"/></g>
<g transform="translate(221.375,359.375) scale(3.9483333333333)"><rect width="6" height="6"/></g>
<g transform="translate(290.375,359.375) scale(3.9483333333333)"><rect width="6" height="6"/></g>
<g transform="translate(313.375,359.375) scale(3.9483333333333)"><rect width="6" height="6"/></g>
<g transform="translate(359.375,359.375) scale(3.9483333333333)"><rect width="6" height="6"/></g>
<g transform="translate(405.375,359.375) scale(3.9483333333333)"><rect width="6" height="6"/></g>
<g transform="translate(474.375,359.375) scale(3.9483333333333)"><rect width="6" height="6"/></g>
<g transform="translate(520.375,359.375) scale(3.9483333333333)"><rect width="6" height="6"/></g>
<g transform="translate(543.375,359.375) scale(3.9483333333333)"><rect width="6" height="6"/></g>
<g transform="translate(589.375,359.375) scale(3.9483333333333)"><rect width="6" height="6"/></g>
<g transform="translate(658.375,359.375) scale(3.9483333333333)"><rect width="6" height="6"/></g>
<g transform="translate(704.375,359.375) scale(3.9483333333333)"><rect width="6" height="6"/></g>
<g transform="translate(727.375,359.375) scale(3.9483333333333)"><rect width="6" height="6"/></g>
<g transform="translate(750.375,359.375) scale(3.9483333333333)"><rect width="6" height="6"/></g>
<g transform="translate(796.375,359.375) scale(3.9483333333333)"><rect width="6" height="6"/></g>
<g transform="translate(842.375,359.375) scale(3.9483333333333)"><rect width="6" height="6"/></g>
<g transform="translate(911.375,359.375) scale(3.9483333333333)"><rect width="6" height="6"/></g>
<g transform="translate(129.375,382.375) scale(3.9483333333333)"><rect width="6" height="6"/></g>
<g transform="translate(244.375,382.375) scale(3.9483333333333)"><rect width="6" height="6"/></g>
<g transform="translate(267.375,382.375) scale(3.9483333333333)"><rect width="6" height="6"/></g>
<g transform="translate(290.375,382.375) scale(3.9483333333333)"><rect width="6" height="6"/></g>
<g transform="translate(451.375,382.375) scale(3.9483333333333)"><rect width="6" height="6"/></g>
<g transform="translate(474.375,382.375) scale(3.9483333333333)"><rect width="6" height="6"/></g>
<g transform="translate(497.375,382.375) scale(3.9483333333333)"><rect width="6" height="6"/></g>
<g transform="translate(520.375,382.375) scale(3.9483333333333)"><rect width="6" height="6"/></g>
<g transform="translate(543.375,382.375) scale(3.9483333333333)"><rect width="6" height="6"/></g>
<g transform="translate(566.375,382.375) scale(3.9483333333333)"><rect width="6" height="6"/></g>
<g transform="translate(612.375,382.375) scale(3.9483333333333)"><rect width="6" height="6"/></g>
<g transform="translate(635.375,382.375) scale(3.9483333333333)"><rect width="6" height="6"/></g>
<g transform="translate(658.375,382.375) scale(3.9483333333333)"><rect width="6" height="6"/></g>
<g transform="translate(681.375,382.375) scale(3.9483333333333)"><rect width="6" height="6"/></g>
<g transform="translate(704.375,382.375) scale(3.9483333333333)"><rect width="6" height="6"/></g>
<g transform="translate(727.375,382.375) scale(3.9483333333333)"><rect width="6" height="6"/></g>
<g transform="translate(750.375,382.375) scale(3.9483333333333)"><rect width="6" height="6"/></g>
<g transform="translate(773.375,382.375) scale(3.9483333333333)"><rect width="6" height="6"/></g>
<g transform="translate(796.375,382.375) scale(3.9483333333333)"><rect width="6" height="6"/></g>
<g transform="translate(819.375,382.375) scale(3.9483333333333)"><rect width="6" height="6"/></g>
<g transform="translate(842.375,382.375) scale(3.9483333333333)"><rect width="6" height="6"/></g>
<g transform="translate(865.375,382.375) scale(3.9483333333333)"><rect width="6" height="6"/></g>
<g transform="translate(888.375,382.375) scale(3.9483333333333)"><rect width="6" height="6"/></g>
<g transform="translate(911.375,382.375) scale(3.9483333333333)"><rect width="6" height="6"/></g>
<g transform="translate(934.375,382.375) scale(3.9483333333333)"><rect width="6" height="6"/></g>
<g transform="translate(129.375,405.375) scale(3.9483333333333)"><rect width="6" height="6"/></g>
<g transform="translate(152.375,405.375) scale(3.9483333333333)"><rect width="6" height="6"/></g>
<g transform="translate(175.375,405.375) scale(3.9483333333333)"><rect width="6" height="6"/></g>
<g transform="translate(221.375,405.375) scale(3.9483333333333)"><rect width="6" height="6"/></g>
<g transform="translate(267.375,405.375) scale(3.9483333333333)"><rect width="6" height="6"/></g>
<g transform="translate(290.375,405.375) scale(3.9483333333333)"><rect width="6" height="6"/></g>
<g transform="translate(313.375,405.375) scale(3.9483333333333)"><rect width="6" height="6"/></g>
<g transform="translate(336.375,405.375) scale(3.9483333333333)"><rect width="6" height="6"/></g>
<g transform="translate(359.375,405.375) scale(3.9483333333333)"><rect width="6" height="6"/></g>
<g transform="translate(405.375,405.375) scale(3.9483333333333)"><rect width="6" height="6"/></g>
<g transform="translate(428.375,405.375) scale(3.9483333333333)"><rect width="6" height="6"/></g>
<g transform="translate(474.375,405.375) scale(3.9483333333333)"><rect width="6" height="6"/></g>
<g transform="translate(520.375,405.375) scale(3.9483333333333)"><rect width="6" height="6"/></g>
<g transform="translate(566.375,405.375) scale(3.9483333333333)"><rect width="6" height="6"/></g>
<g transform="translate(589.375,405.375) scale(3.9483333333333)"><rect width="6" height="6"/></g>
<g transform="translate(635.375,405.375) scale(3.9483333333333)"><rect width="6" height="6"/></g>
<g transform="translate(750.375,405.375) scale(3.9483333333333)"><rect width="6" height="6"/></g>
<g transform="translate(773.375,405.375) scale(3.9483333333333)"><rect width="6" height="6"/></g>
<g transform="translate(819.375,405.375) scale(3.9483333333333)"><rect width="6" height="6"/></g>
<g transform="translate(865.375,405.375) scale(3.9483333333333)"><rect width="6" height="6"/></g>
<g transform="translate(888.375,405.375) scale(3.9483333333333)"><rect width="6" height="6"/></g>
<g transform="translate(911.375,405.375) scale(3.9483333333333)"><rect width="6" height="6"/></g>
<g transform="translate(106.375,428.375) scale(3.9483333333333)"><rect width="6" height="6"/></g>
<g transform="translate(129.375,428.375) scale(3.9483333333333)"><rect width="6" height="6"/></g>
<g transform="translate(152.375,428.375) scale(3.9483333333333)"><rect width="6" height="6"/></g>
<g transform="translate(175.375,428.375) scale(3.9483333333333)"><rect width="6" height="6"/></g>
<g transform="translate(244.375,428.375) scale(3.9483333333333)"><rect width="6" height="6"/></g>
<g transform="translate(267.375,428.375) scale(3.9483333333333)"><rect width="6" height="6"/></g>
<g transform="translate(290.375,428.375) scale(3.9483333333333)"><rect width="6" height="6"/></g>
<g transform="translate(313.375,428.375) scale(3.9483333333333)"><rect width="6" height="6"/></g>
<g transform="translate(359.375,428.375) scale(3.9483333333333)"><rect width="6" height="6"/></g>
<g transform="translate(405.375,428.375) scale(3.9483333333333)"><rect width="6" height="6"/></g>
<g transform="translate(474.375,428.375) scale(3.9483333333333)"><rect width="6" height="6"/></g>
<g transform="translate(543.375,428.375) scale(3.9483333333333)"><rect width="6" height="6"/></g>
<g transform="translate(589.375,428.375) scale(3.9483333333333)"><rect width="6" height="6"/></g>
<g transform="translate(658.375,428.375) scale(3.9483333333333)"><rect width="6" height="6"/></g>
<g transform="translate(704.375,428.375) scale(3.9483333333333)"><rect width="6" height="6"/></g>
<g transform="translate(727.375,428.375) scale(3.9483333333333)"><rect width="6" height="6"/></g>
<g transform="translate(750.375,428.375) scale(3.9483333333333)"><rect width="6" height="6"/></g>
<g transform="translate(773.375,428.375) scale(3.9483333333333)"><rect width="6" height="6"/></g>
<g transform="translate(796.375,428.375) scale(3.9483333333333)"><rect width="6" height="6"/></g>
<g transform="translate(819.375,428.375) scale(3.9483333333333)"><rect width="6" height="6"/></g>
<g transform="translate(865.375,428.375) scale(3.9483333333333)"><rect width="6" height="6"/></g>
<g transform="translate(911.375,428.375) scale(3.9483333333333)"><rect width="6" height="6"/></g>
<g transform="translate(934.375,428.375) scale(3.9483333333333)"><rect width="6" height="6"/></g>
<g transform="translate(175.375,451.375) scale(3.9483333333333)"><rect width="6" height="6"/></g>
<g transform="translate(198.375,451.375) scale(3.9483333333333)"><rect width="6" height="6"/></g>
<g transform="translate(221.375,451.375) scale(3.9483333333333)"><rect width="6" height="6"/></g>
<g transform="translate(290.375,451.375) scale(3.9483333333333)"><rect width="6" height="6"/></g>
<g transform="translate(313.375,451.375) scale(3.9483333333333)"><rect width="6" height="6"/></g>
<g transform="translate(336.375,451.375) scale(3.9483333333333)"><rect width="6" height="6"/></g>
<g transform="translate(359.375,451.375) scale(3.9483333333333)"><rect width="6" height="6"/></g>
<g transform="translate(382.375,451.375) scale(3.9483333333333)"><rect width="6" height="6"/></g>
<g transform="translate(405.375,451.375) scale(3.9483333333333)"><rect width="6" height="6"/></g>
<g transform="translate(428.375,451.375) scale(3.9483333333333)"><rect width="6" height="6"/></g>
<g transform="translate(451.375,451.375) scale(3.9483333333333)"><rect width="6" height="6"/></g>
<g transform="translate(543.375,451.375) scale(3.9483333333333)"><rect width="6" height="6"/></g>
<g transform="translate(589.375,451.375) scale(3.9483333333333)"><rect width="6" height="6"/></g>
<g transform="translate(612.375,451.375) scale(3.9483333333333)"><rect width="6" height="6"/></g>
<g transform="translate(635.375,451.375) scale(3.9483333333333)"><rect width="6" height="6"/></g>
<g transform="translate(704.375,451.375) scale(3.9483333333333)"><rect width="6" height="6"/></g>
<g transform="translate(727.375,451.375) scale(3.9483333333333)"><rect width="6" height="6"/></g>
<g transform="translate(773.375,451.375) scale(3.9483333333333)"><rect width="6" height="6"/></g>
<g transform="translate(911.375,451.375) scale(3.9483333333333)"><rect width="6" height="6"/></g>
<g transform="translate(934.375,451.375) scale(3.9483333333333)"><rect width="6" height="6"/></g>
<g transform="translate(129.375,474.375) scale(3.9483333333333)"><rect width="6" height="6"/></g>
<g transform="translate(244.375,474.375) scale(3.9483333333333)"><rect width="6" height="6"/></g>
<g transform="translate(290.375,474.375) scale(3.9483333333333)"><rect width="6" height="6"/></g>
<g transform="translate(313.375,474.375) scale(3.9483333333333)"><rect width="6" height="6"/></g>
<g transform="translate(336.375,474.375) scale(3.9483333333333)"><rect width="6" height="6"/></g>
<g transform="translate(382.375,474.375) scale(3.9483333333333)"><rect width="6" height="6"/></g>
<g transform="translate(405.375,474.375) scale(3.9483333333333)"><rect width="6" height="6"/></g>
<g transform="translate(428.375,474.375) scale(3.9483333333333)"><rect width="6" height="6"/></g>
<g transform="translate(520.375,474.375) scale(3.9483333333333)"><rect width="6" height="6"/></g>
<g transform="translate(566.375,474.375) scale(3.9483333333333)"><rect width="6" height="6"/></g>
<g transform="translate(589.375,474.375) scale(3.9483333333333)"><rect width="6" height="6"/></g>
<g transform="translate(635.375,474.375) scale(3.9483333333333)"><rect width="6" height="6"/></g>
<g transform="translate(681.375,474.375) scale(3.9483333333333)"><rect width="6" height="6"/></g>
<g transform="translate(704.375,474.375) scale(3.9483333333333)"><rect width="6" height="6"/></g>
<g transform="translate(727.375,474.375) scale(3.9483333333333)"><rect width="6" height="6"/></g>
<g transform="translate(773.375,474.375) scale(3.9483333333333)"><rect width="6" height="6"/></g>
<g transform="translate(796.375,474.375) scale(3.9483333333333)"><rect width="6" height="6"/></g>
<g transform="translate(842.375,474.375) scale(3.9483333333333)"><rect width="6" height="6"/></g>
<g transform="translate(888.375,474.375) scale(3.9483333333333)"><rect width="6" height="6"/></g>
<g transform="translate(911.375,474.375) scale(3.9483333333333)"><rect width="6" height="6"/></g>
<g transform="translate(934.375,474.375) scale(3.9483333333333)"><rect width="6" height="6"/></g>
<g transform="translate(129.375,497.375) scale(3.9483333333333)"><rect width="6" height="6"/></g>
<g transform="translate(221.375,497.375) scale(3.9483333333333)"><rect width="6" height="6"/></g>
<g transform="translate(267.375,497.375) scale(3.9483333333333)"><rect width="6" height="6"/></g>
<g transform="translate(290.375,497.375) scale(3.9483333333333)"><rect width="6" height="6"/></g>
<g transform="translate(313.375,497.375) scale(3.9483333333333)"><rect width="6" height="6"/></g>
<g transform="translate(359.375,497.375) scale(3.9483333333333)"><rect width="6" height="6"/></g>
<g transform="translate(474.375,497.375) scale(3.9483333333333)"><rect width="6" height="6"/></g>
<g transform="translate(520.375,497.375) scale(3.9483333333333)"><rect width="6" height="6"/></g>
<g transform="translate(543.375,497.375) scale(3.9483333333333)"><rect width="6" height="6"/></g>
<g transform="translate(589.375,497.375) scale(3.9483333333333)"><rect width="6" height="6"/></g>
<g transform="translate(612.375,497.375) scale(3.9483333333333)"><rect width="6" height="6"/></g>
<g transform="translate(658.375,497.375) scale(3.9483333333333)"><rect width="6" height="6"/></g>
<g transform="translate(750.375,497.375) scale(3.9483333333333)"><rect width="6" height="6"/></g>
<g transform="translate(819.375,497.375) scale(3.9483333333333)"><rect width="6" height="6"/></g>
<g transform="translate(106.375,520.375) scale(3.9483333333333)"><rect width="6" height="6"/></g>
<g transform="translate(129.375,520.375) scale(3.9483333333333)"><rect width="6" height="6"/></g>
<g transform="translate(152.375,520.375) scale(3.9483333333333)"><rect width="6" height="6"/></g>
<g transform="translate(244.375,520.375) scale(3.9483333333333)"><rect width="6" height="6"/></g>
<g transform="translate(290.375,520.375) scale(3.9483333333333)"><rect width="6" height="6"/></g>
<g transform="translate(313.375,520.375) scale(3.9483333333333)"><rect width="6" height="6"/></g>
<g transform="translate(428.375,520.375) scale(3.9483333333333)"><rect width="6" height="6"/></g>
<g transform="translate(474.375,520.375) scale(3.9483333333333)"><rect width="6" height="6"/></g>
<g transform="translate(497.375,520.375) scale(3.9483333333333)"><rect width="6" height="6"/></g>
<g transform="translate(520.375,520.375) scale(3.9483333333333)"><rect width="6" height="6"/></g>
<g transform="translate(566.375,520.375) scale(3.9483333333333)"><rect width="6" height="6"/></g>
<g transform="translate(681.375,520.375) scale(3.9483333333333)"><rect width="6" height="6"/></g>
<g transform="translate(727.375,520.375) scale(3.9483333333333)"><rect width="6" height="6"/></g>
<g transform="translate(796.375,520.375) scale(3.9483333333333)"><rect width="6" height="6"/></g>
<g transform="translate(842.375,520.375) scale(3.9483333333333)"><rect width="6" height="6"/></g>
<g transform="translate(865.375,520.375) scale(3.9483333333333)"><rect width="6" height="6"/></g>
<g transform="translate(911.375,520.375) scale(3.9483333333333)"><rect width="6" height="6"/></g>
<g transform="translate(934.375,520.375) scale(3.9483333333333)"><rect width="6" height="6"/></g>
<g transform="translate(106.375,543.375) scale(3.9483333333333)"><rect width="6" height="6"/></g>
<g transform="translate(129.375,543.375) scale(3.9483333333333)"><rect width="6" height="6"/></g>
<g transform="translate(175.375,543.375) scale(3.9483333333333)"><rect width="6" height="6"/></g>
<g transform="translate(198.375,543.375) scale(3.9483333333333)"><rect width="6" height="6"/></g>
<g transform="translate(221.375,543.375) scale(3.9483333333333)"><rect width="6" height="6"/></g>
<g transform="translate(267.375,543.375) scale(3.9483333333333)"><rect width="6" height="6"/></g>
<g transform="translate(313.375,543.375) scale(3.9483333333333)"><rect width="6" height="6"/></g>
<g transform="translate(336.375,543.375) scale(3.9483333333333)"><rect width="6" height="6"/></g>
<g transform="translate(382.375,543.375) scale(3.9483333333333)"><rect width="6" height="6"/></g>
<g transform="translate(405.375,543.375) scale(3.9483333333333)"><rect width="6" height="6"/></g>
<g transform="translate(428.375,543.375) scale(3.9483333333333)"><rect width="6" height="6"/></g>
<g transform="translate(474.375,543.375) scale(3.9483333333333)"><rect width="6" height="6"/></g>
<g transform="translate(543.375,543.375) scale(3.9483333333333)"><rect width="6" height="6"/></g>
<g transform="translate(589.375,543.375) scale(3.9483333333333)"><rect width="6" height="6"/></g>
<g transform="translate(612.375,543.375) scale(3.9483333333333)"><rect width="6" height="6"/></g>
<g transform="translate(658.375,543.375) scale(3.9483333333333)"><rect width="6" height="6"/></g>
<g transform="translate(727.375,543.375) scale(3.9483333333333)"><rect width="6" height="6"/></g>
<g transform="translate(750.375,543.375) scale(3.9483333333333)"><rect width="6" height="6"/></g>
<g transform="translate(773.375,543.375) scale(3.9483333333333)"><rect width="6" height="6"/></g>
<g transform="translate(819.375,543.375) scale(3.9483333333333)"><rect width="6" height="6"/></g>
<g transform="translate(842.375,543.375) scale(3.9483333333333)"><rect width="6" height="6"/></g>
<g transform="translate(106.375,566.375) scale(3.9483333333333)"><rect width="6" height="6"/></g>
<g transform="translate(129.375,566.375) scale(3.9483333333333)"><rect width="6" height="6"/></g>
<g transform="translate(152.375,566.375) scale(3.9483333333333)"><rect width="6" height="6"/></g>
<g transform="translate(198.375,566.375) scale(3.9483333333333)"><rect width="6" height="6"/></g>
<g transform="translate(221.375,566.375) scale(3.9483333333333)"><rect width="6" height="6"/></g>
<g transform="translate(244.375,566.375) scale(3.9483333333333)"><rect width="6" height="6"/></g>
<g transform="translate(267.375,566.375) scale(3.9483333333333)"><rect width="6" height="6"/></g>
<g transform="translate(290.375,566.375) scale(3.9483333333333)"><rect width="6" height="6"/></g>
<g transform="translate(359.375,566.375) scale(3.9483333333333)"><rect width="6" height="6"/></g>
<g transform="translate(405.375,566.375) scale(3.9483333333333)"><rect width="6" height="6"/></g>
<g transform="translate(474.375,566.375) scale(3.9483333333333)"><rect width="6" height="6"/></g>
<g transform="translate(497.375,566.375) scale(3.9483333333333)"><rect width="6" height="6"/></g>
<g transform="translate(543.375,566.375) scale(3.9483333333333)"><rect width="6" height="6"/></g>
<g transform="translate(612.375,566.375) scale(3.9483333333333)"><rect width="6" height="6"/></g>
<g transform="translate(658.375,566.375) scale(3.9483333333333)"><rect width="6" height="6"/></g>
<g transform="translate(681.375,566.375) scale(3.9483333333333)"><rect width="6" height="6"/></g>
<g transform="translate(704.375,566.375) scale(3.9483333333333)"><rect width="6" height="6"/></g>
<g transform="translate(727.375,566.375) scale(3.9483333333333)"><rect width="6" height="6"/></g>
<g transform="translate(773.375,566.375) scale(3.9483333333333)"><rect width="6" height="6"/></g>
<g transform="translate(796.375,566.375) scale(3.9483333333333)"><rect width="6" height="6"/></g>
<g transform="translate(819.375,566.375) scale(3.9483333333333)"><rect width="6" height="6"/></g>
<g transform="translate(842.375,566.375) scale(3.9483333333333)"><rect width="6" height="6"/></g>
<g transform="translate(865.375,566.375) scale(3.9483333333333)"><rect width="6" height="6"/></g>
<g transform="translate(888.375,566.375) scale(3.9483333333333)"><rect width="6" height="6"/></g>
<g transform="translate(911.375,566.375) scale(3.9483333333333)"><rect width="6" height="6"/></g>
<g transform="translate(934.375,566.375) scale(3.9483333333333)"><rect width="6" height="6"/></g>
<g transform="translate(129.375,589.375) scale(3.9483333333333)"><rect width="6" height="6"/></g>
<g transform="translate(152.375,589.375) scale(3.9483333333333)"><rect width="6" height="6"/></g>
<g transform="translate(198.375,589.375) scale(3.9483333333333)"><rect width="6" height="6"/></g>
<g transform="translate(221.375,589.375) scale(3.9483333333333)"><rect width="6" height="6"/></g>
<g transform="translate(290.375,589.375) scale(3.9483333333333)"><rect width="6" height="6"/></g>
<g transform="translate(313.375,589.375) scale(3.9483333333333)"><rect width="6" height="6"/></g>
<g transform="translate(336.375,589.375) scale(3.9483333333333)"><rect width="6" height="6"/></g>
<g transform="translate(405.375,589.375) scale(3.9483333333333)"><rect width="6" height="6"/></g>
<g transform="translate(451.375,589.375) scale(3.9483333333333)"><rect width="6" height="6"/></g>
<g transform="translate(474.375,589.375) scale(3.9483333333333)"><rect width="6" height="6"/></g>
<g transform="translate(566.375,589.375) scale(3.9483333333333)"><rect width="6" height="6"/></g>
<g transform="translate(635.375,589.375) scale(3.9483333333333)"><rect width="6" height="6"/></g>
<g transform="translate(681.375,589.375) scale(3.9483333333333)"><rect width="6" height="6"/></g>
<g transform="translate(819.375,589.375) scale(3.9483333333333)"><rect width="6" height="6"/></g>
<g transform="translate(888.375,589.375) scale(3.9483333333333)"><rect width="6" height="6"/></g>
<g transform="translate(106.375,612.375) scale(3.9483333333333)"><rect width="6" height="6"/></g>
<g transform="translate(221.375,612.375) scale(3.9483333333333)"><rect width="6" height="6"/></g>
<g transform="translate(244.375,612.375) scale(3.9483333333333)"><rect width="6" height="6"/></g>
<g transform="translate(290.375,612.375) scale(3.9483333333333)"><rect width="6" height="6"/></g>
<g transform="translate(474.375,612.375) scale(3.9483333333333)"><rect width="6" height="6"/></g>
<g transform="translate(543.375,612.375) scale(3.9483333333333)"><rect width="6" height="6"/></g>
<g transform="translate(612.375,612.375) scale(3.9483333333333)"><rect width="6" height="6"/></g>
<g transform="translate(704.375,612.375) scale(3.9483333333333)"><rect width="6" height="6"/></g>
<g transform="translate(727.375,612.375) scale(3.9483333333333)"><rect width="6" height="6"/></g>
<g transform="translate(773.375,612.375) scale(3.9483333333333)"><rect width="6" height="6"/></g>
<g transform="translate(888.375,612.375) scale(3.9483333333333)"><rect width="6" height="6"/></g>
<g transform="translate(911.375,612.375) scale(3.9483333333333)"><rect width="6" height="6"/></g>
<g transform="translate(934.375,612.375) scale(3.9483333333333)"><rect width="6" height="6"/></g>
<g transform="translate(106.375,635.375) scale(3.9483333333333)"><rect width="6" height="6"/></g>
<g transform="translate(152.375,635.375) scale(3.9483333333333)"><rect width="6" height="6"/></g>
<g transform="translate(175.375,635.375) scale(3.9483333333333)"><rect width="6" height="6"/></g>
<g transform="translate(221.375,635.375) scale(3.9483333333333)"><rect width="6" height="6"/></g>
<g transform="translate(267.375,635.375) scale(3.9483333333333)"><rect width="6" height="6"/></g>
<g transform="translate(313.375,635.375) scale(3.9483333333333)"><rect width="6" height="6"/></g>
<g transform="translate(382.375,635.375) scale(3.9483333333333)"><rect width="6" height="6"/></g>
<g transform="translate(405.375,635.375) scale(3.9483333333333)"><rect width="6" height="6"/></g>
<g transform="translate(451.375,635.375) scale(3.9483333333333)"><rect width="6" height="6"/></g>
<g transform="translate(474.375,635.375) scale(3.9483333333333)"><rect width="6" height="6"/></g>
<g transform="translate(497.375,635.375) scale(3.9483333333333)"><rect width="6" height="6"/></g>
<g transform="translate(589.375,635.375) scale(3.9483333333333)"><rect width="6" height="6"/></g>
<g transform="translate(612.375,635.375) scale(3.9483333333333)"><rect width="6" height="6"/></g>
<g transform="translate(819.375,635.375) scale(3.9483333333333)"><rect width="6" height="6"/></g>
<g transform="translate(911.375,635.375) scale(3.9483333333333)"><rect width="6" height="6"/></g>
<g transform="translate(934.375,635.375) scale(3.9483333333333)"><rect width="6" height="6"/></g>
<g transform="translate(106.375,658.375) scale(3.9483333333333)"><rect width="6" height="6"/></g>
<g transform="translate(152.375,658.375) scale(3.9483333333333)"><rect width="6" height="6"/></g>
<g transform="translate(175.375,658.375) scale(3.9483333333333)"><rect width="6" height="6"/></g>
<g transform="translate(221.375,658.375) scale(3.9483333333333)"><rect width="6" height="6"/></g>
<g transform="translate(244.375,658.375) scale(3.9483333333333)"><rect width="6" height="6"/></g>
<g transform="translate(290.375,658.375) scale(3.9483333333333)"><rect width="6" height="6"/></g>
<g transform="translate(336.375,658.375) scale(3.9483333333333)"><rect width="6" height="6"/></g>
<g transform="translate(382.375,658.375) scale(3.9483333333333)"><rect width="6" height="6"/></g>
<g transform="translate(405.375,658.375) scale(3.9483333333333)"><rect width="6" height="6"/></g>
<g transform="translate(428.375,658.375) scale(3.9483333333333)"><rect width="6" height="6"/></g>
<g transform="translate(451.375,658.375) scale(3.9483333333333)"><rect width="6" height="6"/></g>
<g transform="translate(543.375,658.375) scale(3.9483333333333)"><rect width="6" height="6"/></g>
<g transform="translate(566.375,658.375) scale(3.9483333333333)"><rect width="6" height="6"/></g>
<g transform="translate(589.375,658.375) scale(3.9483333333333)"><rect width="6" height="6"/></g>
<g transform="translate(612.375,658.375) scale(3.9483333333333)"><rect width="6" height="6"/></g>
<g transform="translate(658.375,658.375) scale(3.9483333333333)"><rect width="6" height="6"/></g>
<g transform="translate(750.375,658.375) scale(3.9483333333333)"><rect width="6" height="6"/></g>
<g transform="translate(773.375,658.375) scale(3.9483333333333)"><rect width="6" height="6"/></g>
<g transform="translate(796.375,658.375) scale(3.9483333333333)"><rect width="6" height="6"/></g>
<g transform="translate(819.375,658.375) scale(3.9483333333333)"><rect width="6" height="6"/></g>
<g transform="translate(842.375,658.375) scale(3.9483333333333)"><rect width="6" height="6"/></g>
<g transform="translate(865.375,658.375) scale(3.9483333333333)"><rect width="6" height="6"/></g>
<g transform="translate(888.375,658.375) scale(3.9483333333333)"><rect width="6" height="6"/></g>
<g transform="translate(106.375,681.375) scale(3.9483333333333)"><rect width="6" height="6"/></g>
<g transform="translate(129.375,681.375) scale(3.9483333333333)"><rect width="6" height="6"/></g>
<g transform="translate(152.375,681.375) scale(3.9483333333333)"><rect width="6" height="6"/></g>
<g transform="translate(175.375,681.375) scale(3.9483333333333)"><rect width="6" height="6"/></g>
<g transform="translate(198.375,681.375) scale(3.9483333333333)"><rect width="6" height="6"/></g>
<g transform="translate(336.375,681.375) scale(3.9483333333333)"><rect width="6" height="6"/></g>
<g transform="translate(382.375,681.375) scale(3.9483333333333)"><rect width="6" height="6"/></g>
<g transform="translate(405.375,681.375) scale(3.9483333333333)"><rect width="6" height="6"/></g>
<g transform="translate(451.375,681.375) scale(3.9483333333333)"><rect width="6" height="6"/></g>
<g transform="translate(520.375,681.375) scale(3.9483333333333)"><rect width="6" height="6"/></g>
<g transform="translate(635.375,681.375) scale(3.9483333333333)"><rect width="6" height="6"/></g>
<g transform="translate(750.375,681.375) scale(3.9483333333333)"><rect width="6" height="6"/></g>
<g transform="translate(819.375,681.375) scale(3.9483333333333)"><rect width="6" height="6"/></g>
<g transform="translate(911.375,681.375) scale(3.9483333333333)"><rect width="6" height="6"/></g>
<g transform="translate(934.375,681.375) scale(3.9483333333333)"><rect width="6" height="6"/></g>
<g transform="translate(106.375,704.375) scale(3.9483333333333)"><rect width="6" height="6"/></g>
<g transform="translate(152.375,704.375) scale(3.9483333333333)"><rect width="6" height="6"/></g>
<g transform="translate(175.375,704.375) scale(3.9483333333333)"><rect width="6" height="6"/></g>
<g transform="translate(198.375,704.375) scale(3.9483333333333)"><rect width="6" height="6"/></g>
<g transform="translate(221.375,704.375) scale(3.9483333333333)"><rect width="6" height="6"/></g>
<g transform="translate(244.375,704.375) scale(3.9483333333333)"><rect width="6" height="6"/></g>
<g transform="translate(359.375,704.375) scale(3.9483333333333)"><rect width="6" height="6"/></g>
<g transform="translate(382.375,704.375) scale(3.9483333333333)"><rect width="6" height="6"/></g>
<g transform="translate(451.375,704.375) scale(3.9483333333333)"><rect width="6" height="6"/></g>
<g transform="translate(520.375,704.375) scale(3.9483333333333)"><rect width="6" height="6"/></g>
<g transform="translate(566.375,704.375) scale(3.9483333333333)"><rect width="6" height="6"/></g>
<g transform="translate(612.375,704.375) scale(3.9483333333333)"><rect width="6" height="6"/></g>
<g transform="translate(658.375,704.375) scale(3.9483333333333)"><rect width="6" height="6"/></g>
<g transform="translate(704.375,704.375) scale(3.9483333333333)"><rect width="6" height="6"/></g>
<g transform="translate(727.375,704.375) scale(3.9483333333333)"><rect width="6" height="6"/></g>
<g transform="translate(796.375,704.375) scale(3.9483333333333)"><rect width="6" height="6"/></g>
<g transform="translate(819.375,704.375) scale(3.9483333333333)"><rect width="6" height="6"/></g>
<g transform="translate(865.375,704.375) scale(3.9483333333333)"><rect width="6" height="6"/></g>
<g transform="translate(911.375,704.375) scale(3.9483333333333)"><rect width="6" height="6"/></g>
<g transform="translate(934.375,704.375) scale(3.9483333333333)"><rect width="6" height="6"/></g>
<g transform="translate(106.375,727.375) scale(3.9483333333333)"><rect width="6" height="6"/></g>
<g transform="translate(152.375,727.375) scale(3.9483333333333)"><rect width="6" height="6"/></g>
<g transform="translate(175.375,727.375) scale(3.9483333333333)"><rect width="6" height="6"/></g>
<g transform="translate(198.375,727.375) scale(3.9483333333333)"><rect width="6" height="6"/></g>
<g transform="translate(267.375,727.375) scale(3.9483333333333)"><rect width="6" height="6"/></g>
<g transform="translate(359.375,727.375) scale(3.9483333333333)"><rect width="6" height="6"/></g>
<g transform="translate(405.375,727.375) scale(3.9483333333333)"><rect width="6" height="6"/></g>
<g transform="translate(428.375,727.375) scale(3.9483333333333)"><rect width="6" height="6"/></g>
<g transform="translate(520.375,727.375) scale(3.9483333333333)"><rect width="6" height="6"/></g>
<g transform="translate(566.375,727.375) scale(3.9483333333333)"><rect width="6" height="6"/></g>
<g transform="translate(589.375,727.375) scale(3.9483333333333)"><rect width="6" height="6"/></g>
<g transform="translate(612.375,727.375) scale(3.9483333333333)"><rect width="6" height="6"/></g>
<g transform="translate(635.375,727.375) scale(3.9483333333333)"><rect width="6" height="6"/></g>
<g transform="translate(727.375,727.375) scale(3.9483333333333)"><rect width="6" height="6"/></g>
<g transform="translate(773.375,727.375) scale(3.9483333333333)"><rect width="6" height="6"/></g>
<g transform="translate(819.375,727.375) scale(3.9483333333333)"><rect width="6" height="6"/></g>
<g transform="translate(106.375,750.375) scale(3.9483333333333)"><rect width="6" height="6"/></g>
<g transform="translate(152.375,750.375) scale(3.9483333333333)"><rect width="6" height="6"/></g>
<g transform="translate(175.375,750.375) scale(3.9483333333333)"><rect width="6" height="6"/></g>
<g transform="translate(198.375,750.375) scale(3.9483333333333)"><rect width="6" height="6"/></g>
<g transform="translate(244.375,750.375) scale(3.9483333333333)"><rect width="6" height="6"/></g>
<g transform="translate(336.375,750.375) scale(3.9483333333333)"><rect width="6" height="6"/></g>
<g transform="translate(382.375,750.375) scale(3.9483333333333)"><rect width="6" height="6"/></g>
<g transform="translate(405.375,750.375) scale(3.9483333333333)"><rect width="6" height="6"/></g>
<g transform="translate(428.375,750.375) scale(3.9483333333333)"><rect width="6" height="6"/></g>
<g transform="translate(451.375,750.375) scale(3.9483333333333)"><rect width="6" height="6"/></g>
<g transform="translate(497.375,750.375) scale(3.9483333333333)"><rect width="6" height="6"/></g>
<g transform="translate(635.375,750.375) scale(3.9483333333333)"><rect width="6" height="6"/></g>
<g transform="translate(658.375,750.375) scale(3.9483333333333)"><rect width="6" height="6"/></g>
<g transform="translate(681.375,750.375) scale(3.9483333333333)"><rect width="6" height="6"/></g>
<g transform="translate(704.375,750.375) scale(3.9483333333333)"><rect width="6" height="6"/></g>
<g transform="translate(750.375,750.375) scale(3.9483333333333)"><rect width="6" height="6"/></g>
<g transform="translate(773.375,750.375) scale(3.9483333333333)"><rect width="6" height="6"/></g>
<g transform="translate(796.375,750.375) scale(3.9483333333333)"><rect width="6" height="6"/></g>
<g transform="translate(819.375,750.375) scale(3.9483333333333)"><rect width="6" height="6"/></g>
<g transform="translate(842.375,750.375) scale(3.9483333333333)"><rect width="6" height="6"/></g>
<g transform="translate(865.375,750.375) scale(3.9483333333333)"><rect width="6" height="6"/></g>
<g transform="translate(888.375,750.375) scale(3.9483333333333)"><rect width="6" height="6"/></g>
<g transform="translate(911.375,750.375) scale(3.9483333333333)"><rect width="6" height="6"/></g>
<g transform="translate(934.375,750.375) scale(3.9483333333333)"><rect width="6" height="6"/></g>
<g transform="translate(290.375,773.375) scale(3.9483333333333)"><rect width="6" height="6"/></g>
<g transform="translate(336.375,773.375) scale(3.9483333333333)"><rect width="6" height="6"/></g>
<g transform="translate(359.375,773.375) scale(3.9483333333333)"><rect width="6" height="6"/></g>
<g transform="translate(382.375,773.375) scale(3.9483333333333)"><rect width="6" height="6"/></g>
<g transform="translate(405.375,773.375) scale(3.9483333333333)"><rect width="6" height="6"/></g>
<g transform="translate(428.375,773.375) scale(3.9483333333333)"><rect width="6" height="6"/></g>
<g transform="translate(474.375,773.375) scale(3.9483333333333)"><rect width="6" height="6"/></g>
<g transform="translate(520.375,773.375) scale(3.9483333333333)"><rect width="6" height="6"/></g>
<g transform="translate(543.375,773.375) scale(3.9483333333333)"><rect width="6" height="6"/></g>
<g transform="translate(566.375,773.375) scale(3.9483333333333)"><rect width="6" height="6"/></g>
<g transform="translate(635.375,773.375) scale(3.9483333333333)"><rect width="6" height="6"/></g>
<g transform="translate(727.375,773.375) scale(3.9483333333333)"><rect width="6" height="6"/></g>
<g transform="translate(750.375,773.375) scale(3.9483333333333)"><rect width="6" height="6"/></g>
<g transform="translate(842.375,773.375) scale(3.9483333333333)"><rect width="6" height="6"/></g>
<g transform="translate(911.375,773.375) scale(3.9483333333333)"><rect width="6" height="6"/></g>
<g transform="translate(290.375,796.375) scale(3.9483333333333)"><rect width="6" height="6"/></g>
<g transform="translate(474.375,796.375) scale(3.9483333333333)"><rect width="6" height="6"/></g>
<g transform="translate(543.375,796.375) scale(3.9483333333333)"><rect width="6" height="6"/></g>
<g transform="translate(612.375,796.375) scale(3.9483333333333)"><rect width="6" height="6"/></g>
<g transform="translate(681.375,796.375) scale(3.9483333333333)"><rect width="6" height="6"/></g>
<g transform="translate(750.375,796.375) scale(3.9483333333333)"><rect width="6" height="6"/></g>
<g transform="translate(796.375,796.375) scale(3.9483333333333)"><rect width="6" height="6"/></g>
<g transform="translate(842.375,796.375) scale(3.9483333333333)"><rect width="6" height="6"/></g>
<g transform="translate(865.375,796.375) scale(3.9483333333333)"><rect width="6" height="6"/></g>
<g transform="translate(911.375,796.375) scale(3.9483333333333)"><rect width="6" height="6"/></g>
<g transform="translate(934.375,796.375) scale(3.9483333333333)"><rect width="6" height="6"/></g>
<g transform="translate(290.375,819.375) scale(3.9483333333333)"><rect width="6" height="6"/></g>
<g transform="translate(336.375,819.375) scale(3.9483333333333)"><rect width="6" height="6"/></g>
<g transform="translate(451.375,819.375) scale(3.9483333333333)"><rect width="6" height="6"/></g>
<g transform="translate(497.375,819.375) scale(3.9483333333333)"><rect width="6" height="6"/></g>
<g transform="translate(543.375,819.375) scale(3.9483333333333)"><rect width="6" height="6"/></g>
<g transform="translate(566.375,819.375) scale(3.9483333333333)"><rect width="6" height="6"/></g>
<g transform="translate(635.375,819.375) scale(3.9483333333333)"><rect width="6" height="6"/></g>
<g transform="translate(750.375,819.375) scale(3.9483333333333)"><rect width="6" height="6"/></g>
<g transform="translate(842.375,819.375) scale(3.9483333333333)"><rect width="6" height="6"/></g>
<g transform="translate(934.375,819.375) scale(3.9483333333333)"><rect width="6" height="6"/></g>
<g transform="translate(290.375,842.375) scale(3.9483333333333)"><rect width="6" height="6"/></g>
<g transform="translate(313.375,842.375) scale(3.9483333333333)"><rect width="6" height="6"/></g>
<g transform="translate(336.375,842.375) scale(3.9483333333333)"><rect width="6" height="6"/></g>
<g transform="translate(359.375,842.375) scale(3.9483333333333)"><rect width="6" height="6"/></g>
<g transform="translate(382.375,842.375) scale(3.9483333333333)"><rect width="6" height="6"/></g>
<g transform="translate(451.375,842.375) scale(3.9483333333333)"><rect width="6" height="6"/></g>
<g transform="translate(497.375,842.375) scale(3.9483333333333)"><rect width="6" height="6"/></g>
<g transform="translate(520.375,842.375) scale(3.9483333333333)"><rect width="6" height="6"/></g>
<g transform="translate(543.375,842.375) scale(3.9483333333333)"><rect width="6" height="6"/></g>
<g transform="translate(566.375,842.375) scale(3.9483333333333)"><rect width="6" height="6"/></g>
<g transform="translate(589.375,842.375) scale(3.9483333333333)"><rect width="6" height="6"/></g>
<g transform="translate(612.375,842.375) scale(3.9483333333333)"><rect width="6" height="6"/></g>
<g transform="translate(635.375,842.375) scale(3.9483333333333)"><rect width="6" height="6"/></g>
<g transform="translate(658.375,842.375) scale(3.9483333333333)"><rect width="6" height="6"/></g>
<g transform="translate(681.375,842.375) scale(3.9483333333333)"><rect width="6" height="6"/></g>
<g transform="translate(727.375,842.375) scale(3.9483333333333)"><rect width="6" height="6"/></g>
<g transform="translate(750.375,842.375) scale(3.9483333333333)"><rect width="6" height="6"/></g>
<g transform="translate(773.375,842.375) scale(3.9483333333333)"><rect width="6" height="6"/></g>
<g transform="translate(796.375,842.375) scale(3.9483333333333)"><rect width="6" height="6"/></g>
<g transform="translate(819.375,842.375) scale(3.9483333333333)"><rect width="6" height="6"/></g>
<g transform="translate(842.375,842.375) scale(3.9483333333333)"><rect width="6" height="6"/></g>
<g transform="translate(888.375,842.375) scale(3.9483333333333)"><rect width="6" height="6"/></g>
<g transform="translate(290.375,865.375) scale(3.9483333333333)"><rect width="6" height="6"/></g>
<g transform="translate(313.375,865.375) scale(3.9483333333333)"><rect width="6" height="6"/></g>
<g transform="translate(359.375,865.375) scale(3.9483333333333)"><rect width="6" height="6"/></g>
<g transform="translate(382.375,865.375) scale(3.9483333333333)"><rect width="6" height="6"/></g>
<g transform="translate(405.375,865.375) scale(3.9483333333333)"><rect width="6" height="6"/></g>
<g transform="translate(474.375,865.375) scale(3.9483333333333)"><rect width="6" height="6"/></g>
<g transform="translate(681.375,865.375) scale(3.9483333333333)"><rect width="6" height="6"/></g>
<g transform="translate(796.375,865.375) scale(3.9483333333333)"><rect width="6" height="6"/></g>
<g transform="translate(842.375,865.375) scale(3.9483333333333)"><rect width="6" height="6"/></g>
<g transform="translate(865.375,865.375) scale(3.9483333333333)"><rect width="6" height="6"/></g>
<g transform="translate(911.375,865.375) scale(3.9483333333333)"><rect width="6" height="6"/></g>
<g transform="translate(290.375,888.375) scale(3.9483333333333)"><rect width="6" height="6"/></g>
<g transform="translate(313.375,888.375) scale(3.9483333333333)"><rect width="6" height="6"/></g>
<g transform="translate(336.375,888.375) scale(3.9483333333333)"><rect width="6" height="6"/></g>
<g transform="translate(359.375,888.375) scale(3.9483333333333)"><rect width="6" height="6"/></g>
<g transform="translate(382.375,888.375) scale(3.9483333333333)"><rect width="6" height="6"/></g>
<g transform="translate(405.375,888.375) scale(3.9483333333333)"><rect width="6" height="6"/></g>
<g transform="translate(451.375,888.375) scale(3.9483333333333)"><rect width="6" height="6"/></g>
<g transform="translate(520.375,888.375) scale(3.9483333333333)"><rect width="6" height="6"/></g>
<g transform="translate(566.375,888.375) scale(3.9483333333333)"><rect width="6" height="6"/></g>
<g transform="translate(612.375,888.375) scale(3.9483333333333)"><rect width="6" height="6"/></g>
<g transform="translate(635.375,888.375) scale(3.9483333333333)"><rect width="6" height="6"/></g>
<g transform="translate(658.375,888.375) scale(3.9483333333333)"><rect width="6" height="6"/></g>
<g transform="translate(727.375,888.375) scale(3.9483333333333)"><rect width="6" height="6"/></g>
<g transform="translate(773.375,888.375) scale(3.9483333333333)"><rect width="6" height="6"/></g>
<g transform="translate(819.375,888.375) scale(3.9483333333333)"><rect width="6" height="6"/></g>
<g transform="translate(934.375,888.375) scale(3.9483333333333)"><rect width="6" height="6"/></g>
<g transform="translate(290.375,911.375) scale(3.9483333333333)"><rect width="6" height="6"/></g>
<g transform="translate(405.375,911.375) scale(3.9483333333333)"><rect width="6" height="6"/></g>
<g transform="translate(428.375,911.375) scale(3.9483333333333)"><rect width="6" height="6"/></g>
<g transform="translate(451.375,911.375) scale(3.9483333333333)"><rect width="6" height="6"/></g>
<g transform="translate(520.375,911.375) scale(3.9483333333333)"><rect width="6" height="6"/></g>
<g transform="translate(589.375,911.375) scale(3.9483333333333)"><rect width="6" height="6"/></g>
<g transform="translate(612.375,911.375) scale(3.9483333333333)"><rect width="6" height="6"/></g>
<g transform="translate(635.375,911.375) scale(3.9483333333333)"><rect width="6" height="6"/></g>
<g transform="translate(704.375,911.375) scale(3.9483333333333)"><rect width="6" height="6"/></g>
<g transform="translate(750.375,911.375) scale(3.9483333333333)"><rect width="6" height="6"/></g>
<g transform="translate(819.375,911.375) scale(3.9483333333333)"><rect width="6" height="6"/></g>
<g transform="translate(842.375,911.375) scale(3.9483333333333)"><rect width="6" height="6"/></g>
<g transform="translate(865.375,911.375) scale(3.9483333333333)"><rect width="6" height="6"/></g>
<g transform="translate(934.375,911.375) scale(3.9483333333333)"><rect width="6" height="6"/></g>
<g transform="translate(382.375,934.375) scale(3.9483333333333)"><rect width="6" height="6"/></g>
<g transform="translate(405.375,934.375) scale(3.9483333333333)"><rect width="6" height="6"/></g>
<g transform="translate(428.375,934.375) scale(3.9483333333333)"><rect width="6" height="6"/></g>
<g transform="translate(497.375,934.375) scale(3.9483333333333)"><rect width="6" height="6"/></g>
<g transform="translate(520.375,934.375) scale(3.9483333333333)"><rect width="6" height="6"/></g>
<g transform="translate(612.375,934.375) scale(3.9483333333333)"><rect width="6" height="6"/></g>
<g transform="translate(635.375,934.375) scale(3.9483333333333)"><rect width="6" height="6"/></g>
<g transform="translate(658.375,934.375) scale(3.9483333333333)"><rect width="6" height="6"/></g>
<g transform="translate(681.375,934.375) scale(3.9483333333333)"><rect width="6" height="6"/></g>
<g transform="translate(704.375,934.375) scale(3.9483333333333)"><rect width="6" height="6"/></g>
<g transform="translate(773.375,934.375) scale(3.9483333333333)"><rect width="6" height="6"/></g>
<g transform="translate(796.375,934.375) scale(3.9483333333333)"><rect width="6" height="6"/></g>
<g transform="translate(865.375,934.375) scale(3.9483333333333)"><rect width="6" height="6"/></g>
<g transform="translate(888.375,934.375) scale(3.9483333333333)"><rect width="6" height="6"/></g>
<g transform="translate(911.375,934.375) scale(3.9483333333333)"><rect width="6" height="6"/></g>
<g transform="translate(934.375,934.375) scale(3.9483333333333)"><rect width="6" height="6"/></g>
<g transform="translate(106.375,106.375)"><g transform="scale(11.5)"><path d="M0,0l0,7c0,3.9,3.1,7,7,7h7V7c0-3.9-3.1-7-7-7H0z M7,12L7,12c-2.8,0-5-2.2-5-5v0c0-2.8,2.2-5,5-5h0c2.8,0,5,2.2,5,5v0 C12,9.8,9.8,12,7,12z"/></g></g>
<g transform="translate(796.375,106.375)"><g transform="scale(11.5) rotate(90 7 7)"><path d="M0,0l0,7c0,3.9,3.1,7,7,7h7V7c0-3.9-3.1-7-7-7H0z M7,12L7,12c-2.8,0-5-2.2-5-5v0c0-2.8,2.2-5,5-5h0c2.8,0,5,2.2,5,5v0 C12,9.8,9.8,12,7,12z"/></g></g>
<g transform="translate(106.375,796.375)"><g transform="scale(11.5) rotate(-90 7 7)"><path d="M0,0l0,7c0,3.9,3.1,7,7,7h7V7c0-3.9-3.1-7-7-7H0z M7,12L7,12c-2.8,0-5-2.2-5-5v0c0-2.8,2.2-5,5-5h0c2.8,0,5,2.2,5,5v0 C12,9.8,9.8,12,7,12z"/></g></g>
<g transform="translate(152.375,152.375)"><g transform="scale(11.5)"><rect width="6" height="6"/></g></g>
<g transform="translate(842.375,152.375)"><g transform="scale(11.5)"><rect width="6" height="6"/></g></g>
<g transform="translate(152.375,842.375)"><g transform="scale(11.5)"><rect width="6" height="6"/></g></g>
</g><g transform="translate(106.375,1017.2306490894) scale(1.3516518424396)"><path fill="#000000" d="M21.7,102.3l30.8,0q2.3,0,3.45,0.15t2.65,0.95q2.7,1.4,2.7,7.8q0,7-3.7,8.2q-1.7,0.6-5.2,0.6l-39.6,0q-7,0-8.2-3.8q-0.6-1.6-0.6-5.1l0-55.6q0-5.1,1.9-6.95t7.2-1.85l39.4,0q2.3,0,3.45,0.15t2.65,0.95q2.7,1.4,2.7,7.8q0,7-3.7,8.2q-1.7,0.6-5.2,0.6l-30.7,0l0,10.1l19.8,0q2.3,0,3.45,0.15t2.65,0.95q2.7,1.4,2.7,7.8q0,7-3.8,8.2q-1.7,0.6-5.2,0.6l-19.6,0l0,10.1z M68.9,109.7q-2.6-3.2-2.6-5.75t4.3-6.75q2.5-2.4,5.3-2.4t7.8,5q1.4,1.7,4,3.25t4.8,1.55q9.3,0,9.3-7.6q0-2.3-2.55-3.85t-6.35-2.25t-8.2-2.25t-8.2-3.65t-6.35-6.65t-2.55-10.95q0-8.8,6.55-15.35t17.85-6.55q6,0,10.95,1.55t6.85,3.15l2.5,1.9q3.1,2.9,3.1,4.9t-2.4,5.5q-3.4,5-7,5q-2.1,0-5.2-2q-0.3-0.2-1.15-1t-1.55-1.3q-2.1-1.3-5.35-1.3t-5.4,1.55t-2.15,4.3t2.55,4.45t6.35,2.3t8.3,1.85t8.3,3.05t6.35,6.25t2.55,10.95t-2.6,11.45t-6.8,7.65q-8.1,5.3-17.3,5.3q-4.7,0-8.9-1.15t-6.8-2.85q-5.3-3.2-7.4-6.2z M171.9,100.8l1.8-1.3q3.4-2,4.8-2q3.1,0,6.7,5.6q2.2,3.5,2.2,5.6t-1.35,3.5t-3.15,2.5t-3.45,2.1t-6.75,2.6t-9.85,1.6t-9.6-1.25t-10-4.2t-9.25-7.2t-6.75-10.9t-2.65-14.45t2.6-14.15t6.65-10.5t9.25-6.95q9.8-5.4,19.7-5.4q4.7,0,9.55,1.45t7.35,2.95l2.4,1.4q1.8,1.1,2.8,1.8q2.6,2.1,2.6,4.75t-2.1,5.55q-3.9,5.4-7,5.4q-1.8,0-5.1-2.2q-4.2-3.4-11.2-3.4q-6.5,0-12.8,4.5q-3,2.2-5,6.2t-2,9.05t2,9.05t5.1,6.3q6.1,4.4,12.7,4.4q3.1,0,5.85-0.8t3.95-1.6z M236.3,51.9l27,55.8q1.7,3.4,1.7,5.1q0,3.6-5.8,6.5q-3.4,1.7-5.35,1.7t-3.2-0.9t-1.8-1.9t-1.55-3l-5.2-10.8l-27.7,0l-5.2,10.8q-1,2-1.55,2.9t-1.8,1.85t-3.2,0.95t-5.35-1.7q-5.8-2.8-5.8-6.4q0-1.7,1.7-5.1l27-55.9q1.1-2.3,3.35-3.7t4.75-1.4q5.4,0,8,5.2z M228.2,75.9l-6.6,13.7l13.3,0z M320.7,47.4q1.9-0.6,4.75-0.6t4.6,0.5t2.6,1.2t1.25,2.1q0.6,1.6,0.6,5.1l0,55.5q0,2.4-0.15,3.5t-0.95,2.6q-1.4,2.7-7.8,2.7q-3.9,0-5.4-0.6t-2.5-1.9q-22.5-30-29.6-39.2l0,32.9q0,2.4-0.15,3.5t-0.95,2.6q-1.4,2.7-7.8,2.7q-6.2,0-7.6-2.7q-0.8-1.5-0.95-2.7t-0.15-3.5l0-55.8q0-3.8,0.95-5.55t2.85-2.35t4.9-0.6t4.75,0.55t2.45,1.25q0.4,0.3,2.3,2.6q21.1,28.7,28.2,37.9l0-33.8q0-3.8,0.95-5.55t2.85-2.35z M360.2,102.3l30.8,0q2.3,0,3.45,0.15t2.65,0.95q2.7,1.4,2.7,7.8q0,7-3.7,8.2q-1.7,0.6-5.2,0.6l-39.6,0q-7,0-8.2-3.8q-0.6-1.6-0.6-5.1l0-55.6q0-5.1,1.9-6.95t7.2-1.85l39.4,0q2.3,0,3.45,0.15t2.65,0.95q2.7,1.4,2.7,7.8q0,7-3.7,8.2q-1.7,0.6-5.2,0.6l-30.7,0l0,10.1l19.8,0q2.3,0,3.45,0.15t2.65,0.95q2.7,1.4,2.7,7.8q0,7-3.8,8.2q-1.7,0.6-5.2,0.6l-19.6,0l0,10.1z M367.3,42.4q-1.4,0.7-3,0.7q-3,0-4.9-5.9q-0.8-2.4-0.8-4.1t0.7-2.6q0.9-1.3,3.6-2.1l16.5-5.1q2.6-0.7,3-0.7q3,0,4.8,5.9q0.8,2.4,0.8,4.05t-0.7,2.55q-0.9,1.3-3.6,2.1z M448.6,51.9l27,55.8q1.7,3.4,1.7,5.1q0,3.6-5.8,6.5q-3.4,1.7-5.35,1.7t-3.2-0.9t-1.8-1.9t-1.55-3l-5.2-10.8l-27.7,0l-5.2,10.8q-1,2-1.55,2.9t-1.8,1.85t-3.2,0.95t-5.35-1.7q-5.8-2.8-5.8-6.4q0-1.7,1.7-5.1l27-55.9q1.1-2.3,3.35-3.7t4.75-1.4q5.4,0,8,5.2z M440.5,75.9l-6.6,13.7l13.3,0z M560.7,49.5q0.8,1.5,0.95,2.7t0.15,3.5l0,55.5q0,6.9-3.8,8.1q-1.9,0.6-4.8,0.6t-4.6-0.5t-2.6-1.2t-1.4-2q-0.5-1.7-0.5-5.2l0-33.5q-2.5,3.1-7.3,9.85t-6.1,8.45t-1.8,2.35t-2.45,1.8t-4.2,1.15t-4.1-1.05t-2.65-2.05l-0.8-1.1q-2-2.5-7.9-10.65t-6.4-8.75l0,33.7q0,2.3-0.15,3.45t-0.95,2.55q-1.5,2.7-7.8,2.7q-6.1,0-7.6-2.7q-0.8-1.4-0.95-2.6t-0.15-3.6l0-55.5q0-2.3,0.15-3.45t0.95-2.65q1.5-2.6,7.8-2.6q2.7,0,4.65,0.65t2.55,1.35l0.6,0.6l22.7,29.8q17-22.5,22.7-29.7q1.7-2.7,8.05-2.7t7.75,2.7z M587.5,102.3l30.8,0q2.3,0,3.45,0.15t2.65,0.95q2.7,1.4,2.7,7.8q0,7-3.7,8.2q-1.7,0.6-5.2,0.6l-39.6,0q-7,0-8.2-3.8q-0.6-1.6-0.6-5.1l0-55.6q0-5.1,1.9-6.95t7.2-1.85l39.4,0q2.3,0,3.45,0.15t2.65,0.95q2.7,1.4,2.7,7.8q0,7-3.7,8.2q-1.7,0.6-5.2,0.6l-30.7,0l0,10.1l19.8,0q2.3,0,3.45,0.15t2.65,0.95q2.7,1.4,2.7,7.8q0,7-3.8,8.2q-1.7,0.6-5.2,0.6l-19.6,0l0,10.1z"/></g></svg>
