<?xml version="1.0" encoding="UTF-8" standalone="no"?>
<svg
   width="28"
   height="18"
   viewBox="0 0 28 18"
   fill="none"
   version="1.1"
   id="svg1"
   sodipodi:docname="comillas.svg"
   inkscape:version="1.3 (0e150ed6c4, 2023-07-21)"
   xmlns:inkscape="http://www.inkscape.org/namespaces/inkscape"
   xmlns:sodipodi="http://sodipodi.sourceforge.net/DTD/sodipodi-0.dtd"
   xmlns="http://www.w3.org/2000/svg"
   xmlns:svg="http://www.w3.org/2000/svg">
  <defs
     id="defs1" />
  <sodipodi:namedview
     id="namedview1"
     pagecolor="#ffffff"
     bordercolor="#666666"
     borderopacity="1.0"
     inkscape:showpageshadow="2"
     inkscape:pageopacity="0.0"
     inkscape:pagecheckerboard="0"
     inkscape:deskcolor="#d1d1d1"
     inkscape:zoom="10.142857"
     inkscape:cx="14"
     inkscape:cy="9.0211268"
     inkscape:window-width="1280"
     inkscape:window-height="971"
     inkscape:window-x="1912"
     inkscape:window-y="-8"
     inkscape:window-maximized="1"
     inkscape:current-layer="svg1" />
  <path
     d="M28 12.0982C28 12.8913 27.8265 13.6348 27.4796 14.3288C27.1673 15.0228 26.7336 15.6342 26.1784 16.1629C25.658 16.6586 25.0335 17.0552 24.3048 17.3526C23.5762 17.65 22.7955 17.7987 21.9628 17.7987C21.1301 17.7987 20.3494 17.65 19.6208 17.3526C18.8922 17.0552 18.2503 16.6586 17.6952 16.1629C17.1747 15.6342 16.7584 15.0228 16.4461 14.3288C16.1338 13.6348 15.9777 12.8913 15.9777 12.0982C15.9777 10.7763 16.2032 9.55359 16.6543 8.43001C17.1053 7.27338 17.7125 6.19936 18.4758 5.20796C19.2739 4.21657 20.176 3.30779 21.1822 2.48162C22.223 1.65546 23.2986 0.911908 24.4089 0.250977L26.3346 1.83721C25.6753 2.399 25.0682 3.10951 24.513 3.96872C23.9579 4.82793 23.5936 5.68714 23.4201 6.54635C24.7385 6.84377 25.8315 7.52123 26.6989 8.57872C27.5663 9.60316 28 10.7763 28 12.0982ZM12.0223 12.0982C12.0223 12.8913 11.8488 13.6348 11.5019 14.3288C11.1896 15.0228 10.7559 15.6342 10.2007 16.1629C9.6803 16.6586 9.03841 17.0552 8.27509 17.3526C7.54647 17.65 6.7658 17.7987 5.93309 17.7987C5.10037 17.7987 4.3197 17.65 3.59108 17.3526C2.89715 17.0552 2.27261 16.6586 1.71747 16.1629C1.19703 15.6342 0.780669 15.0228 0.468401 14.3288C0.156134 13.6348 0 12.8913 0 12.0982C0 10.7763 0.225527 9.55359 0.67658 8.43001C1.12763 7.27338 1.73482 6.19936 2.49814 5.20796C3.29616 4.21657 4.19827 3.30779 5.20446 2.48162C6.24535 1.65546 7.32094 0.911908 8.43123 0.250977L10.3048 1.83721C9.6803 2.399 9.09046 3.10951 8.53532 3.96872C7.98017 4.82793 7.61586 5.68714 7.44238 6.54635C8.76084 6.84377 9.85378 7.52123 10.7212 8.57872C11.5886 9.60316 12.0223 10.7763 12.0223 12.0982Z"
     fill="#FDB74C"
     id="path1"
     style="fill:#dd10fe;fill-opacity:1" />
</svg>
