<svg width="33" height="30" viewBox="0 0 33 30" fill="none" xmlns="http://www.w3.org/2000/svg">
<path d="M25.0328 17.1609L25.0255 7.95326C25.025 7.35138 24.7604 6.77436 24.2899 6.34913C23.8195 5.92391 23.1816 5.68532 22.5167 5.68585L10.8175 5.69512C10.1527 5.69565 9.51519 5.93525 9.04538 6.36122C8.57557 6.78719 8.3119 7.36463 8.31238 7.96651L8.32437 23.0958C8.32485 23.6977 8.58943 24.2747 9.05992 24.7C9.5304 25.1252 10.1682 25.3638 10.8331 25.3632L15.9907 25.3592C16.4338 25.3587 16.8586 25.1991 17.1718 24.9152L24.5443 18.2307C24.8573 17.9468 25.033 17.562 25.0328 17.1609Z" stroke="#EB6649" stroke-width="2.71377" stroke-linejoin="round"/>
<path d="M16.6826 24.9802L16.6781 19.3067C16.6778 18.9055 16.8536 18.5205 17.1668 18.2365C17.48 17.9526 17.905 17.7928 18.3482 17.7925L24.6156 17.7875" stroke="#EB6649" stroke-width="2.9627" stroke-linecap="round" stroke-linejoin="round"/>
</svg>
