<svg width="48" height="49" viewBox="0 0 48 49" fill="none" xmlns="http://www.w3.org/2000/svg">
<path d="M48 24.5C48 37.7548 37.2548 48.5 24 48.5C10.7452 48.5 0 37.7548 0 24.5C0 11.2452 10.7452 0.5 24 0.5C37.2548 0.5 48 11.2452 48 24.5Z" fill="url(#paint0_linear_818_69376)"/>
<path d="M31.4143 30.4821C30.9575 30.4821 30.5376 30.6458 30.2062 30.9194L28.1355 29.579C28.1968 29.2917 28.1968 28.994 28.1355 28.7067L30.2062 27.3663C30.5376 27.64 30.9575 27.8036 31.4143 27.8036C32.4855 27.8036 33.3539 26.9041 33.3539 25.7947C33.3539 24.6852 32.4855 23.7857 31.4143 23.7857C30.343 23.7857 29.4746 24.6852 29.4746 25.7947C29.4746 25.9444 29.4905 26.0903 29.5206 26.2308L27.4498 27.5712C27.1184 27.2976 26.6986 27.1339 26.2418 27.1339C25.1705 27.1339 24.3021 28.0334 24.3021 29.1429C24.3021 30.2524 25.1705 31.1518 26.2418 31.1518C26.6986 31.1518 27.1184 30.9882 27.4498 30.7145L29.5206 32.0549C29.49 32.1982 29.4745 32.3444 29.4746 32.4911C29.4746 33.6006 30.343 34.5 31.4143 34.5C32.4855 34.5 33.3539 33.6006 33.3539 32.4911C33.3539 31.3816 32.4855 30.4821 31.4143 30.4821Z" fill="#FAF7FF"/>
<path d="M23.6069 32.7879H18.2839C16.7128 32.7879 15.4348 31.4326 15.4348 29.7665V23.2653C15.4348 22.3084 15.8689 21.3986 16.5957 20.8316L22.0041 16.6136C23.0144 15.8261 24.3708 15.8261 25.3804 16.6136L30.7888 20.8316C31.1079 21.0808 31.5567 21.0075 31.7918 20.6694C32.0265 20.3308 31.9582 19.8548 31.6387 19.6057L26.2303 15.3878C24.7128 14.2043 22.6726 14.2039 21.1543 15.3878L15.7456 19.6059C14.6526 20.4586 14 21.8266 14 23.2653V29.7665C14 32.2715 15.9218 34.3095 18.2839 34.3095H23.6069C24.0031 34.3095 24.3243 33.9689 24.3243 33.5487C24.3243 33.1286 24.0031 32.7879 23.6069 32.7879Z" fill="#FAF7FF"/>
<defs>
<linearGradient id="paint0_linear_818_69376" x1="2.80916" y1="1.5973" x2="12.8685" y2="51.263" gradientUnits="userSpaceOnUse">
<stop stop-color="#9F5AF6"/>
<stop offset="1" stop-color="#E506FF"/>
</linearGradient>
</defs>
</svg>
