<svg width="44" height="44" viewBox="0 0 44 44" fill="none" xmlns="http://www.w3.org/2000/svg">
<path d="M44 22C44 34.1503 34.1503 44 22 44C9.84974 44 0 34.1503 0 22C0 9.84974 9.84974 0 22 0C34.1503 0 44 9.84974 44 22Z" fill="url(#paint0_linear_818_69379)"/>
<path d="M28.7783 10H14.5C13.6729 10 13 10.6729 13 11.5V32.5C13 33.3271 13.6729 34 14.5 34H28.7784C29.6055 34 30.2784 33.3271 30.2784 32.5C30.2784 19.9015 30.2784 24.0903 30.2784 11.5C30.2784 10.6729 29.6055 10 28.7783 10ZM14.5 10.5H28.7784C29.3299 10.5 29.7784 10.9484 29.7784 11.5V12H13.5V11.5C13.5 10.9485 13.9486 10.5 14.5 10.5ZM29.7784 31.5H13.5V12.5H29.7784V31.5ZM28.7783 33.5H14.5C13.9486 33.5 13.5 33.0516 13.5 32.5V32H29.7784V32.5C29.7784 33.0515 29.3299 33.5 28.7783 33.5Z" fill="#FAF7FF"/>
<path d="M14.0751 15.3183H14.3501C14.4881 15.3183 14.6001 15.2065 14.6001 15.0683C14.6001 14.9301 14.4881 14.8183 14.3501 14.8183H14.0751C13.937 14.8183 13.8251 14.9301 13.8251 15.0683C13.8251 15.2065 13.937 15.3183 14.0751 15.3183Z" fill="#FAF7FF"/>
<path d="M15.7253 15.3183H16.0005C16.1385 15.3183 16.2505 15.2065 16.2505 15.0683C16.2505 14.9301 16.1385 14.8183 16.0005 14.8183H15.7253C15.5873 14.8183 15.4753 14.9301 15.4753 15.0683C15.4753 15.2065 15.5873 15.3183 15.7253 15.3183Z" fill="#FAF7FF"/>
<path d="M17.3757 15.3183H17.6508C17.7888 15.3183 17.9008 15.2065 17.9008 15.0683C17.9008 14.9301 17.7888 14.8183 17.6508 14.8183H17.3757C17.2377 14.8183 17.1257 14.9301 17.1257 15.0683C17.1257 15.2065 17.2376 15.3183 17.3757 15.3183Z" fill="#FAF7FF"/>
<path d="M19.026 15.3183H19.3012C19.4392 15.3183 19.5512 15.2065 19.5512 15.0683C19.5512 14.9301 19.4392 14.8183 19.3012 14.8183H19.026C18.888 14.8183 18.776 14.9301 18.776 15.0683C18.776 15.2065 18.8879 15.3183 19.026 15.3183Z" fill="#FAF7FF"/>
<path d="M20.6764 15.3183H20.9514C21.0894 15.3183 21.2014 15.2065 21.2014 15.0683C21.2014 14.9301 21.0894 14.8183 20.9514 14.8183H20.6764C20.5383 14.8183 20.4264 14.9301 20.4264 15.0683C20.4264 15.2065 20.5383 15.3183 20.6764 15.3183Z" fill="#FAF7FF"/>
<path d="M22.3267 15.3183H22.6019C22.74 15.3183 22.8519 15.2065 22.8519 15.0683C22.8519 14.9301 22.74 14.8183 22.6019 14.8183H22.3267C22.1885 14.8183 22.0767 14.9301 22.0767 15.0683C22.0767 15.2065 22.1885 15.3183 22.3267 15.3183Z" fill="#FAF7FF"/>
<path d="M23.9771 15.3183H24.2522C24.3904 15.3183 24.5022 15.2065 24.5022 15.0683C24.5022 14.9301 24.3904 14.8183 24.2522 14.8183H23.9771C23.8389 14.8183 23.727 14.9301 23.727 15.0683C23.727 15.2065 23.8389 15.3183 23.9771 15.3183Z" fill="#FAF7FF"/>
<path d="M25.6275 15.3183H25.9026C26.0408 15.3183 26.1526 15.2065 26.1526 15.0683C26.1526 14.9301 26.0408 14.8183 25.9026 14.8183H25.6275C25.4893 14.8183 25.3775 14.9301 25.3775 15.0683C25.3775 15.2065 25.4893 15.3183 25.6275 15.3183Z" fill="#FAF7FF"/>
<path d="M27.2779 15.3183H27.5528C27.6909 15.3183 27.8028 15.2065 27.8028 15.0683C27.8028 14.9301 27.6909 14.8183 27.5528 14.8183H27.2779C27.1397 14.8183 27.0279 14.9301 27.0279 15.0683C27.0279 15.2065 27.1397 15.3183 27.2779 15.3183Z" fill="#FAF7FF"/>
<path d="M28.928 15.3183H29.2032C29.3414 15.3183 29.4532 15.2065 29.4532 15.0683C29.4532 14.9301 29.3414 14.8183 29.2032 14.8183H28.928C28.7898 14.8183 28.678 14.9301 28.678 15.0683C28.678 15.2065 28.7898 15.3183 28.928 15.3183Z" fill="#FAF7FF"/>
<path d="M14.0751 18.0911H14.3501C14.4881 18.0911 14.6001 17.9793 14.6001 17.8411C14.6001 17.7029 14.4881 17.5911 14.3501 17.5911H14.0751C13.937 17.5911 13.8251 17.7029 13.8251 17.8411C13.8251 17.9793 13.937 18.0911 14.0751 18.0911Z" fill="#FAF7FF"/>
<path d="M15.7253 18.0911H16.0005C16.1385 18.0911 16.2505 17.9793 16.2505 17.8411C16.2505 17.7029 16.1385 17.5911 16.0005 17.5911H15.7253C15.5873 17.5911 15.4753 17.7029 15.4753 17.8411C15.4753 17.9793 15.5873 18.0911 15.7253 18.0911Z" fill="#FAF7FF"/>
<path d="M17.3757 18.0911H17.6508C17.7888 18.0911 17.9008 17.9793 17.9008 17.8411C17.9008 17.7029 17.7888 17.5911 17.6508 17.5911H17.3757C17.2377 17.5911 17.1257 17.7029 17.1257 17.8411C17.1257 17.9793 17.2376 18.0911 17.3757 18.0911Z" fill="#FAF7FF"/>
<path d="M19.026 18.0911H19.3012C19.4392 18.0911 19.5512 17.9793 19.5512 17.8411C19.5512 17.7029 19.4392 17.5911 19.3012 17.5911H19.026C18.888 17.5911 18.776 17.7029 18.776 17.8411C18.776 17.9793 18.8879 18.0911 19.026 18.0911Z" fill="#FAF7FF"/>
<path d="M20.6764 18.0911H20.9514C21.0894 18.0911 21.2014 17.9793 21.2014 17.8411C21.2014 17.7029 21.0894 17.5911 20.9514 17.5911H20.6764C20.5383 17.5911 20.4264 17.7029 20.4264 17.8411C20.4264 17.9793 20.5383 18.0911 20.6764 18.0911Z" fill="#FAF7FF"/>
<path d="M22.3267 18.0911H22.6019C22.74 18.0911 22.8519 17.9793 22.8519 17.8411C22.8519 17.7029 22.74 17.5911 22.6019 17.5911H22.3267C22.1885 17.5911 22.0767 17.7029 22.0767 17.8411C22.0767 17.9793 22.1885 18.0911 22.3267 18.0911Z" fill="#FAF7FF"/>
<path d="M23.9771 18.0911H24.2522C24.3904 18.0911 24.5022 17.9793 24.5022 17.8411C24.5022 17.7029 24.3904 17.5911 24.2522 17.5911H23.9771C23.8389 17.5911 23.727 17.7029 23.727 17.8411C23.727 17.9793 23.8389 18.0911 23.9771 18.0911Z" fill="#FAF7FF"/>
<path d="M25.6275 18.0911H25.9026C26.0408 18.0911 26.1526 17.9793 26.1526 17.8411C26.1526 17.7029 26.0408 17.5911 25.9026 17.5911H25.6275C25.4893 17.5911 25.3775 17.7029 25.3775 17.8411C25.3775 17.9793 25.4893 18.0911 25.6275 18.0911Z" fill="#FAF7FF"/>
<path d="M27.2779 18.0911H27.5528C27.6909 18.0911 27.8028 17.9793 27.8028 17.8411C27.8028 17.7029 27.6909 17.5911 27.5528 17.5911H27.2779C27.1397 17.5911 27.0279 17.7029 27.0279 17.8411C27.0279 17.9793 27.1397 18.0911 27.2779 18.0911Z" fill="#FAF7FF"/>
<path d="M28.928 18.0911H29.2032C29.3414 18.0911 29.4532 17.9793 29.4532 17.8411C29.4532 17.7029 29.3414 17.5911 29.2032 17.5911H28.928C28.7898 17.5911 28.678 17.7029 28.678 17.8411C28.678 17.9793 28.7898 18.0911 28.928 18.0911Z" fill="#FAF7FF"/>
<path d="M14.0751 20.8638H14.3501C14.4881 20.8638 14.6001 20.7519 14.6001 20.6137C14.6001 20.4756 14.4881 20.3637 14.3501 20.3637H14.0751C13.937 20.3637 13.8251 20.4756 13.8251 20.6137C13.8251 20.7519 13.937 20.8638 14.0751 20.8638Z" fill="#FAF7FF"/>
<path d="M15.7253 20.8638H16.0005C16.1385 20.8638 16.2505 20.7519 16.2505 20.6137C16.2505 20.4756 16.1385 20.3637 16.0005 20.3637H15.7253C15.5873 20.3637 15.4753 20.4756 15.4753 20.6137C15.4753 20.7519 15.5873 20.8638 15.7253 20.8638Z" fill="#FAF7FF"/>
<path d="M17.3757 20.8638H17.6508C17.7888 20.8638 17.9008 20.7519 17.9008 20.6137C17.9008 20.4756 17.7888 20.3637 17.6508 20.3637H17.3757C17.2377 20.3637 17.1257 20.4756 17.1257 20.6137C17.1257 20.7519 17.2376 20.8638 17.3757 20.8638Z" fill="#FAF7FF"/>
<path d="M19.026 20.8638H19.3012C19.4392 20.8638 19.5512 20.7519 19.5512 20.6137C19.5512 20.4756 19.4392 20.3637 19.3012 20.3637H19.026C18.888 20.3637 18.776 20.4756 18.776 20.6137C18.776 20.7519 18.8879 20.8638 19.026 20.8638Z" fill="#FAF7FF"/>
<path d="M20.6764 20.8638H20.9514C21.0894 20.8638 21.2014 20.7519 21.2014 20.6137C21.2014 20.4756 21.0894 20.3637 20.9514 20.3637H20.6764C20.5383 20.3637 20.4264 20.4756 20.4264 20.6137C20.4264 20.7519 20.5383 20.8638 20.6764 20.8638Z" fill="#FAF7FF"/>
<path d="M22.3267 20.8638H22.6019C22.74 20.8638 22.8519 20.7519 22.8519 20.6137C22.8519 20.4756 22.74 20.3637 22.6019 20.3637H22.3267C22.1885 20.3637 22.0767 20.4756 22.0767 20.6137C22.0767 20.7519 22.1885 20.8638 22.3267 20.8638Z" fill="#FAF7FF"/>
<path d="M23.9771 20.8638H24.2522C24.3904 20.8638 24.5022 20.7519 24.5022 20.6137C24.5022 20.4756 24.3904 20.3637 24.2522 20.3637H23.9771C23.8389 20.3637 23.727 20.4756 23.727 20.6137C23.727 20.7519 23.8389 20.8638 23.9771 20.8638Z" fill="#FAF7FF"/>
<path d="M25.6275 20.8638H25.9026C26.0408 20.8638 26.1526 20.7519 26.1526 20.6137C26.1526 20.4756 26.0408 20.3637 25.9026 20.3637H25.6275C25.4893 20.3637 25.3775 20.4756 25.3775 20.6137C25.3775 20.7519 25.4893 20.8638 25.6275 20.8638Z" fill="#FAF7FF"/>
<path d="M27.2779 20.8638H27.5528C27.6909 20.8638 27.8028 20.7519 27.8028 20.6137C27.8028 20.4756 27.6909 20.3637 27.5528 20.3637H27.2779C27.1397 20.3637 27.0279 20.4756 27.0279 20.6137C27.0279 20.7519 27.1397 20.8638 27.2779 20.8638Z" fill="#FAF7FF"/>
<path d="M28.928 20.8638H29.2032C29.3414 20.8638 29.4532 20.7519 29.4532 20.6137C29.4532 20.4756 29.3414 20.3637 29.2032 20.3637H28.928C28.7898 20.3637 28.678 20.4756 28.678 20.6137C28.678 20.7519 28.7898 20.8638 28.928 20.8638Z" fill="#FAF7FF"/>
<path d="M14.0751 23.6363H14.3501C14.4881 23.6363 14.6001 23.5244 14.6001 23.3862C14.6001 23.2481 14.4881 23.1362 14.3501 23.1362H14.0751C13.937 23.1362 13.8251 23.2481 13.8251 23.3862C13.8251 23.5244 13.937 23.6363 14.0751 23.6363Z" fill="#FAF7FF"/>
<path d="M15.7253 23.6363H16.0005C16.1385 23.6363 16.2505 23.5244 16.2505 23.3862C16.2505 23.2481 16.1385 23.1362 16.0005 23.1362H15.7253C15.5873 23.1362 15.4753 23.2481 15.4753 23.3862C15.4753 23.5244 15.5873 23.6363 15.7253 23.6363Z" fill="#FAF7FF"/>
<path d="M17.3757 23.6363H17.6508C17.7888 23.6363 17.9008 23.5244 17.9008 23.3862C17.9008 23.2481 17.7888 23.1362 17.6508 23.1362H17.3757C17.2377 23.1362 17.1257 23.2481 17.1257 23.3862C17.1257 23.5244 17.2376 23.6363 17.3757 23.6363Z" fill="#FAF7FF"/>
<path d="M19.026 23.6363H19.3012C19.4392 23.6363 19.5512 23.5244 19.5512 23.3862C19.5512 23.2481 19.4392 23.1362 19.3012 23.1362H19.026C18.888 23.1362 18.776 23.2481 18.776 23.3862C18.776 23.5244 18.8879 23.6363 19.026 23.6363Z" fill="#FAF7FF"/>
<path d="M20.6764 23.6363H20.9514C21.0894 23.6363 21.2014 23.5244 21.2014 23.3862C21.2014 23.2481 21.0894 23.1362 20.9514 23.1362H20.6764C20.5383 23.1362 20.4264 23.2481 20.4264 23.3862C20.4264 23.5244 20.5383 23.6363 20.6764 23.6363Z" fill="#FAF7FF"/>
<path d="M22.3267 23.6363H22.6019C22.74 23.6363 22.8519 23.5244 22.8519 23.3862C22.8519 23.2481 22.74 23.1362 22.6019 23.1362H22.3267C22.1885 23.1362 22.0767 23.2481 22.0767 23.3862C22.0767 23.5244 22.1885 23.6363 22.3267 23.6363Z" fill="#FAF7FF"/>
<path d="M23.9771 23.6363H24.2522C24.3904 23.6363 24.5022 23.5244 24.5022 23.3862C24.5022 23.2481 24.3904 23.1362 24.2522 23.1362H23.9771C23.8389 23.1362 23.727 23.2481 23.727 23.3862C23.727 23.5244 23.8389 23.6363 23.9771 23.6363Z" fill="#FAF7FF"/>
<path d="M25.6275 23.6363H25.9026C26.0408 23.6363 26.1526 23.5244 26.1526 23.3862C26.1526 23.2481 26.0408 23.1362 25.9026 23.1362H25.6275C25.4893 23.1362 25.3775 23.2481 25.3775 23.3862C25.3775 23.5244 25.4893 23.6363 25.6275 23.6363Z" fill="#FAF7FF"/>
<path d="M27.2779 23.6363H27.5528C27.6909 23.6363 27.8028 23.5244 27.8028 23.3862C27.8028 23.2481 27.6909 23.1362 27.5528 23.1362H27.2779C27.1397 23.1362 27.0279 23.2481 27.0279 23.3862C27.0279 23.5244 27.1397 23.6363 27.2779 23.6363Z" fill="#FAF7FF"/>
<path d="M28.928 23.6363H29.2032C29.3414 23.6363 29.4532 23.5244 29.4532 23.3862C29.4532 23.2481 29.3414 23.1362 29.2032 23.1362H28.928C28.7898 23.1362 28.678 23.2481 28.678 23.3862C28.678 23.5244 28.7898 23.6363 28.928 23.6363Z" fill="#FAF7FF"/>
<path d="M14.0751 26.4089H14.3501C14.4881 26.4089 14.6001 26.2971 14.6001 26.1589C14.6001 26.0207 14.4881 25.9089 14.3501 25.9089H14.0751C13.937 25.9089 13.8251 26.0207 13.8251 26.1589C13.8251 26.2971 13.937 26.4089 14.0751 26.4089Z" fill="#FAF7FF"/>
<path d="M15.7253 26.4089H16.0005C16.1385 26.4089 16.2505 26.2971 16.2505 26.1589C16.2505 26.0207 16.1385 25.9089 16.0005 25.9089H15.7253C15.5873 25.9089 15.4753 26.0207 15.4753 26.1589C15.4753 26.2971 15.5873 26.4089 15.7253 26.4089Z" fill="#FAF7FF"/>
<path d="M17.3757 26.4089H17.6508C17.7888 26.4089 17.9008 26.2971 17.9008 26.1589C17.9008 26.0207 17.7888 25.9089 17.6508 25.9089H17.3757C17.2377 25.9089 17.1257 26.0207 17.1257 26.1589C17.1257 26.2971 17.2376 26.4089 17.3757 26.4089Z" fill="#FAF7FF"/>
<path d="M19.026 26.4089H19.3012C19.4392 26.4089 19.5512 26.2971 19.5512 26.1589C19.5512 26.0207 19.4392 25.9089 19.3012 25.9089H19.026C18.888 25.9089 18.776 26.0207 18.776 26.1589C18.776 26.2971 18.8879 26.4089 19.026 26.4089Z" fill="#FAF7FF"/>
<path d="M20.6764 26.4089H20.9514C21.0894 26.4089 21.2014 26.2971 21.2014 26.1589C21.2014 26.0207 21.0894 25.9089 20.9514 25.9089H20.6764C20.5383 25.9089 20.4264 26.0207 20.4264 26.1589C20.4264 26.2971 20.5383 26.4089 20.6764 26.4089Z" fill="#FAF7FF"/>
<path d="M22.3267 26.4089H22.6019C22.74 26.4089 22.8519 26.2971 22.8519 26.1589C22.8519 26.0207 22.74 25.9089 22.6019 25.9089H22.3267C22.1885 25.9089 22.0767 26.0207 22.0767 26.1589C22.0767 26.2971 22.1885 26.4089 22.3267 26.4089Z" fill="#FAF7FF"/>
<path d="M23.9771 26.4089H24.2522C24.3904 26.4089 24.5022 26.2971 24.5022 26.1589C24.5022 26.0207 24.3904 25.9089 24.2522 25.9089H23.9771C23.8389 25.9089 23.727 26.0207 23.727 26.1589C23.727 26.2971 23.8389 26.4089 23.9771 26.4089Z" fill="#FAF7FF"/>
<path d="M25.6275 26.4089H25.9026C26.0408 26.4089 26.1526 26.2971 26.1526 26.1589C26.1526 26.0207 26.0408 25.9089 25.9026 25.9089H25.6275C25.4893 25.9089 25.3775 26.0207 25.3775 26.1589C25.3775 26.2971 25.4893 26.4089 25.6275 26.4089Z" fill="#FAF7FF"/>
<path d="M27.2779 26.4089H27.5528C27.6909 26.4089 27.8028 26.2971 27.8028 26.1589C27.8028 26.0207 27.6909 25.9089 27.5528 25.9089H27.2779C27.1397 25.9089 27.0279 26.0207 27.0279 26.1589C27.0279 26.2971 27.1397 26.4089 27.2779 26.4089Z" fill="#FAF7FF"/>
<path d="M28.928 26.4089H29.2032C29.3414 26.4089 29.4532 26.2971 29.4532 26.1589C29.4532 26.0207 29.3414 25.9089 29.2032 25.9089H28.928C28.7898 25.9089 28.678 26.0207 28.678 26.1589C28.678 26.2971 28.7898 26.4089 28.928 26.4089Z" fill="#FAF7FF"/>
<path d="M14.3501 28.6816H14.0751C13.937 28.6816 13.8251 28.7935 13.8251 28.9316C13.8251 29.0698 13.937 29.1817 14.0751 29.1817H14.3501C14.4881 29.1817 14.6001 29.0698 14.6001 28.9316C14.6001 28.7935 14.4881 28.6816 14.3501 28.6816Z" fill="#FAF7FF"/>
<path d="M15.7253 29.1817H16.0005C16.1385 29.1817 16.2505 29.0698 16.2505 28.9316C16.2505 28.7935 16.1385 28.6816 16.0005 28.6816H15.7253C15.5873 28.6816 15.4753 28.7935 15.4753 28.9316C15.4753 29.0698 15.5873 29.1817 15.7253 29.1817Z" fill="#FAF7FF"/>
<path d="M17.3757 29.1817H17.6508C17.7888 29.1817 17.9008 29.0698 17.9008 28.9316C17.9008 28.7935 17.7888 28.6816 17.6508 28.6816H17.3757C17.2377 28.6816 17.1257 28.7935 17.1257 28.9316C17.1257 29.0698 17.2376 29.1817 17.3757 29.1817Z" fill="#FAF7FF"/>
<path d="M19.026 29.1817H19.3012C19.4392 29.1817 19.5512 29.0698 19.5512 28.9316C19.5512 28.7935 19.4392 28.6816 19.3012 28.6816H19.026C18.888 28.6816 18.776 28.7935 18.776 28.9316C18.776 29.0698 18.8879 29.1817 19.026 29.1817Z" fill="#FAF7FF"/>
<path d="M20.6764 29.1817H20.9514C21.0894 29.1817 21.2014 29.0698 21.2014 28.9316C21.2014 28.7935 21.0894 28.6816 20.9514 28.6816H20.6764C20.5383 28.6816 20.4264 28.7935 20.4264 28.9316C20.4264 29.0698 20.5383 29.1817 20.6764 29.1817Z" fill="#FAF7FF"/>
<path d="M22.3267 29.1817H22.6019C22.74 29.1817 22.8519 29.0698 22.8519 28.9316C22.8519 28.7935 22.74 28.6816 22.6019 28.6816H22.3267C22.1885 28.6816 22.0767 28.7935 22.0767 28.9316C22.0767 29.0698 22.1885 29.1817 22.3267 29.1817Z" fill="#FAF7FF"/>
<path d="M23.9771 29.1817H24.2522C24.3904 29.1817 24.5022 29.0698 24.5022 28.9316C24.5022 28.7935 24.3904 28.6816 24.2522 28.6816H23.9771C23.8389 28.6816 23.727 28.7935 23.727 28.9316C23.727 29.0698 23.8389 29.1817 23.9771 29.1817Z" fill="#FAF7FF"/>
<path d="M25.6275 29.1817H25.9026C26.0408 29.1817 26.1526 29.0698 26.1526 28.9316C26.1526 28.7935 26.0408 28.6816 25.9026 28.6816H25.6275C25.4893 28.6816 25.3775 28.7935 25.3775 28.9316C25.3775 29.0698 25.4893 29.1817 25.6275 29.1817Z" fill="#FAF7FF"/>
<path d="M27.2779 29.1817H27.5528C27.6909 29.1817 27.8028 29.0698 27.8028 28.9316C27.8028 28.7935 27.6909 28.6816 27.5528 28.6816H27.2779C27.1397 28.6816 27.0279 28.7935 27.0279 28.9316C27.0279 29.0698 27.1397 29.1817 27.2779 29.1817Z" fill="#FAF7FF"/>
<path d="M28.928 29.1817H29.2032C29.3414 29.1817 29.4532 29.0698 29.4532 28.9316C29.4532 28.7935 29.3414 28.6816 29.2032 28.6816H28.928C28.7898 28.6816 28.678 28.7935 28.678 28.9316C28.678 29.0698 28.7898 29.1817 28.928 29.1817Z" fill="#FAF7FF"/>
<path d="M14.9003 13.9321H15.1753C15.3134 13.9321 15.4253 13.8203 15.4253 13.6821C15.4253 13.5439 15.3134 13.4321 15.1753 13.4321H14.9003C14.7622 13.4321 14.6503 13.5439 14.6503 13.6821C14.6503 13.8203 14.7622 13.9321 14.9003 13.9321Z" fill="#FAF7FF"/>
<path d="M16.5505 13.9321H16.8256C16.9636 13.9321 17.0756 13.8203 17.0756 13.6821C17.0756 13.5439 16.9636 13.4321 16.8256 13.4321H16.5505C16.4125 13.4321 16.3005 13.5439 16.3005 13.6821C16.3005 13.8203 16.4124 13.9321 16.5505 13.9321Z" fill="#FAF7FF"/>
<path d="M18.2009 13.9321H18.4759C18.614 13.9321 18.7259 13.8203 18.7259 13.6821C18.7259 13.5439 18.614 13.4321 18.4759 13.4321H18.2009C18.0629 13.4321 17.9509 13.5439 17.9509 13.6821C17.9509 13.8203 18.0629 13.9321 18.2009 13.9321Z" fill="#FAF7FF"/>
<path d="M19.8512 13.9321H20.1264C20.2644 13.9321 20.3764 13.8203 20.3764 13.6821C20.3764 13.5439 20.2644 13.4321 20.1264 13.4321H19.8512C19.7132 13.4321 19.6012 13.5439 19.6012 13.6821C19.6012 13.8203 19.7131 13.9321 19.8512 13.9321Z" fill="#FAF7FF"/>
<path d="M21.5016 13.9321H21.7766C21.9148 13.9321 22.0266 13.8203 22.0266 13.6821C22.0266 13.5439 21.9148 13.4321 21.7766 13.4321H21.5016C21.3635 13.4321 21.2516 13.5439 21.2516 13.6821C21.2516 13.8203 21.3635 13.9321 21.5016 13.9321Z" fill="#FAF7FF"/>
<path d="M23.1518 13.9321H23.427C23.5652 13.9321 23.677 13.8203 23.677 13.6821C23.677 13.5439 23.5652 13.4321 23.427 13.4321H23.1518C23.0137 13.4321 22.9018 13.5439 22.9018 13.6821C22.9018 13.8203 23.0137 13.9321 23.1518 13.9321Z" fill="#FAF7FF"/>
<path d="M24.8023 13.9321H25.0774C25.2156 13.9321 25.3274 13.8203 25.3274 13.6821C25.3274 13.5439 25.2156 13.4321 25.0774 13.4321H24.8023C24.6641 13.4321 24.5523 13.5439 24.5523 13.6821C24.5523 13.8203 24.6641 13.9321 24.8023 13.9321Z" fill="#FAF7FF"/>
<path d="M26.4527 13.9321H26.7276C26.8657 13.9321 26.9776 13.8203 26.9776 13.6821C26.9776 13.5439 26.8657 13.4321 26.7276 13.4321H26.4527C26.3145 13.4321 26.2027 13.5439 26.2027 13.6821C26.2027 13.8203 26.3145 13.9321 26.4527 13.9321Z" fill="#FAF7FF"/>
<path d="M28.1031 13.9321H28.3779C28.5161 13.9321 28.628 13.8203 28.628 13.6821C28.628 13.5439 28.5161 13.4321 28.3779 13.4321H28.1031C27.9649 13.4321 27.8531 13.5439 27.8531 13.6821C27.8531 13.8203 27.9649 13.9321 28.1031 13.9321Z" fill="#FAF7FF"/>
<path d="M14.9003 16.7046H15.1753C15.3134 16.7046 15.4253 16.5928 15.4253 16.4546C15.4253 16.3164 15.3134 16.2046 15.1753 16.2046H14.9003C14.7622 16.2046 14.6503 16.3164 14.6503 16.4546C14.6503 16.5928 14.7622 16.7046 14.9003 16.7046Z" fill="#FAF7FF"/>
<path d="M16.5505 16.7046H16.8256C16.9636 16.7046 17.0756 16.5928 17.0756 16.4546C17.0756 16.3164 16.9636 16.2046 16.8256 16.2046H16.5505C16.4125 16.2046 16.3005 16.3164 16.3005 16.4546C16.3005 16.5928 16.4124 16.7046 16.5505 16.7046Z" fill="#FAF7FF"/>
<path d="M18.2009 16.7046H18.4759C18.614 16.7046 18.7259 16.5928 18.7259 16.4546C18.7259 16.3164 18.614 16.2046 18.4759 16.2046H18.2009C18.0629 16.2046 17.9509 16.3164 17.9509 16.4546C17.9509 16.5928 18.0629 16.7046 18.2009 16.7046Z" fill="#FAF7FF"/>
<path d="M19.8512 16.7046H20.1264C20.2644 16.7046 20.3764 16.5928 20.3764 16.4546C20.3764 16.3164 20.2644 16.2046 20.1264 16.2046H19.8512C19.7132 16.2046 19.6012 16.3164 19.6012 16.4546C19.6012 16.5928 19.7131 16.7046 19.8512 16.7046Z" fill="#FAF7FF"/>
<path d="M21.5016 16.7046H21.7766C21.9148 16.7046 22.0266 16.5928 22.0266 16.4546C22.0266 16.3164 21.9148 16.2046 21.7766 16.2046H21.5016C21.3635 16.2046 21.2516 16.3164 21.2516 16.4546C21.2516 16.5928 21.3635 16.7046 21.5016 16.7046Z" fill="#FAF7FF"/>
<path d="M23.1518 16.7046H23.427C23.5652 16.7046 23.677 16.5928 23.677 16.4546C23.677 16.3164 23.5652 16.2046 23.427 16.2046H23.1518C23.0137 16.2046 22.9018 16.3164 22.9018 16.4546C22.9018 16.5928 23.0137 16.7046 23.1518 16.7046Z" fill="#FAF7FF"/>
<path d="M24.8023 16.7046H25.0774C25.2156 16.7046 25.3274 16.5928 25.3274 16.4546C25.3274 16.3164 25.2156 16.2046 25.0774 16.2046H24.8023C24.6641 16.2046 24.5523 16.3164 24.5523 16.4546C24.5523 16.5928 24.6641 16.7046 24.8023 16.7046Z" fill="#FAF7FF"/>
<path d="M26.4527 16.7046H26.7276C26.8657 16.7046 26.9776 16.5928 26.9776 16.4546C26.9776 16.3164 26.8657 16.2046 26.7276 16.2046H26.4527C26.3145 16.2046 26.2027 16.3164 26.2027 16.4546C26.2027 16.5928 26.3145 16.7046 26.4527 16.7046Z" fill="#FAF7FF"/>
<path d="M28.1031 16.7046H28.3779C28.5161 16.7046 28.628 16.5928 28.628 16.4546C28.628 16.3164 28.5161 16.2046 28.3779 16.2046H28.1031C27.9649 16.2046 27.8531 16.3164 27.8531 16.4546C27.8531 16.5928 27.9649 16.7046 28.1031 16.7046Z" fill="#FAF7FF"/>
<path d="M14.9003 19.4773H15.1753C15.3134 19.4773 15.4253 19.3655 15.4253 19.2273C15.4253 19.0891 15.3134 18.9773 15.1753 18.9773H14.9003C14.7622 18.9773 14.6503 19.0891 14.6503 19.2273C14.6503 19.3655 14.7622 19.4773 14.9003 19.4773Z" fill="#FAF7FF"/>
<path d="M16.5505 19.4773H16.8256C16.9636 19.4773 17.0756 19.3655 17.0756 19.2273C17.0756 19.0891 16.9636 18.9773 16.8256 18.9773H16.5505C16.4125 18.9773 16.3005 19.0891 16.3005 19.2273C16.3005 19.3655 16.4124 19.4773 16.5505 19.4773Z" fill="#FAF7FF"/>
<path d="M18.2009 19.4773H18.4759C18.614 19.4773 18.7259 19.3655 18.7259 19.2273C18.7259 19.0891 18.614 18.9773 18.4759 18.9773H18.2009C18.0629 18.9773 17.9509 19.0891 17.9509 19.2273C17.9509 19.3655 18.0629 19.4773 18.2009 19.4773Z" fill="#FAF7FF"/>
<path d="M19.8512 19.4773H20.1264C20.2644 19.4773 20.3764 19.3655 20.3764 19.2273C20.3764 19.0891 20.2644 18.9773 20.1264 18.9773H19.8512C19.7132 18.9773 19.6012 19.0891 19.6012 19.2273C19.6012 19.3655 19.7131 19.4773 19.8512 19.4773Z" fill="#FAF7FF"/>
<path d="M21.5016 19.4773H21.7766C21.9148 19.4773 22.0266 19.3655 22.0266 19.2273C22.0266 19.0891 21.9148 18.9773 21.7766 18.9773H21.5016C21.3635 18.9773 21.2516 19.0891 21.2516 19.2273C21.2516 19.3655 21.3635 19.4773 21.5016 19.4773Z" fill="#FAF7FF"/>
<path d="M23.1518 19.4773H23.427C23.5652 19.4773 23.677 19.3655 23.677 19.2273C23.677 19.0891 23.5652 18.9773 23.427 18.9773H23.1518C23.0137 18.9773 22.9018 19.0891 22.9018 19.2273C22.9018 19.3655 23.0137 19.4773 23.1518 19.4773Z" fill="#FAF7FF"/>
<path d="M24.8023 19.4773H25.0774C25.2156 19.4773 25.3274 19.3655 25.3274 19.2273C25.3274 19.0891 25.2156 18.9773 25.0774 18.9773H24.8023C24.6641 18.9773 24.5523 19.0891 24.5523 19.2273C24.5523 19.3655 24.6641 19.4773 24.8023 19.4773Z" fill="#FAF7FF"/>
<path d="M26.4527 19.4773H26.7276C26.8657 19.4773 26.9776 19.3655 26.9776 19.2273C26.9776 19.0891 26.8657 18.9773 26.7276 18.9773H26.4527C26.3145 18.9773 26.2027 19.0891 26.2027 19.2273C26.2027 19.3655 26.3145 19.4773 26.4527 19.4773Z" fill="#FAF7FF"/>
<path d="M28.1031 19.4773H28.3779C28.5161 19.4773 28.628 19.3655 28.628 19.2273C28.628 19.0891 28.5161 18.9773 28.3779 18.9773H28.1031C27.9649 18.9773 27.8531 19.0891 27.8531 19.2273C27.8531 19.3655 27.9649 19.4773 28.1031 19.4773Z" fill="#FAF7FF"/>
<path d="M14.9003 22.25H15.1753C15.3134 22.25 15.4253 22.1382 15.4253 22C15.4253 21.8618 15.3134 21.75 15.1753 21.75H14.9003C14.7622 21.75 14.6503 21.8618 14.6503 22C14.6503 22.1382 14.7622 22.25 14.9003 22.25Z" fill="#FAF7FF"/>
<path d="M16.5505 22.25H16.8256C16.9636 22.25 17.0756 22.1382 17.0756 22C17.0756 21.8618 16.9636 21.75 16.8256 21.75H16.5505C16.4125 21.75 16.3005 21.8618 16.3005 22C16.3005 22.1382 16.4124 22.25 16.5505 22.25Z" fill="#FAF7FF"/>
<path d="M18.2009 22.25H18.4759C18.614 22.25 18.7259 22.1382 18.7259 22C18.7259 21.8618 18.614 21.75 18.4759 21.75H18.2009C18.0629 21.75 17.9509 21.8618 17.9509 22C17.9509 22.1382 18.0629 22.25 18.2009 22.25Z" fill="#FAF7FF"/>
<path d="M19.8512 22.25H20.1264C20.2644 22.25 20.3764 22.1382 20.3764 22C20.3764 21.8618 20.2644 21.75 20.1264 21.75H19.8512C19.7132 21.75 19.6012 21.8618 19.6012 22C19.6012 22.1382 19.7131 22.25 19.8512 22.25Z" fill="#FAF7FF"/>
<path d="M21.5016 22.25H21.7766C21.9148 22.25 22.0266 22.1382 22.0266 22C22.0266 21.8618 21.9148 21.75 21.7766 21.75H21.5016C21.3635 21.75 21.2516 21.8618 21.2516 22C21.2516 22.1382 21.3635 22.25 21.5016 22.25Z" fill="#FAF7FF"/>
<path d="M23.1518 22.25H23.427C23.5652 22.25 23.677 22.1382 23.677 22C23.677 21.8618 23.5652 21.75 23.427 21.75H23.1518C23.0137 21.75 22.9018 21.8618 22.9018 22C22.9018 22.1382 23.0137 22.25 23.1518 22.25Z" fill="#FAF7FF"/>
<path d="M24.8023 22.25H25.0774C25.2156 22.25 25.3274 22.1382 25.3274 22C25.3274 21.8618 25.2156 21.75 25.0774 21.75H24.8023C24.6641 21.75 24.5523 21.8618 24.5523 22C24.5523 22.1382 24.6641 22.25 24.8023 22.25Z" fill="#FAF7FF"/>
<path d="M26.4527 22.25H26.7276C26.8657 22.25 26.9776 22.1382 26.9776 22C26.9776 21.8618 26.8657 21.75 26.7276 21.75H26.4527C26.3145 21.75 26.2027 21.8618 26.2027 22C26.2027 22.1382 26.3145 22.25 26.4527 22.25Z" fill="#FAF7FF"/>
<path d="M28.1031 22.25H28.3779C28.5161 22.25 28.628 22.1382 28.628 22C28.628 21.8618 28.5161 21.75 28.3779 21.75H28.1031C27.9649 21.75 27.8531 21.8618 27.8531 22C27.8531 22.1382 27.9649 22.25 28.1031 22.25Z" fill="#FAF7FF"/>
<path d="M14.9003 25.0227H15.1753C15.3134 25.0227 15.4253 24.9109 15.4253 24.7727C15.4253 24.6345 15.3134 24.5227 15.1753 24.5227H14.9003C14.7622 24.5227 14.6503 24.6345 14.6503 24.7727C14.6503 24.9109 14.7622 25.0227 14.9003 25.0227Z" fill="#FAF7FF"/>
<path d="M16.5505 25.0227H16.8256C16.9636 25.0227 17.0756 24.9109 17.0756 24.7727C17.0756 24.6345 16.9636 24.5227 16.8256 24.5227H16.5505C16.4125 24.5227 16.3005 24.6345 16.3005 24.7727C16.3005 24.9109 16.4124 25.0227 16.5505 25.0227Z" fill="#FAF7FF"/>
<path d="M18.2009 25.0227H18.4759C18.614 25.0227 18.7259 24.9109 18.7259 24.7727C18.7259 24.6345 18.614 24.5227 18.4759 24.5227H18.2009C18.0629 24.5227 17.9509 24.6345 17.9509 24.7727C17.9509 24.9109 18.0629 25.0227 18.2009 25.0227Z" fill="#FAF7FF"/>
<path d="M19.8512 25.0227H20.1264C20.2644 25.0227 20.3764 24.9109 20.3764 24.7727C20.3764 24.6345 20.2644 24.5227 20.1264 24.5227H19.8512C19.7132 24.5227 19.6012 24.6345 19.6012 24.7727C19.6012 24.9109 19.7131 25.0227 19.8512 25.0227Z" fill="#FAF7FF"/>
<path d="M21.5016 25.0227H21.7766C21.9148 25.0227 22.0266 24.9109 22.0266 24.7727C22.0266 24.6345 21.9148 24.5227 21.7766 24.5227H21.5016C21.3635 24.5227 21.2516 24.6345 21.2516 24.7727C21.2516 24.9109 21.3635 25.0227 21.5016 25.0227Z" fill="#FAF7FF"/>
<path d="M23.1518 25.0227H23.427C23.5652 25.0227 23.677 24.9109 23.677 24.7727C23.677 24.6345 23.5652 24.5227 23.427 24.5227H23.1518C23.0137 24.5227 22.9018 24.6345 22.9018 24.7727C22.9018 24.9109 23.0137 25.0227 23.1518 25.0227Z" fill="#FAF7FF"/>
<path d="M24.8023 25.0227H25.0774C25.2156 25.0227 25.3274 24.9109 25.3274 24.7727C25.3274 24.6345 25.2156 24.5227 25.0774 24.5227H24.8023C24.6641 24.5227 24.5523 24.6345 24.5523 24.7727C24.5523 24.9109 24.6641 25.0227 24.8023 25.0227Z" fill="#FAF7FF"/>
<path d="M26.4527 25.0227H26.7276C26.8657 25.0227 26.9776 24.9109 26.9776 24.7727C26.9776 24.6345 26.8657 24.5227 26.7276 24.5227H26.4527C26.3145 24.5227 26.2027 24.6345 26.2027 24.7727C26.2027 24.9109 26.3145 25.0227 26.4527 25.0227Z" fill="#FAF7FF"/>
<path d="M28.1031 25.0227H28.3779C28.5161 25.0227 28.628 24.9109 28.628 24.7727C28.628 24.6345 28.5161 24.5227 28.3779 24.5227H28.1031C27.9649 24.5227 27.8531 24.6345 27.8531 24.7727C27.8531 24.9109 27.9649 25.0227 28.1031 25.0227Z" fill="#FAF7FF"/>
<path d="M14.9003 27.7954H15.1753C15.3134 27.7954 15.4253 27.6836 15.4253 27.5454C15.4253 27.4072 15.3134 27.2954 15.1753 27.2954H14.9003C14.7622 27.2954 14.6503 27.4072 14.6503 27.5454C14.6503 27.6836 14.7622 27.7954 14.9003 27.7954Z" fill="#FAF7FF"/>
<path d="M16.5505 27.7954H16.8256C16.9636 27.7954 17.0756 27.6836 17.0756 27.5454C17.0756 27.4072 16.9636 27.2954 16.8256 27.2954H16.5505C16.4125 27.2954 16.3005 27.4072 16.3005 27.5454C16.3005 27.6836 16.4124 27.7954 16.5505 27.7954Z" fill="#FAF7FF"/>
<path d="M18.2009 27.7954H18.4759C18.614 27.7954 18.7259 27.6836 18.7259 27.5454C18.7259 27.4072 18.614 27.2954 18.4759 27.2954H18.2009C18.0629 27.2954 17.9509 27.4072 17.9509 27.5454C17.9509 27.6836 18.0629 27.7954 18.2009 27.7954Z" fill="#FAF7FF"/>
<path d="M19.8512 27.7954H20.1264C20.2644 27.7954 20.3764 27.6836 20.3764 27.5454C20.3764 27.4072 20.2644 27.2954 20.1264 27.2954H19.8512C19.7132 27.2954 19.6012 27.4072 19.6012 27.5454C19.6012 27.6836 19.7131 27.7954 19.8512 27.7954Z" fill="#FAF7FF"/>
<path d="M21.5016 27.7954H21.7766C21.9148 27.7954 22.0266 27.6836 22.0266 27.5454C22.0266 27.4072 21.9148 27.2954 21.7766 27.2954H21.5016C21.3635 27.2954 21.2516 27.4072 21.2516 27.5454C21.2516 27.6836 21.3635 27.7954 21.5016 27.7954Z" fill="#FAF7FF"/>
<path d="M23.1518 27.7954H23.427C23.5652 27.7954 23.677 27.6836 23.677 27.5454C23.677 27.4072 23.5652 27.2954 23.427 27.2954H23.1518C23.0137 27.2954 22.9018 27.4072 22.9018 27.5454C22.9018 27.6836 23.0137 27.7954 23.1518 27.7954Z" fill="#FAF7FF"/>
<path d="M24.8023 27.7954H25.0774C25.2156 27.7954 25.3274 27.6836 25.3274 27.5454C25.3274 27.4072 25.2156 27.2954 25.0774 27.2954H24.8023C24.6641 27.2954 24.5523 27.4072 24.5523 27.5454C24.5523 27.6836 24.6641 27.7954 24.8023 27.7954Z" fill="#FAF7FF"/>
<path d="M26.4527 27.7954H26.7276C26.8657 27.7954 26.9776 27.6836 26.9776 27.5454C26.9776 27.4072 26.8657 27.2954 26.7276 27.2954H26.4527C26.3145 27.2954 26.2027 27.4072 26.2027 27.5454C26.2027 27.6836 26.3145 27.7954 26.4527 27.7954Z" fill="#FAF7FF"/>
<path d="M28.1031 27.7954H28.3779C28.5161 27.7954 28.628 27.6836 28.628 27.5454C28.628 27.4072 28.5161 27.2954 28.3779 27.2954H28.1031C27.9649 27.2954 27.8531 27.4072 27.8531 27.5454C27.8531 27.6836 27.9649 27.7954 28.1031 27.7954Z" fill="#FAF7FF"/>
<path d="M14.9003 30.5679H15.1753C15.3134 30.5679 15.4253 30.456 15.4253 30.3179C15.4253 30.1797 15.3134 30.0679 15.1753 30.0679H14.9003C14.7622 30.0679 14.6503 30.1797 14.6503 30.3179C14.6503 30.456 14.7622 30.5679 14.9003 30.5679Z" fill="#FAF7FF"/>
<path d="M16.5505 30.5679H16.8256C16.9636 30.5679 17.0756 30.456 17.0756 30.3179C17.0756 30.1797 16.9636 30.0679 16.8256 30.0679H16.5505C16.4125 30.0679 16.3005 30.1797 16.3005 30.3179C16.3005 30.456 16.4124 30.5679 16.5505 30.5679Z" fill="#FAF7FF"/>
<path d="M18.2009 30.5679H18.4759C18.614 30.5679 18.7259 30.456 18.7259 30.3179C18.7259 30.1797 18.614 30.0679 18.4759 30.0679H18.2009C18.0629 30.0679 17.9509 30.1797 17.9509 30.3179C17.9509 30.456 18.0629 30.5679 18.2009 30.5679Z" fill="#FAF7FF"/>
<path d="M19.8512 30.5679H20.1264C20.2644 30.5679 20.3764 30.456 20.3764 30.3179C20.3764 30.1797 20.2644 30.0679 20.1264 30.0679H19.8512C19.7132 30.0679 19.6012 30.1797 19.6012 30.3179C19.6012 30.456 19.7131 30.5679 19.8512 30.5679Z" fill="#FAF7FF"/>
<path d="M21.5016 30.5679H21.7766C21.9148 30.5679 22.0266 30.456 22.0266 30.3179C22.0266 30.1797 21.9148 30.0679 21.7766 30.0679H21.5016C21.3635 30.0679 21.2516 30.1797 21.2516 30.3179C21.2516 30.456 21.3635 30.5679 21.5016 30.5679Z" fill="#FAF7FF"/>
<path d="M23.1518 30.5679H23.427C23.5652 30.5679 23.677 30.456 23.677 30.3179C23.677 30.1797 23.5652 30.0679 23.427 30.0679H23.1518C23.0137 30.0679 22.9018 30.1797 22.9018 30.3179C22.9018 30.456 23.0137 30.5679 23.1518 30.5679Z" fill="#FAF7FF"/>
<path d="M24.8023 30.5679H25.0774C25.2156 30.5679 25.3274 30.456 25.3274 30.3179C25.3274 30.1797 25.2156 30.0679 25.0774 30.0679H24.8023C24.6641 30.0679 24.5523 30.1797 24.5523 30.3179C24.5523 30.456 24.6641 30.5679 24.8023 30.5679Z" fill="#FAF7FF"/>
<path d="M26.4527 30.5679H26.7276C26.8657 30.5679 26.9776 30.456 26.9776 30.3179C26.9776 30.1797 26.8657 30.0679 26.7276 30.0679H26.4527C26.3145 30.0679 26.2027 30.1797 26.2027 30.3179C26.2027 30.456 26.3145 30.5679 26.4527 30.5679Z" fill="#FAF7FF"/>
<path d="M28.1031 30.5679H28.3779C28.5161 30.5679 28.628 30.456 28.628 30.3179C28.628 30.1797 28.5161 30.0679 28.3779 30.0679H28.1031C27.9649 30.0679 27.8531 30.1797 27.8531 30.3179C27.8531 30.456 27.9649 30.5679 28.1031 30.5679Z" fill="#FAF7FF"/>
<defs>
<linearGradient id="paint0_linear_818_69379" x1="2.57506" y1="1.00586" x2="11.7961" y2="46.5328" gradientUnits="userSpaceOnUse">
<stop stop-color="#9F5AF6"/>
<stop offset="1" stop-color="#E506FF"/>
</linearGradient>
</defs>
</svg>
