<svg width="25" height="24" viewBox="0 0 25 24" fill="none" xmlns="http://www.w3.org/2000/svg">
<g clip-path="url(#clip0_452_7638)">
<path d="M22.6618 5.656C21.8984 5.9937 21.0888 6.21548 20.2598 6.314C21.1336 5.79144 21.7875 4.96902 22.0998 4C21.2798 4.488 20.3808 4.83 19.4438 5.015C18.8144 4.34158 17.9802 3.89497 17.0708 3.74459C16.1614 3.59421 15.2277 3.74849 14.4151 4.18346C13.6024 4.61842 12.9562 5.30969 12.5769 6.1498C12.1977 6.9899 12.1066 7.93178 12.3178 8.829C10.6549 8.74566 9.02814 8.31353 7.5431 7.56067C6.05805 6.80781 4.74794 5.75105 3.69781 4.459C3.3261 5.09745 3.13076 5.82323 3.13181 6.562C3.13181 8.012 3.86981 9.293 4.99181 10.043C4.32782 10.0221 3.67844 9.84278 3.09781 9.52V9.572C3.09801 10.5377 3.43218 11.4736 4.04366 12.2211C4.65514 12.9685 5.50629 13.4815 6.45281 13.673C5.83642 13.84 5.19012 13.8647 4.56281 13.745C4.82968 14.5762 5.34982 15.3032 6.0504 15.8241C6.75099 16.345 7.59694 16.6338 8.46981 16.65C7.60229 17.3313 6.60899 17.835 5.54669 18.1322C4.48439 18.4294 3.37394 18.5143 2.27881 18.382C4.19051 19.6114 6.41591 20.2641 8.68881 20.262C16.3818 20.262 20.5888 13.889 20.5888 8.362C20.5888 8.182 20.5838 8 20.5758 7.822C21.3947 7.23017 22.1014 6.49702 22.6628 5.657L22.6618 5.656Z" fill="white"/>
</g>
<defs>
<clipPath id="clip0_452_7638">
<rect width="24" height="24" fill="white" transform="translate(0.5)"/>
</clipPath>
</defs>
</svg>
