<svg width="33" height="34" viewBox="0 0 33 34" fill="none" xmlns="http://www.w3.org/2000/svg">
<path d="M17.1484 4.927C12.6514 4.927 9.00293 8.5333 9.00293 12.9749C9.00293 18.0857 14.4332 26.1847 16.4272 28.9821C16.5099 29.1002 16.6184 29.1963 16.7438 29.2625C16.8691 29.3288 17.0078 29.3633 17.1484 29.3633C17.289 29.3633 17.4277 29.3288 17.553 29.2625C17.6784 29.1963 17.7868 29.1002 17.8696 28.9821C19.8635 26.1859 25.2939 18.0898 25.2939 12.9749C25.2939 8.5333 21.6454 4.927 17.1484 4.927Z" stroke="#EB6649" stroke-width="2.59173" stroke-linecap="round" stroke-linejoin="round"/>
<path d="M17.1478 15.788C18.6473 15.788 19.8629 14.5723 19.8629 13.0728C19.8629 11.5733 18.6473 10.3577 17.1478 10.3577C15.6482 10.3577 14.4326 11.5733 14.4326 13.0728C14.4326 14.5723 15.6482 15.788 17.1478 15.788Z" stroke="#EB6649" stroke-width="2.03636" stroke-linecap="round" stroke-linejoin="round"/>
</svg>
