<?xml version="1.0" encoding="UTF-8" standalone="no"?>
<svg
   width="60"
   height="50"
   viewBox="0 0 60 50"
   fill="none"
   version="1.1"
   id="svg11"
   sodipodi:docname="logotipo-footer.svg"
   inkscape:version="1.3 (0e150ed6c4, 2023-07-21)"
   xmlns:inkscape="http://www.inkscape.org/namespaces/inkscape"
   xmlns:sodipodi="http://sodipodi.sourceforge.net/DTD/sodipodi-0.dtd"
   xmlns="http://www.w3.org/2000/svg"
   xmlns:svg="http://www.w3.org/2000/svg">
  <defs
     id="defs11" />
  <sodipodi:namedview
     id="namedview11"
     pagecolor="#ffffff"
     bordercolor="#666666"
     borderopacity="1.0"
     inkscape:showpageshadow="2"
     inkscape:pageopacity="0.0"
     inkscape:pagecheckerboard="0"
     inkscape:deskcolor="#d1d1d1"
     inkscape:zoom="4.7333333"
     inkscape:cx="30"
     inkscape:cy="25.035211"
     inkscape:window-width="1280"
     inkscape:window-height="971"
     inkscape:window-x="1912"
     inkscape:window-y="-8"
     inkscape:window-maximized="1"
     inkscape:current-layer="svg11" />
  <path
     fill-rule="evenodd"
     clip-rule="evenodd"
     d="M1.1033 25.8307L27.0361 2.03093C29.2345 0.118526 31.6599 0.129666 33.5406 2.11529L59.131 26.1682C61.8151 29.0134 57.6985 33.0357 54.6805 30.81L32.0857 9.37338C30.9439 8.28964 29.3982 8.19367 28.1487 9.37338L5.5538 30.81C2.56858 33.3164 -2.16029 28.7608 1.1033 25.8307Z"
     fill="white"
     id="path1"
     style="fill:#9f5af6;fill-opacity:1" />
  <path
     d="M8.54934 9.711C11.1018 9.711 13.171 7.67057 13.171 5.15358C13.171 2.6366 11.1018 0.596191 8.54934 0.596191C5.99686 0.596191 3.92766 2.6366 3.92766 5.15358C3.92766 7.67057 5.99686 9.711 8.54934 9.711Z"
     fill="white"
     id="path2"
     style="fill:#9f5af6;fill-opacity:1" />
  <path
     d="M30.4426 33.0552C34.4132 33.0552 37.6319 29.8812 37.6319 25.9659C37.6319 22.0506 34.4132 18.8766 30.4426 18.8766C26.4721 18.8766 23.2534 22.0506 23.2534 25.9659C23.2534 29.8812 26.4721 33.0552 30.4426 33.0552Z"
     fill="white"
     id="path3"
     style="fill:#9f5af6;fill-opacity:1" />
  <path
     d="M7.05444 49.2847C6.77313 49.2847 6.55674 49.2089 6.40526 49.0575C6.25379 48.906 6.17805 48.6896 6.17805 48.4083V42.5332C6.17805 42.2519 6.25379 42.0355 6.40526 41.884C6.55674 41.7326 6.77313 41.6568 7.05444 41.6568H9.16428C10.4699 41.6568 11.4761 41.9886 12.183 42.6522C12.8971 43.3086 13.2541 44.2463 13.2541 45.4653C13.2541 46.0785 13.1603 46.623 12.9728 47.0991C12.7925 47.568 12.5292 47.9647 12.183 48.2893C11.8367 48.6139 11.4112 48.8627 10.9062 49.0358C10.4013 49.2017 9.82067 49.2847 9.16428 49.2847H7.05444ZM7.8551 47.9106H9.0669C9.47805 47.9106 9.8351 47.8601 10.138 47.7591C10.441 47.6581 10.6935 47.5066 10.8954 47.3047C11.0974 47.1027 11.2489 46.8503 11.3499 46.5473C11.4508 46.2371 11.5013 45.8765 11.5013 45.4653C11.5013 44.643 11.2958 44.0335 10.8846 43.6368C10.4807 43.2329 9.87477 43.0309 9.0669 43.0309H7.8551V47.9106Z"
     fill="white"
     id="path4"
     style="fill:#9f5af6;fill-opacity:1" />
  <path
     d="M16.9697 49.4037C16.3999 49.4037 15.9022 49.2919 15.4766 49.0683C15.0583 48.8447 14.7337 48.5237 14.5029 48.1053C14.272 47.687 14.1566 47.1929 14.1566 46.623C14.1566 46.1975 14.2215 45.8152 14.3514 45.4762C14.4812 45.1371 14.6688 44.8486 14.914 44.6106C15.1665 44.3653 15.4658 44.1814 15.812 44.0588C16.1583 43.9289 16.5442 43.864 16.9697 43.864C17.5396 43.864 18.0337 43.9758 18.452 44.1994C18.8776 44.423 19.2058 44.7404 19.4366 45.1516C19.6747 45.5627 19.7937 46.0532 19.7937 46.623C19.7937 47.0558 19.7252 47.4417 19.5881 47.7807C19.4583 48.1198 19.2707 48.4119 19.0255 48.6571C18.7802 48.9024 18.4809 49.0899 18.1274 49.2198C17.7812 49.3424 17.3953 49.4037 16.9697 49.4037ZM16.9697 48.1811C17.2078 48.1811 17.4133 48.1234 17.5865 48.008C17.7596 47.8925 17.8966 47.723 17.9976 47.4994C18.0986 47.2686 18.1491 46.9765 18.1491 46.623C18.1491 46.0965 18.0409 45.7106 17.8245 45.4653C17.6081 45.2129 17.3232 45.0866 16.9697 45.0866C16.7389 45.0866 16.5333 45.1407 16.353 45.2489C16.1799 45.3571 16.0429 45.5266 15.9419 45.7575C15.8481 45.9811 15.8012 46.2696 15.8012 46.623C15.8012 47.1496 15.9094 47.5427 16.1258 47.8024C16.3422 48.0548 16.6235 48.1811 16.9697 48.1811Z"
     fill="white"
     id="path5"
     style="fill:#9f5af6;fill-opacity:1" />
  <path
     d="M21.6316 49.3821C21.3647 49.3821 21.1591 49.3099 21.0149 49.1657C20.8778 49.0214 20.8093 48.8158 20.8093 48.5489V44.708C20.8093 44.4411 20.8778 44.2391 21.0149 44.1021C21.1591 43.9578 21.3575 43.8857 21.6099 43.8857C21.8696 43.8857 22.068 43.9578 22.205 44.1021C22.3421 44.2391 22.4106 44.4411 22.4106 44.708V45.4004L22.2916 44.9676C22.4358 44.6358 22.6595 44.3689 22.9624 44.167C23.2654 43.965 23.6224 43.864 24.0335 43.864C24.4447 43.864 24.7873 43.9614 25.0614 44.1562C25.3355 44.3509 25.5303 44.6503 25.6457 45.0542H25.4942C25.6529 44.6863 25.8945 44.3978 26.2191 44.1886C26.5509 43.9722 26.9296 43.864 27.3552 43.864C27.7663 43.864 28.1017 43.947 28.3614 44.1129C28.6283 44.2716 28.8267 44.5168 28.9565 44.8486C29.0863 45.1732 29.1513 45.588 29.1513 46.0929V48.5489C29.1513 48.8158 29.0791 49.0214 28.9349 49.1657C28.7978 49.3099 28.5995 49.3821 28.3398 49.3821C28.0729 49.3821 27.8673 49.3099 27.7231 49.1657C27.586 49.0214 27.5175 48.8158 27.5175 48.5489V46.147C27.5175 45.7935 27.4598 45.5375 27.3444 45.3788C27.2362 45.2129 27.0486 45.1299 26.7817 45.1299C26.4716 45.1299 26.2299 45.2381 26.0568 45.4545C25.8837 45.6709 25.7972 45.9775 25.7972 46.3742V48.5489C25.7972 48.8158 25.725 49.0214 25.5808 49.1657C25.4437 49.3099 25.2454 49.3821 24.9857 49.3821C24.726 49.3821 24.524 49.3099 24.3798 49.1657C24.2355 49.0214 24.1634 48.8158 24.1634 48.5489V46.147C24.1634 45.7935 24.1057 45.5375 23.9903 45.3788C23.8821 45.2129 23.6945 45.1299 23.4276 45.1299C23.1175 45.1299 22.8758 45.2381 22.7027 45.4545C22.5296 45.6709 22.4431 45.9775 22.4431 46.3742V48.5489C22.4431 49.1044 22.1726 49.3821 21.6316 49.3821Z"
     fill="white"
     id="path6"
     style="fill:#9f5af6;fill-opacity:1" />
  <path
     d="M32.9562 49.4037C32.3864 49.4037 31.8887 49.2919 31.4631 49.0683C31.0448 48.8447 30.7202 48.5237 30.4893 48.1053C30.2585 47.687 30.1431 47.1929 30.1431 46.623C30.1431 46.1975 30.208 45.8152 30.3379 45.4762C30.4677 45.1371 30.6552 44.8486 30.9005 44.6106C31.153 44.3653 31.4523 44.1814 31.7985 44.0588C32.1448 43.9289 32.5307 43.864 32.9562 43.864C33.5261 43.864 34.0202 43.9758 34.4385 44.1994C34.8641 44.423 35.1923 44.7404 35.4231 45.1516C35.6611 45.5627 35.7802 46.0532 35.7802 46.623C35.7802 47.0558 35.7116 47.4417 35.5746 47.7807C35.4448 48.1198 35.2572 48.4119 35.012 48.6571C34.7667 48.9024 34.4674 49.0899 34.1139 49.2198C33.7677 49.3424 33.3818 49.4037 32.9562 49.4037ZM32.9562 48.1811C33.1943 48.1811 33.3998 48.1234 33.573 48.008C33.7461 47.8925 33.8831 47.723 33.9841 47.4994C34.0851 47.2686 34.1356 46.9765 34.1356 46.623C34.1356 46.0965 34.0274 45.7106 33.811 45.4653C33.5946 45.2129 33.3097 45.0866 32.9562 45.0866C32.7254 45.0866 32.5198 45.1407 32.3395 45.2489C32.1664 45.3571 32.0293 45.5266 31.9284 45.7575C31.8346 45.9811 31.7877 46.2696 31.7877 46.623C31.7877 47.1496 31.8959 47.5427 32.1123 47.8024C32.3287 48.0548 32.61 48.1811 32.9562 48.1811Z"
     fill="white"
     id="path7"
     style="fill:#9f5af6;fill-opacity:1" />
  <path
     d="M39.3288 49.4037C38.8311 49.4037 38.4128 49.3207 38.0738 49.1548C37.742 48.9889 37.4931 48.7473 37.3272 48.4299C37.1685 48.1125 37.0892 47.7122 37.0892 47.2289V45.1948H36.6348C36.4328 45.1948 36.2741 45.1407 36.1587 45.0326C36.0505 44.9244 35.9964 44.7765 35.9964 44.5889C35.9964 44.387 36.0505 44.2355 36.1587 44.1345C36.2741 44.0263 36.4328 43.9722 36.6348 43.9722H37.0892V43.1499C37.0892 42.8758 37.1613 42.6703 37.3056 42.5332C37.4498 42.3889 37.6518 42.3168 37.9115 42.3168C38.1784 42.3168 38.3803 42.3889 38.5174 42.5332C38.6544 42.6703 38.7229 42.8758 38.7229 43.1499V43.9722H39.7508C39.9528 43.9722 40.1079 44.0263 40.2161 44.1345C40.3243 44.2355 40.3784 44.387 40.3784 44.5889C40.3784 44.7765 40.3243 44.9244 40.2161 45.0326C40.1079 45.1407 39.9528 45.1948 39.7508 45.1948H38.7229V47.164C38.7229 47.467 38.7915 47.6942 38.9285 47.8457C39.0728 47.9971 39.3 48.0729 39.6102 48.0729C39.7184 48.0729 39.8193 48.0621 39.9131 48.0404C40.0069 48.0188 40.0934 48.0044 40.1728 47.9971C40.2738 47.9899 40.3567 48.0224 40.4216 48.0945C40.4866 48.1594 40.519 48.3073 40.519 48.5381C40.519 48.7112 40.4902 48.8627 40.4325 48.9925C40.3747 49.1224 40.2738 49.2162 40.1295 49.2739C40.0357 49.3099 39.9059 49.3388 39.74 49.3604C39.5813 49.3893 39.4443 49.4037 39.3288 49.4037Z"
     fill="white"
     id="path8"
     style="fill:#9f5af6;fill-opacity:1" />
  <path
     d="M42.087 49.3712C41.8201 49.3712 41.6146 49.2955 41.4703 49.144C41.3332 48.9853 41.2647 48.7653 41.2647 48.484V44.7837C41.2647 44.4952 41.3332 44.2752 41.4703 44.1237C41.6146 43.965 41.8201 43.8857 42.087 43.8857C42.3467 43.8857 42.5451 43.965 42.6821 44.1237C42.8264 44.2752 42.8985 44.4952 42.8985 44.7837V48.484C42.8985 48.7653 42.83 48.9853 42.6929 49.144C42.5559 49.2955 42.3539 49.3712 42.087 49.3712ZM42.087 42.9985C41.7841 42.9985 41.5496 42.9299 41.3837 42.7929C41.2251 42.6486 41.1457 42.4466 41.1457 42.187C41.1457 41.9201 41.2251 41.7181 41.3837 41.5811C41.5496 41.4368 41.7841 41.3647 42.087 41.3647C42.39 41.3647 42.6208 41.4368 42.7795 41.5811C42.9382 41.7181 43.0175 41.9201 43.0175 42.187C43.0175 42.4466 42.9382 42.6486 42.7795 42.7929C42.6208 42.9299 42.39 42.9985 42.087 42.9985Z"
     fill="white"
     id="path9"
     style="fill:#9f5af6;fill-opacity:1" />
  <path
     d="M44.9821 49.3821C44.7152 49.3821 44.5097 49.3099 44.3654 49.1657C44.2284 49.0214 44.1598 48.8158 44.1598 48.5489V42.3926C44.1598 42.1185 44.2284 41.9129 44.3654 41.7758C44.5097 41.6316 44.7152 41.5594 44.9821 41.5594C45.2418 41.5594 45.4402 41.6316 45.5772 41.7758C45.7215 41.9129 45.7936 42.1185 45.7936 42.3926V46.1686H45.8152L47.3841 44.4266C47.5428 44.2463 47.687 44.1129 47.8169 44.0263C47.9539 43.9326 48.1343 43.8857 48.3579 43.8857C48.5815 43.8857 48.751 43.9434 48.8664 44.0588C48.989 44.1742 49.0503 44.3148 49.0503 44.4807C49.0575 44.6394 48.989 44.8017 48.8447 44.9676L47.1893 46.8178V46.2011L49.0287 48.3217C49.1657 48.4876 49.2234 48.6535 49.2018 48.8194C49.1874 48.9853 49.1152 49.1224 48.9854 49.2306C48.8556 49.3316 48.6897 49.3821 48.4877 49.3821C48.2425 49.3821 48.0441 49.3352 47.8926 49.2414C47.7484 49.1476 47.6005 49.0034 47.449 48.8086L45.8152 46.9909H45.7936V48.5489C45.7936 49.1044 45.5231 49.3821 44.9821 49.3821Z"
     fill="white"
     id="path10"
     style="fill:#9f5af6;fill-opacity:1" />
  <path
     d="M51.9363 49.4037C51.5468 49.4037 51.197 49.328 50.8868 49.1765C50.5766 49.025 50.335 48.8194 50.1619 48.5598C49.9888 48.3001 49.9022 48.008 49.9022 47.6834C49.9022 47.2939 50.0032 46.9873 50.2052 46.7637C50.4071 46.5329 50.7353 46.3706 51.1897 46.2768C51.6442 46.1758 52.2465 46.1253 52.9966 46.1253H53.5701V46.9693H53.0074C52.6396 46.9693 52.3402 46.9909 52.1094 47.0342C51.8858 47.0703 51.7235 47.1352 51.6225 47.2289C51.5288 47.3227 51.4819 47.4525 51.4819 47.6185C51.4819 47.8204 51.5504 47.9863 51.6875 48.1162C51.8317 48.246 52.0373 48.3109 52.3042 48.3109C52.5133 48.3109 52.6973 48.264 52.856 48.1703C53.0219 48.0693 53.1517 47.9358 53.2455 47.7699C53.3393 47.5968 53.3861 47.4021 53.3861 47.1857V45.9414C53.3861 45.624 53.314 45.4004 53.1697 45.2706C53.0255 45.1335 52.7802 45.065 52.434 45.065C52.2393 45.065 52.0265 45.0903 51.7956 45.1407C51.572 45.184 51.3232 45.2598 51.0491 45.368C50.8904 45.4401 50.7497 45.4581 50.6271 45.4221C50.5045 45.3788 50.4107 45.3066 50.3458 45.2057C50.2809 45.0975 50.2484 44.9821 50.2484 44.8594C50.2484 44.7296 50.2845 44.607 50.3566 44.4916C50.4288 44.3689 50.5478 44.2788 50.7137 44.2211C51.0527 44.084 51.3701 43.9903 51.6658 43.9398C51.9688 43.8893 52.2465 43.864 52.4989 43.864C53.0543 43.864 53.5088 43.947 53.8622 44.1129C54.2229 44.2716 54.4934 44.5204 54.6737 44.8594C54.854 45.1912 54.9442 45.6204 54.9442 46.147V48.5489C54.9442 48.8158 54.8792 49.0214 54.7494 49.1657C54.6196 49.3099 54.432 49.3821 54.1868 49.3821C53.9415 49.3821 53.7504 49.3099 53.6133 49.1657C53.4835 49.0214 53.4186 48.8158 53.4186 48.5489V48.1486L53.4943 48.2135C53.4511 48.4588 53.3573 48.6716 53.213 48.8519C53.076 49.025 52.8993 49.1621 52.6829 49.263C52.4665 49.3568 52.2176 49.4037 51.9363 49.4037Z"
     fill="white"
     id="path11"
     style="fill:#9f5af6;fill-opacity:1" />
</svg>
