<svg width="196" height="60" viewBox="0 0 196 60" fill="none" xmlns="http://www.w3.org/2000/svg">
<path d="M22.0128 13.48C10.2779 13.8422 0.59261 22.8839 0.381934 33.6731C0.171258 44.4624 9.51354 52.9094 21.25 52.5471C32.9864 52.1848 42.6717 43.1446 42.8824 32.3539C43.0931 21.5631 33.7492 13.1177 22.0128 13.48Z" fill="#FFCE54"/>
<path d="M20.2605 38.8755C20.2605 38.8755 14.0959 46.6398 18.3981 47.616C18.3981 47.616 20.2682 48.1766 21.587 44.6081C21.587 44.6081 21.0329 49.3077 24.0733 48.9784C24.0733 48.9784 29.0843 48.7677 23.7819 38.1475L20.2605 38.8755Z" fill="#FC6E51"/>
<path d="M15.5978 36.5917C15.5978 36.5917 20.4876 45.3452 27.6906 36.2355L15.5978 36.5917Z" fill="#775149"/>
<path d="M15.5447 36.751C15.5447 36.751 21.0899 26.8879 27.6304 36.3923L15.5447 36.751Z" fill="#88675F"/>
<path d="M28.1089 14.8305C24.9107 15.5255 22.7786 20.5033 19.9222 17.3479C18.9839 16.3136 18.0044 14.0459 18.3627 12.5421C18.7857 10.756 20.4616 10.3599 21.6732 11.5334C19.2472 6.75581 28.3581 5.37601 28.0175 10.1017C29.1588 7.71937 32.2346 8.40448 32.7678 10.6189C33.2113 12.4558 32.6521 14.5384 31.1255 15.7575C31.1241 15.7501 29.1385 14.6034 28.1089 14.8305Z" fill="#FC6E51"/>
<path d="M13.6393 26.0882C13.3707 26.1145 13.1101 26.2086 12.883 26.3614C13.1119 26.5294 13.2781 26.7666 13.3581 27.0396C13.438 27.3126 13.4279 27.6078 13.3289 27.8836C13.23 28.1595 13.0473 28.4021 12.8065 28.5776C12.5657 28.7531 12.2788 28.8525 11.9862 28.862C11.8804 28.8644 11.7753 28.8552 11.6728 28.8346C11.6705 28.9545 11.6561 29.0747 11.6658 29.1987C11.7277 30.8239 12.7136 32.0465 13.8663 31.9416C15.019 31.8368 15.9094 30.4487 15.8488 28.8324C15.7882 27.2161 14.7934 25.9878 13.6393 26.0882Z" fill="#7F4438"/>
<path d="M29.7746 25.7875C29.4902 25.7818 29.2058 25.8529 28.952 25.9931C29.2031 26.148 29.3925 26.3814 29.4919 26.6584C29.5913 26.9354 29.5953 27.2411 29.5034 27.5299C29.4115 27.8188 29.2286 28.0753 28.982 28.261C28.7353 28.4468 28.4382 28.552 28.135 28.5608C27.9123 28.5661 27.6942 28.5185 27.4993 28.422C27.4871 28.5067 27.4676 28.5871 27.4614 28.6731C27.3371 30.2951 28.1706 31.6363 29.3237 31.6645C30.4768 31.6928 31.5139 30.4053 31.6322 28.7835C31.7505 27.1617 30.9201 25.8175 29.7746 25.7875Z" fill="#7F4438"/>
<path d="M13.5617 24.0212C11.5905 24.1955 10.0788 26.5699 10.182 29.3298C10.2852 32.0897 11.9709 34.1858 13.9435 34.0144C15.9161 33.843 17.4264 31.4656 17.3202 28.7073C17.214 25.949 15.5374 23.8467 13.5617 24.0212ZM13.8601 31.9461C12.7044 32.0481 11.7186 30.8196 11.6595 29.2032C11.6619 29.0789 11.6642 28.959 11.6665 28.8391C11.7691 28.8597 11.8742 28.8689 11.98 28.8665C12.2733 28.8589 12.5615 28.7607 12.8037 28.5859C13.046 28.4111 13.2301 28.1684 13.3302 27.8921C13.4303 27.6158 13.4412 27.3198 13.3615 27.0459C13.2817 26.7721 13.1153 26.5341 12.8858 26.3656C13.1129 26.2128 13.3735 26.1187 13.6421 26.0925C14.7977 25.992 15.785 27.2205 15.8426 28.8354C15.9002 30.4504 15.0187 31.8456 13.8616 31.9446L13.8601 31.9461Z" fill="#F4F0DF"/>
<path d="M29.9319 23.7133C27.9635 23.6612 26.1996 25.866 25.9872 28.6355C25.7747 31.4051 27.1985 33.6882 29.1668 33.7418C31.1351 33.7954 32.8974 31.5937 33.116 28.8209C33.3345 26.0482 31.8972 23.7655 29.9319 23.7133ZM29.3284 31.666C28.1768 31.6362 27.3433 30.2965 27.4661 28.6745C27.4677 28.5872 27.4918 28.5066 27.5039 28.4234C27.6989 28.5199 27.917 28.5676 28.1397 28.5622C28.4429 28.5534 28.74 28.4482 28.9867 28.2625C29.2333 28.0767 29.4162 27.8202 29.5081 27.5313C29.6 27.2425 29.596 26.9367 29.4966 26.6598C29.3972 26.3828 29.2078 26.1494 28.9567 25.9945C29.2105 25.8543 29.4949 25.7831 29.7793 25.7888C30.9309 25.8201 31.7629 27.1584 31.6401 28.7818C31.5172 30.4053 30.477 31.6959 29.3224 31.6647L29.3284 31.666Z" fill="#F4F0DF"/>
<g style="mix-blend-mode:multiply">
<path d="M31.0733 15.8679C32.5263 14.6559 33.0448 12.6417 32.5977 10.8532C32.046 8.64705 28.9515 7.95711 27.8225 10.3153C28.0487 6.92462 23.3294 6.67983 21.63 8.59807L21.0824 52.9541C32.8981 52.6554 42.5843 43.7091 42.7169 32.9706C42.811 25.3487 38.0618 18.8778 31.0733 15.8679Z" fill="#EEECE7"/>
</g>
<path d="M74.1438 42.56C73.6104 42.72 72.9971 42.84 72.3038 42.92C71.6371 43 70.9304 43.04 70.1838 43.04C70.2904 38.96 70.2104 34.52 69.9438 29.72C69.7038 24.92 69.3304 20.5867 68.8238 16.72C67.5704 16.8533 66.2638 17 64.9038 17.16C63.5704 17.32 62.1304 17.5067 60.5838 17.72C60.4238 17.2133 60.3038 16.68 60.2238 16.12C60.1438 15.5333 60.1038 14.9467 60.1038 14.36C64.1838 13.64 67.7971 13.1333 70.9438 12.84C74.0904 12.52 77.6104 12.3467 81.5038 12.32C81.5838 12.5867 81.6504 12.88 81.7038 13.2C81.7571 13.4933 81.7971 13.84 81.8238 14.24C81.8238 14.4533 81.8104 14.68 81.7838 14.92C81.7838 15.16 81.7438 15.5333 81.6638 16.04C80.0371 16.0667 78.5704 16.1067 77.2638 16.16C75.9838 16.1867 74.7571 16.24 73.5838 16.32C73.8771 19.2267 74.0904 22.0667 74.2238 24.84C74.3838 27.6133 74.4638 30.5467 74.4638 33.64C74.4638 35.0267 74.4371 36.4667 74.3838 37.96C74.3304 39.4533 74.2504 40.9867 74.1438 42.56ZM98.02 30.2C98.02 31.9867 97.78 34.36 97.3 37.32C96.82 40.2533 96.2467 42.9467 95.58 45.4C95.0467 45.4 94.4867 45.3467 93.9 45.24C93.3133 45.16 92.74 45.04 92.18 44.88C92.26 44.4267 92.34 44.0133 92.42 43.64C92.5 43.2667 92.58 42.9333 92.66 42.64C92.0733 43.0133 91.4333 43.2933 90.74 43.48C90.0467 43.6667 89.3133 43.76 88.54 43.76C86.62 43.76 85.0733 43.2667 83.9 42.28C82.7267 41.2667 82.14 39.92 82.14 38.24C82.14 36.4533 82.8867 35.1067 84.38 34.2C85.8733 33.2933 88.0733 32.84 90.98 32.84C91.46 32.84 91.9 32.8533 92.3 32.88C92.7267 32.88 93.2467 32.8933 93.86 32.92C93.86 32.6267 93.86 32.3467 93.86 32.08C93.86 31.7867 93.86 31.5067 93.86 31.24C93.86 29 93.62 27.3867 93.14 26.4C92.66 25.4133 91.8867 24.92 90.82 24.92C89.7267 24.92 88.8067 25.4267 88.06 26.44C87.34 27.4533 86.9533 28.76 86.9 30.36C85.94 30.28 85.1533 30.0667 84.54 29.72C83.9267 29.3733 83.4733 28.9067 83.18 28.32C83.5267 26.64 84.46 25.2133 85.98 24.04C87.5267 22.8667 89.2867 22.28 91.26 22.28C93.5 22.28 95.18 22.9467 96.3 24.28C97.4467 25.6133 98.02 27.5867 98.02 30.2ZM86.42 38.44C86.42 39.32 86.7 40.0267 87.26 40.56C87.82 41.0933 88.58 41.36 89.54 41.36C90.2067 41.36 90.8333 41.2667 91.42 41.08C92.0333 40.8667 92.5933 40.5733 93.1 40.2C93.2867 39.2133 93.4333 38.3067 93.54 37.48C93.6467 36.6533 93.7133 35.8133 93.74 34.96C91.2867 34.88 89.4467 35.1333 88.22 35.72C87.02 36.28 86.42 37.1867 86.42 38.44ZM111.443 32.08C113.47 33.4933 114.803 34.7067 115.443 35.72C116.083 36.7067 116.403 37.8133 116.403 39.04C116.403 40.9333 115.737 42.5067 114.403 43.76C113.07 45.0133 111.39 45.64 109.363 45.64C107.363 45.64 105.723 44.96 104.443 43.6C103.19 42.2133 102.563 40.4533 102.563 38.32C102.99 38.1333 103.497 38 104.083 37.92C104.67 37.8133 105.217 37.7733 105.723 37.8C105.67 39.4533 105.963 40.76 106.603 41.72C107.27 42.6533 108.19 43.12 109.363 43.12C110.27 43.12 110.977 42.84 111.483 42.28C112.017 41.6933 112.283 40.9067 112.283 39.92C112.283 39.0933 112.03 38.32 111.523 37.6C111.043 36.88 109.963 35.9333 108.283 34.76C106.257 33.32 104.923 32.08 104.283 31.04C103.643 30 103.323 28.84 103.323 27.56C103.323 25.7733 103.897 24.3333 105.043 23.24C106.217 22.1467 107.777 21.6 109.723 21.6C111.59 21.6 113.07 22.1067 114.163 23.12C115.257 24.1067 115.99 25.64 116.363 27.72C115.91 27.9867 115.403 28.1867 114.843 28.32C114.31 28.4533 113.67 28.56 112.923 28.64C112.683 27.12 112.31 26.0267 111.803 25.36C111.297 24.6667 110.603 24.32 109.723 24.32C109.03 24.32 108.47 24.56 108.043 25.04C107.617 25.4933 107.403 26.12 107.403 26.92C107.403 27.7467 107.657 28.52 108.163 29.24C108.67 29.96 109.763 30.9067 111.443 32.08ZM125.299 35C125.299 36.8933 125.352 38.7067 125.459 40.44C125.566 42.1467 125.739 43.8533 125.979 45.56C125.419 45.72 124.819 45.84 124.179 45.92C123.566 46 122.926 46.04 122.259 46.04C121.912 43.08 121.672 40.56 121.539 38.48C121.432 36.4 121.379 34.2133 121.379 31.92C121.379 28.8267 121.472 25.7067 121.659 22.56C121.872 19.4133 122.152 16.7333 122.499 14.52C123.166 14.4667 123.952 14.4933 124.859 14.6C125.792 14.7067 126.539 14.8667 127.099 15.08C126.646 17.4533 126.272 20.0533 125.979 22.88C125.686 25.68 125.486 28.4533 125.379 31.2C126.926 29.8133 128.339 28.36 129.619 26.84C130.899 25.32 132.352 23.3333 133.979 20.88C134.486 21.1467 134.992 21.5067 135.499 21.96C136.032 22.3867 136.472 22.84 136.819 23.32C135.619 25.0533 134.379 26.6 133.099 27.96C131.819 29.32 130.259 30.76 128.419 32.28C129.592 33.8533 130.872 35.28 132.259 36.56C133.672 37.8133 135.472 39.1733 137.659 40.64C136.992 41.52 136.432 42.16 135.979 42.56C135.526 42.96 135.046 43.2667 134.539 43.48C132.886 42.1467 131.406 40.7867 130.099 39.4C128.819 37.9867 127.446 36.2533 125.979 34.2C125.899 34.2533 125.779 34.3333 125.619 34.44C125.486 34.5467 125.379 34.6267 125.299 34.68C125.299 34.7333 125.299 34.7867 125.299 34.84C125.299 34.8933 125.299 34.9467 125.299 35ZM148.458 34.4C146.698 34.6667 144.884 34.7867 143.018 34.76C141.151 34.7067 139.751 34.5067 138.818 34.16C138.791 33.3867 138.804 32.7467 138.858 32.24C138.911 31.7333 139.018 31.2133 139.178 30.68C139.764 30.8133 140.538 30.92 141.498 31C142.458 31.08 143.418 31.12 144.378 31.12C145.498 31.12 146.378 31.1067 147.018 31.08C147.684 31.0533 148.284 31 148.818 30.92C148.818 31.6667 148.791 32.32 148.738 32.88C148.684 33.44 148.591 33.9467 148.458 34.4ZM158.804 24.16C158.804 28.5867 158.764 32.3467 158.684 35.44C158.631 38.5333 158.538 41.6267 158.404 44.72C158.004 44.8267 157.458 44.92 156.764 45C156.098 45.08 155.444 45.1333 154.804 45.16C154.884 39.9333 154.844 35 154.684 30.36C154.551 25.6933 154.311 21.3867 153.964 17.44C154.364 17.2 154.804 17.0267 155.284 16.92C155.764 16.7867 156.258 16.72 156.764 16.72C157.031 16.72 157.284 16.7333 157.524 16.76C157.791 16.7867 158.164 16.84 158.644 16.92C158.698 18.0133 158.738 19.1333 158.764 20.28C158.791 21.4267 158.804 22.72 158.804 24.16ZM174.52 35.48C175.053 35.5333 175.573 35.6667 176.08 35.88C176.613 36.0667 177.093 36.2933 177.52 36.56C177.466 38.7467 176.986 40.48 176.08 41.76C175.173 43.0133 173.906 43.64 172.28 43.64C170.386 43.64 168.933 42.68 167.92 40.76C166.906 38.8133 166.4 36.0133 166.4 32.36C166.4 31.1333 166.426 29.9467 166.48 28.8C166.56 27.6267 166.666 26.4933 166.8 25.4C166.16 25.2933 165.6 25.2 165.12 25.12C164.666 25.04 164.253 24.96 163.88 24.88C163.88 24.4267 163.933 23.9733 164.04 23.52C164.146 23.04 164.28 22.64 164.44 22.32C164.84 22.4267 165.266 22.52 165.72 22.6C166.173 22.68 166.653 22.7467 167.16 22.8C167.293 21.92 167.453 21.04 167.64 20.16C167.826 19.28 168.026 18.4133 168.24 17.56C169.173 17.6133 170.013 17.6933 170.76 17.8C171.506 17.9067 172.146 18.0533 172.68 18.24C172.466 18.88 172.253 19.6133 172.04 20.44C171.853 21.2667 171.666 22.16 171.48 23.12C172.52 23.1467 173.546 23.1467 174.56 23.12C175.6 23.0667 176.6 22.9867 177.56 22.88C177.56 23.2533 177.52 23.6667 177.44 24.12C177.36 24.5467 177.24 24.9733 177.08 25.4C176.12 25.5067 175.12 25.5867 174.08 25.64C173.066 25.6933 172.066 25.7067 171.08 25.68C170.893 26.9067 170.746 28.1333 170.64 29.36C170.56 30.5867 170.52 31.7733 170.52 32.92C170.52 35.56 170.693 37.56 171.04 38.92C171.386 40.2533 171.906 40.92 172.6 40.92C173.213 40.92 173.68 40.48 174 39.6C174.32 38.6933 174.493 37.32 174.52 35.48Z" fill="black"/>
</svg>
