<?xml version="1.0" encoding="UTF-8" standalone="no"?>
<svg
   width="118"
   height="38"
   viewBox="0 0 118 38"
   fill="none"
   version="1.1"
   id="svg11"
   sodipodi:docname="logotipo-movil.svg"
   inkscape:version="1.3 (0e150ed6c4, 2023-07-21)"
   xmlns:inkscape="http://www.inkscape.org/namespaces/inkscape"
   xmlns:sodipodi="http://sodipodi.sourceforge.net/DTD/sodipodi-0.dtd"
   xmlns="http://www.w3.org/2000/svg"
   xmlns:svg="http://www.w3.org/2000/svg">
  <defs
     id="defs11" />
  <sodipodi:namedview
     id="namedview11"
     pagecolor="#ffffff"
     bordercolor="#666666"
     borderopacity="1.0"
     inkscape:showpageshadow="2"
     inkscape:pageopacity="0.0"
     inkscape:pagecheckerboard="0"
     inkscape:deskcolor="#d1d1d1"
     inkscape:zoom="3.7653061"
     inkscape:cx="98"
     inkscape:cy="29.878049"
     inkscape:window-width="1280"
     inkscape:window-height="971"
     inkscape:window-x="1912"
     inkscape:window-y="-8"
     inkscape:window-maximized="1"
     inkscape:current-layer="svg11" />
  <path
     d="M 14.542365,8.5108779 C 6.8595749,8.7482449 0.51865611,14.673705 0.38072742,21.744387 0.24279873,28.815135 6.3591515,34.350861 14.042963,34.113428 21.726735,33.875996 28.06766,27.951518 28.205605,20.879853 28.343549,13.808122 22.226137,8.2734459 14.542365,8.5108779 Z"
     fill="#ffce54"
     id="path1"
     style="stroke-width:0.655023" />
  <path
     d="m 13.395141,25.15377 c 0,0 -4.0359376,5.08832 -1.219305,5.728071 0,0 1.224346,0.367388 2.087759,-1.971221 0,0 -0.362767,3.079874 1.62777,2.864067 0,0 3.280681,-0.138081 -0.190778,-7.09801 z"
     fill="#fc6e51"
     id="path2"
     style="stroke-width:0.655023" />
  <path
     d="m 10.342491,23.657087 c 0,0 3.201332,5.73659 7.917106,-0.233436 z"
     fill="#775149"
     id="path3"
     style="stroke-width:0.655023" />
  <path
     d="m 10.307727,23.761483 c 0,0 3.630418,-6.463763 7.912457,-0.235073 z"
     fill="#88675f"
     id="path4"
     style="stroke-width:0.655023" />
  <path
     d="M 18.533456,9.3959259 C 16.439608,9.8513923 15.043731,13.113584 13.173658,11.045698 12.559357,10.367872 11.918082,8.8817399 12.152659,7.8962269 12.429595,6.7257098 13.526801,6.4661263 14.32003,7.2351779 12.731737,4.1041927 18.696606,3.1999434 18.473616,6.2969155 c 0.747205,-1.5612555 2.760918,-1.11227 3.110003,0.3389461 0.290357,1.2038083 -0.07574,2.5686373 -1.075208,3.3675714 -9.16e-4,-0.0048 -1.30088,-0.7563371 -1.974955,-0.6075071 z"
     fill="#fc6e51"
     id="path5"
     style="stroke-width:0.655023" />
  <path
     d="m 9.0602694,16.773638 c -0.1758513,0.01723 -0.3464651,0.0789 -0.4951465,0.179041 0.1498598,0.110098 0.2586704,0.265547 0.3110459,0.444457 0.052311,0.17891 0.045699,0.372369 -0.019117,0.553114 -0.064749,0.18081 -0.1843623,0.339798 -0.3420131,0.454811 -0.1576508,0.115014 -0.345483,0.180155 -0.537047,0.186381 -0.069267,0.0015 -0.1380754,-0.0045 -0.2051817,-0.01795 -0.0015,0.07857 -0.010933,0.157349 -0.00459,0.238612 0.040527,1.065072 0.6859902,1.866301 1.4406582,1.797554 0.7546679,-0.06868 1.3376098,-0.978369 1.2979348,-2.037608 -0.03967,-1.059239 -0.6909664,-1.864203 -1.4465508,-1.798406 z"
     fill="#7f4438"
     id="path6"
     style="stroke-width:0.655023" />
  <path
     d="m 19.623983,16.576574 c -0.186196,-0.0037 -0.372392,0.04286 -0.538553,0.13474 0.164394,0.101511 0.288393,0.254472 0.353471,0.436003 0.06508,0.181532 0.0677,0.381871 0.0076,0.571136 -0.06016,0.18933 -0.179911,0.357427 -0.341359,0.479125 -0.161513,0.121764 -0.356023,0.190707 -0.554526,0.196473 -0.145801,0.0035 -0.288591,-0.02772 -0.416191,-0.09096 -0.008,0.05551 -0.02076,0.108198 -0.02482,0.164558 -0.08138,1.062975 0.46431,1.941927 1.21924,1.960409 0.75493,0.01855 1.433914,-0.825215 1.511366,-1.888058 0.07745,-1.062844 -0.466209,-1.943763 -1.216164,-1.963424 z"
     fill="#7f4438"
     id="path7"
     style="stroke-width:0.655023" />
  <path
     d="m 9.0094649,15.419033 c -1.2905362,0.114227 -2.2802399,1.670286 -2.2126753,3.478981 0.067565,1.808696 1.1711852,3.18237 2.4626382,3.070044 1.2914532,-0.112327 2.2802402,-1.670352 2.2107112,-3.477998 -0.06953,-1.807647 -1.167192,-3.185385 -2.4606741,-3.071027 z m 0.1953613,5.193569 c -0.756632,0.06685 -1.4020311,-0.738251 -1.4407235,-1.797555 0.00158,-0.08146 0.00308,-0.160036 0.00459,-0.238613 0.067172,0.0135 0.1359803,0.01953 0.2052471,0.01795 0.1920224,-0.005 0.3807057,-0.06933 0.539273,-0.18389 0.1586328,-0.114556 0.2791622,-0.273608 0.3446973,-0.454681 0.065536,-0.181073 0.072671,-0.375055 0.020492,-0.554556 -0.05225,-0.179431 -0.1611908,-0.335404 -0.3114435,-0.44583 0.1486814,-0.100139 0.3192952,-0.161806 0.4951465,-0.178976 0.7565664,-0.06586 1.4029489,0.739233 1.4406579,1.797555 0.03771,1.058387 -0.5394036,1.972729 -1.2969522,2.037608 z"
     fill="#f4f0df"
     id="path8"
     style="stroke-width:0.655023" />
  <path
     d="m 19.726966,15.217251 c -1.288703,-0.03414 -2.443521,1.410768 -2.582578,3.225754 -0.139123,1.815053 0.793033,3.311279 2.081671,3.346405 1.288638,0.03513 2.442407,-1.407753 2.585523,-3.224902 0.143053,-1.817084 -0.797942,-3.313047 -2.084616,-3.347257 z m -0.395109,5.211787 c -0.753948,-0.01953 -1.299637,-0.897499 -1.219239,-1.960474 9.99e-4,-0.05721 0.01682,-0.110033 0.02474,-0.164558 0.127666,0.06324 0.270455,0.0945 0.416257,0.09096 0.198503,-0.0057 0.393013,-0.07471 0.554527,-0.196408 0.161447,-0.121763 0.281192,-0.289861 0.341358,-0.47919 0.06016,-0.189265 0.05754,-0.389671 -0.0076,-0.571136 -0.06509,-0.181532 -0.189076,-0.334491 -0.35347,-0.436004 0.166161,-0.09188 0.352356,-0.13854 0.538551,-0.134804 0.753948,0.02051 1.298656,0.897565 1.218259,1.961456 -0.08046,1.063958 -0.761477,1.90975 -1.517389,1.889304 z"
     fill="#f4f0df"
     id="path9"
     style="stroke-width:0.655023" />
  <g
     style="mix-blend-mode:multiply"
     id="g10"
     transform="matrix(0.6546958,0,0,0.65534813,0.13067683,-0.32321468)">
    <path
       d="m 31.0733,15.8679 c 1.453,-1.212 1.9715,-3.2262 1.5244,-5.0147 C 32.046,8.64705 28.9515,7.95711 27.8225,10.3153 28.0487,6.92462 23.3294,6.67983 21.63,8.59807 L 21.0824,52.9541 C 32.8981,52.6554 42.5843,43.7091 42.7169,32.9706 42.811,25.3487 38.0618,18.8778 31.0733,15.8679 Z"
       fill="#eeece7"
       id="path10" />
  </g>
  <path
     d="m 48.672312,27.568401 c -0.349215,0.104856 -0.75074,0.183497 -1.204641,0.235925 -0.436485,0.05242 -0.899159,0.07865 -1.387955,0.07865 0.06979,-2.67382 0.01741,-5.583566 -0.157126,-8.729237 -0.157128,-3.145671 -0.40159,-5.985491 -0.73326,-8.519526 -0.820596,0.08736 -1.676021,0.183498 -2.566408,0.288354 -0.872971,0.104855 -1.815732,0.227208 -2.828286,0.366995 -0.10475,-0.332065 -0.183314,-0.681563 -0.23569,-1.048558 -0.05237,-0.3844917 -0.07857,-0.7689194 -0.07857,-1.1534111 2.671158,-0.471851 5.036771,-0.803915 7.096902,-0.99613 2.060067,-0.209711 4.364595,-0.323283 6.913588,-0.34078 0.05237,0.17478 0.09598,0.366994 0.130938,0.576705 0.0349,0.192214 0.06108,0.419424 0.07857,0.681563 0,0.139786 -0.0088,0.288353 -0.02618,0.445637 0,0.1572837 -0.02618,0.4019244 -0.07857,0.7339881 -1.064993,0.0175 -2.025236,0.04371 -2.880661,0.07865 -0.83801,0.0175 -1.641126,0.05242 -2.409281,0.104856 0.192023,1.904901 0.33167,3.766089 0.419005,5.583566 0.104751,1.817477 0.157127,3.739875 0.157127,5.767063 0,0.908772 -0.01748,1.852473 -0.05237,2.831105 -0.03496,0.978631 -0.08734,1.983542 -0.157126,3.014601 z M 64.30396,19.468298 c 0,1.170911 -0.157127,2.726248 -0.471382,4.666079 -0.314253,1.922333 -0.68959,3.687447 -1.126076,5.295212 -0.349149,0 -0.715778,-0.03493 -1.09989,-0.104855 -0.384109,-0.05242 -0.759446,-0.131069 -1.126076,-0.235925 0.05237,-0.297069 0.104752,-0.567991 0.157128,-0.812632 0.05237,-0.244642 0.10475,-0.463134 0.157126,-0.655348 -0.38411,0.244642 -0.803115,0.428138 -1.257015,0.550492 -0.453901,0.122354 -0.934056,0.183498 -1.440331,0.183498 -1.257017,0 -2.269635,-0.323284 -3.037789,-0.969915 -0.768154,-0.664065 -1.152264,-1.546622 -1.152264,-2.647607 0,-1.170911 0.488862,-2.053403 1.466518,-2.647606 0.977657,-0.594205 2.417988,-0.891274 4.320993,-0.891274 0.314253,0 0.602319,0.0087 0.864198,0.02621 0.279359,0 0.619801,0.0087 1.021324,0.02621 0,-0.192214 0,-0.375712 0,-0.550492 0,-0.192214 0,-0.375711 0,-0.550493 0,-1.46798 -0.157125,-2.525253 -0.471379,-3.171885 -0.314255,-0.646632 -0.820531,-0.969916 -1.518894,-0.969916 -0.715779,0 -1.3181,0.332066 -1.806961,0.99613 -0.471381,0.664065 -0.724552,1.520408 -0.759447,2.568964 -0.628508,-0.05242 -1.143558,-0.192213 -1.545083,-0.419422 -0.401525,-0.227209 -0.698363,-0.532995 -0.890386,-0.917488 0.226983,-1.100984 0.83801,-2.035969 1.833149,-2.804889 1.012618,-0.768921 2.164882,-1.153413 3.456793,-1.153413 1.466519,0 2.566408,0.43692 3.299667,1.310696 0.75074,0.873775 1.126077,2.167039 1.126077,3.879661 z m -7.594472,5.400068 c 0,0.576707 0.183315,1.039841 0.549945,1.389338 0.36663,0.349498 0.864199,0.524279 1.492707,0.524279 0.436486,0 0.846718,-0.06114 1.230827,-0.183497 0.401525,-0.139786 0.768155,-0.332065 1.09989,-0.576706 0.12223,-0.646633 0.21821,-1.240771 0.288066,-1.782547 0.06986,-0.541777 0.113459,-1.09227 0.130939,-1.651477 -1.606166,-0.05242 -2.810806,0.113571 -3.61392,0.498063 -0.785636,0.366996 -1.178454,0.9612 -1.178454,1.782547 z m 16.382455,-4.168013 c 1.327067,0.926203 2.199777,1.721403 2.618782,2.385466 0.419006,0.646633 0.628508,1.371841 0.628508,2.175757 0,1.24077 -0.436027,2.271894 -1.309392,3.093243 -0.87271,0.821348 -1.972598,1.232054 -3.299667,1.232054 -1.309391,0 -2.383092,-0.445636 -3.221103,-1.33691 -0.820334,-0.908771 -1.230828,-2.062184 -1.230828,-3.460238 0.279555,-0.122354 0.611485,-0.209712 0.995138,-0.26214 0.384307,-0.06993 0.742425,-0.09614 1.073701,-0.07865 -0.03471,1.083488 0.157127,1.939831 0.576133,2.568966 0.436682,0.611636 1.039001,0.917487 1.806959,0.917487 0.593809,0 1.056679,-0.183498 1.387956,-0.550492 0.349607,-0.384493 0.523756,-0.89999 0.523756,-1.546622 0,-0.541777 -0.165637,-1.048557 -0.497569,-1.520408 -0.314253,-0.47185 -1.021325,-1.092269 -2.121214,-1.861188 -1.326414,-0.943702 -2.199778,-1.756333 -2.618784,-2.437896 -0.419004,-0.681562 -0.628507,-1.441765 -0.628507,-2.280612 0,-1.17091 0.375795,-2.114611 1.126077,-2.831103 0.768612,-0.716493 1.789938,-1.074771 3.063976,-1.074771 1.222317,0 2.191266,0.332064 2.90685,0.996129 0.716237,0.646632 1.196128,1.651477 1.44033,3.014601 -0.296577,0.174782 -0.628508,0.305851 -0.995137,0.393209 -0.348954,0.08736 -0.767959,0.157284 -1.257017,0.209712 -0.157126,-0.996129 -0.401328,-1.712621 -0.733259,-2.149542 -0.331276,-0.454353 -0.785634,-0.681562 -1.361767,-0.681562 -0.453704,0 -0.820334,0.157284 -1.099888,0.47185 -0.278902,0.297069 -0.419007,0.707777 -0.419007,1.232055 0,0.541776 0.166293,1.048557 0.497569,1.520408 0.331932,0.47185 1.047514,1.092269 2.147404,1.861189 z m 9.071464,1.913616 c 0,1.240771 0.0347,2.429179 0.104752,3.565093 0.07005,1.118484 0.183314,2.2369 0.340441,3.355383 -0.366629,0.104856 -0.759447,0.183498 -1.178452,0.235925 -0.401329,0.05242 -0.820334,0.07865 -1.257017,0.07865 -0.227179,-1.93983 -0.384306,-3.591308 -0.47138,-4.954432 -0.07005,-1.363124 -0.104752,-2.796173 -0.104752,-4.299083 0,-2.027188 0.06089,-4.071875 0.183314,-6.134058 0.139451,-2.062185 0.322767,-3.818518 0.549945,-5.2689981 0.436682,-0.03493 0.951274,-0.0175 1.545083,0.05242 0.61083,0.06992 1.099888,0.174781 1.466518,0.3145667 -0.296577,1.5553374 -0.541434,3.2592424 -0.733259,5.1117144 -0.191825,1.834975 -0.322765,3.652452 -0.392817,5.452497 1.012815,-0.908771 1.9379,-1.861189 2.77591,-2.857318 0.838011,-0.996129 1.789284,-2.298109 2.854473,-3.905875 0.331932,0.174782 0.663208,0.410707 0.995138,0.707777 0.348953,0.279636 0.637019,0.576705 0.864198,0.891273 -0.785634,1.135915 -1.597457,2.149542 -2.435467,3.040815 -0.838012,0.891274 -1.859337,1.834975 -3.063977,2.831104 0.767959,1.031059 1.605969,1.966044 2.514032,2.80489 0.925085,0.821348 2.103538,1.712621 3.535357,2.67382 -0.436682,0.576707 -0.803311,0.99613 -1.099889,1.258269 -0.296577,0.262139 -0.610831,0.463134 -0.942763,0.60292 -1.082211,-0.873775 -2.051161,-1.765049 -2.906848,-2.67382 -0.83801,-0.926204 -1.736909,-2.062184 -2.697347,-3.40781 -0.05237,0.03493 -0.130939,0.08736 -0.23569,0.157283 -0.08707,0.06993 -0.157127,0.122354 -0.209503,0.157284 0,0.03493 0,0.06993 0,0.104856 0,0.03493 0,0.06993 0,0.104854 z M 97.325508,22.22076 c -1.152266,0.174782 -2.339884,0.253423 -3.561546,0.235926 -1.222318,-0.03493 -2.138891,-0.166 -2.749722,-0.393209 -0.01768,-0.506781 -0.0092,-0.926204 0.02618,-1.258268 0.03471,-0.332066 0.104752,-0.672847 0.209502,-1.022344 0.383652,0.08736 0.890387,0.157283 1.518895,0.209711 0.628508,0.05242 1.257016,0.07865 1.885524,0.07865 0.73326,0 1.309392,-0.0087 1.728397,-0.02621 0.436028,-0.0175 0.828845,-0.05242 1.178453,-0.104856 0,0.489349 -0.01768,0.917488 -0.05237,1.284484 -0.03535,0.366994 -0.09623,0.699059 -0.183314,0.996128 z m 6.773472,-6.710765 c 0,2.90103 -0.0262,5.365138 -0.0785,7.392327 -0.0347,2.027188 -0.0956,4.054443 -0.18332,6.081631 -0.26188,0.06993 -0.61934,0.13107 -1.0737,0.183498 -0.43602,0.05242 -0.86419,0.08736 -1.28321,0.104856 0.0523,-3.425309 0.0262,-6.658338 -0.0785,-9.699154 -0.0871,-3.058313 -0.2442,-5.880635 -0.47138,-8.467097 0.26188,-0.157283 0.54994,-0.270855 0.8642,-0.340781 0.31425,-0.08736 0.63768,-0.13107 0.96895,-0.13107 0.1748,0 0.34045,0.0087 0.49757,0.02621 0.17481,0.0175 0.419,0.05242 0.73326,0.104856 0.0354,0.716491 0.0615,1.450482 0.0785,2.201969 0.0177,0.751488 0.0262,1.59905 0.0262,2.542751 z m 10.2892,7.418541 c 0.34896,0.03493 0.68941,0.122354 1.02134,0.262139 0.34895,0.122354 0.66319,0.270856 0.94276,0.445637 -0.0354,1.43305 -0.34962,2.568964 -0.94276,3.407811 -0.59381,0.821348 -1.42332,1.232054 -2.48785,1.232054 -1.23999,0 -2.19126,-0.629134 -2.85448,-1.887403 -0.66386,-1.275766 -0.99513,-3.110741 -0.99513,-5.504924 0,-0.803916 0.017,-1.581552 0.0524,-2.333039 0.0524,-0.768921 0.12178,-1.511692 0.20951,-2.228184 -0.419,-0.06992 -0.78564,-0.13107 -1.0999,-0.183498 -0.29723,-0.05242 -0.56761,-0.104855 -0.81182,-0.157283 0,-0.297069 0.0347,-0.594204 0.10476,-0.891274 0.0694,-0.314567 0.15712,-0.576706 0.26188,-0.786417 0.26188,0.06993 0.54077,0.13107 0.838,0.183497 0.29658,0.05242 0.61084,0.09614 0.94277,0.131069 0.0871,-0.576705 0.19183,-1.153412 0.31425,-1.730119 0.12178,-0.576705 0.25272,-1.144696 0.39282,-1.703905 0.61083,0.03493 1.16077,0.08736 1.64983,0.157284 0.48841,0.06993 0.90741,0.165999 1.25702,0.288353 -0.14011,0.419423 -0.27956,0.89999 -0.41901,1.441766 -0.12243,0.541777 -0.24486,1.127199 -0.36662,1.756333 0.68088,0.0175 1.35259,0.0175 2.01646,0 0.68088,-0.03493 1.33558,-0.08736 1.96408,-0.157284 0,0.244642 -0.0262,0.515563 -0.0785,0.812632 -0.0524,0.279638 -0.13094,0.559209 -0.2357,0.838846 -0.62851,0.06993 -1.28321,0.122353 -1.96409,0.157283 -0.66386,0.03493 -1.31856,0.04371 -1.96408,0.02621 -0.12243,0.803916 -0.21868,1.607766 -0.28807,2.411682 -0.0523,0.803915 -0.0785,1.581551 -0.0785,2.333039 0,1.730119 0.11327,3.040816 0.34045,3.932089 0.22653,0.873776 0.56696,1.310696 1.02133,1.310696 0.40132,0 0.70706,-0.288354 0.91657,-0.865059 0.2095,-0.594205 0.32277,-1.494194 0.34043,-2.700035 z"
     fill="black"
     id="path11"
     style="fill:#ffffff;stroke-width:0.655023" />
</svg>
