<svg width="16" height="16" viewBox="0 0 16 16" fill="none" xmlns="http://www.w3.org/2000/svg">
<path fill-rule="evenodd" clip-rule="evenodd" d="M1.53125 8C1.53125 4.42862 4.42862 1.53125 8 1.53125C11.5714 1.53125 14.4688 4.42862 14.4688 8C14.4688 11.5714 11.5714 14.4688 8 14.4688C4.42862 14.4688 1.53125 11.5714 1.53125 8ZM8 2.46875C4.94638 2.46875 2.46875 4.94638 2.46875 8C2.46875 11.0536 4.94638 13.5312 8 13.5312C11.0536 13.5312 13.5312 11.0536 13.5312 8C13.5312 4.94638 11.0536 2.46875 8 2.46875Z" fill="#EB6649"/>
<path fill-rule="evenodd" clip-rule="evenodd" d="M8 3.53125C8.25888 3.53125 8.46875 3.74112 8.46875 4V8.03125H11C11.2589 8.03125 11.4688 8.24112 11.4688 8.5C11.4688 8.75888 11.2589 8.96875 11 8.96875H8C7.74112 8.96875 7.53125 8.75888 7.53125 8.5V4C7.53125 3.74112 7.74112 3.53125 8 3.53125Z" fill="#EB6649"/>
</svg>
