<svg id="Capa_1" enable-background="new 0 0 511.996 511.996" height="512" viewBox="0 0 511.996 511.996" width="512" xmlns="http://www.w3.org/2000/svg"><g><path d="m38.572 52.13v448.722h434.872v-448.722l-217.436-26.954z" fill="#f1f6f7"/><path d="m442.381 500.842h-372.747v-217.431l10-145.306h352.747l10 145.316z" fill="#497090"/><path d="m38.572 52.13v448.722h15v-450.582z" fill="#d2e4e7"/><g><path d="m256.008 417.655h-93.187v-96.187c0-3.866 3.134-7 7-7h24.062l15.531 10 15.531-10h24.062c3.866 0 7 3.134 7 7v96.187z" fill="#edba94"/><path d="m349.195 417.655h-93.187v-96.187c0-3.866 3.134-7 7-7h24.062l15.531 10 15.531-10h24.062c3.866 0 7 3.134 7 7v96.187z" fill="#edba94"/><path d="m162.821 395.433h186.374v21.565h-186.374z" fill="#e5a87f"/></g><path d="m162.821 321.468v96.187h15v-103.187h-8c-3.866 0-7 3.134-7 7z" fill="#e5a87f"/><path d="m256.008 321.468v96.187h15v-103.187h-8c-3.866 0-7 3.134-7 7z" fill="#e5a87f"/><path d="m69.634 252.339 31.388 10.001 310.292.008 31.067-9.999v-31.052l-31.067-10.001-310.292-.009-31.388 10z" fill="#80b4fb"/><path d="m69.634 190.219 31.388 10.001 314.992.009 26.367-10v-31.062l-26.367-10.001-314.992-.008-31.388 9.999z" fill="#80b4fb"/><path d="m69.634 190.224h372.747v31.067h-372.747z" fill="#9dc6fb"/><path d="m295.601 97.043h-79.187c-3.866 0-7-3.134-7-7v-17.063c0-3.866 3.134-7 7-7h79.187c3.866 0 7 3.134 7 7v17.062c0 3.867-3.134 7.001-7 7.001z" fill="#9dc6fb"/><path d="m209.414 500.842h-93.187v-86.187c0-3.866 3.134-7 7-7h24.062l15.531 10 15.531-10h24.062c3.866 0 7 3.134 7 7v86.187z" fill="#edba94"/><path d="m116.228 414.655v86.187h15v-93.187h-8c-3.866 0-7 3.134-7 7z" fill="#e5a87f"/><path d="m147.29 407.655v30.968c0 2.107 2.115 3.558 4.081 2.798l10.369-4.006c.696-.269 1.467-.269 2.162 0l10.369 4.006c1.966.759 4.081-.691 4.081-2.798v-30.968z" fill="#fd6930"/><path d="m302.601 500.842h-93.187v-86.187c0-3.866 3.134-7 7-7h24.062l15.531 10 15.531-10h24.062c3.866 0 7 3.134 7 7v86.187z" fill="#edba94"/><path d="m209.414 414.655v86.187h15v-93.187h-8c-3.866 0-7 3.134-7 7z" fill="#e5a87f"/><g fill="#fd6930"><path d="m240.477 407.655v30.968c0 2.107 2.115 3.558 4.081 2.798l10.369-4.006c.696-.269 1.467-.269 2.162 0l10.369 4.006c1.966.759 4.081-.691 4.081-2.798v-30.968z"/><path d="m193.883 314.468v30.968c0 2.107 2.115 3.558 4.081 2.798l10.369-4.006c.696-.269 1.467-.269 2.162 0l10.369 4.006c1.966.759 4.081-.691 4.081-2.798v-30.968z"/><path d="m287.07 314.468v30.968c0 2.107 2.115 3.558 4.081 2.798l10.369-4.006c.696-.269 1.466-.269 2.162 0l10.369 4.006c1.966.759 4.081-.691 4.081-2.798v-30.968z"/></g><path d="m395.788 500.842h-93.187v-86.187c0-3.866 3.134-7 7-7h24.062l15.526 10 15.536-10h24.062c3.866 0 7 3.134 7 7v86.187z" fill="#edba94"/><path d="m302.601 414.655v86.187h15v-93.187h-8c-3.866 0-7 3.134-7 7z" fill="#e5a87f"/><path d="m333.663 407.655v30.968c0 2.107 2.115 3.558 4.081 2.798l10.369-4.006c.696-.269 1.466-.269 2.162 0l10.369 4.006c1.966.759 4.081-.691 4.081-2.798v-30.968z" fill="#fd6930"/><g><g><path d="m504.496 508.342h-496.996c-4.142 0-7.5-3.358-7.5-7.5s3.358-7.5 7.5-7.5h496.996c4.143 0 7.5 3.358 7.5 7.5s-3.357 7.5-7.5 7.5z" fill="#9dc6fb"/></g></g><g><g><path d="m496.645 65.006-239.776-29.724c-.572-.071-1.15-.071-1.722 0l-239.776 29.724c-4.176.518-7.861-2.739-7.861-6.947v-16.968c0-3.528 2.625-6.504 6.125-6.945l241.497-30.437c.581-.073 1.169-.073 1.751 0l241.498 30.437c3.5.441 6.125 3.418 6.125 6.945v16.968c0 4.208-3.686 7.465-7.861 6.947z" fill="#9dc6fb"/></g></g><path d="m69.634 159.157 372.747.01v-24.062c0-3.866-3.134-7-7-7h-358.747c-3.866 0-7 3.134-7 7z" fill="#9dc6fb"/><path d="m69.634 252.344h372.747v31.072h-372.747z" fill="#9dc6fb"/></g></svg>