<svg id="Capa_1" enable-background="new 0 0 512 512" height="512" viewBox="0 0 512 512" width="512" xmlns="http://www.w3.org/2000/svg"><g><path d="m416.854 202.672h-160.854v-163.854c0-3.866 3.134-7 7-7h56.779l16.648 10 16.648-10h56.779c3.866 0 7 3.134 7 7z" fill="#edba94"/><path d="m256 38.818v163.854h20.604v-170.854h-13.604c-3.866 0-7 3.134-7 7z" fill="#e5a87f"/><path d="m256 202.672h-160.854v-163.854c0-3.866 3.134-7 7-7h56.779l16.648 10 16.648-10h56.779c3.866 0 7 3.134 7 7z" fill="#edba94"/><path d="m95.146 38.818v163.854h20.604v-170.854h-13.604c-3.866 0-7 3.134-7 7z" fill="#e5a87f"/><path d="m187.824 73.898-10.56-5.556c-.86-.452-1.885-.46-2.752-.022l-11.231 5.686c-1.996 1.01-4.355-.44-4.355-2.677v-39.511h33.295v39.425c0 2.258-2.399 3.706-4.397 2.655z" fill="#fd6930"/><path d="m348.678 73.898-10.56-5.556c-.86-.452-1.885-.46-2.752-.022l-11.231 5.686c-1.996 1.01-4.355-.44-4.355-2.677v-39.511h33.295v39.425c-.001 2.258-2.4 3.706-4.397 2.655z" fill="#fd6930"/><path d="m416.854 458h-160.854v-163.854c0-3.866 3.134-7 7-7h56.779l16.648 10 16.648-10h56.779c3.866 0 7 3.134 7 7z" fill="#edba94"/><path d="m256 294.146v163.854h20.604v-170.854h-13.604c-3.866 0-7 3.134-7 7z" fill="#e5a87f"/><path d="m348.678 329.227-10.56-5.556c-.86-.452-1.885-.46-2.752-.022l-11.231 5.686c-1.996 1.01-4.355-.44-4.355-2.677v-39.512h33.295v39.425c-.001 2.258-2.4 3.707-4.397 2.656z" fill="#fd6930"/><path d="m256 458h-160.854v-163.854c0-3.866 3.134-7 7-7h56.779l16.648 10 16.648-10h56.779c3.866 0 7 3.134 7 7z" fill="#edba94"/><path d="m95.146 294.146v163.854h20.604v-170.854h-13.604c-3.866 0-7 3.134-7 7z" fill="#e5a87f"/><path d="m54 192.182h404v32h-404z" fill="#685e67"/><path d="m64 458h-32v-451c0-3.866 3.134-7 7-7h18c3.866 0 7 3.134 7 7z" fill="#897e8b"/><path d="m54 0h-15c-3.866 0-7 3.134-7 7v451h15v-451c0-3.866 3.134-7 7-7z" fill="#7d717f"/><path d="m480 458h-32v-450.836c0-3.866 3.134-7 7-7h18c3.866 0 7 3.134 7 7z" fill="#897e8b"/><path d="m470 .164h-15c-3.866 0-7 3.134-7 7v450.836h15v-450.836c0-3.866 3.134-7 7-7z" fill="#7d717f"/><path d="m187.824 329.227-10.56-5.556c-.86-.452-1.885-.46-2.752-.022l-11.231 5.686c-1.996 1.01-4.355-.44-4.355-2.677v-39.512h33.295v39.425c0 2.258-2.399 3.707-4.397 2.656z" fill="#fd6930"/><g><g><path d="m223.573 423.727h-31.352c-4.268 0-7.726-3.459-7.726-7.726s3.459-7.726 7.726-7.726h31.352c4.268 0 7.726 3.459 7.726 7.726s-3.458 7.726-7.726 7.726z" fill="#e5a87f"/></g></g><g><g><path d="m384.427 423.727h-31.352c-4.268 0-7.726-3.459-7.726-7.726s3.459-7.726 7.726-7.726h31.352c4.268 0 7.726 3.459 7.726 7.726s-3.459 7.726-7.726 7.726z" fill="#e5a87f"/></g></g><g><g><path d="m223.573 168.398h-31.352c-4.268 0-7.726-3.459-7.726-7.726s3.459-7.726 7.726-7.726h31.352c4.268 0 7.726 3.459 7.726 7.726s-3.458 7.726-7.726 7.726z" fill="#e5a87f"/></g></g><g><g><path d="m384.427 168.398h-31.352c-4.268 0-7.726-3.459-7.726-7.726s3.459-7.726 7.726-7.726h31.352c4.268 0 7.726 3.459 7.726 7.726s-3.459 7.726-7.726 7.726z" fill="#e5a87f"/></g></g><path d="m89 512h-50c-3.866 0-7-3.134-7-7v-35h64v35c0 3.866-3.134 7-7 7z" fill="#897e8b"/><path d="m47 505v-35h-15v35c0 3.866 3.134 7 7 7h15c-3.866 0-7-3.134-7-7z" fill="#7d717f"/><path d="m473 512h-50c-3.866 0-7-3.134-7-7v-35h64v35c0 3.866-3.134 7-7 7z" fill="#897e8b"/><path d="m431 505v-35h-15v35c0 3.866 3.134 7 7 7h15c-3.866 0-7-3.134-7-7z" fill="#7d717f"/><path d="m505 480h-498c-3.866 0-7-3.134-7-7v-18c0-3.866 3.134-7 7-7h498c3.866 0 7 3.134 7 7v18c0 3.866-3.134 7-7 7z" fill="#685e67"/></g></svg>