<?xml version="1.0" encoding="iso-8859-1"?>
<!-- Generator: Adobe Illustrator 19.0.0, SVG Export Plug-In . SVG Version: 6.00 Build 0)  -->
<svg version="1.1" id="Capa_1" xmlns="http://www.w3.org/2000/svg" xmlns:xlink="http://www.w3.org/1999/xlink" x="0px" y="0px"
	 viewBox="0 0 460.327 460.327" style="enable-background:new 0 0 460.327 460.327;" xml:space="preserve">
<g>
	<path style="fill:#2BA037;" d="M432.593,141.347H380.87L57.997,297.037v55.38c0.554,16.125,13.647,28.988,29.78,29.257h344.816
		c15.579-0.278,27.983-13.132,27.705-28.711c-0.003-0.182-0.008-0.364-0.015-0.546V171.649c0.875-15.846-11.261-29.4-27.106-30.276
		C432.982,141.363,432.787,141.354,432.593,141.347z"/>
	<path style="fill:#3BB54A;" d="M402.813,142.392v145.763c0,16.158-13.099,29.257-29.257,29.257H28.74
		C12.87,317.415,0.003,304.552,0,288.682c0-0.176,0.002-0.351,0.005-0.527V107.91c-0.289-15.867,12.34-28.964,28.207-29.252
		c0.176-0.003,0.351-0.005,0.527-0.005h344.816c16.158,0,29.257,13.099,29.257,29.257V142.392z"/>
	<g>
		<circle style="fill:#2BA037;" cx="350.046" cy="265.69" r="20.898"/>
		<circle style="fill:#2BA037;" cx="201.148" cy="198.294" r="92.996"/>
		<circle style="fill:#2BA037;" cx="52.25" cy="129.853" r="20.898"/>
	</g>
	<path style="fill:#FEDB41;" d="M226.225,239.045c-15.934,6.152-33.999,2.251-45.976-9.927l-3.657-4.18h43.363
		c5.771,0,10.449-4.678,10.449-10.449c0-5.771-4.678-10.449-10.449-10.449h-52.245c0-1.567-0.522-3.657-0.522-5.224h52.767
		c5.771,0,10.449-4.678,10.449-10.449c0-5.771-4.678-10.449-10.449-10.449h-47.543c2.141-3.813,4.776-7.326,7.837-10.449
		c12.093-11.996,30.144-15.688,45.976-9.404c5.482,2.164,11.681-0.526,13.845-6.008c2.164-5.482-0.526-11.681-6.008-13.845
		c-23.882-8.881-50.744-3.183-68.963,14.629c-6.788,7.177-11.955,15.73-15.151,25.078h-8.359c-5.771,0-10.449,4.678-10.449,10.449
		c0,5.771,4.678,10.449,10.449,10.449h4.702c0,1.567,0.522,3.657,0.522,5.224h-5.224c-5.771,0-10.449,4.678-10.449,10.449
		c0,5.771,4.678,10.449,10.449,10.449h10.449c3.249,6.969,7.667,13.33,13.061,18.808c12.024,12.099,28.396,18.873,45.453,18.808
		c8.033,0.139,16.017-1.28,23.51-4.18c5.205-2.492,7.405-8.731,4.914-13.936C236.697,239.68,231.228,237.366,226.225,239.045
		L226.225,239.045z"/>
</g>
<g>
</g>
<g>
</g>
<g>
</g>
<g>
</g>
<g>
</g>
<g>
</g>
<g>
</g>
<g>
</g>
<g>
</g>
<g>
</g>
<g>
</g>
<g>
</g>
<g>
</g>
<g>
</g>
<g>
</g>
</svg>
