<?xml version="1.0" encoding="UTF-8" standalone="no"?>
<svg
   xmlns:dc="http://purl.org/dc/elements/1.1/"
   xmlns:cc="http://creativecommons.org/ns#"
   xmlns:rdf="http://www.w3.org/1999/02/22-rdf-syntax-ns#"
   xmlns:svg="http://www.w3.org/2000/svg"
   xmlns="http://www.w3.org/2000/svg"
   xmlns:sodipodi="http://sodipodi.sourceforge.net/DTD/sodipodi-0.dtd"
   xmlns:inkscape="http://www.inkscape.org/namespaces/inkscape"
   viewBox="-29.621675 0.1 760.5822 799.81"
   width="2500"
   height="2500"
   version="1.1"
   id="svg48"
   sodipodi:docname="bing.svg"
   inkscape:version="1.0.2-2 (e86c870879, 2021-01-15)">
  <metadata
     id="metadata54">
    <rdf:RDF>
      <cc:Work
         rdf:about="">
        <dc:format>image/svg+xml</dc:format>
        <dc:type
           rdf:resource="http://purl.org/dc/dcmitype/StillImage" />
        <dc:title></dc:title>
      </cc:Work>
    </rdf:RDF>
  </metadata>
  <defs
     id="defs52" />
  <sodipodi:namedview
     pagecolor="#ffffff"
     bordercolor="#666666"
     borderopacity="1"
     objecttolerance="10"
     gridtolerance="10"
     guidetolerance="10"
     inkscape:pageopacity="0"
     inkscape:pageshadow="2"
     inkscape:window-width="1920"
     inkscape:window-height="1009"
     id="namedview50"
     showgrid="false"
     inkscape:zoom="0.16390673"
     inkscape:cx="944"
     inkscape:cy="1250"
     inkscape:window-x="1272"
     inkscape:window-y="-8"
     inkscape:window-maximized="1"
     inkscape:current-layer="svg48" />
  <linearGradient
     id="a"
     gradientUnits="userSpaceOnUse"
     x1="286.383"
     x2="542.05701"
     y1="284.16901"
     y2="569.112">
    <stop
       offset="0"
       stop-color="#37bdff"
       id="stop2" />
    <stop
       offset=".25"
       stop-color="#26c6f4"
       id="stop4" />
    <stop
       offset=".5"
       stop-color="#15d0e9"
       id="stop6" />
    <stop
       offset=".75"
       stop-color="#3bd6df"
       id="stop8" />
    <stop
       offset="1"
       stop-color="#62dcd4"
       id="stop10" />
  </linearGradient>
  <linearGradient
     id="b"
     gradientUnits="userSpaceOnUse"
     x1="108.979"
     x2="100.756"
     y1="675.97998"
     y2="43.668999">
    <stop
       offset="0"
       stop-color="#1b48ef"
       id="stop13" />
    <stop
       offset=".5"
       stop-color="#2080f1"
       id="stop15" />
    <stop
       offset="1"
       stop-color="#26b8f4"
       id="stop17" />
  </linearGradient>
  <linearGradient
     id="c"
     gradientUnits="userSpaceOnUse"
     x1="256.823"
     x2="875.63202"
     y1="649.71899"
     y2="649.71899">
    <stop
       offset="0"
       stop-color="#39d2ff"
       id="stop20" />
    <stop
       offset=".5"
       stop-color="#248ffa"
       id="stop22" />
    <stop
       offset="1"
       stop-color="#104cf5"
       id="stop24" />
  </linearGradient>
  <linearGradient
     id="d"
     gradientUnits="userSpaceOnUse"
     x1="256.823"
     x2="875.63202"
     y1="649.71899"
     y2="649.71899">
    <stop
       offset="0"
       stop-color="#fff"
       id="stop27" />
    <stop
       offset="1"
       id="stop29" />
  </linearGradient>
  <path
     d="m 333.15024,277.48 c -0.12,0.96 -0.12,2.05 -0.12,3.12 0,4.16 0.83,8.16 2.33,11.84 l 1.34,2.76 5.3,13.56 27.53,70.23 24.01,61.33 c 6.85,12.38 17.82,22.1 31.05,27.28 l 4.11,1.51 c 0.16,0.05 0.43,0.05 0.65,0.11 l 65.81,22.63 v 0.05 l 25.16,8.64 1.72,0.58 c 0.06,0 0.16,0.06 0.22,0.06 4.96,1.25 9.82,2.93 14.46,4.98 10.73,4.63 20.46,11.23 28.77,19.28 3.35,3.2 6.43,6.65 9.28,10.33 a 88.64,88.64 0 0 1 6.64,9.72 c 8.78,14.58 13.82,31.72 13.82,49.97 0,3.26 -0.16,6.41 -0.49,9.61 -0.11,1.41 -0.28,2.77 -0.49,4.12 v 0.11 c -0.22,1.43 -0.49,2.91 -0.76,4.36 -0.28,1.41 -0.54,2.81 -0.86,4.21 -0.05,0.16 -0.11,0.33 -0.17,0.49 -0.3,1.42 -0.68,2.82 -1.07,4.23 -0.35,1.33 -0.79,2.7 -1.28,3.99 a 42.96,42.96 0 0 1 -1.51,4.16 c -0.49,1.4 -1.07,2.82 -1.72,4.16 -1.78,4.11 -3.9,8.06 -6.28,11.83 a 97.889,97.889 0 0 1 -10.47,13.95 c 30.88,-33.2 51.41,-76.07 56.52,-123.51 0.86,-7.78 1.3,-15.67 1.3,-23.61 0,-5.07 -0.22,-10.09 -0.55,-15.13 -3.89,-56.89 -29.79,-107.77 -69.32,-144.08 -10.9,-10.09 -22.81,-19.07 -35.62,-26.69 l -24.2,-12.37 -122.63,-62.93 a 30.15,30.15 0 0 0 -11.93,-2.44 c -15.88,0 -28.99,12.11 -30.55,27.56 z"
     fill="#7f7f7f"
     id="path32" />
  <path
     d="m 333.15024,277.48 c -0.12,0.96 -0.12,2.05 -0.12,3.12 0,4.16 0.83,8.16 2.33,11.84 l 1.34,2.76 5.3,13.56 27.53,70.23 24.01,61.33 c 6.85,12.38 17.82,22.1 31.05,27.28 l 4.11,1.51 c 0.16,0.05 0.43,0.05 0.65,0.11 l 65.81,22.63 v 0.05 l 25.16,8.64 1.72,0.58 c 0.06,0 0.16,0.06 0.22,0.06 4.96,1.25 9.82,2.93 14.46,4.98 10.73,4.63 20.46,11.23 28.77,19.28 3.35,3.2 6.43,6.65 9.28,10.33 a 88.64,88.64 0 0 1 6.64,9.72 c 8.78,14.58 13.82,31.72 13.82,49.97 0,3.26 -0.16,6.41 -0.49,9.61 -0.11,1.41 -0.28,2.77 -0.49,4.12 v 0.11 c -0.22,1.43 -0.49,2.91 -0.76,4.36 -0.28,1.41 -0.54,2.81 -0.86,4.21 -0.05,0.16 -0.11,0.33 -0.17,0.49 -0.3,1.42 -0.68,2.82 -1.07,4.23 -0.35,1.33 -0.79,2.7 -1.28,3.99 a 42.96,42.96 0 0 1 -1.51,4.16 c -0.49,1.4 -1.07,2.82 -1.72,4.16 -1.78,4.11 -3.9,8.06 -6.28,11.83 a 97.889,97.889 0 0 1 -10.47,13.95 c 30.88,-33.2 51.41,-76.07 56.52,-123.51 0.86,-7.78 1.3,-15.67 1.3,-23.61 0,-5.07 -0.22,-10.09 -0.55,-15.13 -3.89,-56.89 -29.79,-107.77 -69.32,-144.08 -10.9,-10.09 -22.81,-19.07 -35.62,-26.69 l -24.2,-12.37 -122.63,-62.93 a 30.15,30.15 0 0 0 -11.93,-2.44 c -15.88,0 -28.99,12.11 -30.55,27.56 z"
     fill="url(#a)"
     id="path34"
     style="fill:url(#a)" />
  <path
     d="m 114.80024,0.1 c -17.45,0.31 -31.46,14.59 -31.46,32.05 v 559.06 c 0.07,3.9 0.29,7.75 0.57,11.66 0.25,2.06 0.52,4.2 0.9,6.28 7.97,44.87 47.01,78.92 94.15,78.92 16.53,0 32.03,-4.21 45.59,-11.53 0.08,-0.06 0.22,-0.14 0.29,-0.14 l 4.88,-2.95 19.78,-11.64 25.16,-14.93 0.06,-496.73 c 0,-33.01 -16.52,-62.11 -41.81,-79.4 -0.6,-0.36 -1.18,-0.74 -1.71,-1.17 l -97.9,-64.02 c -4.96,-3.28 -10.94,-5.34 -17.35,-5.46 z"
     fill="#7f7f7f"
     id="path36" />
  <path
     d="m 114.80024,0.1 c -17.45,0.31 -31.46,14.59 -31.46,32.05 v 559.06 c 0.07,3.9 0.29,7.75 0.57,11.66 0.25,2.06 0.52,4.2 0.9,6.28 7.97,44.87 47.01,78.92 94.15,78.92 16.53,0 32.03,-4.21 45.59,-11.53 0.08,-0.06 0.22,-0.14 0.29,-0.14 l 4.88,-2.95 19.78,-11.64 25.16,-14.93 0.06,-496.73 c 0,-33.01 -16.52,-62.11 -41.81,-79.4 -0.6,-0.36 -1.18,-0.74 -1.71,-1.17 l -97.9,-64.02 c -4.96,-3.28 -10.94,-5.34 -17.35,-5.46 z"
     fill="url(#b)"
     id="path38"
     style="fill:url(#b)" />
  <path
     d="m 502.99024,510.84 -225.09,133.42 -3.24,1.95 v 0.71 l -25.16,14.9 -19.77,11.67 -4.85,2.93 -0.33,0.16 c -13.53,7.35 -29.04,11.51 -45.56,11.51 -47.13,0 -86.22,-34.03 -94.16,-78.92 3.77,32.84 14.96,63.41 31.84,90.04 34.76,54.87 93.54,93.04 161.54,99.67 h 41.58 c 36.78,-3.84 67.49,-18.57 99.77,-38.46 l 49.64,-30.36 c 22.36,-14.33 83.05,-49.58 100.93,-69.36 3.89,-4.33 7.4,-8.97 10.47,-13.94 2.38,-3.78 4.5,-7.73 6.28,-11.84 0.6,-1.4 1.17,-2.76 1.72,-4.15 0.52,-1.38 1.01,-2.77 1.51,-4.18 0.93,-2.7 1.67,-5.41 2.38,-8.2 0.36,-1.59 0.69,-3.16 1.02,-4.72 1.08,-5.89 1.67,-11.94 1.67,-18.21 0,-18.25 -5.04,-35.39 -13.77,-49.95 -2,-3.4 -4.2,-6.65 -6.64,-9.72 -2.85,-3.7 -5.93,-7.13 -9.28,-10.33 -8.31,-8.05 -18.01,-14.65 -28.77,-19.29 -4.64,-2.05 -9.48,-3.74 -14.46,-4.97 -0.06,0 -0.16,-0.06 -0.22,-0.06 l -1.72,-0.58 z"
     fill="#7f7f7f"
     id="path40" />
  <path
     d="m 502.99024,510.84 -225.09,133.42 -3.24,1.95 v 0.71 l -25.16,14.9 -19.77,11.67 -4.85,2.93 -0.33,0.16 c -13.53,7.35 -29.04,11.51 -45.56,11.51 -47.13,0 -86.22,-34.03 -94.16,-78.92 3.77,32.84 14.96,63.41 31.84,90.04 34.76,54.87 93.54,93.04 161.54,99.67 h 41.58 c 36.78,-3.84 67.49,-18.57 99.77,-38.46 l 49.64,-30.36 c 22.36,-14.33 83.05,-49.58 100.93,-69.36 3.89,-4.33 7.4,-8.97 10.47,-13.94 2.38,-3.78 4.5,-7.73 6.28,-11.84 0.6,-1.4 1.17,-2.76 1.72,-4.15 0.52,-1.38 1.01,-2.77 1.51,-4.18 0.93,-2.7 1.67,-5.41 2.38,-8.2 0.36,-1.59 0.69,-3.16 1.02,-4.72 1.08,-5.89 1.67,-11.94 1.67,-18.21 0,-18.25 -5.04,-35.39 -13.77,-49.95 -2,-3.4 -4.2,-6.65 -6.64,-9.72 -2.85,-3.7 -5.93,-7.13 -9.28,-10.33 -8.31,-8.05 -18.01,-14.65 -28.77,-19.29 -4.64,-2.05 -9.48,-3.74 -14.46,-4.97 -0.06,0 -0.16,-0.06 -0.22,-0.06 l -1.72,-0.58 z"
     fill="url(#c)"
     id="path42"
     style="fill:url(#c)" />
  <path
     d="m 595.18024,595.46 c 0,6.27 -0.59,12.33 -1.68,18.22 -0.32,1.56 -0.65,3.12 -1.02,4.7 -0.7,2.8 -1.44,5.51 -2.37,8.22 -0.49,1.4 -0.99,2.8 -1.51,4.16 -0.54,1.4 -1.12,2.76 -1.73,4.16 a 87.873,87.873 0 0 1 -6.26,11.83 96.567,96.567 0 0 1 -10.48,13.94 c -17.88,19.79 -78.57,55.04 -100.93,69.37 l -49.64,30.36 c -36.39,22.42 -70.77,38.29 -114.13,39.38 -2.05,0.06 -4.06,0.11 -6.05,0.11 -2.8,0 -5.56,-0.05 -8.33,-0.16 -73.42,-2.8 -137.45,-42.25 -174.38,-100.54 a 213.368,213.368 0 0 1 -31.84,-90.04 c 7.94,44.89 47.03,78.92 94.16,78.92 16.52,0 32.03,-4.17 45.56,-11.51 l 0.33,-0.17 4.85,-2.92 19.77,-11.67 25.16,-14.9 v -0.71 l 3.24,-1.95 225.09,-133.43 17.33,-10.27 1.72,0.58 c 0.05,0 0.16,0.06 0.22,0.06 4.98,1.23 9.83,2.92 14.46,4.97 10.76,4.64 20.45,11.24 28.77,19.29 a 92.13,92.13 0 0 1 9.28,10.33 c 2.44,3.07 4.64,6.32 6.64,9.72 8.73,14.56 13.77,31.7 13.77,49.95 z"
     fill="#7f7f7f"
     opacity="0.15"
     id="path44" />
  <path
     d="m 595.18024,595.46 c 0,6.27 -0.59,12.33 -1.68,18.22 -0.32,1.56 -0.65,3.12 -1.02,4.7 -0.7,2.8 -1.44,5.51 -2.37,8.22 -0.49,1.4 -0.99,2.8 -1.51,4.16 -0.54,1.4 -1.12,2.76 -1.73,4.16 a 87.873,87.873 0 0 1 -6.26,11.83 96.567,96.567 0 0 1 -10.48,13.94 c -17.88,19.79 -78.57,55.04 -100.93,69.37 l -49.64,30.36 c -36.39,22.42 -70.77,38.29 -114.13,39.38 -2.05,0.06 -4.06,0.11 -6.05,0.11 -2.8,0 -5.56,-0.05 -8.33,-0.16 -73.42,-2.8 -137.45,-42.25 -174.38,-100.54 a 213.368,213.368 0 0 1 -31.84,-90.04 c 7.94,44.89 47.03,78.92 94.16,78.92 16.52,0 32.03,-4.17 45.56,-11.51 l 0.33,-0.17 4.85,-2.92 19.77,-11.67 25.16,-14.9 v -0.71 l 3.24,-1.95 225.09,-133.43 17.33,-10.27 1.72,0.58 c 0.05,0 0.16,0.06 0.22,0.06 4.98,1.23 9.83,2.92 14.46,4.97 10.76,4.64 20.45,11.24 28.77,19.29 a 92.13,92.13 0 0 1 9.28,10.33 c 2.44,3.07 4.64,6.32 6.64,9.72 8.73,14.56 13.77,31.7 13.77,49.95 z"
     fill="url(#d)"
     opacity="0.15"
     id="path46"
     style="fill:url(#d)" />
</svg>
