<?xml version="1.0" encoding="UTF-8" standalone="no"?>
<svg
   xmlns:dc="http://purl.org/dc/elements/1.1/"
   xmlns:cc="http://creativecommons.org/ns#"
   xmlns:rdf="http://www.w3.org/1999/02/22-rdf-syntax-ns#"
   xmlns:svg="http://www.w3.org/2000/svg"
   xmlns="http://www.w3.org/2000/svg"
   xmlns:sodipodi="http://sodipodi.sourceforge.net/DTD/sodipodi-0.dtd"
   xmlns:inkscape="http://www.inkscape.org/namespaces/inkscape"
   width="36"
   height="35.999996"
   viewBox="0 0 36 35.999996"
   fill="none"
   version="1.1"
   id="svg4"
   sodipodi:docname="bizum.svg"
   inkscape:version="1.0.2-2 (e86c870879, 2021-01-15)">
  <metadata
     id="metadata10">
    <rdf:RDF>
      <cc:Work
         rdf:about="">
        <dc:format>image/svg+xml</dc:format>
        <dc:type
           rdf:resource="http://purl.org/dc/dcmitype/StillImage" />
        <dc:title></dc:title>
      </cc:Work>
    </rdf:RDF>
  </metadata>
  <defs
     id="defs8" />
  <sodipodi:namedview
     pagecolor="#ffffff"
     bordercolor="#666666"
     borderopacity="1"
     objecttolerance="10"
     gridtolerance="10"
     guidetolerance="10"
     inkscape:pageopacity="0"
     inkscape:pageshadow="2"
     inkscape:window-width="1920"
     inkscape:window-height="1009"
     id="namedview6"
     showgrid="false"
     inkscape:zoom="8.1535316"
     inkscape:cx="60.999999"
     inkscape:cy="18"
     inkscape:window-x="1272"
     inkscape:window-y="-8"
     inkscape:window-maximized="1"
     inkscape:current-layer="svg4" />
  <path
     fill-rule="evenodd"
     clip-rule="evenodd"
     d="m 11.615669,12.8655 c 1.31327,0.9553 3.14387,0.6767 4.09893,-0.6368 l 3.4225,-4.7364303 c 0.9551,-1.31346 0.6765,-3.14434 -0.6367,-4.09959 -1.3133,-0.95524 -3.1439,-0.67663 -4.09902,0.63683 l -3.46224,4.73642 C 10.023839,10.0794 10.302409,11.9103 11.615669,12.8655 Z m 15.67953,-6.6866903 c -1.3133,-0.95524 -3.1439,-0.67663 -4.099,0.63683 L 9.4268494,25.7613 c -0.9551,1.3135 -0.67653,3.1444 0.6367296,4.0996 1.31326,0.9553 3.14387,0.6767 4.09897,-0.6368 l 13.76935,-18.9457 c 0.9949,-1.3134503 0.6765,-3.1443403 -0.6367,-4.0995903 z m -16.9928,-1.51244 c 0.9551,-1.31346 0.67652,-3.14435 -0.6367396,-4.09959103 -1.31326,-0.955245 -3.14387,-0.676632 -4.098967,0.63683103 -0.9551,1.31346 -0.676529,3.14435 0.636737,4.09959 1.31326,0.95525 3.14387,0.67663 4.0989696,-0.63683 z M 31.195199,30.6968 c -1.3132,-0.9553 -3.1438,-0.6766 -4.0989,0.6368 -0.9551,1.3135 -0.6766,3.1444 0.6367,4.0996 1.3133,0.9553 3.1439,0.6766 4.099,-0.6368 0.9551,-1.3135 0.6765,-3.1444 -0.6368,-4.0996 z m -5.3724,-7.5226 c -1.3132,-0.9552 -3.1438,-0.6766 -4.0989,0.6369 l -3.4623,4.7364 c -0.9551,1.3134 -0.6765,3.1443 0.6367,4.0996 1.3133,0.9552 3.1439,0.6766 4.099,-0.6369 l 3.4623,-4.7364 c 0.9551,-1.3134 0.6765,-3.1443 -0.6368,-4.0996 z"
     fill="#05c0c7"
     id="path2"
     sodipodi:nodetypes="ccccccccccccccscccscccccccccccc" />
</svg>
