<?xml version="1.0" encoding="UTF-8" standalone="no"?>
<svg
   xmlns:dc="http://purl.org/dc/elements/1.1/"
   xmlns:cc="http://creativecommons.org/ns#"
   xmlns:rdf="http://www.w3.org/1999/02/22-rdf-syntax-ns#"
   xmlns:svg="http://www.w3.org/2000/svg"
   xmlns="http://www.w3.org/2000/svg"
   xmlns:sodipodi="http://sodipodi.sourceforge.net/DTD/sodipodi-0.dtd"
   xmlns:inkscape="http://www.inkscape.org/namespaces/inkscape"
   id="Layer_1"
   height="417.80905"
   viewBox="0 0 73.449 73.442997"
   width="417.8432"
   version="1.1"
   sodipodi:docname="blacklist.svg"
   inkscape:version="1.0.2-2 (e86c870879, 2021-01-15)">
  <metadata
     id="metadata13">
    <rdf:RDF>
      <cc:Work
         rdf:about="">
        <dc:format>image/svg+xml</dc:format>
        <dc:type
           rdf:resource="http://purl.org/dc/dcmitype/StillImage" />
      </cc:Work>
    </rdf:RDF>
  </metadata>
  <defs
     id="defs11" />
  <sodipodi:namedview
     pagecolor="#ffffff"
     bordercolor="#666666"
     borderopacity="1"
     objecttolerance="10"
     gridtolerance="10"
     guidetolerance="10"
     inkscape:pageopacity="0"
     inkscape:pageshadow="2"
     inkscape:window-width="1920"
     inkscape:window-height="1009"
     id="namedview9"
     showgrid="false"
     inkscape:zoom="1.1318316"
     inkscape:cx="209.08373"
     inkscape:cy="209.41938"
     inkscape:window-x="1272"
     inkscape:window-y="-8"
     inkscape:window-maximized="1"
     inkscape:current-layer="Layer_1" />
  <path
     d="m 36.729,16.958 c 2.624,0 5.14,1.042 7,2.901 1.853,1.854 2.896,4.369 2.896,7 -0.005,3.015 -1.387,5.869 -3.756,7.744 -1.25,1.376 -0.621,2.448 0.489,2.876 5.533,1.224 9.59,5.561 9.59,11.552 0,2.833 0.238,3.452 -2.833,3.452 H 22.677 c -2.391,0 -2.172,-1.593 -2.172,-3.452 0,-5.991 4.063,-10.333 9.593,-11.552 1.099,-0.428 1.729,-1.485 0.517,-2.844 -2.386,-1.875 -3.781,-4.746 -3.781,-7.776 0,-2.631 1.041,-5.146 2.896,-7 1.858,-1.859 4.374,-2.901 6.999,-2.901 z"
     fill="#1a1a1a"
     id="path4" />
  <path
     clip-rule="evenodd"
     d="M 36.724,0 C 16.478,0 0,16.475 0,36.719 c 0,20.245 16.479,36.724 36.724,36.724 6.5,0 12.609,-1.708 17.91,-4.687 l -4.453,-4.453 c -4.062,1.984 -8.619,3.12 -13.457,3.12 -16.995,0 -30.705,-13.709 -30.705,-30.704 0,-7.057 2.371,-13.547 6.355,-18.73 l 11.329,11.327 c -0.517,-2.561 -0.052,-5.463 0.879,-7.629 L 16.5,13.604 C 21.896,8.88 28.962,6.016 36.724,6.016 c 16.989,0 30.708,13.713 30.708,30.703 0,7.761 -2.864,14.833 -7.593,20.229 l -4.125,-4.131 c -1.036,2 -3.516,2.882 -5.631,2.882 l 9.631,9.629 C 68.078,58.589 73.449,48.271 73.449,36.719 73.448,16.474 56.967,0 36.724,0 Z"
     fill="#ff2a2a"
     fill-rule="evenodd"
     id="path6" />
</svg>
