<svg id="Capa_1" enable-background="new 0 0 510 510" height="512" viewBox="0 0 510 510" width="512" xmlns="http://www.w3.org/2000/svg" xmlns:xlink="http://www.w3.org/1999/xlink"><linearGradient id="SVGID_1_" gradientUnits="userSpaceOnUse" x1="275.136" x2="233.259" y1="332.074" y2="171.787"><stop offset="0" stop-color="#ff7044"/><stop offset="1" stop-color="#f82814"/></linearGradient><linearGradient id="lg1"><stop offset="0" stop-color="#8a7889"/><stop offset="1" stop-color="#6e566e"/></linearGradient><linearGradient id="SVGID_2_" gradientUnits="userSpaceOnUse" x1="236.222" x2="294.17" xlink:href="#lg1" y1="57.924" y2="173.821"/><linearGradient id="SVGID_3_" gradientUnits="userSpaceOnUse" x1="248.57" x2="266.861" xlink:href="#lg1" y1="359.32" y2="517.201"/><linearGradient id="lg2"><stop offset="0" stop-color="#6e566e" stop-opacity="0"/><stop offset=".2191" stop-color="#685168" stop-opacity=".219"/><stop offset="1" stop-color="#564357"/></linearGradient><linearGradient id="SVGID_4_" gradientUnits="userSpaceOnUse" x1="166.834" x2="89.819" xlink:href="#lg2" y1="481.894" y2="412.099"/><linearGradient id="SVGID_5_" gradientUnits="userSpaceOnUse" x1="238.064" x2="168.27" xlink:href="#lg2" y1="486.71" y2="417.878"/><linearGradient id="SVGID_6_" gradientUnits="userSpaceOnUse" x1="277.461" x2="227.401" xlink:href="#lg2" y1="456.18" y2="415.747"/><linearGradient id="SVGID_7_" gradientUnits="userSpaceOnUse" x1="346.038" x2="271.43" xlink:href="#lg2" y1="467.854" y2="406.723"/><linearGradient id="SVGID_8_" gradientUnits="userSpaceOnUse" x1="419.704" x2="357.611" xlink:href="#lg2" y1="465.507" y2="412.078"/><linearGradient id="SVGID_9_" gradientUnits="userSpaceOnUse" x1="489.827" x2="430.622" xlink:href="#lg2" y1="437.883" y2="384.935"/><linearGradient id="lg3"><stop offset="0" stop-color="#f8f6fb"/><stop offset="1" stop-color="#efdcfb"/></linearGradient><linearGradient id="SVGID_10_" gradientUnits="userSpaceOnUse" x1="90.031" x2="98.695" xlink:href="#lg3" y1="387.447" y2="475.051"/><linearGradient id="SVGID_11_" gradientUnits="userSpaceOnUse" x1="165.214" x2="173.878" xlink:href="#lg3" y1="380.011" y2="467.615"/><linearGradient id="SVGID_12_" gradientUnits="userSpaceOnUse" x1="224.905" x2="233.57" xlink:href="#lg3" y1="374.108" y2="461.712"/><linearGradient id="SVGID_13_" gradientUnits="userSpaceOnUse" x1="285.152" x2="293.816" xlink:href="#lg3" y1="368.149" y2="455.754"/><linearGradient id="SVGID_14_" gradientUnits="userSpaceOnUse" x1="365.44" x2="374.105" xlink:href="#lg3" y1="360.209" y2="447.813"/><linearGradient id="SVGID_15_" gradientUnits="userSpaceOnUse" x1="448.578" x2="457.242" xlink:href="#lg3" y1="351.986" y2="439.591"/><linearGradient id="SVGID_16_" gradientUnits="userSpaceOnUse" x1="154.78" x2="45.034" xlink:href="#lg2" y1="159.535" y2="79.632"/><linearGradient id="SVGID_17_" gradientUnits="userSpaceOnUse" x1="212.777" x2="116.027" xlink:href="#lg2" y1="156.107" y2="82.943"/><linearGradient id="SVGID_18_" gradientUnits="userSpaceOnUse" x1="400.222" x2="277.48" xlink:href="#lg2" y1="165.163" y2="69.857"/><linearGradient id="SVGID_19_" gradientUnits="userSpaceOnUse" x1="454.083" x2="381.882" xlink:href="#lg2" y1="145.612" y2="87.37"/><linearGradient id="SVGID_20_" gradientUnits="userSpaceOnUse" x1="291.173" x2="182.871" xlink:href="#lg2" y1="160.534" y2="64.265"/><linearGradient id="SVGID_21_" gradientUnits="userSpaceOnUse" x1="82.274" x2="82.274" xlink:href="#lg3" y1="63.686" y2="136.907"/><linearGradient id="SVGID_22_" gradientUnits="userSpaceOnUse" x1="160.091" x2="160.091" xlink:href="#lg3" y1="63.686" y2="136.907"/><linearGradient id="SVGID_23_" gradientUnits="userSpaceOnUse" x1="234.6" x2="234.6" xlink:href="#lg3" y1="63.686" y2="136.907"/><linearGradient id="SVGID_24_" gradientUnits="userSpaceOnUse" x1="318.891" x2="318.891" xlink:href="#lg3" y1="63.685" y2="136.907"/><linearGradient id="SVGID_25_" gradientUnits="userSpaceOnUse" x1="402.75" x2="402.75" xlink:href="#lg3" y1="63.685" y2="136.907"/><g><path d="m23.336 21.319 478.45 296.977c5.107 3.17 8.212 8.753 8.212 14.763v142.641c0 11.979-13.158 19.298-23.336 12.981l-478.449-296.977c-5.107-3.17-8.213-8.753-8.213-14.763v-142.641c0-11.979 13.158-19.299 23.336-12.981z" fill="url(#SVGID_1_)"/><path d="m503.054 186.607h-492.836c-5.643 0-10.218-4.575-10.218-10.218v-159.337c0-5.643 4.575-10.218 10.218-10.218h492.836c5.43 0 8.752 5.96 5.896 10.579l-37.476 60.605c-7.087 11.461-7.087 25.943 0 37.404l37.476 60.606c2.857 4.618-.465 10.579-5.896 10.579z" fill="url(#SVGID_2_)"/><path d="m6.944 323.393h492.836c5.643 0 10.218 4.575 10.218 10.218v159.337c0 5.643-4.575 10.218-10.218 10.218h-492.836c-5.43 0-8.752-5.96-5.897-10.579l37.476-60.605c7.087-11.461 7.087-25.943 0-37.404l-37.476-60.606c-2.856-4.618.466-10.579 5.897-10.579z" fill="url(#SVGID_3_)"/><g><path d="m263.475 503.166h-161.442l-39.018-39.018c-2.123-1.155-3.552-2.888-3.552-5.198v-91.335c0-4.607 4.895-6.902 9.791-6.902h49.906c2.57 0 4.332 1.473 5.415 3.567l8.967 8.967 84.014 83.999z" fill="url(#SVGID_4_)"/><path d="m331.374 503.166h-155.248l-39.032-39.018c-2.123-1.155-3.552-2.888-3.552-5.198v-91.479c0-3.596 2.744-6.758 6.917-6.758h29.761c12.173 0 22.816 2.802 29.155 10.469l18.18 18.18 37.963 37.964z" fill="url(#SVGID_5_)"/><path d="m377.337 503.166h-117.212l-39.018-39.018c-2.137-1.155-3.552-2.888-3.552-5.198v-91.479c0-4.751 5.603-6.758 11.22-6.758 4.707 0 9.401 1.415 10.787 4.679l15.956 15.957 80.043 80.042z" fill="url(#SVGID_6_)"/><path d="m450.65 503.166h-152.749l-38.758-38.758c-2.281-1.256-3.625-3.206-3.625-5.314v-91.624c0-3.596 3.885-6.758 9.791-6.758h25.458c11.61 0 21.747 3.148 28.159 10.729l30.7 30.7z" fill="url(#SVGID_7_)"/><path d="m510 486.848v6.094c0 5.646-4.578 10.224-10.224 10.224h-122.121l-40.491-40.491c-.578-.39-1.126-.823-1.603-1.285-1.444-1.357-2.368-2.975-2.368-4.736 0-.433.144-1.011.289-1.589l16.144-52.924 10.614-34.816c1.588-5.04 8.058-7.48 14.671-7.48 5.863 0 11.596 1.921 13.935 5.848z" fill="url(#SVGID_8_)"/><path d="m510 385.925v107.017c0 5.646-4.578 10.224-10.224 10.224h-17.993l-39.018-39.018c-2.137-1.155-3.552-2.888-3.552-5.198v-36.101c0-.866-.289-1.588-.578-2.022l-8.13-13.473-21.645-35.854c-.289-.578-.289-1.155-.289-1.589 0-5.314 9.068-9.198 15.249-9.198 3.35 0 4.708 1.256 6.152 3.639l26.613 26.122 13.834-25.603c1.444-2.729 2.888-4.159 6.484-4.159 5.112 0 12.173 2.657 14.469 6.57z" fill="url(#SVGID_9_)"/></g><g><path d="m59.469 367.611c0-4.603 4.891-6.904 9.781-6.904h49.912c4.747 0 6.76 5.034 6.76 9.637 0 5.322-2.445 9.925-6.76 9.925h-37.254v24.309h21.72c4.315 0 6.76 4.171 6.76 8.774 0 3.884-2.014 8.486-6.76 8.486h-21.72v37.11c0 4.603-5.61 6.904-11.219 6.904-5.61 0-11.219-2.302-11.219-6.904v-91.337z" fill="url(#SVGID_10_)"/><path d="m133.548 367.467c0-3.596 2.733-6.76 6.904-6.76h29.775c19.706 0 35.384 7.336 35.384 30.781 0 16.11-7.336 25.316-17.404 29.199l17.548 31.788c.575.863.719 1.87.719 2.589 0 5.61-7.48 11.651-14.096 11.651-2.877 0-5.61-1.151-7.192-4.171l-19.706-38.261h-9.493v34.665c0 4.603-5.61 6.904-11.219 6.904s-11.219-2.302-11.219-6.904v-91.481zm22.439 12.802v26.754h14.24c8.055 0 12.945-3.308 12.945-13.377s-4.89-13.377-12.945-13.377z" fill="url(#SVGID_11_)"/><path d="m217.552 367.467c0-4.747 5.61-6.76 11.219-6.76 5.61 0 11.219 2.014 11.219 6.76v91.482c0 4.603-5.61 6.904-11.219 6.904-5.61 0-11.219-2.302-11.219-6.904z" fill="url(#SVGID_12_)"/><path d="m290.766 360.707c19.85 0 35.384 9.206 35.384 33.946v37.254c0 24.74-15.535 33.946-35.384 33.946h-25.459c-5.897 0-9.781-3.164-9.781-6.76v-91.625c0-3.596 3.884-6.76 9.781-6.76h25.459zm-12.801 19.562v66.022h12.802c8.055 0 12.945-4.603 12.945-14.384v-37.254c0-9.781-4.891-14.384-12.945-14.384z" fill="url(#SVGID_13_)"/><path d="m333.2 456.647c0-.432.144-1.007.288-1.582l26.754-87.742c1.582-5.034 8.055-7.48 14.672-7.48s13.089 2.445 14.672 7.48l26.898 87.742c.144.575.288 1.151.288 1.582 0 5.322-8.199 9.206-14.384 9.206-3.596 0-6.473-1.151-7.336-4.171l-4.891-17.98h-30.35l-4.891 17.98c-.863 3.021-3.74 4.171-7.336 4.171-6.185 0-14.384-3.884-14.384-9.206zm52.214-30.206-10.5-38.549-10.5 38.549z" fill="url(#SVGID_14_)"/><path d="m439.211 422.845c0-.863-.288-1.582-.575-2.014l-29.775-49.337c-.288-.575-.288-1.151-.288-1.582 0-5.322 9.062-9.206 15.247-9.206 3.596 0 4.891 1.438 6.473 4.171l20.138 36.966 19.993-36.966c1.438-2.733 2.877-4.171 6.473-4.171 6.185 0 15.247 3.884 15.247 9.206 0 .431 0 1.007-.288 1.582l-29.631 49.337c-.288.432-.575 1.151-.575 2.014v36.104c0 4.603-5.61 6.904-11.219 6.904-5.61 0-11.22-2.302-11.22-6.904z" fill="url(#SVGID_15_)"/></g><g><path d="m243.533 186.606h-154.207l-38.7-38.7c-2.339-1.256-3.668-3.235-3.668-5.372v-91.479c0-4.606 4.895-6.902 9.791-6.902h29.487c9.17 0 18.339 2.108 23.783 8.939z" fill="url(#SVGID_16_)"/><path d="m289.006 186.606h-117.414l-38.714-38.714c-2.152-1.126-3.639-2.96-3.639-5.502v-91.479c0-4.751 5.603-6.758 11.22-6.758 4.722 0 9.444 1.43 10.801 4.722l53.01 53.01z" fill="url(#SVGID_17_)"/><path d="m479.242 186.606h-141.284l-43.971-43.971c-6.397-5.386-10.411-13.921-10.411-26.426v-38.122c0-24.736 15.682-33.935 34.527-33.935 12.895 0 23.812 4.072 30.151 11.61l17.314 17.314s113.097 112.952 113.674 113.53z" fill="url(#SVGID_18_)"/><path d="m503.054 186.606h-94.902l-38.989-39.003c-2.152-1.141-3.596-2.888-3.596-5.213v-91.479c0-4.751 5.603-6.758 11.22-6.758 4.722 0 9.444 1.43 10.816 4.722l15.48 15.191 11.827-16.751c1.574-2.31 3.596-3.162 5.892-3.162 3.928 0 8.679 2.758 11.278 6.296l35.696 35.696c-3.032 9.704-1.805 20.39 3.697 29.271l37.473 60.606c2.859 4.62-.462 10.584-5.892 10.584z" fill="url(#SVGID_19_)"/><path d="m385.915 186.606h-148.62l-40.491-40.476c-2.354-1.589-3.985-3.668-3.985-6.036 0-.433.144-1.011.289-1.589l.549-1.776 10.614-34.845 15.581-51.119c1.588-5.04 8.058-7.48 14.671-7.48 5.877 0 11.624 1.921 13.949 5.877z" fill="url(#SVGID_20_)"/></g><g><path d="m46.961 51.051c0-4.603 4.89-6.904 9.781-6.904h29.487c14.384 0 28.768 5.178 28.768 25.603 0 11.651-4.603 19.274-12.226 22.583 8.774 3.308 14.815 8.63 14.815 23.014v3.021c0 22.727-12.658 30.925-28.912 30.925h-31.932c-6.041 0-9.781-3.165-9.781-6.76zm22.295 32.652h15.103c5.466 0 8.199-5.034 8.199-9.925 0-5.034-2.733-10.069-8.199-10.069h-15.103zm14.384 46.028c7.192 0 11.507-4.027 11.507-13.233v-2.301c0-9.781-4.315-13.233-11.507-13.233h-14.384v28.768h14.384z" fill="url(#SVGID_21_)"/><path d="m139.019 149.293c-4.89 0-9.781-2.301-9.781-6.904v-91.481c0-4.747 5.61-6.761 11.219-6.761 5.61 0 11.219 2.014 11.219 6.761v78.824h32.795c4.315 0 6.473 4.891 6.473 9.781 0 4.891-2.158 9.781-6.473 9.781h-45.452z" fill="url(#SVGID_22_)"/><path d="m192.815 140.088c0-.432.144-1.007.288-1.582l26.754-87.742c1.582-5.034 8.055-7.48 14.672-7.48s13.089 2.445 14.672 7.48l26.898 87.742c.144.575.288 1.151.288 1.582 0 5.322-8.199 9.206-14.384 9.206-3.596 0-6.473-1.151-7.336-4.171l-4.891-17.98h-30.35l-4.891 17.98c-.863 3.021-3.74 4.171-7.336 4.171-6.185-.001-14.384-3.884-14.384-9.206zm52.214-30.206-10.5-38.549-10.5 38.549z" fill="url(#SVGID_23_)"/><path d="m318.962 63.709c-8.199 0-12.945 4.603-12.945 14.384v38.117c0 9.781 4.747 14.384 13.089 14.384 11.507 0 12.226-8.774 12.658-14.384.432-5.322 5.322-6.76 11.076-6.76 7.767 0 11.363 2.014 11.363 10.644 0 19.131-15.535 30.062-36.103 30.062-18.843 0-34.521-9.206-34.521-33.946v-38.117c0-24.74 15.678-33.946 34.521-33.946 20.569 0 36.103 10.356 36.103 28.624 0 8.63-3.596 10.644-11.219 10.644-6.041 0-10.932-1.582-11.22-6.76-.144-3.74-.575-12.946-12.802-12.946z" fill="url(#SVGID_24_)"/><path d="m365.568 50.908c0-4.747 5.61-6.761 11.219-6.761s11.219 2.014 11.219 6.761v34.521l26.898-38.117c1.582-2.301 3.596-3.165 5.897-3.165 5.754 0 13.233 5.897 13.233 11.507 0 1.151-.288 2.733-1.438 4.315l-23.589 29.631 29.775 45.597c.719 1.151 1.151 2.445 1.151 3.74 0 5.61-7.048 11.219-13.521 11.219-3.021 0-5.897-1.151-7.767-4.171l-24.596-37.398-6.041 7.767v26.035c0 4.603-5.61 6.904-11.219 6.904s-11.219-2.301-11.219-6.904v-91.481z" fill="url(#SVGID_25_)"/></g></g></svg>