<?xml version="1.0" encoding="UTF-8" standalone="no"?>
<svg
   xmlns:dc="http://purl.org/dc/elements/1.1/"
   xmlns:cc="http://creativecommons.org/ns#"
   xmlns:rdf="http://www.w3.org/1999/02/22-rdf-syntax-ns#"
   xmlns:svg="http://www.w3.org/2000/svg"
   xmlns="http://www.w3.org/2000/svg"
   xmlns:sodipodi="http://sodipodi.sourceforge.net/DTD/sodipodi-0.dtd"
   xmlns:inkscape="http://www.inkscape.org/namespaces/inkscape"
   id="Capa_1"
   enable-background="new 0 0 512 512"
   height="512"
   viewBox="0 0 512 512"
   width="512"
   version="1.1"
   sodipodi:docname="bonos.svg"
   inkscape:version="1.0.2-2 (e86c870879, 2021-01-15)">
  <metadata
     id="metadata141">
    <rdf:RDF>
      <cc:Work
         rdf:about="">
        <dc:format>image/svg+xml</dc:format>
        <dc:type
           rdf:resource="http://purl.org/dc/dcmitype/StillImage" />
      </cc:Work>
    </rdf:RDF>
  </metadata>
  <defs
     id="defs139" />
  <sodipodi:namedview
     pagecolor="#ffffff"
     bordercolor="#666666"
     borderopacity="1"
     objecttolerance="10"
     gridtolerance="10"
     guidetolerance="10"
     inkscape:pageopacity="0"
     inkscape:pageshadow="2"
     inkscape:window-width="1920"
     inkscape:window-height="1009"
     id="namedview137"
     showgrid="false"
     inkscape:zoom="1.6006516"
     inkscape:cx="256"
     inkscape:cy="261.16033"
     inkscape:window-x="1272"
     inkscape:window-y="-8"
     inkscape:window-maximized="1"
     inkscape:current-layer="g134" />
  <g
     id="g134">
    <g
       id="g4">
      <circle
         cx="398.62"
         cy="86.963"
         fill="#e28086"
         r="86.963"
         id="circle2" />
    </g>
    <g
       id="g8">
      <path
         d="m444.123 12.852c8.146 13.238 12.852 28.819 12.852 45.503 0 48.028-38.935 86.963-86.963 86.963-16.684 0-32.265-4.707-45.503-12.853 15.303 24.871 42.766 41.46 74.11 41.46 48.028 0 86.963-38.935 86.963-86.963.001-31.344-16.588-58.806-41.459-74.11z"
         fill="#dd636e"
         id="path6" />
    </g>
    <g
       id="g14">
      <g
         id="g12">
        <path
           d="m371.562 118.466c-1.03 0-2.075-.208-3.078-.649-3.872-1.702-5.631-6.221-3.929-10.093l16.951-38.562h-15.39c-4.229 0-7.658-3.428-7.658-7.658s3.429-7.658 7.658-7.658h27.122c2.587 0 4.999 1.306 6.413 3.472s1.639 4.9.598 7.268l-21.672 49.302c-1.261 2.869-4.07 4.578-7.015 4.578z"
           fill="#f4fbff"
           id="path10" />
      </g>
    </g>
    <g
       id="g20">
      <g
         id="g18">
        <path
           d="m430.188 119.949c-12.084 0-21.915-9.831-21.915-21.916v-22.8c0-12.084 9.831-21.915 21.915-21.915s21.916 9.831 21.916 21.915v22.8c0 12.085-9.832 21.916-21.916 21.916zm0-51.314c-3.639 0-6.599 2.96-6.599 6.598v22.8c0 3.639 2.96 6.599 6.599 6.599s6.599-2.961 6.599-6.599v-22.8c0-3.639-2.961-6.598-6.599-6.598z"
           fill="#f4fbff"
           id="path16" />
      </g>
    </g>
    <g
       id="g24"
       transform="matrix(0.98309305,0,0,0.98309305,4.3914277,4.1430646)"
       style="stroke-width:1.0172">
      <circle
         cx="259.741"
         cy="245.05099"
         fill="#ffe07d"
         r="184.75999"
         id="circle22"
         style="stroke-width:1.03469" />
    </g>
    <g
       id="g28"
       transform="matrix(0.98309305,0,0,0.98309305,4.3914277,4.1430646)"
       style="stroke-width:1.0172">
      <path
         d="m 372.495,98.69 c 24.071,31.199 38.399,70.3 38.399,112.754 0,102.04 -82.72,184.76 -184.76,184.76 -42.453,0 -81.555,-14.328 -112.754,-38.399 33.786,43.791 86.774,72.006 146.361,72.006 102.04,0 184.76,-82.72 184.76,-184.76 0,-59.587 -28.215,-112.575 -72.006,-146.361 z"
         fill="#ffd064"
         id="path26"
         style="stroke-width:1.03469" />
    </g>
    <g
       id="g32"
       transform="matrix(0.98309305,0,0,0.98309305,4.3914277,4.1430646)"
       style="stroke-width:1.0172">
      <circle
         cx="259.741"
         cy="245.05099"
         fill="#f4fbff"
         r="152.217"
         id="circle30"
         style="stroke-width:1.03469" />
    </g>
    <g
       id="g36"
       transform="matrix(0.98309305,0,0,0.98309305,4.3914277,4.1430646)"
       style="stroke-width:1.0172">
      <path
         d="m 354.573,125.988 c 20.747,26.014 33.154,58.972 33.154,94.832 0,84.067 -68.15,152.217 -152.217,152.217 -35.86,0 -68.818,-12.407 -94.832,-33.154 27.89,34.97 70.856,57.385 119.063,57.385 84.067,0 152.217,-68.15 152.217,-152.217 0,-48.207 -22.415,-91.173 -57.385,-119.063 z"
         fill="#e4f6ff"
         id="path34"
         style="stroke-width:1.03469" />
    </g>
    <path
       d="m 217.24189,362.30254 c -0.90641,0 -1.82757,-0.16516 -2.72317,-0.51317 -8.74756,-3.39561 -17.13236,-7.792 -24.92043,-13.06728 -3.44279,-2.33189 -4.3433,-7.01338 -2.01239,-10.45617 2.3319,-3.4428 7.0124,-4.34331 10.45618,-2.01141 6.85412,4.64315 14.23027,8.51063 21.92592,11.49924 3.87634,1.50511 5.79829,5.8671 4.29415,9.74343 -1.1571,2.97976 -4.00413,4.80536 -7.02026,4.80536 z m -48.50876,-35.1613 c -2.17657,0 -4.33544,-0.93788 -5.82385,-2.75168 -5.96835,-7.27194 -11.11091,-15.2173 -15.28513,-23.61685 -1.85018,-3.72297 -0.33228,-8.24225 3.39167,-10.09243 3.72494,-1.85313 8.24226,-0.33229 10.09244,3.39069 3.66988,7.38401 8.19113,14.36889 13.44085,20.76391 2.63763,3.21471 2.17066,7.95813 -1.04307,10.59577 -1.4009,1.15022 -3.09182,1.71059 -4.77291,1.71059 z m -24.91355,-54.46336 c -3.59713,0 -6.77842,-2.58553 -7.41055,-6.25051 -0.36965,-2.14412 -0.69013,-4.33347 -0.94967,-6.50414 -0.59576,-4.98133 -0.89855,-10.03443 -0.89855,-15.01969 0,-2.17559 0.058,-4.37968 0.17204,-6.55232 0.21825,-4.15258 3.7682,-7.35845 7.9139,-7.12251 4.15259,0.21726 7.34174,3.76033 7.12349,7.91292 -0.10027,1.91015 -0.15139,3.84979 -0.15139,5.76191 0,4.38852 0.26642,8.83997 0.79139,13.22948 0.22906,1.91506 0.51121,3.84586 0.83759,5.73536 0.70586,4.09655 -2.04188,7.99157 -6.13941,8.69841 -0.43355,0.0747 -0.86414,0.11109 -1.28884,0.11109 z m 5.11799,-59.69341 c -0.84252,0 -1.69977,-0.14255 -2.53835,-0.44337 -3.91468,-1.4019 -5.95066,-5.71276 -4.54877,-9.62645 3.16359,-8.83211 7.33879,-17.32898 12.4086,-25.25566 2.24047,-3.50473 6.8964,-4.52813 10.39916,-2.28569 3.50276,2.24145 4.52616,6.89639 2.28569,10.39915 -4.46226,6.97603 -8.1351,14.45246 -10.91823,22.22086 -1.10205,3.07511 -3.99824,4.99116 -7.0881,4.99116 z M 362.2255,194.74711 c -2.62682,0 -5.17795,-1.37633 -6.56215,-3.82718 -4.05525,-7.17953 -8.94024,-13.91961 -14.5193,-20.03052 -2.80378,-3.07118 -2.58651,-7.83329 0.48467,-10.63608 3.0702,-2.80575 7.8323,-2.58751 10.63608,0.48466 6.34194,6.9485 11.89641,14.61171 16.50908,22.77728 2.04484,3.62073 0.7678,8.21276 -2.85293,10.2576 -1.16988,0.66063 -2.44102,0.97424 -3.69545,0.97424 z M 182.8179,163.5634 c -2.10873,0 -4.20665,-0.88085 -5.69506,-2.60028 -2.72218,-3.14393 -2.38007,-7.89817 0.76387,-10.61937 7.11071,-6.15613 14.91745,-11.50711 23.20394,-15.9035 3.67087,-1.95046 8.23046,-0.55151 10.17895,3.12132 1.94849,3.67284 0.55151,8.23046 -3.12132,10.17993 -7.28571,3.86651 -14.15163,8.57159 -20.40508,13.98647 -1.4245,1.23181 -3.17933,1.83543 -4.9253,1.83543 z m 137.62418,-11.75386 c -1.32423,0 -2.66517,-0.349 -3.88223,-1.08337 -7.09007,-4.27842 -14.65989,-7.75464 -22.49809,-10.33034 -3.95007,-1.29768 -6.10009,-5.55349 -4.80143,-9.50356 1.29867,-3.95105 5.55153,-6.09911 9.50357,-4.80143 8.91272,2.92962 17.51773,6.87969 25.57614,11.74207 3.55978,2.14904 4.7041,6.77547 2.55605,10.33624 -1.41468,2.34369 -3.90288,3.64039 -6.45401,3.64039 z m -83.84702,-14.5773 c -3.51751,0 -6.66144,-2.47642 -7.37517,-6.05684 -0.81302,-4.07787 1.83347,-8.04269 5.91036,-8.8557 3.21275,-0.64 6.49038,-1.16202 9.74147,-1.55034 6.07256,-0.72651 12.23459,-1.01455 18.27865,-0.85529 4.15651,0.10814 7.43906,3.56469 7.33092,7.72121 -0.10814,4.1575 -3.60303,7.45775 -7.72121,7.33093 -5.32247,-0.13764 -10.74816,0.11403 -16.10208,0.75501 -2.86572,0.34113 -5.75208,0.80122 -8.58241,1.36552 -0.49646,0.0983 -0.99194,0.1455 -1.48053,0.1455 z"
       fill="#365e7d"
       id="path38"
       style="stroke-width:1" />
    <g
       id="g52"
       transform="matrix(0.98309305,0,0,0.98309305,4.3914277,4.1430646)"
       style="stroke-width:1.0172">
      <g
         id="g42"
         style="stroke-width:1.0172">
        <path
           d="m 234.896,313.606 c -0.988,0 -1.992,-0.192 -2.961,-0.598 -3.9,-1.637 -5.735,-6.126 -4.098,-10.026 l 51.345,-122.344 c 1.637,-3.899 6.123,-5.734 10.025,-4.098 3.9,1.637 5.735,6.126 4.098,10.026 L 241.96,308.91 c -1.23,2.931 -4.072,4.696 -7.064,4.696 z"
           fill="#2b4d66"
           id="path40"
           style="stroke-width:1.03469" />
      </g>
      <g
         id="g46"
         style="stroke-width:1.0172">
        <path
           d="m 225.069,238.285 c -16.732,0 -30.345,-15.262 -30.345,-34.021 0,-18.759 13.613,-34.021 30.345,-34.021 16.732,0 30.345,15.262 30.345,34.021 0,18.759 -13.612,34.021 -30.345,34.021 z m 0,-52.726 c -8.287,0 -15.029,8.391 -15.029,18.705 0,10.314 6.742,18.705 15.029,18.705 8.287,0 15.029,-8.391 15.029,-18.705 0,-10.314 -6.742,-18.705 -15.029,-18.705 z"
           fill="#2b4d66"
           id="path44"
           style="stroke-width:1.03469" />
      </g>
      <g
         id="g50"
         style="stroke-width:1.0172">
        <path
           d="m 294.413,321.934 c -16.732,0 -30.345,-15.262 -30.345,-34.021 0,-18.76 13.613,-34.021 30.345,-34.021 16.732,0 30.345,15.262 30.345,34.021 0,18.759 -13.613,34.021 -30.345,34.021 z m 0,-52.727 c -8.287,0 -15.029,8.391 -15.029,18.705 0,10.314 6.742,18.705 15.029,18.705 8.286,0 15.028,-8.391 15.028,-18.705 0,-10.314 -6.741,-18.705 -15.028,-18.705 z"
           fill="#2b4d66"
           id="path48"
           style="stroke-width:1.03469" />
      </g>
    </g>
    <g
       id="g56"
       transform="matrix(1.1796027,0,0,1.1796027,-29.527766,-93.465752)"
       style="stroke-width:0.847743">
      <circle
         cx="113.38"
         cy="348.51199"
         fill="#80b4fb"
         r="86.962997"
         id="circle54"
         style="stroke-width:0.718668" />
    </g>
    <g
       id="g60"
       transform="translate(0,-24)">
      <path
         d="m 158.883,274.401 c 8.146,13.238 12.852,28.819 12.852,45.503 0,48.028 -38.935,86.963 -86.963,86.963 -16.684,0 -32.265,-4.707 -45.503,-12.853 15.303,24.871 42.766,41.46 74.11,41.46 48.028,0 86.963,-38.935 86.963,-86.963 10e-4,-31.344 -16.588,-58.806 -41.459,-74.11 z"
         fill="#61a2f9"
         id="path58" />
    </g>
    <g
       id="g80">
      <g
         id="g66">
        <g
           id="g64">
          <path
             d="M 49.516231,333.23311 H 37.393454 c -4.988539,0 -9.033397,-4.04368 -9.033397,-9.0334 0,-4.98971 4.044858,-9.03339 9.033397,-9.03339 h 12.122777 c 4.98854,0 9.033398,4.04368 9.033398,9.03339 0,4.98854 -4.044858,9.0334 -9.033398,9.0334 z"
             fill="#f4fbff"
             id="path62"
             style="stroke-width:1" />
        </g>
      </g>
      <g
         id="g72">
        <g
           id="g70">
          <path
             d="m 85.346663,357.25808 c -4.988539,0 -9.033397,-4.04368 -9.033397,-9.0334 v -52.91344 h -4.207643 c -4.98854,0 -9.033397,-4.04367 -9.033397,-9.03339 0,-4.98972 4.044857,-9.0334 9.033397,-9.0334 h 13.24104 c 4.98854,0 9.033398,4.04368 9.033398,9.0334 v 61.94683 c 0,4.98854 -4.043678,9.0334 -9.033398,9.0334 z"
             fill="#f4fbff"
             id="path68"
             style="stroke-width:1" />
        </g>
      </g>
      <g
         id="g78">
        <g
           id="g76">
          <path
             d="m 141.09823,358.52261 c -14.85828,0 -26.94685,-12.08856 -26.94685,-26.94684 v -28.64901 c 0,-14.85828 12.08857,-26.94684 26.94685,-26.94684 14.85945,0 26.94802,12.08856 26.94802,26.94684 v 28.64901 c 0,14.85828 -12.08857,26.94684 -26.94802,26.94684 z m 0,-64.4759 c -4.89654,0 -8.88005,3.98234 -8.88005,8.88005 v 28.64901 c 0,4.89653 3.98351,8.88005 8.88005,8.88005 4.89653,0 8.88004,-3.98234 8.88004,-8.88005 v -28.64901 c 0,-4.89771 -3.98351,-8.88005 -8.88004,-8.88005 z"
             fill="#f4fbff"
             id="path74"
             style="stroke-width:1" />
        </g>
      </g>
    </g>
    <g
       fill="#365e7d"
       id="g90"
       transform="matrix(0.98309305,0,0,0.98309305,4.3914277,4.1430646)"
       style="stroke-width:1.0172">
      <path
         d="m 259.591,372.384 c -3.335,0 -6.703,-0.133 -10.011,-0.395 -4.217,-0.334 -7.364,-4.023 -7.03,-8.239 0.334,-4.216 4.027,-7.345 8.239,-7.03 7.328,0.581 14.852,0.428 22.258,-0.459 0.974,-0.117 1.949,-0.246 2.921,-0.388 4.185,-0.593 8.073,2.289 8.682,6.475 0.609,4.185 -2.289,8.072 -6.475,8.682 -1.096,0.16 -2.197,0.305 -3.303,0.439 -5.075,0.608 -10.214,0.915 -15.281,0.915 z"
         id="path82"
         style="stroke-width:1.0172" />
      <path
         d="m 310.175,361.265 c -2.889,0 -5.654,-1.642 -6.951,-4.435 -1.781,-3.836 -0.116,-8.389 3.72,-10.171 7.613,-3.535 14.841,-7.946 21.484,-13.114 3.338,-2.598 8.15,-1.996 10.746,1.343 2.597,3.339 1.995,8.15 -1.343,10.746 -7.555,5.876 -15.777,10.895 -24.437,14.917 -1.042,0.485 -2.14,0.714 -3.219,0.714 z"
         id="path84"
         style="stroke-width:1.0172" />
      <path
         d="m 357.052,322.343 c -1.543,0 -3.1,-0.466 -4.451,-1.432 -3.439,-2.462 -4.232,-7.245 -1.77,-10.685 4.903,-6.85 9.034,-14.25 12.278,-21.993 1.634,-3.902 6.122,-5.739 10.023,-4.105 3.901,1.634 5.739,6.122 4.104,10.023 -3.687,8.801 -8.38,17.209 -13.95,24.99 -1.495,2.09 -3.847,3.202 -6.234,3.202 z"
         id="path86"
         style="stroke-width:1.0172" />
      <path
         d="m 378.765,265.395 c -0.269,0 -0.54,-0.014 -0.814,-0.043 -4.206,-0.445 -7.255,-4.215 -6.811,-8.421 0.409,-3.877 0.617,-7.824 0.617,-11.731 0,-4.465 -0.271,-8.992 -0.805,-13.456 -0.467,-3.899 -1.141,-7.805 -2.004,-11.609 -0.935,-4.125 1.65,-8.228 5.775,-9.163 4.123,-0.935 8.227,1.65 9.162,5.775 0.979,4.32 1.745,8.753 2.274,13.177 0.606,5.066 0.914,10.205 0.914,15.277 0,4.442 -0.236,8.931 -0.702,13.34 -0.415,3.932 -3.738,6.854 -7.606,6.854 z"
         id="path88"
         style="stroke-width:1.0172" />
    </g>
    <path
       d="m284.576 364.953c-10.376 3.531-21.257 5.967-32.504 7.184 2.501.148 5.016.247 7.519.247 5.067 0 10.206-.307 15.283-.914 1.106-.134 2.207-.279 3.303-.439 3.293-.48 5.781-2.992 6.399-6.078z"
       fill="#2b4d66"
       id="path92" />
    <path
       d="m 309.32231,359.30018 c 1.06076,0 2.1402,-0.22513 3.16556,-0.70193 8.51359,-3.954 16.59658,-8.88815 24.02385,-14.6648 3.28255,-2.55309 3.87339,-7.28276 1.32029,-10.5653 -0.39815,-0.51121 -0.85332,-0.94967 -1.3429,-1.32914 -10.11701,9.187 -21.50221,16.99964 -33.85379,23.16265 1.32422,2.57964 3.94318,4.09852 6.68699,4.09852 z"
       fill="#2b4d66"
       id="path94"
       style="stroke-width:1" />
    <path
       d="m 371.88734,283.79076 c -5.7973,12.57868 -13.2865,24.21457 -22.17956,34.61668 0.38537,0.44829 0.82186,0.86119 1.32324,1.221 1.32816,0.94967 2.85883,1.40779 4.37575,1.40779 2.34664,0 4.65888,-1.09418 6.1286,-3.14787 5.47583,-7.64944 10.08948,-15.91529 13.71415,-24.56749 1.51003,-3.60205 0.006,-7.71335 -3.36218,-9.53011 z"
       fill="#2b4d66"
       id="path96"
       style="stroke-width:1" />
    <path
       d="m386.372 258.54c.466-4.409.702-8.898.702-13.34 0-2.602-.084-5.221-.244-7.839-1.026 9.497-2.927 18.731-5.618 27.623 2.74-.931 4.836-3.376 5.16-6.444z"
       fill="#2b4d66"
       id="path98" />
    <path
       d="m167.492 360.325v-13.533c-4.556 14.024-12.575 26.485-23.054 36.372.07.001.139.005.209.005 12.597.001 22.845-10.247 22.845-22.844z"
       fill="#e4f6ff"
       id="path100" />
    <g
       id="g104"
       transform="matrix(1.1796027,0,0,1.1796027,-29.527766,-93.465752)"
       style="stroke-width:0.847743">
      <circle
         cx="215.43201"
         cy="425.03699"
         fill="#b3e59f"
         r="86.962997"
         id="circle102"
         style="stroke-width:0.718668" />
    </g>
    <g
       id="g108"
       transform="translate(0,-24)">
      <path
         d="m 260.935,350.927 c 8.146,13.238 12.852,28.819 12.852,45.503 0,48.028 -38.935,86.963 -86.963,86.963 -16.684,0 -32.265,-4.707 -45.503,-12.852 15.303,24.871 42.766,41.46 74.11,41.46 48.028,0 86.963,-38.935 86.963,-86.963 10e-4,-31.345 -16.588,-58.808 -41.459,-74.111 z"
         fill="#95d6a4"
         id="path106" />
    </g>
    <g
       id="g128">
      <g
         id="g114">
        <g
           id="g112">
          <path
             d="m 204.27657,446.60827 c -11.47754,0 -12.38583,-0.30316 -13.59021,-0.70423 -2.89474,-0.96491 -5.14542,-3.25098 -6.02659,-6.1186 -1.49337,-4.85524 0.79152,-7.84671 4.57686,-12.8034 2.94193,-3.85259 8.42001,-11.02457 17.60085,-24.14293 2.97968,-4.25719 4.19821,-7.25456 4.68892,-9.10535 l 0.13212,-1.03452 c -0.22766,-3.0186 -2.75673,-5.40376 -5.83078,-5.40376 -2.78858,0 -5.20204,1.9782 -5.73758,4.70544 -0.96256,4.89535 -5.71518,8.08618 -10.60463,7.12362 -4.89653,-0.96256 -8.085,-5.70928 -7.12362,-10.60463 2.19524,-11.17791 12.06379,-19.29122 23.46701,-19.29122 13.18678,0 23.91527,10.72849 23.91527,23.91526 0,0.38337 -0.0236,0.76557 -0.0731,1.1454 l -0.28782,2.2495 c -0.0377,0.3008 -0.092,0.60042 -0.16043,0.89532 -1.13477,4.89299 -3.68625,10.19648 -7.5813,15.76421 -4.46008,6.37339 -8.07084,11.38081 -10.95615,15.30534 3.97762,-0.0224 8.27373,-0.0625 12.37639,-0.11324 0.0378,-0.001 0.0779,-0.001 0.1156,-0.001 4.93664,0 8.96852,3.96937 9.03104,8.92134 0.0625,4.98854 -3.93162,9.08294 -8.92016,9.14546 -8.39405,0.10498 -14.51501,0.15217 -19.01165,0.15217 z"
             fill="#f4fbff"
             id="path110"
             style="stroke-width:1" />
        </g>
      </g>
      <g
         id="g120">
        <g
           id="g118">
          <path
             d="m 268.85392,447.49061 c -14.25432,0 -25.851,-11.59667 -25.851,-25.85099 v -26.89495 c 0,-14.25549 11.59668,-25.85217 25.851,-25.85217 14.25432,0 25.85099,11.59668 25.85099,25.85217 v 26.89495 c 0,14.25314 -11.59667,25.85099 -25.85099,25.85099 z m 0,-60.53131 c -4.29258,0 -7.7842,3.4928 -7.7842,7.7842 v 26.89494 c 0,4.29257 3.49162,7.78302 7.7842,7.78302 4.29257,0 7.78419,-3.49163 7.78419,-7.78302 V 394.7435 c 0,-4.2914 -3.49162,-7.7842 -7.78419,-7.7842 z"
             fill="#f4fbff"
             id="path116"
             style="stroke-width:1" />
        </g>
      </g>
      <g
         id="g126">
        <g
           id="g124">
          <path
             d="m 169.89115,420.82333 h -12.12278 c -4.98854,0 -9.0334,-4.04368 -9.0334,-9.0334 0,-4.98972 4.04486,-9.03339 9.0334,-9.03339 h 12.12278 c 4.98854,0 9.0334,4.04367 9.0334,9.03339 0,4.98854 -4.04368,9.0334 -9.0334,9.0334 z"
             fill="#f4fbff"
             id="path122"
             style="stroke-width:1" />
        </g>
      </g>
    </g>
    <path
       d="m 294.866,424.677 v -22.8 c 0,-2.877 -0.563,-5.623 -1.575,-8.142 -2.167,20.367 -11.362,38.634 -25.117,52.327 1.539,0.344 3.136,0.531 4.777,0.531 12.084,-0.001 21.915,-9.833 21.915,-21.916 z"
       fill="#e4f6ff"
       id="path130" />
    <path
       d="m452.104 98.033v-10.926c-4.37 12.478-11.499 23.659-20.664 32.804 11.504-.652 20.664-10.214 20.664-21.878z"
       fill="#e4f6ff"
       id="path132" />
  </g>
</svg>
