<?xml version="1.0" encoding="UTF-8" standalone="no"?>
<svg
   xmlns:dc="http://purl.org/dc/elements/1.1/"
   xmlns:cc="http://creativecommons.org/ns#"
   xmlns:rdf="http://www.w3.org/1999/02/22-rdf-syntax-ns#"
   xmlns:svg="http://www.w3.org/2000/svg"
   xmlns="http://www.w3.org/2000/svg"
   xmlns:sodipodi="http://sodipodi.sourceforge.net/DTD/sodipodi-0.dtd"
   xmlns:inkscape="http://www.inkscape.org/namespaces/inkscape"
   viewBox="0 0 62.5 62.5"
   width="500"
   height="500"
   version="1.1"
   id="svg7"
   sodipodi:docname="buscar-foto.svg"
   inkscape:version="1.0.2-2 (e86c870879, 2021-01-15)">
  <metadata
     id="metadata13">
    <rdf:RDF>
      <cc:Work
         rdf:about="">
        <dc:format>image/svg+xml</dc:format>
        <dc:type
           rdf:resource="http://purl.org/dc/dcmitype/StillImage" />
        <dc:title />
      </cc:Work>
    </rdf:RDF>
  </metadata>
  <defs
     id="defs11" />
  <sodipodi:namedview
     pagecolor="#ffffff"
     bordercolor="#666666"
     borderopacity="1"
     objecttolerance="10"
     gridtolerance="10"
     guidetolerance="10"
     inkscape:pageopacity="0"
     inkscape:pageshadow="2"
     inkscape:window-width="1920"
     inkscape:window-height="1027"
     id="namedview9"
     showgrid="false"
     inkscape:pagecheckerboard="true"
     inkscape:zoom="0.83984375"
     inkscape:cx="104.93024"
     inkscape:cy="87.83368"
     inkscape:window-x="1272"
     inkscape:window-y="-8"
     inkscape:window-maximized="1"
     inkscape:current-layer="svg7"
     inkscape:document-rotation="0" />
  <g
     id="_12"
     data-name="12"
     style="fill:#dbdfea;fill-opacity:1;stroke-width:2.1345"
     transform="matrix(0.46849358,0,0,0.46849358,17.009746,17.272842)">
    <path
       d="m 55,48 a 5,5 0 0 0 4.6,-3 V 44.93 A 5,5 0 0 0 60,43 V 18 A 5,5 0 0 0 55,13 H 44.92 A 6,6 0 0 0 39,8 H 25 a 6,6 0 0 0 -5.92,5 H 9 a 5,5 0 0 0 -5,5 v 25 a 5,5 0 0 0 5,5 h 22.08 a 1,1 0 0 0 0,-2 H 9 A 3,3 0 0 1 6,43 V 18 a 3,3 0 0 1 3,-3 h 11 a 1,1 0 0 0 1,-1 4,4 0 0 1 4,-4 h 14 a 4,4 0 0 1 4,4 1,1 0 0 0 1,1 h 11 a 3,3 0 0 1 3,3 v 25 a 2.83,2.83 0 0 1 -0.23,1.14 0.36,0.36 0 0 0 0,0.09 A 3,3 0 0 1 55.08,46 11.49,11.49 0 0 0 44.5,30 11.72,11.72 0 0 0 42.93,30.11 10.34,10.34 0 0 0 43,29 9.71,9.71 0 0 0 42.82,27.08 11,11 0 1 0 30.08,39.82 h 0.17 a 1.003606,1.003606 0 0 0 0.17,-2 A 9,9 0 1 1 40.86,27.44 8.54,8.54 0 0 1 41,29 8.93,8.93 0 0 1 40.83,30.63 11.45,11.45 0 0 0 33.42,38.44 11.19,11.19 0 0 0 33,41.5 a 11.9,11.9 0 0 0 0.15,1.79 11.44,11.44 0 0 0 1.56,4.23 v 0 a 11.46,11.46 0 0 0 17.17,2.76 l 6.41,6.42 a 1,1 0 0 0 1.42,0 1,1 0 0 0 0,-1.42 l -6.41,-6.4 c 0.23,-0.28 0.45,-0.59 0.65,-0.89 z M 36.41,46.47 A 9.46,9.46 0 0 1 35,41.47 9.77,9.77 0 0 1 35.34,39 9.51,9.51 0 0 1 42,32.34 9.63,9.63 0 0 1 44.5,32 9.5,9.5 0 1 1 36.41,46.47 Z"
       id="path2"
       style="fill:#dbdfea;fill-opacity:1;stroke-width:2.1345" />
    <path
       d="m 52,24 a 3,3 0 0 0 0,-6 h -3 a 3,3 0 0 0 0,6 z m -4,-3 a 1,1 0 0 1 1,-1 h 3 a 1,1 0 0 1 0,2 h -3 a 1,1 0 0 1 -1,-1 z"
       id="path4"
       style="fill:#dbdfea;fill-opacity:1;stroke-width:2.1345" />
  </g>
</svg>
