<?xml version="1.0" encoding="UTF-8" standalone="no"?>
<svg
   xmlns:dc="http://purl.org/dc/elements/1.1/"
   xmlns:cc="http://creativecommons.org/ns#"
   xmlns:rdf="http://www.w3.org/1999/02/22-rdf-syntax-ns#"
   xmlns:svg="http://www.w3.org/2000/svg"
   xmlns="http://www.w3.org/2000/svg"
   xmlns:sodipodi="http://sodipodi.sourceforge.net/DTD/sodipodi-0.dtd"
   xmlns:inkscape="http://www.inkscape.org/namespaces/inkscape"
   height="500"
   viewBox="0 0 62.5 62.5"
   width="500"
   version="1.1"
   id="svg17"
   sodipodi:docname="buscar-archivo.svg"
   inkscape:version="1.0.2-2 (e86c870879, 2021-01-15)">
  <metadata
     id="metadata23">
    <rdf:RDF>
      <cc:Work
         rdf:about="">
        <dc:format>image/svg+xml</dc:format>
        <dc:type
           rdf:resource="http://purl.org/dc/dcmitype/StillImage" />
        <dc:title />
      </cc:Work>
    </rdf:RDF>
  </metadata>
  <defs
     id="defs21" />
  <sodipodi:namedview
     pagecolor="#ffffff"
     bordercolor="#666666"
     borderopacity="1"
     objecttolerance="10"
     gridtolerance="10"
     guidetolerance="10"
     inkscape:pageopacity="0"
     inkscape:pageshadow="2"
     inkscape:window-width="1920"
     inkscape:window-height="1027"
     id="namedview19"
     showgrid="false"
     inkscape:pagecheckerboard="true"
     inkscape:zoom="0.59385921"
     inkscape:cx="256"
     inkscape:cy="256"
     inkscape:window-x="1272"
     inkscape:window-y="-8"
     inkscape:window-maximized="1"
     inkscape:current-layer="svg17"
     inkscape:document-rotation="0" />
  <g
     id="_06"
     data-name="06"
     style="fill:#dbdfea;fill-opacity:1;stroke-width:1.87277"
     transform="matrix(0.53396857,0,0,0.53396857,12.511498,14.664357)">
    <path
       d="M 59.71,58.29 53.3,51.89 A 11.48,11.48 0 0 0 51,35 V 5 A 1,1 0 0 0 50,4 H 14 a 1,1 0 0 0 -1,1 v 54 a 1,1 0 0 0 1,1 h 36 a 1,1 0 0 0 0,-2 H 15 V 6 h 34 v 27.92 a 11.5,11.5 0 1 0 2.89,19.38 l 6.4,6.41 a 1,1 0 0 0 1.42,0 1,1 0 0 0 0,-1.42 z M 35,44.5 A 9.5,9.5 0 1 1 44.5,54 9.51,9.51 0 0 1 35,44.5 Z"
       id="path2"
       style="fill:#dbdfea;fill-opacity:1;stroke-width:1.87277" />
    <path
       d="m 22,13 h 20 a 1,1 0 0 0 0,-2 H 22 a 1,1 0 0 0 0,2 z"
       id="path4"
       style="fill:#dbdfea;fill-opacity:1;stroke-width:1.87277" />
    <path
       d="m 22,23 h 20 a 1,1 0 0 0 0,-2 H 22 a 1,1 0 0 0 0,2 z"
       id="path6"
       style="fill:#dbdfea;fill-opacity:1;stroke-width:1.87277" />
    <path
       d="m 22,30 h 20 a 1,1 0 0 0 0,-2 H 22 a 1,1 0 0 0 0,2 z"
       id="path8"
       style="fill:#dbdfea;fill-opacity:1;stroke-width:1.87277" />
    <path
       d="M 33,36 A 1,1 0 0 0 32,35 H 22 a 1,1 0 0 0 0,2 h 10 a 1,1 0 0 0 1,-1 z"
       id="path10"
       style="fill:#dbdfea;fill-opacity:1;stroke-width:1.87277" />
    <path
       d="m 22,44 h 8 a 1,1 0 0 0 0,-2 h -8 a 1,1 0 0 0 0,2 z"
       id="path12"
       style="fill:#dbdfea;fill-opacity:1;stroke-width:1.87277" />
    <path
       d="m 22,51 h 9 a 1,1 0 0 0 0,-2 h -9 a 1,1 0 0 0 0,2 z"
       id="path14"
       style="fill:#dbdfea;fill-opacity:1;stroke-width:1.87277" />
  </g>
</svg>
