<?xml version="1.0" encoding="UTF-8" standalone="no"?>
<svg
   xmlns:dc="http://purl.org/dc/elements/1.1/"
   xmlns:cc="http://creativecommons.org/ns#"
   xmlns:rdf="http://www.w3.org/1999/02/22-rdf-syntax-ns#"
   xmlns:svg="http://www.w3.org/2000/svg"
   xmlns="http://www.w3.org/2000/svg"
   xmlns:sodipodi="http://sodipodi.sourceforge.net/DTD/sodipodi-0.dtd"
   xmlns:inkscape="http://www.inkscape.org/namespaces/inkscape"
   viewBox="0 0 62.5 62.5"
   width="500"
   height="500"
   version="1.1"
   id="svg7"
   sodipodi:docname="buscar-imagen.svg"
   inkscape:version="1.0.2-2 (e86c870879, 2021-01-15)">
  <metadata
     id="metadata13">
    <rdf:RDF>
      <cc:Work
         rdf:about="">
        <dc:format>image/svg+xml</dc:format>
        <dc:type
           rdf:resource="http://purl.org/dc/dcmitype/StillImage" />
        <dc:title></dc:title>
      </cc:Work>
    </rdf:RDF>
  </metadata>
  <defs
     id="defs11" />
  <sodipodi:namedview
     pagecolor="#ffffff"
     bordercolor="#666666"
     borderopacity="1"
     objecttolerance="10"
     gridtolerance="10"
     guidetolerance="10"
     inkscape:pageopacity="0"
     inkscape:pageshadow="2"
     inkscape:window-width="1920"
     inkscape:window-height="1027"
     id="namedview9"
     showgrid="false"
     inkscape:pagecheckerboard="true"
     inkscape:zoom="0.83984375"
     inkscape:cx="256"
     inkscape:cy="256"
     inkscape:window-x="1272"
     inkscape:window-y="-8"
     inkscape:window-maximized="1"
     inkscape:current-layer="svg7"
     inkscape:document-rotation="0" />
  <path
     d="m 43.556614,40.180902 a 0.46677933,0.46677933 0 0 0 0.46678,-0.466779 V 21.042949 A 0.46677933,0.46677933 0 0 0 43.556614,20.57617 H 18.35053 a 0.46677933,0.46677933 0 0 0 -0.46678,0.466779 v 18.671174 a 0.46677933,0.46677933 0 0 0 0.46678,0.466779 h 12.173604 a 0.4667795,0.4667795 0 0 0 0,-0.933559 H 18.817309 v -4.037641 l 6.604927,-8.369353 4.770485,3.897608 a 0.46677933,0.46677933 0 0 0 0.625484,-0.028 l 6.254845,-6.254843 6.016785,4.29437 V 39.247348 H 41.72684 A 5.3866335,5.3866335 0 1 0 40.237814,41.2545 l 2.987387,2.992056 a 0.46677933,0.46677933 0 0 0 0.662827,0 0.46677933,0.46677933 0 0 0 0,-0.662827 L 40.895972,40.596341 C 41.008,40.460974 41.115359,40.325608 41.213383,40.180907 Z M 37.292437,23.465535 a 0.46677933,0.46677933 0 0 0 -0.602146,0.04667 L 30.454117,29.74838 25.64629,25.818097 a 0.46677933,0.46677933 0 0 0 -0.345416,-0.102691 0.46677933,0.46677933 0 0 0 -0.312743,0.172708 L 18.817309,33.702 V 21.509724 h 24.272526 v 6.096138 z m -4.938528,13.681302 a 4.4344036,4.4344036 0 1 1 4.434405,4.434403 4.4390714,4.4390714 0 0 1 -4.434405,-4.434403 z"
     id="path841"
     style="fill:#dbdfea;fill-opacity:1;stroke-width:1" />
</svg>
