<?xml version="1.0" encoding="UTF-8" standalone="no"?>
<svg
   xmlns:dc="http://purl.org/dc/elements/1.1/"
   xmlns:cc="http://creativecommons.org/ns#"
   xmlns:rdf="http://www.w3.org/1999/02/22-rdf-syntax-ns#"
   xmlns:svg="http://www.w3.org/2000/svg"
   xmlns="http://www.w3.org/2000/svg"
   xmlns:sodipodi="http://sodipodi.sourceforge.net/DTD/sodipodi-0.dtd"
   xmlns:inkscape="http://www.inkscape.org/namespaces/inkscape"
   height="500"
   viewBox="0 0 62.5 62.5"
   width="500"
   version="1.1"
   id="svg5"
   sodipodi:docname="buscar-carpeta.svg"
   inkscape:version="1.0.2-2 (e86c870879, 2021-01-15)">
  <metadata
     id="metadata11">
    <rdf:RDF>
      <cc:Work
         rdf:about="">
        <dc:format>image/svg+xml</dc:format>
        <dc:type
           rdf:resource="http://purl.org/dc/dcmitype/StillImage" />
        <dc:title />
      </cc:Work>
    </rdf:RDF>
  </metadata>
  <defs
     id="defs9" />
  <sodipodi:namedview
     pagecolor="#ffffff"
     bordercolor="#666666"
     borderopacity="1"
     objecttolerance="10"
     gridtolerance="10"
     guidetolerance="10"
     inkscape:pageopacity="0"
     inkscape:pageshadow="2"
     inkscape:window-width="1920"
     inkscape:window-height="1027"
     id="namedview7"
     showgrid="false"
     inkscape:pagecheckerboard="true"
     inkscape:zoom="0.83984375"
     inkscape:cx="256"
     inkscape:cy="256"
     inkscape:window-x="1272"
     inkscape:window-y="-8"
     inkscape:window-maximized="1"
     inkscape:current-layer="svg5"
     inkscape:document-rotation="0" />
  <g
     id="_22"
     data-name="22"
     style="fill:#dbdfea;fill-opacity:1;stroke-width:2.13451"
     transform="matrix(0.46849356,0,0,0.46849356,16.509747,17.041253)">
    <path
       d="M 59,11 H 30.7 L 28.65,9.24 A 1,1 0 0 0 28,9 H 5 a 1,1 0 0 0 -1,1 v 37 a 1,1 0 0 0 1,1 h 26.08 a 1,1 0 0 0 0,-2 H 6 V 11 h 21.63 l 6.72,5.76 A 1,1 0 0 0 35,17 h 23 v 29 h -2.92 a 11.54,11.54 0 1 0 -3.19,4.3 l 6.4,6.41 a 1,1 0 0 0 1.42,0 1,1 0 0 0 0,-1.42 L 53.3,48.89 C 53.54,48.6 53.77,48.31 53.98,48 h 5 a 1,1 0 0 0 1,-1 V 12 A 1,1 0 0 0 59,11 Z M 35,41.5 A 9.5,9.5 0 1 1 44.5,51 9.51,9.51 0 0 1 35,41.5 Z M 35.37,15 33,13 h 25 v 2 z"
       id="path2"
       style="fill:#dbdfea;fill-opacity:1;stroke-width:2.13451" />
  </g>
</svg>
