<?xml version="1.0" encoding="UTF-8" standalone="no"?>
<svg
   xmlns:dc="http://purl.org/dc/elements/1.1/"
   xmlns:cc="http://creativecommons.org/ns#"
   xmlns:rdf="http://www.w3.org/1999/02/22-rdf-syntax-ns#"
   xmlns:svg="http://www.w3.org/2000/svg"
   xmlns="http://www.w3.org/2000/svg"
   xmlns:sodipodi="http://sodipodi.sourceforge.net/DTD/sodipodi-0.dtd"
   xmlns:inkscape="http://www.inkscape.org/namespaces/inkscape"
   x="0px"
   y="0px"
   viewBox="0 0 60 50"
   width="75"
   height="62.5"
   version="1.1"
   id="svg10"
   sodipodi:docname="carpeta-azul.svg"
   inkscape:version="1.0.1 (3bc2e813f5, 2020-09-07)">
  <metadata
     id="metadata16">
    <rdf:RDF>
      <cc:Work
         rdf:about="">
        <dc:format>image/svg+xml</dc:format>
        <dc:type
           rdf:resource="http://purl.org/dc/dcmitype/StillImage" />
        <dc:title></dc:title>
      </cc:Work>
    </rdf:RDF>
  </metadata>
  <defs
     id="defs14" />
  <sodipodi:namedview
     pagecolor="#ffffff"
     bordercolor="#666666"
     borderopacity="1"
     objecttolerance="10"
     gridtolerance="10"
     guidetolerance="10"
     inkscape:pageopacity="0"
     inkscape:pageshadow="2"
     inkscape:window-width="1920"
     inkscape:window-height="1027"
     id="namedview12"
     showgrid="false"
     inkscape:zoom="9.5555556"
     inkscape:cx="37.5"
     inkscape:cy="31.25"
     inkscape:window-x="1272"
     inkscape:window-y="-8"
     inkscape:window-maximized="1"
     inkscape:current-layer="svg10" />
  <path
     fill="#6c87fe"
     d="m 51.5,20 h -23 C 27.1,20 26,18.9 26,17.5 V 7.5 C 26,6.1 27.1,5 28.5,5 h 23 C 52.9,5 54,6.1 54,7.5 v 10 c 0,1.4 -1.1,2.5 -2.5,2.5 z"
     id="path2" />
  <path
     fill="#8aa3ff"
     d="M 53.8,50 H 6.2 C 2.8,50 0,47 0,43.4 V 6.6 C 0,3 2.8,0 6.2,0 h 18.5 c 1.7,0 3.3,1 4.1,2.6 L 32,13 h 21.8 c 3.4,0 6.2,2.4 6.2,6 V 43.4 C 60,47 57.2,50 53.8,50 Z"
     id="path4" />
  <path
     display="none"
     fill="#8aa3ff"
     d="M 56.1,50 H 3.9 C 1.8,50 0,48.2 0,46 0,46 0,14.5 0,4 0,1.8 1.8,0 3.9,0 h 19.3 c 1.6,0 3.2,0.2 3.9,2.3 l 2.7,6.8 c 0.5,1.1 1.6,1.9 2.8,1.9 h 23.5 c 2.2,0 3.9,1.8 3.9,4 v 31 c 0,2.2 -1.8,4 -3.9,4 z"
     id="path6" />
  <path
     fill="#798bff"
     d="m 1.7,48 c 2.2,2.4 4.7,2 6.3,2 h 45 c 1.1,0 3.2,0.1 5.3,-2 z"
     id="path8" />
</svg>
