<?xml version="1.0" encoding="UTF-8" standalone="no"?>
<svg
   xmlns:dc="http://purl.org/dc/elements/1.1/"
   xmlns:cc="http://creativecommons.org/ns#"
   xmlns:rdf="http://www.w3.org/1999/02/22-rdf-syntax-ns#"
   xmlns:svg="http://www.w3.org/2000/svg"
   xmlns="http://www.w3.org/2000/svg"
   xmlns:sodipodi="http://sodipodi.sourceforge.net/DTD/sodipodi-0.dtd"
   xmlns:inkscape="http://www.inkscape.org/namespaces/inkscape"
   width="13.07578"
   height="10.325896"
   viewBox="0 0 13.07578 10.325896"
   fill="none"
   version="1.1"
   id="svg4"
   sodipodi:docname="check-verde.svg"
   inkscape:version="1.0.2-2 (e86c870879, 2021-01-15)">
  <metadata
     id="metadata10">
    <rdf:RDF>
      <cc:Work
         rdf:about="">
        <dc:format>image/svg+xml</dc:format>
        <dc:type
           rdf:resource="http://purl.org/dc/dcmitype/StillImage" />
      </cc:Work>
    </rdf:RDF>
  </metadata>
  <defs
     id="defs8" />
  <sodipodi:namedview
     pagecolor="#ffffff"
     bordercolor="#666666"
     borderopacity="1"
     objecttolerance="10"
     gridtolerance="10"
     guidetolerance="10"
     inkscape:pageopacity="0"
     inkscape:pageshadow="2"
     inkscape:window-width="1920"
     inkscape:window-height="1009"
     id="namedview6"
     showgrid="false"
     inkscape:zoom="38.258879"
     inkscape:cx="6.3720701"
     inkscape:cy="2.2750976"
     inkscape:window-x="1272"
     inkscape:window-y="-8"
     inkscape:window-maximized="1"
     inkscape:current-layer="svg4" />
  <path
     d="M 11.043275,0.32921033 C 11.269229,0.11571793 11.569931,-0.00230897 11.88186,3.4233652e-5 12.193897,0.00237423 12.492675,0.12490643 12.715421,0.34176623 c 0.222639,0.2168608 0.35171,0.5110915 0.359943,0.82060427 0.0082,0.3095192 -0.10501,0.6101025 -0.315779,0.8383392 L 6.3595016,9.9443113 C 6.2494546,10.061952 6.1166304,10.156352 5.9689742,10.221886 5.8213181,10.287406 5.661867,10.322717 5.5001489,10.325688 5.3384307,10.328688 5.1777712,10.299238 5.0277732,10.239188 4.8777752,10.179128 4.7415183,10.089665 4.6271511,9.9761523 L 0.38289445,5.7639709 C 0.26469895,5.6546708 0.16989768,5.5228611 0.10414535,5.376406 0.03839302,5.2299508 0.00303703,5.0718535 1.8719959e-4,4.9115381 -0.00266262,4.7512334 0.02705147,4.5920005 0.08755649,4.4433273 0.14806257,4.2946647 0.2381202,4.1596182 0.35235695,4.0462427 0.46659371,3.9328674 0.60266985,3.8434978 0.75246684,3.7834512 0.90226385,3.723394 1.0627116,3.6939119 1.2242479,3.6967349 c 0.1615257,0.00283 0.320827,0.037919 0.4683977,0.1031766 0.1475706,0.065257 0.2803841,0.159339 0.3905167,0.2766411 L 5.4419975,7.4084079 11.012798,0.36423223 c 0.01005,-0.012256 0.02075,-0.023949 0.03208,-0.035022 z"
     fill="#43cd74"
     id="path2"
     style="stroke-width:1" />
</svg>
