<svg id="Flat" height="512" viewBox="0 0 64 64" width="512" xmlns="http://www.w3.org/2000/svg"><path d="m3.75 42v-34a4 4 0 0 1 4-4h48.5a4 4 0 0 1 4 4v34z" fill="#c9efff"/><path d="m3 42v-34a4.7555 4.7555 0 0 1 4.75-4.75h48.5a4.7555 4.7555 0 0 1 4.75 4.75v34h-1.5v-34a3.2538 3.2538 0 0 0 -3.25-3.25h-48.5a3.2538 3.2538 0 0 0 -3.25 3.25v34z" fill="#696e82"/><path d="m3 44a4 4 0 0 0 4 4h50a4 4 0 0 0 4-4v-4h-58z" fill="#696e82"/><path d="m19 56h26v4h-26z" fill="#696e82"/><path d="m25 48h14v8h-14z" fill="#5b6172"/><path d="m27.75 14.75v-2.5a4.25 4.25 0 0 1 8.5 0v2.5h-1.5v-2.5a2.75 2.75 0 0 0 -5.5 0v2.5z" fill="#5b6172"/><path d="m14.5 26h35v10h-35z" fill="#f8faff"/><g fill="#5b6172"><path d="m22.03 28.97a.75.75 0 0 0 -1.0606 0l-.97.97-.97-.97a.75.75 0 0 0 -1.0594 1.06l.97.97-.97.97a.75.75 0 1 0 1.06 1.06l.97-.97.97.97a.75.75 0 1 0 1.06-1.06l-.97-.97.97-.97a.75.75 0 0 0 0-1.06z"/><path d="m30.03 28.97a.75.75 0 0 0 -1.0606 0l-.97.97-.97-.97a.75.75 0 0 0 -1.0594 1.06l.97.97-.97.97a.75.75 0 1 0 1.06 1.06l.97-.97.97.97a.75.75 0 1 0 1.06-1.06l-.97-.97.97-.97a.75.75 0 0 0 0-1.06z"/><path d="m38.03 28.97a.75.75 0 0 0 -1.0606 0l-.97.97-.97-.97a.75.75 0 1 0 -1.0594 1.06l.97.97-.97.97a.75.75 0 1 0 1.06 1.06l.97-.97.97.97a.75.75 0 1 0 1.06-1.06l-.97-.97.97-.97a.75.75 0 0 0 0-1.06z"/><path d="m45.0605 31 .97-.97a.75.75 0 0 0 -1.0605-1.06l-.97.97-.97-.97a.75.75 0 1 0 -1.06 1.06l.97.97-.97.97a.75.75 0 1 0 1.06 1.06l.97-.97.97.97a.75.75 0 1 0 1.06-1.06z"/></g><path d="m26.5 14h11v8h-11z" fill="#ffd24a"/><circle cx="32" cy="18" fill="#5b6172" r="1"/></svg>