<?xml version="1.0" encoding="iso-8859-1"?>
<!-- Generator: Adobe Illustrator 19.0.0, SVG Export Plug-In . SVG Version: 6.00 Build 0)  -->
<svg version="1.1" id="Capa_1" xmlns="http://www.w3.org/2000/svg" xmlns:xlink="http://www.w3.org/1999/xlink" x="0px" y="0px"
	 viewBox="0 0 512 512" style="enable-background:new 0 0 512 512;" xml:space="preserve">
<path style="fill:#575C62;" d="M274.05,106.839c-0.001,0-0.001,0-0.001,0l-36.105-0.01c-1.018,0-2.025-0.2-2.966-0.586
	c-20.762-8.545-34.177-28.579-34.177-51.04C200.802,24.764,225.566,0,256.004,0c30.433,0,55.192,24.763,55.192,55.202
	c0,22.454-13.414,42.492-34.174,51.048C276.079,106.638,275.069,106.839,274.05,106.839z M239.559,91.235l32.877,0.009
	C286.557,84.809,295.6,70.82,295.6,55.202c0-21.84-17.764-39.609-39.598-39.609c-21.84,0-39.609,17.768-39.609,39.609
	C216.395,70.823,225.438,84.809,239.559,91.235z"/>
<path style="fill:#909599;" d="M190.111,155.013l-17.241-32.192l-0.281-0.523c-3.143-5.868-10.448-8.078-16.316-4.935l-10.576,5.664
	c-5.869,3.143-8.078,10.448-4.935,16.316l0.273,0.511l17.248,32.205L190.111,155.013z"/>
<path style="fill:#777E84;" d="M172.837,163.742l-17.248-32.205l-0.273-0.51c-2.566-4.79-1.563-10.535,2.083-14.195
	c-0.38,0.156-0.757,0.333-1.127,0.53l-10.576,5.664c-5.869,3.143-8.078,10.448-4.935,16.316l0.273,0.51l17.248,32.205l31.828-17.045
	l-0.217-0.405L172.837,163.742z"/>
<path style="fill:#909599;" d="M274.05,143.01v-36.519V67.11c0-6.658-5.397-12.054-12.054-12.054h-11.997
	c-6.658,0-12.054,5.397-12.054,12.054v39.367v36.532L274.05,143.01L274.05,143.01z"/>
<path style="fill:#777E84;" d="M255.993,67.11c0-5.611,3.838-10.312,9.029-11.656c-0.968-0.251-1.978-0.398-3.025-0.398h-11.997
	c-6.658,0-12.054,5.397-12.054,12.054v39.367v36.532h18.047v-36.532V67.11z"/>
<circle style="fill:#BDC4CE;" cx="256" cy="316.276" r="195.724"/>
<path style="fill:#ABB2BA;" d="M82.107,316.275c0-104.431,81.792-189.752,184.809-195.417c-3.614-0.199-7.252-0.308-10.916-0.308
	c-108.096,0-195.724,87.629-195.724,195.724c0,108.096,87.628,195.724,195.724,195.724c3.664,0,7.302-0.109,10.916-0.308
	C163.898,506.028,82.107,420.707,82.107,316.275z"/>
<path style="fill:#E6E6E6;" d="M429.262,316.275c0,47.832-19.399,91.152-50.753,122.506v0.01
	c-31.354,31.365-74.664,50.753-122.506,50.753c-95.695,0-173.269-77.574-173.269-173.269s77.575-173.269,173.269-173.269
	C351.687,143.006,429.262,220.58,429.262,316.275z"/>
<path style="fill:#F2F2F2;" d="M308.24,437.306c-95.695,0-173.269-77.574-173.269-173.269c0-34.479,10.073-66.605,27.434-93.598
	c-47.925,30.822-79.67,84.62-79.67,145.835c0,95.695,77.575,173.269,173.269,173.269c47.842,0,91.152-19.388,122.506-50.753v-0.01
	c8.752-8.752,16.57-18.438,23.297-28.893C374.819,427.241,342.706,437.306,308.24,437.306z"/>
<path style="fill:#EF332D;" d="M429.262,316.275c0,34.483-10.084,66.617-27.456,93.615c-6.726,10.458-14.544,20.137-23.297,28.89
	L256.003,316.275V143.006C351.687,143.006,429.262,220.58,429.262,316.275z"/>
<g>
	<path style="fill:#3F3E46;" d="M256,467.032c-4.306,0-7.797-3.491-7.797-7.797v-40.092c0-4.306,3.491-7.797,7.797-7.797
		s7.797,3.491,7.797,7.797v40.092C263.797,463.541,260.306,467.032,256,467.032z"/>
	<path style="fill:#3F3E46;" d="M256,221.204c-4.306,0-7.797-3.491-7.797-7.797v-40.092c0-4.306,3.491-7.797,7.797-7.797
		s7.797,3.491,7.797,7.797v40.092C263.797,217.713,260.306,221.204,256,221.204z"/>
	<path style="fill:#3F3E46;" d="M327.487,447.881c-2.695,0-5.315-1.398-6.759-3.9l-9.496-16.446
		c-2.153-3.729-0.875-8.498,2.854-10.651c3.729-2.154,8.497-0.875,10.651,2.854l9.496,16.446c2.153,3.729,0.875,8.498-2.854,10.651
		C330.15,447.544,328.81,447.881,327.487,447.881z"/>
	<path style="fill:#3F3E46;" d="M194.023,216.713c-2.695,0-5.315-1.398-6.759-3.9l-9.496-16.446
		c-2.153-3.729-0.875-8.498,2.854-10.651c3.729-2.153,8.498-0.876,10.651,2.854l9.496,16.446c2.153,3.729,0.875,8.498-2.854,10.651
		C196.686,216.376,195.345,216.713,194.023,216.713z"/>
	<path style="fill:#3F3E46;" d="M379.8,395.554c-1.322,0-2.663-0.337-3.891-1.046l-16.446-9.496
		c-3.729-2.153-5.007-6.922-2.854-10.651s6.922-5.008,10.651-2.854l16.446,9.496c3.729,2.153,5.007,6.922,2.854,10.651
		C385.115,394.155,382.495,395.554,379.8,395.554z"/>
	<path style="fill:#3F3E46;" d="M148.632,262.089c-1.322,0-2.663-0.337-3.891-1.046l-16.446-9.496
		c-3.729-2.153-5.007-6.922-2.854-10.651s6.922-5.008,10.651-2.854l16.446,9.496c3.729,2.153,5.007,6.922,2.854,10.651
		C153.947,260.69,151.326,262.089,148.632,262.089z"/>
	<path style="fill:#3F3E46;" d="M363.367,262.089c-2.695,0-5.315-1.398-6.759-3.9c-2.153-3.729-0.875-8.498,2.854-10.651
		l16.446-9.496c3.729-2.154,8.498-0.875,10.651,2.854c2.153,3.729,0.875,8.498-2.854,10.651l-16.446,9.496
		C366.031,261.752,364.691,262.089,363.367,262.089z"/>
	<path style="fill:#3F3E46;" d="M132.2,395.554c-2.695,0-5.315-1.398-6.759-3.9c-2.153-3.729-0.875-8.498,2.854-10.651l16.446-9.496
		c3.729-2.154,8.498-0.876,10.651,2.854c2.153,3.729,0.875,8.498-2.854,10.651l-16.446,9.496
		C134.863,395.217,133.522,395.554,132.2,395.554z"/>
	<path style="fill:#3F3E46;" d="M317.977,216.713c-1.322,0-2.663-0.337-3.891-1.046c-3.729-2.153-5.007-6.922-2.854-10.651
		l9.496-16.446c2.153-3.73,6.922-5.008,10.651-2.854c3.729,2.153,5.007,6.922,2.854,10.651l-9.496,16.446
		C323.293,215.314,320.672,216.713,317.977,216.713z"/>
	<path style="fill:#3F3E46;" d="M184.512,447.881c-1.322,0-2.663-0.337-3.891-1.046c-3.729-2.153-5.007-6.922-2.854-10.651
		l9.496-16.446c2.152-3.729,6.921-5.008,10.651-2.854c3.729,2.153,5.007,6.922,2.854,10.651l-9.496,16.446
		C189.828,446.482,187.207,447.881,184.512,447.881z"/>
	<path style="fill:#3F3E46;" d="M153.131,324.072h-40.092c-4.306,0-7.797-3.491-7.797-7.797s3.491-7.797,7.797-7.797h40.092
		c4.306,0,7.797,3.491,7.797,7.797S157.437,324.072,153.131,324.072z"/>
	<path style="fill:#3F3E46;" d="M398.96,324.072h-40.092c-4.306,0-7.797-3.491-7.797-7.797s3.491-7.797,7.797-7.797h40.092
		c4.306,0,7.797,3.491,7.797,7.797S403.266,324.072,398.96,324.072z"/>
</g>
<path style="fill:#626A70;" d="M326.976,395.045c-1.995,0-3.99-0.761-5.513-2.283l-57.271-57.267c-3.045-3.045-3.045-7.982,0-11.027
	c3.046-3.045,7.981-3.045,11.027,0l57.271,57.267c3.045,3.045,3.045,7.982,0,11.027
	C330.967,394.283,328.971,395.045,326.976,395.045z"/>
<path style="fill:#FF3D40;" d="M401.806,409.89c-6.726,10.458-14.544,20.137-23.297,28.89l-11.643-11.643
	C379.226,422.698,390.932,416.887,401.806,409.89z"/>
<circle style="fill:#3F3E46;" cx="256" cy="316.276" r="26.734"/>
<g>
</g>
<g>
</g>
<g>
</g>
<g>
</g>
<g>
</g>
<g>
</g>
<g>
</g>
<g>
</g>
<g>
</g>
<g>
</g>
<g>
</g>
<g>
</g>
<g>
</g>
<g>
</g>
<g>
</g>
</svg>
