<?xml version="1.0" encoding="UTF-8" standalone="no"?>
<svg
   xmlns:dc="http://purl.org/dc/elements/1.1/"
   xmlns:cc="http://creativecommons.org/ns#"
   xmlns:rdf="http://www.w3.org/1999/02/22-rdf-syntax-ns#"
   xmlns:svg="http://www.w3.org/2000/svg"
   xmlns="http://www.w3.org/2000/svg"
   xmlns:sodipodi="http://sodipodi.sourceforge.net/DTD/sodipodi-0.dtd"
   xmlns:inkscape="http://www.inkscape.org/namespaces/inkscape"
   id="Icons"
   height="512"
   viewBox="0 0 512 512"
   width="512"
   version="1.1"
   sodipodi:docname="cupones.svg"
   inkscape:version="1.0.2-2 (e86c870879, 2021-01-15)">
  <metadata
     id="metadata79">
    <rdf:RDF>
      <cc:Work
         rdf:about="">
        <dc:format>image/svg+xml</dc:format>
        <dc:type
           rdf:resource="http://purl.org/dc/dcmitype/StillImage" />
      </cc:Work>
    </rdf:RDF>
  </metadata>
  <defs
     id="defs77" />
  <sodipodi:namedview
     pagecolor="#ffffff"
     bordercolor="#666666"
     borderopacity="1"
     objecttolerance="10"
     gridtolerance="10"
     guidetolerance="10"
     inkscape:pageopacity="0"
     inkscape:pageshadow="2"
     inkscape:window-width="1920"
     inkscape:window-height="1009"
     id="namedview75"
     showgrid="false"
     inkscape:zoom="0.28295791"
     inkscape:cx="229.13156"
     inkscape:cy="228.608"
     inkscape:window-x="1272"
     inkscape:window-y="-8"
     inkscape:window-maximized="1"
     inkscape:current-layer="Icons" />
  <circle
     cx="256"
     cy="256"
     fill="#15be79"
     r="256"
     id="circle2" />
  <path
     d="m473.68 390.75c-71.29 115.35-221.33 155.62-341.35 89.39-118.33-65.31-164.69-210.56-108.8-331.37 23.47-6.59 44.35-24.39 69-25.9 26.49-1.64 52.5 19 56.89 45.21 3 17.77-2.95 36.3 1.09 53.87 4.47 19.46 22.12 35.15 42 37.31 7.87.86 16.08-.18 23.55 2.46 11.3 4 18.38 15.41 29.14 20.68 13.09 6.42 28.85 2.51 42.25-3.28s26.49-13.45 41-14.47c25.16-1.75 47.93 17.61 58.25 40.61 7.64 17 10.51 36.8 23.32 50.31 16.76 17.7 45.85 19.43 63.66 35.18z"
     fill="#14a36d"
     id="path4" />
  <g
     id="g968"
     transform="matrix(1.2310656,0,0,1.2310656,-84.418999,-67.941152)"
     style="stroke-width:0.812304">
    <rect
       fill="#efb659"
       height="303.07333"
       rx="10.218565"
       transform="rotate(-30.000728)"
       width="139.26694"
       x="86.419411"
       y="215.40422"
       id="rect6"
       ry="10.218565"
       style="stroke-width:0.812286" />
    <g
       id="g945"
       style="stroke-width:0.812304">
      <path
         d="m 443.81,342.47 -95.26,55 -136.9,-237.12 a 12.58,12.58 0 0 1 4.61,-17.18 l 95.25,-55 136.9,237.12 a 12.57,12.57 0 0 1 -4.6,17.18 z"
         fill="#fbcb74"
         id="path8"
         style="stroke-width:0.633117" />
      <path
         d="M 443.81,342.47 345,399.53 a 12.57,12.57 0 0 1 -17.18,-4.6 L 209.56,190.13 330.17,120.5 448.41,325.29 a 12.57,12.57 0 0 1 -4.6,17.18 z"
         fill="#decee5"
         id="path10"
         style="stroke-width:0.633117" />
      <path
         d="m 443.81,342.47 -95.26,55 L 224,181.78 330.17,120.5 448.41,325.29 a 12.57,12.57 0 0 1 -4.6,17.18 z"
         fill="#ebd9ea"
         id="path12"
         style="stroke-width:0.633117" />
      <path
         d="m 317.69,127.7 a 3.33,3.33 0 0 1 0.94,-4.58 l 4.6,-2.66 a 3.53,3.53 0 0 1 3.5,6.07 l -4.6,2.65 a 3.32,3.32 0 0 1 -4.44,-1.48 z"
         fill="#f39e22"
         id="path14"
         style="stroke-width:0.633117" />
      <path
         d="m 237.93,173.75 a 3.31,3.31 0 0 1 0.94,-4.58 l 8.86,-5.11 a 3.53,3.53 0 0 1 3.5,6.06 l -8.86,5.12 a 3.33,3.33 0 0 1 -4.44,-1.49 z m 26.59,-15.35 a 3.32,3.32 0 0 1 0.93,-4.58 l 8.87,-5.11 a 3.53,3.53 0 0 1 3.5,6.06 l -8.82,5.11 a 3.31,3.31 0 0 1 -4.48,-1.48 z m 26.59,-15.35 a 3.32,3.32 0 0 1 0.93,-4.58 l 8.86,-5.11 a 3.52,3.52 0 0 1 3.5,6.06 l -8.86,5.11 a 3.3,3.3 0 0 1 -4.43,-1.48 z"
         fill="#f39e22"
         id="path16"
         style="stroke-width:0.633117" />
      <path
         d="m 215.6,186.64 a 3.33,3.33 0 0 1 0.94,-4.58 l 4.6,-2.65 a 3.53,3.53 0 0 1 3.5,6.06 l -4.6,2.66 a 3.33,3.33 0 0 1 -4.44,-1.49 z"
         fill="#f39e22"
         id="path18"
         style="stroke-width:0.633117" />
      <ellipse
         cx="208.23949"
         cy="418.6925"
         fill="#f4e6f4"
         rx="14.779675"
         ry="39.789127"
         transform="rotate(-30.000728)"
         id="ellipse20"
         style="stroke-width:0.812286" />
      <ellipse
         cx="208.2377"
         cy="487.28168"
         fill="#f4e6f4"
         rx="8.5898113"
         ry="23.119492"
         transform="rotate(-30.000728)"
         id="ellipse22"
         style="stroke-width:0.812286" />
      <path
         d="m 280.61,177 q 2.83,-8 13.66,-14.27 c 12.74,-7.44 25,-7.17 32.41,5.49 7.24,12.76 1.44,23.6 -11.39,30.92 q -10.82,6.24 -19.22,4.64 C 285.22,202.26 276.48,187.2 280.61,177 Z m 16.85,15.64 q 4.25,-0.07 11.59,-4.31 7.14,-4.13 9.34,-7.84 c 3.11,-4.63 -0.85,-11.58 -6.39,-11.2 -5,-0.3 -18.79,7.69 -21,12.13 -3.14,4.58 1,11.64 6.46,11.25 z M 258,220 c -5.86,-3.25 -2.6,-10.89 3.75,-10.47 l 85.6,0.09 c 6.05,-0.43 9.6,6.9 4.05,10.31 a 7.86,7.86 0 0 1 -4.06,1 l -85.6,-0.09 A 7.62,7.62 0 0 1 258,220 Z m 22.58,25.45 q 2.83,-8 13.76,-14.33 c 12.7,-7.45 24.93,-7 32.31,5.55 7.24,12.78 1.36,23.5 -11.45,30.82 q -10.82,6.24 -19.19,4.69 c -10.87,-1.46 -19.59,-16.57 -15.46,-26.7 z m 16.82,15.59 q 4.28,0 11.62,-4.26 7.14,-4.12 9.34,-7.84 c 3.11,-4.68 -0.87,-11.58 -6.47,-11.23 -5.14,-0.32 -18.76,7.6 -21,12.11 -3.04,4.66 0.94,11.56 6.48,11.25 z"
         fill="#dd5e26"
         id="path24"
         style="stroke-width:0.633117" />
      <path
         d="M 411.61,335.22 354.56,434 a 12.58,12.58 0 0 1 -17.19,4.62 l -240.69,-139 a 12.57,12.57 0 0 1 -4.59,-17.18 l 57,-98.83 a 12.58,12.58 0 0 1 17.18,-4.6 L 407,318 a 12.57,12.57 0 0 1 4.61,17.22 z"
         fill="#fbcb74"
         id="path26"
         style="stroke-width:0.633117" />
      <path
         d="m 411.61,335.22 -55,95.26 -237.11,-136.9 a 12.58,12.58 0 0 1 -4.6,-17.18 l 55,-95.26 L 407,318 a 12.57,12.57 0 0 1 4.61,17.22 z"
         fill="#fad98f"
         id="path28"
         style="stroke-width:0.633117" />
      <path
         d="M 411.61,335.22 354.56,434 a 12.58,12.58 0 0 1 -17.19,4.62 L 132.58,320.42 202.22,199.8 407,318 a 12.57,12.57 0 0 1 4.61,17.22 z"
         fill="#decee5"
         id="path30"
         style="stroke-width:0.633117" />
      <path
         d="m 411.61,335.22 -55,95.26 L 140.93,306 202.22,199.8 407,318 a 12.57,12.57 0 0 1 4.61,17.22 z"
         fill="#f4e6f4"
         id="path32"
         style="stroke-width:0.633117" />
      <path
         d="m 195,212.28 a 3.32,3.32 0 0 1 -1.48,-4.43 l 2.66,-4.6 a 3.52,3.52 0 0 1 6.06,3.5 l -2.65,4.6 a 3.33,3.33 0 0 1 -4.59,0.93 z"
         fill="#f39e22"
         id="path34"
         style="stroke-width:0.633117" />
      <path
         d="m 149,292.05 a 3.33,3.33 0 0 1 -1.48,-4.44 l 5.12,-8.86 a 3.53,3.53 0 0 1 6.06,3.5 l -5.12,8.86 a 3.31,3.31 0 0 1 -4.58,0.94 z m 15.35,-26.59 a 3.32,3.32 0 0 1 -1.48,-4.43 l 5.12,-8.87 a 3.53,3.53 0 0 1 6.06,3.5 l -5.12,8.87 a 3.31,3.31 0 0 1 -4.62,0.93 z m 15.35,-26.59 a 3.32,3.32 0 0 1 -1.48,-4.43 l 5.12,-8.86 a 3.52,3.52 0 0 1 6.06,3.49 l -5.12,8.87 a 3.31,3.31 0 0 1 -4.62,0.93 z"
         fill="#f39e22"
         id="path36"
         style="stroke-width:0.633117" />
      <path
         d="m 136.07,314.38 a 3.33,3.33 0 0 1 -1.48,-4.44 l 2.66,-4.6 a 3.52,3.52 0 0 1 6.06,3.5 l -2.66,4.6 a 3.32,3.32 0 0 1 -4.58,0.94 z"
         fill="#f39e22"
         id="path38"
         style="stroke-width:0.633117" />
      <ellipse
         cx="-89.3713"
         cy="424.29581"
         fill="#f9f2f9"
         rx="14.779675"
         ry="39.789127"
         transform="rotate(-59.999272)"
         id="ellipse40"
         style="stroke-width:0.812286" />
      <ellipse
         cx="-89.362846"
         cy="492.8808"
         fill="#f9f2f9"
         rx="8.5898113"
         ry="23.119492"
         transform="rotate(-59.999272)"
         id="ellipse42"
         style="stroke-width:0.812286" />
      <path
         d="m 187.56,273.55 q -1.55,-8.38 4.69,-19.2 c 7.32,-12.8 18.05,-18.69 30.82,-11.44 12.65,7.43 13.05,19.72 5.6,32.47 Q 222.43,286.2 214.34,289 c -10.17,4.09 -25.28,-4.58 -26.78,-15.45 z m 22.44,5.11 q 3.65,-2.17 7.89,-9.52 Q 222,262 222,257.67 c 0.37,-5.55 -6.53,-9.6 -11.14,-6.5 -4.49,2.25 -12.43,16.06 -12.14,21 -0.38,5.54 6.73,9.56 11.28,6.49 z m -20.55,43.44 c -6.7,0.12 -7.69,-8.13 -2,-10.93 l 74.18,-42.73 c 5,-3.4 11.76,1.17 8.66,6.91 a 8,8 0 0 1 -3,2.88 L 193.11,321 a 7.48,7.48 0 0 1 -3.66,1.1 z m 32.29,10.76 q -1.56,-8.39 4.74,-19.3 c 7.28,-12.8 18.1,-18.51 30.76,-11.35 12.66,7.45 12.93,19.68 5.5,32.42 q -6.24,10.81 -14.28,13.66 c -10.13,4.13 -25.24,-4.59 -26.72,-15.43 z m 22.36,5.08 q 3.69,-2.15 7.93,-9.49 4.12,-7.14 4.17,-11.47 c 0.35,-5.6 -6.55,-9.59 -11.22,-6.48 -4.61,2.29 -12.45,16 -12.1,21 -0.32,5.5 6.58,9.5 11.22,6.44 z"
         fill="#dd5e26"
         id="path44"
         style="stroke-width:0.633117" />
    </g>
  </g>
</svg>
