<svg id="Capa_1" enable-background="new 0 0 512 512" height="512" viewBox="0 0 512 512" width="512" xmlns="http://www.w3.org/2000/svg"><g><g><path d="m494.408 313.287-71.924-71.924-8.027-2.698-2.745-8.074-151.186-151.186c-7.905-7.905-18.626-12.345-29.805-12.345h-149.57c-13.534 0-24.506 10.972-24.506 24.506v149.571c0 11.179 4.441 21.9 12.345 29.805l151.186 151.186 7.999 2.585 2.772 8.187 71.924 71.924c9.57 9.57 25.086 9.57 34.656 0l156.879-156.879c9.572-9.572 9.572-25.088.002-34.658zm-381.175-169.326c-11.219 0-20.314-9.095-20.314-20.314s9.095-20.314 20.314-20.314 20.314 9.095 20.314 20.314-9.096 20.314-20.314 20.314z" fill="#e28086"/></g><g><path d="m494.408 313.287-71.924-71.924-8.027-2.698-2.745-8.073-151.186-151.187c-7.905-7.905-18.626-12.345-29.804-12.345h-68.578c11.179 0 21.9 4.441 29.805 12.345l233.881 233.882c9.57 9.57 9.57 25.086 0 34.656l-139.919 139.919 16.961 16.961c9.57 9.57 25.086 9.57 34.657 0l156.879-156.879c9.57-9.571 9.57-25.087 0-34.657z" fill="#dd636e"/></g><path d="m263.323 397.369c-1.95 0-3.899-.743-5.386-2.231-2.974-2.974-2.974-7.797 0-10.772l20.741-20.741c2.976-2.975 7.798-2.974 10.773 0s2.974 7.797 0 10.772l-20.741 20.741c-1.489 1.487-3.439 2.231-5.387 2.231zm47.407-47.407c-1.95 0-3.899-.743-5.386-2.231-2.974-2.975-2.974-7.797 0-10.772l20.741-20.741c2.976-2.975 7.798-2.975 10.773 0 2.974 2.974 2.974 7.797 0 10.772l-20.741 20.741c-1.489 1.487-3.439 2.231-5.387 2.231zm47.406-47.407c-1.95 0-3.899-.743-5.386-2.231-2.974-2.974-2.974-7.797 0-10.772l20.741-20.741c2.976-2.975 7.798-2.974 10.773 0 2.974 2.974 2.974 7.797 0 10.772l-20.741 20.741c-1.488 1.487-3.438 2.231-5.387 2.231z" fill="#f4fbff"/><g><g><path d="m195.116 320.255c-.982 0-1.981-.191-2.944-.596-3.879-1.628-5.704-6.092-4.076-9.971l63.902-152.266c1.628-3.879 6.093-5.703 9.971-4.076 3.879 1.628 5.704 6.092 4.076 9.971l-63.903 152.266c-1.223 2.916-4.05 4.672-7.026 4.672z" fill="#f4fbff"/></g><g><path d="m182.886 226.512c-19.769 0-35.853-18.136-35.853-40.428s16.084-40.428 35.853-40.428 35.853 18.136 35.853 40.428-16.084 40.428-35.853 40.428zm0-65.622c-11.369 0-20.619 11.302-20.619 25.194s9.25 25.195 20.619 25.195 20.619-11.302 20.619-25.195c0-13.892-9.25-25.194-20.619-25.194z" fill="#f4fbff"/></g><g><path d="m269.189 330.619c-19.769 0-35.852-18.136-35.852-40.428s16.083-40.428 35.852-40.428 35.853 18.136 35.853 40.428c0 22.293-16.084 40.428-35.853 40.428zm0-65.622c-11.369 0-20.619 11.302-20.619 25.195 0 13.892 9.25 25.194 20.619 25.194 11.37 0 20.619-11.302 20.619-25.194 0-13.893-9.249-25.195-20.619-25.195z" fill="#f4fbff"/></g></g><g><path d="m101.217 130.525h-44.061c-25.773 0-46.741-20.968-46.741-46.741 0-12.485 4.862-24.223 13.69-33.051l10.986-10.986c5.951-5.951 9.228-13.863 9.228-22.279v-9.851c0-4.207 3.411-7.617 7.617-7.617s7.617 3.41 7.617 7.617v9.851c0 12.485-4.862 24.223-13.69 33.051l-10.986 10.986c-5.951 5.951-9.228 13.863-9.228 22.279 0 17.373 14.134 31.508 31.507 31.508h44.061c4.207 0 7.617 3.41 7.617 7.617s-3.411 7.616-7.617 7.616z" fill="#2b4d66"/></g><g><g><path d="m345.435 436.996c-1.95 0-3.899-.743-5.386-2.231l-26.754-26.755c-2.974-2.974-2.974-7.797 0-10.772 2.976-2.975 7.798-2.974 10.773 0l26.754 26.755c2.974 2.974 2.974 7.797 0 10.772-1.489 1.487-3.438 2.231-5.387 2.231z" fill="#2b4d66"/></g><g><path d="m367.212 415.218c-1.95 0-3.899-.743-5.386-2.231l-26.754-26.755c-2.974-2.974-2.974-7.797 0-10.772 2.975-2.975 7.797-2.974 10.773 0l26.754 26.755c2.974 2.974 2.974 7.797 0 10.772-1.488 1.487-3.438 2.231-5.387 2.231z" fill="#2b4d66"/></g><g><path d="m384.977 397.454c-1.949 0-3.899-.744-5.386-2.231l-26.755-26.755c-2.974-2.974-2.974-7.797 0-10.772 2.975-2.974 7.797-2.974 10.773 0l26.755 26.755c2.974 2.974 2.974 7.797 0 10.772-1.488 1.487-3.438 2.231-5.387 2.231z" fill="#2b4d66"/></g><g><path d="m418.998 363.433c-1.949 0-3.899-.744-5.386-2.231l-26.754-26.754c-2.974-2.974-2.974-7.797 0-10.772 2.975-2.974 7.797-2.974 10.773 0l26.754 26.754c2.974 2.974 2.974 7.797 0 10.772-1.489 1.487-3.438 2.231-5.387 2.231z" fill="#2b4d66"/></g></g><path d="m384.977 397.454c1.949 0 3.899-.744 5.386-2.231 2.974-2.974 2.974-7.797 0-10.772l-.521-.521-10.772 10.772.521.52c1.487 1.488 3.437 2.232 5.386 2.232z" fill="#2b4d66"/><path d="m411.712 230.591-11.555 11.554c-2.974 2.974-2.974 7.797 0 10.772 1.488 1.488 3.436 2.231 5.386 2.231 1.949 0 3.899-.744 5.386-2.231l11.554-11.554z" fill="#f4fbff"/><path d="m379.136 266.593 7.347 7.347c-.063-1.862-.797-3.706-2.218-5.128-1.423-1.422-3.267-2.156-5.129-2.219z" fill="#e4f6ff"/><path d="m230.948 432.898 11.094-11.094c2.975-2.974 2.975-7.797 0-10.772-2.974-2.974-7.797-2.974-10.772 0l-11.094 11.094z" fill="#f4fbff"/><path d="m400.157 242.145c-2.974 2.974-2.974 7.797 0 10.772 1.488 1.488 3.437 2.231 5.386 2.231s3.899-.744 5.386-2.231l11.554-11.554-10.772-10.772z" fill="#e4f6ff"/><g fill="#2b4d66"><path d="m418.998 363.433c1.949 0 3.899-.744 5.386-2.231 2.974-2.974 2.974-7.797 0-10.772l-.521-.521-10.772 10.772.52.52c1.488 1.488 3.438 2.232 5.387 2.232z"/><path d="m367.212 415.218c1.949 0 3.899-.744 5.386-2.231 2.974-2.974 2.974-7.797 0-10.772l-.521-.521-10.772 10.772.52.52c1.488 1.489 3.437 2.232 5.387 2.232z"/><path d="m345.435 436.996c1.949 0 3.899-.744 5.386-2.231 2.974-2.974 2.974-7.797 0-10.772l-.521-.521-10.772 10.772.52.52c1.488 1.488 3.437 2.232 5.387 2.232z"/></g></g></svg>