<svg id="Layer_1" enable-background="new 0 0 50 50" height="512" viewBox="0 0 50 50" width="512" xmlns="http://www.w3.org/2000/svg"><g><path d="m3.7 33.1v2.8c0 1 .8 1.8 1.8 1.8h37c1 0 1.8-.8 1.8-1.8v-2.8z" fill="#e6e6e5"/><path d="m44.3 7.5c0-1-.8-1.8-1.8-1.8h-37c-1 0-1.8.8-1.8 1.8v25.6h40.6z" fill="#333"/><path d="m6.1 8.1h35.8v22.6h-35.8z" fill="#98d0f1"/><path d="m30.4 43.4h-12.7l.7-5.7h11.3z" fill="#cdcccc"/><path d="m30.7 42.1h-13.4c-.6 0-1.1.5-1.1 1.1s.5 1.1 1.1 1.1h13.4c.6 0 1.1-.5 1.1-1.1s-.5-1.1-1.1-1.1z" fill="#e6e6e5"/><circle cx="24" cy="35.4" fill="#cdcccc" r="1.1"/><path d="m47.9 20.8h-15.6c-.6 0-1.1.5-1.1 1.1v21.3c0 .6.5 1.1 1.1 1.1h15.6c.6 0 1.1-.5 1.1-1.1v-21.3c0-.6-.5-1.1-1.1-1.1z" fill="#676767"/><path d="m32.6 22.9h14.9v18.4h-14.9z" fill="#f9a66b"/><path d="m40.9 42.5h-1.7c-.3 0-.5.2-.5.5s.2.5.5.5h1.7c.3 0 .5-.2.5-.5s-.2-.5-.5-.5z" fill="#525252"/><path d="m41.3 21.5h-2.4c-.1 0-.1.1-.1.1 0 .1.1.1.1.1h2.4c.1 0 .1-.1.1-.1s0-.1-.1-.1z" fill="#525252"/><path d="m10.4 27.7h-8.5c-.5 0-.9.4-.9.9v14.9c0 .5.4.9.9.9h8.6c.5 0 .9-.4.9-.9v-15c-.1-.4-.5-.8-1-.8z" fill="#676767"/><path d="m2.2 29.1h7.8v12.8h-7.8z" fill="#fff"/><path d="m7.2 28.3h-2.1c-.1 0-.1.1-.1.1 0 .1.1.1.1.1h2.1c.1 0 .1-.1.1-.1 0-.1 0-.1-.1-.1z" fill="#525252"/><path d="m7 42.6h-1.7c-.3 0-.5.2-.5.5s.2.5.5.5h1.7c.3 0 .5-.2.5-.5s-.2-.5-.5-.5z" fill="#525252"/><path d="m24 12.9c-3.6 0-6.5 2.9-6.5 6.5s2.9 6.5 6.5 6.5 6.5-2.9 6.5-6.5-2.9-6.5-6.5-6.5zm-.9 1.7h1.8v1.7l-.4 4.7h-1.1l-.4-4.7v-1.7zm1.6 9.3c-.2.2-.4.3-.7.3s-.5-.1-.7-.3-.3-.4-.3-.7.1-.5.3-.7.4-.3.7-.3.5.1.7.3.3.4.3.7c0 .2-.1.5-.3.7z" fill="#fff"/><path d="m40.1 27.9c-2.3 0-4.2 1.9-4.2 4.2s1.9 4.2 4.2 4.2 4.2-1.9 4.2-4.2-1.9-4.2-4.2-4.2zm-.6 1.1h1.2v1.1l-.3 3.1h-.7l-.3-3.1v-1.1zm1.1 6c-.1.1-.3.2-.5.2s-.3-.1-.5-.2c-.1-.1-.2-.3-.2-.5s.1-.3.2-.5c.1-.1.3-.2.5-.2s.3.1.5.2c.1.1.2.3.2.5s-.1.4-.2.5z" fill="#fff"/><path d="m6.1 33c-1.4 0-2.5 1.1-2.5 2.5s1.1 2.5 2.5 2.5 2.5-1.1 2.5-2.5c.1-1.4-1.1-2.5-2.5-2.5zm-.3.6h.7v.7l-.2 1.9h-.4l-.2-1.9v-.7zm.6 3.7c-.1.1-.2.1-.3.1s-.2 0-.3-.1-.1-.2-.1-.3 0-.2.1-.3.2-.1.3-.1.2 0 .3.1.1.2.1.3 0 .2-.1.3z" fill="#a7d169"/></g></svg>