<?xml version="1.0" encoding="UTF-8" standalone="no"?>
<svg
   xmlns:dc="http://purl.org/dc/elements/1.1/"
   xmlns:cc="http://creativecommons.org/ns#"
   xmlns:rdf="http://www.w3.org/1999/02/22-rdf-syntax-ns#"
   xmlns:svg="http://www.w3.org/2000/svg"
   xmlns="http://www.w3.org/2000/svg"
   xmlns:sodipodi="http://sodipodi.sourceforge.net/DTD/sodipodi-0.dtd"
   xmlns:inkscape="http://www.inkscape.org/namespaces/inkscape"
   id="Layer_1"
   viewBox="0 0 500 500"
   version="1.1"
   sodipodi:docname="edge.svg"
   width="500"
   height="500"
   inkscape:version="1.0.2-2 (e86c870879, 2021-01-15)">
  <metadata
     id="metadata11">
    <rdf:RDF>
      <cc:Work
         rdf:about="">
        <dc:format>image/svg+xml</dc:format>
        <dc:type
           rdf:resource="http://purl.org/dc/dcmitype/StillImage" />
        <dc:title></dc:title>
      </cc:Work>
    </rdf:RDF>
  </metadata>
  <defs
     id="defs9" />
  <sodipodi:namedview
     pagecolor="#ffffff"
     bordercolor="#666666"
     borderopacity="1"
     objecttolerance="10"
     gridtolerance="10"
     guidetolerance="10"
     inkscape:pageopacity="0"
     inkscape:pageshadow="2"
     inkscape:window-width="1920"
     inkscape:window-height="1009"
     id="namedview7"
     showgrid="false"
     inkscape:zoom="0.40976682"
     inkscape:cx="232"
     inkscape:cy="250"
     inkscape:window-x="1272"
     inkscape:window-y="-8"
     inkscape:window-maximized="1"
     inkscape:current-layer="Layer_1" />
  <style
     id="style2">.st0{fill:#0078d7}</style>
  <path
     class="st0"
     d="m 165.9,296.4 c 0,11.9 1.8,22.7 5.4,32.5 3.9,9.6 8.9,18.2 15.3,25.7 6.4,7.5 13.9,13.9 22.7,19.3 8.5,5.4 17.8,9.9 27.7,13.4 9.8,3.6 20.1,6.2 30.5,7.9 10.6,1.7 20.9,2.5 31.3,2.5 13.1,0 25.3,-1 36.9,-3.1 11.6,-2.2 22.9,-5 34,-8.7 11.1,-3.6 21.9,-8 32.6,-12.9 10.8,-4.9 21.8,-10.4 33.1,-16.4 v 104.8 c -12.6,6.2 -25,11.4 -37.3,15.8 -12.4,4.3 -24.7,8.1 -37.3,11.1 -12.6,3.1 -25.3,5.4 -38.4,6.8 -13.1,1.4 -26.4,2.2 -40.3,2.2 -18.5,0 -36.5,-2.2 -53.7,-6.4 -17.2,-4.2 -33.4,-10.4 -48.5,-18.4 -15.1,-8 -29,-17.8 -41.6,-29.2 -12.7,-11.4 -23.4,-24.3 -32.5,-38.6 -9.1,-14.3 -16,-30 -21,-46.8 -4.9,-16.8 -7.3,-34.8 -7.3,-53.8 0,-20.3 2.8,-39.6 8.3,-58.1 5.6,-18.5 13.6,-35.4 24.1,-50.8 10.4,-15.5 23.2,-29.2 38.2,-41.2 15.1,-12 32,-21.8 50.8,-29.4 -10.3,10.3 -18.3,22.4 -24,36.5 -5.8,14.1 -9.4,28.2 -11,42.3 h 176 c 0,-17.8 -1.8,-33.2 -5.4,-46.5 -3.6,-13.3 -9.4,-24.3 -17.5,-33.1 -8,-8.8 -18.4,-15.5 -31.1,-19.8 -12.7,-4.4 -28.1,-6.6 -46.1,-6.6 -21.2,0 -42.5,3.1 -63.7,9.5 -21.2,6.2 -41.4,15.1 -60.6,26.3 -19.2,11.4 -36.8,24.7 -52.9,40 -16.1,15.4 -29.6,32.1 -40.6,50.1 2.3,-20.9 7,-41 13.4,-60 6.4,-19 14.9,-36.9 25.1,-53.3 10.2,-16.2 22.2,-31.1 35.9,-44.4 13.7,-13.3 28.8,-24.7 45.6,-34 16.8,-9.3 34.5,-16.8 53.9,-21.8 19.3,-4.4 39.9,-7 61.5,-7 12.7,0 25.3,1.2 37.9,3.4 12.6,2.3 24.9,5.4 36.9,9.4 23.8,8.2 45,19.6 63.7,34.2 18.7,14.7 34.4,31.4 47.1,50.5 12.7,19.1 22.4,40.2 29.1,63.1 6.7,22.9 10,46.8 10,71.6 v 61.4 z"
     id="path4" />
</svg>
