<svg height="512" viewBox="0 0 128 128" width="512" xmlns="http://www.w3.org/2000/svg"><g><path d="m124 116.079v-39.465c0-1.515-1.3-2.248-2.734-2.735l-27.266-9.241-3.529 54.175h30.8a2.728 2.728 0 0 0 2.729-2.734z" fill="#696eaf"/><path d="m37.529 118.813-3.529-77.685h-27.266a2.728 2.728 0 0 0 -2.734 2.734v72.217a2.728 2.728 0 0 0 2.734 2.734z" fill="#d1d1fd"/><rect fill="#ecebfd" height="100.244" rx="3.529" width="60.001" x="34" y="18.569"/><path d="m86.943 9.187h-45.886a3.521 3.521 0 0 0 -3.529 3.528v5.854h52.944v-5.854a3.521 3.521 0 0 0 -3.529-3.528z" fill="#ff7a8c"/><g fill="#7cd6f3"><path d="m69.817 95.073h-11.634a3.52 3.52 0 0 0 -3.528 3.527v20.212h18.69v-20.212a3.52 3.52 0 0 0 -3.528-3.527z"/><path d="m40.993 26.498h9.999v9.999h-9.999z"/><path d="m59 26.498h9.999v9.999h-9.999z"/><path d="m77.007 26.498h9.999v9.999h-9.999z"/><path d="m40.993 43.465h9.999v9.999h-9.999z"/><path d="m59 43.465h9.999v9.999h-9.999z"/><path d="m77.007 43.465h9.999v9.999h-9.999z"/><path d="m40.993 60.432h9.999v9.999h-9.999z"/><path d="m59 60.432h9.999v9.999h-9.999z"/><path d="m77.007 60.432h9.999v9.999h-9.999z"/><path d="m40.993 77.399h9.999v9.999h-9.999z"/><path d="m59 77.399h9.999v9.999h-9.999z"/><path d="m77.007 77.399h9.999v9.999h-9.999z"/></g><path d="m14.248 49.52h9.999v9.999h-9.999z" fill="#30c3ef"/><path d="m14.248 66.487h9.999v9.999h-9.999z" fill="#30c3ef"/><path d="m14.248 83.454h9.999v9.999h-9.999z" fill="#30c3ef"/><path d="m14.248 100.421h9.999v9.999h-9.999z" fill="#30c3ef"/><path d="m102.236 83.454h9.999v9.999h-9.999z" fill="#30c3ef"/><path d="m102.236 100.421h9.999v9.999h-9.999z" fill="#30c3ef"/></g></svg>