<?xml version="1.0" encoding="iso-8859-1"?>
<!-- Generator: Adobe Illustrator 19.0.0, SVG Export Plug-In . SVG Version: 6.00 Build 0)  -->
<svg version="1.1" id="Capa_1" xmlns="http://www.w3.org/2000/svg" xmlns:xlink="http://www.w3.org/1999/xlink" x="0px" y="0px"
	 viewBox="0 0 513.067 513.067" style="enable-background:new 0 0 513.067 513.067;" xml:space="preserve">
<path style="fill:#40596B;" d="M488,89.6c0-10.667-8.533-19.2-19.2-19.2H44.267c-10.667,0-19.2,8.533-19.2,19.2v269.867H488V89.6z"
	/>
<path style="fill:#ACB3BA;" d="M396.267,500.267H379.2c-16,0-28.8-12.8-28.8-28.8v-41.6H163.733v41.6c0,16-12.8,28.8-28.8,28.8
	h-17.067c-3.2,0-6.4,3.2-6.4,6.4l0,0c0,3.2,3.2,6.4,6.4,6.4h279.467c3.2,0,6.4-3.2,6.4-6.4l0,0
	C402.667,502.4,399.467,500.267,396.267,500.267z"/>
<rect x="53.867" y="99.2" style="fill:#FFFFFF;" width="404.27" height="230.4"/>
<rect x="53.867" y="99.2" style="fill:#84DBFF;" width="404.27" height="230.4"/>
<path style="fill:#CDD6E0;" d="M25.067,359.467V409.6c0,10.667,8.533,19.2,19.2,19.2h423.467c10.667,0,19.2-8.533,19.2-19.2v-50.133
	H25.067z"/>
<circle style="fill:#ACB3BA;" cx="256.53" cy="394.67" r="14.933"/>
<rect x="163.73" y="428.8" style="fill:#9CAAB5;" width="186.67" height="14.933"/>
<path style="fill:#55BFE9;" d="M385.6,306.133v5.333V306.133z"/>
<polygon style="fill:#FFD15C;" points="374.933,311.467 374.933,311.467 385.6,311.467 "/>
<polygon style="fill:#54C0EB;" points="398.4,99.2 380.267,330.667 132.8,330.667 114.667,99.2 "/>
<polygon style="fill:#334A5E;" points="398.4,99.2 400.533,70.4 112.533,70.4 114.667,99.2 "/>
<rect x="132.8" style="fill:#F2F2F2;" width="247.47" height="329.6"/>
<rect x="159.47" y="26.667" style="fill:#FFD15C;" width="194.13" height="69.33"/>
<g>
	
		<rect x="306.31" y="46.812" transform="matrix(0.7071 0.7071 -0.7071 0.7071 137.7502 -209.0687)" style="fill:#FF7058;" width="29.866" height="29.866"/>
	<rect x="170.13" y="55.47" style="fill:#FF7058;" width="108.8" height="10.667"/>
</g>
<rect x="152" y="228.27" style="fill:#ACB3BA;" width="209.07" height="25.6"/>
<polygon style="fill:#40596B;" points="369.6,301.867 369.6,284.8 369.6,284.8 352.533,284.8 352.533,301.867 "/>
<polygon style="fill:#FFD05C;" points="166.933,284.8 143.467,293.333 166.933,301.867 "/>
<rect x="166.93" y="284.8" style="fill:#FF7058;" width="181.33" height="8.533"/>
<rect x="166.93" y="293.33" style="fill:#F1543F;" width="181.33" height="8.533"/>
<polygon style="fill:#334A5E;" points="153.067,296.533 143.467,293.333 153.067,290.133 "/>
<rect x="347.2" y="284.8" style="fill:#F2F2F2;" width="5.333" height="17.07"/>
<g>
	<rect x="152" y="253.87" style="fill:#CDD6E0;" width="209.07" height="14.933"/>
	<rect x="159.47" y="228.27" style="fill:#CDD6E0;" width="1.067" height="5.333"/>
	<rect x="173.33" y="228.27" style="fill:#CDD6E0;" width="1.067" height="5.333"/>
	<rect x="187.2" y="228.27" style="fill:#CDD6E0;" width="1.067" height="5.333"/>
	<rect x="201.07" y="228.27" style="fill:#CDD6E0;" width="1.067" height="5.333"/>
	<rect x="214.93" y="228.27" style="fill:#CDD6E0;" width="1.067" height="5.333"/>
	<rect x="228.8" y="228.27" style="fill:#CDD6E0;" width="1.067" height="5.333"/>
	<rect x="241.6" y="228.27" style="fill:#CDD6E0;" width="1.067" height="5.333"/>
	<rect x="255.47" y="228.27" style="fill:#CDD6E0;" width="1.067" height="5.333"/>
	<rect x="269.33" y="228.27" style="fill:#CDD6E0;" width="1.067" height="5.333"/>
	<rect x="283.2" y="228.27" style="fill:#CDD6E0;" width="1.067" height="5.333"/>
	<rect x="297.07" y="228.27" style="fill:#CDD6E0;" width="1.067" height="5.333"/>
	<rect x="310.93" y="228.27" style="fill:#CDD6E0;" width="1.067" height="5.333"/>
	<rect x="324.8" y="228.27" style="fill:#CDD6E0;" width="1.067" height="5.333"/>
	<rect x="338.67" y="228.27" style="fill:#CDD6E0;" width="1.067" height="5.333"/>
	<rect x="351.47" y="228.27" style="fill:#CDD6E0;" width="1.067" height="5.333"/>
</g>
<rect x="321.6" y="123.73" style="fill:#FFD15C;" width="123.73" height="74.67"/>
<rect x="368.509" y="146.21" transform="matrix(0.7071 0.7071 -0.7071 0.7071 226.2529 -223.9365)" style="fill:#FF7058;" width="29.866" height="29.866"/>
<g>
</g>
<g>
</g>
<g>
</g>
<g>
</g>
<g>
</g>
<g>
</g>
<g>
</g>
<g>
</g>
<g>
</g>
<g>
</g>
<g>
</g>
<g>
</g>
<g>
</g>
<g>
</g>
<g>
</g>
</svg>
