<?xml version="1.0" encoding="iso-8859-1"?>
<!-- Generator: Adobe Illustrator 19.0.0, SVG Export Plug-In . SVG Version: 6.00 Build 0)  -->
<svg version="1.1" id="Capa_1" xmlns="http://www.w3.org/2000/svg" xmlns:xlink="http://www.w3.org/1999/xlink" x="0px" y="0px"
	 viewBox="0 0 511.999 511.999" style="enable-background:new 0 0 511.999 511.999;" xml:space="preserve">
<path style="fill:#FEA832;" d="M511.379,197.254c-1.8-5.4-6.598-9.299-12.298-10.2l-159.089-23.096l-70.494-143.09
	c-2.701-5.099-8.1-7.799-13.499-7.799c-5.4,0-10.799,2.701-13.499,7.799l-70.495,143.09L12.917,187.054
	c-5.7,0.901-10.498,4.801-12.298,10.2c-1.501,5.4-0.3,11.399,3.9,15.299L119.81,324.143L92.811,481.332
	c-0.899,5.7,1.5,11.399,6,14.699c4.799,3.301,10.799,3.9,15.898,1.201l141.29-74.395l141.29,74.395
	c5.099,2.699,11.099,2.1,15.898-1.201c4.501-3.3,6.898-8.999,6-14.699l-26.999-157.188l115.291-111.591
	C511.68,208.653,512.881,202.653,511.379,197.254z"/>
<path style="fill:#FF8A15;" d="M507.479,212.553L392.188,324.143l26.999,157.188c0.899,5.7-1.5,11.399-6,14.699
	c-4.799,3.301-10.799,3.9-15.898,1.201l-141.29-74.395V13.068c5.4,0,10.799,2.701,13.499,7.799l70.494,143.09l159.089,23.097
	c5.7,0.901,10.498,4.801,12.298,10.2C512.881,202.653,511.68,208.653,507.479,212.553z"/>
<g>
</g>
<g>
</g>
<g>
</g>
<g>
</g>
<g>
</g>
<g>
</g>
<g>
</g>
<g>
</g>
<g>
</g>
<g>
</g>
<g>
</g>
<g>
</g>
<g>
</g>
<g>
</g>
<g>
</g>
</svg>
