<?xml version="1.0" encoding="iso-8859-1"?>
<!-- Generator: Adobe Illustrator 19.0.0, SVG Export Plug-In . SVG Version: 6.00 Build 0)  -->
<svg version="1.1" id="Layer_1" xmlns="http://www.w3.org/2000/svg" xmlns:xlink="http://www.w3.org/1999/xlink" x="0px" y="0px"
	 viewBox="0 0 512 512" style="enable-background:new 0 0 512 512;" xml:space="preserve">
<path style="fill:#415A6B;" d="M450.133,326.267H266.667v-24.533c0-6.4-4.267-10.667-10.667-10.667
	c-6.4,0-10.667,4.267-10.667,10.667v24.533H61.867c-6.4,0-10.667,4.267-10.667,10.667V402h21.333v-54.4h172.8V402h21.333v-54.4
	h172.8V402H460.8v-65.067C460.8,330.533,456.533,326.267,450.133,326.267z"/>
<path style="fill:#F3705A;" d="M177.067,32.933C220.8-10.8,291.2-10.8,334.933,32.933s43.733,114.133,0,157.867L256,268.667
	l-78.933-78.933C133.333,147.067,133.333,75.6,177.067,32.933z"/>
<path style="fill:#FFFFFF;" d="M208,63.867c26.667-26.667,69.333-26.667,96,0c26.667,26.667,26.667,69.333,0,96
	c-26.667,26.667-69.333,26.667-96,0S181.333,89.467,208,63.867z"/>
<path style="fill:#66C6B9;" d="M101.333,389.2h-80C9.6,389.2,0,398.8,0,410.533v80c0,11.733,9.6,21.333,21.333,21.333h80
	c11.733,0,21.333-9.6,21.333-21.333v-80C122.667,398.8,113.067,389.2,101.333,389.2z"/>
<path style="fill:#FFD15C;" d="M296.533,389.2h-80c-11.733,0-21.333,9.6-21.333,21.333v80c0,11.733,9.6,21.333,21.333,21.333h80
	c11.733,0,21.333-9.6,21.333-21.333v-80C317.867,398.8,308.267,389.2,296.533,389.2z"/>
<path style="fill:#F3705A;" d="M490.667,389.2h-80c-11.733,0-21.333,9.6-21.333,21.333v80c0,11.733,9.6,21.333,21.333,21.333h80
	c11.733,0,21.333-9.6,21.333-21.333v-80C512,398.8,502.4,389.2,490.667,389.2z"/>
<g>
</g>
<g>
</g>
<g>
</g>
<g>
</g>
<g>
</g>
<g>
</g>
<g>
</g>
<g>
</g>
<g>
</g>
<g>
</g>
<g>
</g>
<g>
</g>
<g>
</g>
<g>
</g>
<g>
</g>
</svg>
