<svg id="Icons" height="512" viewBox="0 0 60 60" width="512" xmlns="http://www.w3.org/2000/svg"><path d="m41 8v21.3l-10.66 20.89a51.578 51.578 0 0 1 -9.34.81c-11.05 0-20-3.13-20-7v-36z" fill="#35718a"/><ellipse cx="21" cy="8" fill="#4184a9" rx="20" ry="7"/><path d="m30.15 38.23a52.517 52.517 0 0 1 -9.15.77c-11.05 0-20-3.13-20-7v-12c0 3.866 8.954 7 20 7s20-3.134 20-7v10z" fill="#4184a9"/><circle cx="44" cy="44" fill="#4ab591" r="15"/><path d="m50.487 41.513-.976.976a1.305 1.305 0 0 1 -1.844 0l-1.667-1.659v12.17a1 1 0 0 1 -1 1h-2a1 1 0 0 1 -1-1v-12.17l-1.667 1.661a1.305 1.305 0 0 1 -1.844 0l-.976-.976a1.3 1.3 0 0 1 0-1.846l5.077-5.079a1.974 1.974 0 0 1 2.82 0l5.077 5.077a1.3 1.3 0 0 1 0 1.846z" fill="#fff"/><path d="m6 19.631a1 1 0 0 1 -.369-.071q-.55-.219-1.054-.453a1 1 0 0 1 .846-1.813q.45.211.946.407a1 1 0 0 1 -.369 1.93z" fill="#fde05e"/><path d="m11 21.063a.967.967 0 0 1 -.2-.02q-.524-.105-1.026-.221a1 1 0 1 1 .448-1.949c.319.073.643.143.974.21a1 1 0 0 1 -.2 1.98z" fill="#86fdaa"/><path d="m44 60a16 16 0 1 1 16-16 16.019 16.019 0 0 1 -16 16zm0-30a14 14 0 1 0 14 14 14.015 14.015 0 0 0 -14-14z" fill="#5acca6"/></svg>