<?xml version="1.0" encoding="iso-8859-1"?>
<!-- Generator: Adobe Illustrator 19.0.0, SVG Export Plug-In . SVG Version: 6.00 Build 0)  -->
<svg version="1.1" id="Layer_1" xmlns="http://www.w3.org/2000/svg" xmlns:xlink="http://www.w3.org/1999/xlink" x="0px" y="0px"
	 viewBox="0 0 512 512" style="enable-background:new 0 0 512 512;" xml:space="preserve">
<g>
	<rect x="177.52" y="252.012" style="fill:#8BA0AE;" width="108.472" height="8"/>
	<polygon style="fill:#8BA0AE;" points="364.664,441.476 284.024,441.476 284.024,70.556 364.664,70.556 364.664,78.556 
		292.024,78.556 292.024,433.476 364.664,433.476 	"/>
</g>
<g>
	<path style="fill:#32BEA6;" d="M453.728,0.004L453.728,0.004c-32.184,0-58.272,26.088-58.272,58.264l0,0
		c0,32.184,26.088,58.264,58.264,58.264l0,0c32.184,0,58.264-26.088,58.264-58.264l0,0C512,26.092,485.912,0.004,453.728,0.004z"/>
	<path style="fill:#32BEA6;" d="M453.728,395.468L453.728,395.468c-32.184,0-58.272,26.088-58.272,58.264l0,0
		c0,32.184,26.088,58.264,58.264,58.264l0,0c32.192,0.008,58.28-26.08,58.28-58.256l0,0
		C512,421.556,485.912,395.468,453.728,395.468z"/>
	<circle style="fill:#32BEA6;" cx="108" cy="256.004" r="108"/>
</g>
<polygon style="fill:#FFFFFF;" points="145.128,206.948 90.184,274.716 67.088,251.924 51.864,268.7 91.968,308.276 162.04,221.86 
	"/>
<g>
</g>
<g>
</g>
<g>
</g>
<g>
</g>
<g>
</g>
<g>
</g>
<g>
</g>
<g>
</g>
<g>
</g>
<g>
</g>
<g>
</g>
<g>
</g>
<g>
</g>
<g>
</g>
<g>
</g>
</svg>
