<svg id="Capa_1" enable-background="new 0 0 512 512" height="512" viewBox="0 0 512 512" width="512" xmlns="http://www.w3.org/2000/svg"><g><g><path d="m61 461.605v-81.211h-61v-330h512v330h-369.789z" fill="#ffdf40"/></g><path d="m256 50.395h256v330h-256z" fill="#ffbe40"/><g><path d="m476.605 279.789-19.109-19.107c5.273-8.923 8.503-19.193 8.503-30.287v-30c0-33.091-26.924-60-60-60s-60 26.909-60 60v30c0 33.091 26.924 60 60 60 11.093 0 21.361-3.234 30.286-8.503l19.11 19.108zm-70.605-19.394c-16.553 0-30-13.462-30-30v-30c0-16.538 13.447-30 30-30s30 13.462 30 30v30c0 2.591-.857 4.909-1.479 7.31l-17.915-17.915-21.211 21.21 17.915 17.915c-2.403.621-4.717 1.48-7.31 1.48z" fill="#3e454d"/><g fill="#515f66"><path d="m76 290.395h30v-60h60v-30h-60v-30h60v-30h-90z"/><path d="m279.789 140.395h-47.578l-36.63 150c8.9.031 33.945.011 30.864 0l7.333-30h44.381c.756 3.066 8.151 33.066 7.396 30 3.021-.01 33.885-.01 30.864 0zm-38.694 90 14.905-60 14.694 60z"/></g></g><path d="m256 140.395v30l14.694 60h-14.694v30h22.159c.756 3.065 8.152 33.065 7.396 30 3.021-.011 33.885-.011 30.864 0l-36.63-150z" fill="#3e454d"/></g></svg>