<svg height="512" viewBox="0 0 64 64" width="512" xmlns="http://www.w3.org/2000/svg"><g id="_17-Percentage" data-name="17-Percentage"><path d="m36 63h-8v-27a1 1 0 0 1 1-1h6a1 1 0 0 1 1 1z" fill="#fc9e20"/><path d="m23 63h-8v-15a1 1 0 0 1 1-1h6a1 1 0 0 1 1 1z" fill="#e68c15"/><path d="m10 63h-8v-7a1 1 0 0 1 1-1h6a1 1 0 0 1 1 1z" fill="#c97609"/><path d="m49 63h-8v-41a1 1 0 0 1 1-1h6a1 1 0 0 1 1 1z" fill="#ffad39"/><path d="m62 63h-8v-53a1 1 0 0 1 1-1h6a1 1 0 0 1 1 1z" fill="#febd55"/><path d="m31 58v-21a2 2 0 0 1 2-2h-4a1 1 0 0 0 -1 1v27h8v-3h-3a2 2 0 0 1 -2-2z" fill="#e68c15"/><path d="m18 58v-9a2 2 0 0 1 2-2h-4a1 1 0 0 0 -1 1v15h8v-3h-3a2 2 0 0 1 -2-2z" fill="#c97609"/><path d="m5 58v-1a2 2 0 0 1 2-2h-4a1 1 0 0 0 -1 1v7h8v-3h-3a2 2 0 0 1 -2-2z" fill="#ba6e08"/><path d="m44 58v-35a2 2 0 0 1 2-2h-4a1 1 0 0 0 -1 1v41h8v-3h-3a2 2 0 0 1 -2-2z" fill="#fc9408"/><path d="m59 60a2 2 0 0 1 -2-2v-47a2 2 0 0 1 2-2h-4a1 1 0 0 0 -1 1v53h8v-3z" fill="#ffa526"/><path d="m57.993.963a1.017 1.017 0 0 0 -.043-.21 1.052 1.052 0 0 0 -.05-.169 1.012 1.012 0 0 0 -.1-.142.985.985 0 0 0 -.127-.172c-.009-.009-.013-.021-.023-.029a.929.929 0 0 0 -.119-.067 1.008 1.008 0 0 0 -.187-.1 1.011 1.011 0 0 0 -.2-.041.913.913 0 0 0 -.144-.033h-5a1 1 0 0 0 0 2h2.826l-10.286 12h-2.54a1 1 0 0 0 -.74.327l-19.702 21.673h-5.558a1 1 0 0 0 -.707.293l-14 14a1 1 0 1 0 1.414 1.414l13.707-13.707h5.586a1 1 0 0 0 .74-.327l19.702-21.673h2.558a1 1 0 0 0 .759-.349l10.241-11.951v2.3a1 1 0 0 0 2 0v-5c0-.013-.007-.024-.007-.037z" fill="#ff6161"/><path d="m1 62h62v1h-62z" fill="#ff6161"/><circle cx="16" cy="16" fill="#febd55" r="15"/><circle cx="16" cy="16" fill="#fc9e20" r="13"/><circle cx="16" cy="16" fill="#ffe08c" r="12"/><path d="m17.5 15h-3a2.5 2.5 0 0 1 0-5h4.5a1 1 0 0 0 0-2h-2v-1a1 1 0 0 0 -2 0v1h-.5a4.5 4.5 0 0 0 0 9h3a2.5 2.5 0 0 1 0 5h-4.5a1 1 0 0 0 0 2h2v1a1 1 0 0 0 2 0v-1h.5a4.5 4.5 0 0 0 0-9z" fill="#e68c15"/></g></svg>