<?xml version="1.0" encoding="UTF-8" standalone="no"?>
<svg
   xmlns:dc="http://purl.org/dc/elements/1.1/"
   xmlns:cc="http://creativecommons.org/ns#"
   xmlns:rdf="http://www.w3.org/1999/02/22-rdf-syntax-ns#"
   xmlns:svg="http://www.w3.org/2000/svg"
   xmlns="http://www.w3.org/2000/svg"
   xmlns:sodipodi="http://sodipodi.sourceforge.net/DTD/sodipodi-0.dtd"
   xmlns:inkscape="http://www.inkscape.org/namespaces/inkscape"
   viewBox="0 0 300 249"
   version="1.1"
   id="svg111"
   sodipodi:docname="google-seo.svg"
   width="300"
   height="249"
   inkscape:version="1.0.2-2 (e86c870879, 2021-01-15)">
  <metadata
     id="metadata115">
    <rdf:RDF>
      <cc:Work
         rdf:about="">
        <dc:format>image/svg+xml</dc:format>
        <dc:type
           rdf:resource="http://purl.org/dc/dcmitype/StillImage" />
        <dc:title>UNIK_ícones</dc:title>
      </cc:Work>
    </rdf:RDF>
  </metadata>
  <sodipodi:namedview
     pagecolor="#ffffff"
     bordercolor="#666666"
     borderopacity="1"
     objecttolerance="10"
     gridtolerance="10"
     guidetolerance="10"
     inkscape:pageopacity="0"
     inkscape:pageshadow="2"
     inkscape:window-width="1920"
     inkscape:window-height="1009"
     id="namedview113"
     showgrid="false"
     inkscape:pagecheckerboard="true"
     inkscape:zoom="0.87090882"
     inkscape:cx="607.2866"
     inkscape:cy="182.09383"
     inkscape:window-x="1272"
     inkscape:window-y="-8"
     inkscape:window-maximized="1"
     inkscape:current-layer="svg111" />
  <defs
     id="defs4">
    <style
       id="style2">.cls-1,.cls-7{isolation:isolate;}.cls-2{fill:#56aee2;}.cls-3{fill:#0b6075;}.cls-4{fill:#fff;}.cls-5{fill:#83c3e8;}.cls-6{fill:#8794ca;}.cls-7{fill:#c8c8c8;opacity:0.23;}.cls-8{fill:none;stroke:#fff;stroke-linecap:round;stroke-linejoin:round;stroke-width:2.21px;}.cls-9{fill:#ef652f;}.cls-10{fill:#1f2e3b;}.cls-11{fill:#edb48d;}.cls-12{fill:#f2be9b;}.cls-13{fill:#21283a;}.cls-14{fill:#393f5c;}.cls-15{fill:#ffcb31;}.cls-16{fill:#ffbb10;}.cls-17{fill:#b8b8b8;opacity:0.16;mix-blend-mode:multiply;}.cls-18{fill:#c95224;}.cls-19{fill:#fbbb00;}.cls-20{fill:#518ef8;}.cls-21{fill:#28b446;}.cls-22{fill:#f14336;}</style>
  </defs>
  <title
     id="title6">UNIK_ícones</title>
  <g
     class="cls-1"
     id="g109"
     transform="matrix(3.4321839,0,0,3.428761,-39.058253,-39.360334)"
     style="stroke-width:0.291504">
    <g
       id="Layer_1"
       data-name="Layer 1"
       style="stroke-width:0.291504">
      <rect
         class="cls-2"
         x="51.529999"
         y="61.98"
         width="12.9"
         height="8.0699997"
         id="rect8"
         style="stroke-width:0.291504" />
      <path
         class="cls-3"
         d="M 66.83,70.05 H 48 a 3,3 0 0 0 -3,3 h 25 a 3,3 0 0 0 -3.17,-3 z"
         id="path10"
         style="stroke-width:0.291504" />
      <path
         class="cls-2"
         d="m 27.06,11.48 h 63.52 a 4.63,4.63 0 0 1 4.7,4.7 v 41.7 a 4.63,4.63 0 0 1 -4.7,4.7 H 27.06 a 4.63,4.63 0 0 1 -4.7,-4.7 v -41.7 a 4.71,4.71 0 0 1 4.7,-4.7 z"
         id="path12"
         style="stroke-width:0.291504" />
      <path
         class="cls-3"
         d="m 24.17,11.48 h 64 a 4.45,4.45 0 0 1 4.46,4.46 v 42.18 a 4.45,4.45 0 0 1 -4.46,4.46 h -64 A 4.45,4.45 0 0 1 19.71,58.12 V 15.94 a 4.53,4.53 0 0 1 4.46,-4.46 z"
         id="path14"
         style="stroke-width:0.291504" />
      <rect
         class="cls-4"
         x="24.889999"
         y="16.42"
         width="62.669998"
         height="39.77"
         id="rect16"
         style="stroke-width:0.291504" />
      <rect
         class="cls-5"
         x="24.889999"
         y="16.42"
         width="0.72000003"
         height="39.77"
         id="rect18"
         style="stroke-width:0.291504" />
      <path
         class="cls-6"
         d="m 57.31,61.38 a 2.17,2.17 0 1 1 2.17,-2.17 v 0 a 2.33,2.33 0 0 1 -2.17,2.17 z m 0,-3.86 a 1.77,1.77 0 0 0 -1.81,1.81 1.71,1.71 0 0 0 1.81,1.81 1.81,1.81 0 0 0 0,-3.62 z"
         id="path20"
         style="stroke-width:0.291504" />
      <path
         class="cls-7"
         d="m 51.53,62.58 12.9,7.47 v -7.59 h -12.9 z"
         id="path22"
         style="stroke-width:0.291504" />
      <line
         class="cls-8"
         x1="63.82"
         y1="45.709999"
         x2="79.610001"
         y2="45.709999"
         id="line24" />
      <path
         class="cls-9"
         d="M 98.29,84.1 A 0.48,0.48 0 0 1 97.81,83.76 L 82.17,20.57 a 0.43,0.43 0 0 1 0.38,-0.51 0.49,0.49 0 0 1 0.59,0.33 l 15.64,63.2 A 0.43,0.43 0 0 1 98.4,84.1 Z"
         id="path26"
         style="stroke-width:0.291504" />
      <path
         class="cls-9"
         d="m 86.84,84.1 a 0.48,0.48 0 0 1 -0.48,-0.34 l -15.7,-63.2 a 0.43,0.43 0 0 1 0.38,-0.51 0.49,0.49 0 0 1 0.59,0.33 l 15.7,63.2 a 0.43,0.43 0 0 1 -0.38,0.51 z"
         id="path28"
         style="stroke-width:0.291504" />
      <path
         class="cls-9"
         d="M 83.49,24.28 H 72 a 0.43,0.43 0 1 1 0,-0.86 h 11.49 a 0.43,0.43 0 1 1 0,0.86 z"
         id="path30"
         style="stroke-width:0.291504" />
      <path
         class="cls-9"
         d="M 84.74,29.33 H 73.23 a 0.43,0.43 0 1 1 0,-0.86 h 11.51 a 0.43,0.43 0 1 1 0,0.86 z"
         id="path32"
         style="stroke-width:0.291504" />
      <path
         class="cls-9"
         d="M 86,34.39 H 74.48 a 0.43,0.43 0 1 1 0,-0.86 H 86 a 0.43,0.43 0 1 1 0,0.86 z"
         id="path34"
         style="stroke-width:0.291504" />
      <path
         class="cls-9"
         d="M 87.25,39.44 H 75.74 a 0.43,0.43 0 1 1 0,-0.86 h 11.51 a 0.43,0.43 0 1 1 0,0.86 z"
         id="path36"
         style="stroke-width:0.291504" />
      <path
         class="cls-9"
         d="M 88.51,44.5 H 77 a 0.43,0.43 0 1 1 0,-0.86 h 11.51 a 0.43,0.43 0 1 1 0,0.86 z"
         id="path38"
         style="stroke-width:0.291504" />
      <path
         class="cls-9"
         d="M 89.76,49.55 H 78.25 a 0.43,0.43 0 1 1 0,-0.86 h 11.51 a 0.43,0.43 0 1 1 0,0.86 z"
         id="path40"
         style="stroke-width:0.291504" />
      <path
         class="cls-9"
         d="M 91,54.6 H 79.5 a 0.43,0.43 0 1 1 0,-0.86 H 91 a 0.43,0.43 0 1 1 0,0.86 z"
         id="path42"
         style="stroke-width:0.291504" />
      <path
         class="cls-9"
         d="M 92.27,59.66 H 80.75 a 0.43,0.43 0 1 1 0,-0.86 h 11.52 a 0.43,0.43 0 1 1 0,0.86 z"
         id="path44"
         style="stroke-width:0.291504" />
      <path
         class="cls-9"
         d="M 93.52,64.71 H 82 a 0.43,0.43 0 1 1 0,-0.86 h 11.52 a 0.43,0.43 0 1 1 0,0.86 z"
         id="path46"
         style="stroke-width:0.291504" />
      <path
         class="cls-9"
         d="M 94.78,69.77 H 83.26 a 0.43,0.43 0 1 1 0,-0.86 h 11.52 a 0.43,0.43 0 1 1 0,0.86 z"
         id="path48"
         style="stroke-width:0.291504" />
      <path
         class="cls-9"
         d="M 96,74.82 H 84.52 a 0.43,0.43 0 1 1 0,-0.86 H 96 a 0.43,0.43 0 1 1 0,0.86 z"
         id="path50"
         style="stroke-width:0.291504" />
      <path
         class="cls-10"
         d="m 79.95,56 1.94,-0.35 0.86,3.17 -5.51,0.34 -0.08,-0.43 a 1,1 0 0 1 0.6,-1 l 2.61,-0.47 z"
         id="path52"
         style="stroke-width:0.291504" />
      <polygon
         class="cls-11"
         points="87.47,29.51 85.15,29.5 85.11,24.45 87.44,24.47 "
         id="polygon54"
         style="stroke-width:0.291504" />
      <path
         class="cls-12"
         d="m 84.6,28 v 0 a 2.86,2.86 0 0 1 -2.88,-2.83 v -3.55 l 5.71,-0.05 v 3.55 A 2.86,2.86 0 0 1 84.6,28 Z"
         id="path56"
         style="stroke-width:0.291504" />
      <path
         class="cls-13"
         d="m 87.39,24.22 h -0.81 a 0.35,0.35 0 0 1 -0.36,-0.41 c 0.1,-0.59 0.2,-1.6 -0.18,-1.72 -0.55,-0.16 -3.44,0.65 -4.45,-0.08 a 1.57,1.57 0 0 1 0.82,-2.85 c 1.26,-0.1 1.1,1.37 2.57,1.31 1.47,-0.06 3.69,-0.66 2.8,3.25 z"
         id="path58"
         style="stroke-width:0.291504" />
      <circle
         class="cls-12"
         cx="87.5"
         cy="24.379999"
         r="0.89999998"
         transform="rotate(-0.53,87.454624,24.187984)"
         id="circle60"
         style="stroke-width:0.291504" />
      <path
         class="cls-10"
         d="m 91.35,61.55 1.95,-0.27 1,3.35 -5.52,0.12 -0.06,-0.43 a 1,1 0 0 1 0.64,-1 L 91.81,63 Z"
         id="path62"
         style="stroke-width:0.291504" />
      <path
         class="cls-14"
         d="m 82.78,40.86 -5.56,1.72 a 1.65,1.65 0 0 0 -1.31,2.1 l 3.48,11.75 3.33,-0.34 -3,-10.75 8.19,-1.78 A 2.33,2.33 0 0 0 90,41.24 v -0.38 z"
         id="path64"
         style="stroke-width:0.291504" />
      <polygon
         class="cls-14"
         points="93.76,61.96 90.87,62.16 86.78,50.81 84.33,42.27 88.75,42.27 90.05,50.48 "
         id="polygon66"
         style="stroke-width:0.291504" />
      <path
         class="cls-15"
         d="m 85,29 v 0 a 3.08,3.08 0 0 0 -2.88,3.23 l 0.68,8.65 7.95,0.34 L 90,32 a 2.83,2.83 0 0 0 -2.65,-3 z"
         id="path68"
         style="stroke-width:0.291504" />
      <path
         class="cls-4"
         d="m 82.41,25.84 h 2.07 c 0,0 -0.08,0.86 -1.2,0.8 a 0.81,0.81 0 0 1 -0.87,-0.8 z"
         id="path70"
         style="stroke-width:0.291504" />
      <circle
         class="cls-12"
         cx="66.779999"
         cy="31.77"
         r="1.66"
         transform="rotate(-42.81,66.774102,31.766983)"
         id="circle72"
         style="stroke-width:0.291504" />
      <path
         class="cls-12"
         d="m 77.87,36 a 1.21,1.21 0 0 1 -0.33,0 l -10.81,-3 0.66,-2.36 10.39,2.93 7.33,-3.21 1,2.24 -7.73,3.38 A 1.22,1.22 0 0 1 77.87,36 Z"
         id="path74"
         style="stroke-width:0.291504" />
      <path
         class="cls-16"
         d="m 80.7,31.2 1.86,3.93 3.44,-1.9 a 1.85,1.85 0 0 0 0.69,-2.57 v 0 a 1.85,1.85 0 0 0 -2.21,-0.79 z"
         id="path76"
         style="stroke-width:0.291504" />
      <path
         class="cls-13"
         d="m 82.1,25.18 a 1.08,1.08 0 1 1 1.08,-1.08 1.08,1.08 0 0 1 -1.08,1.08 z m 0,-1.87 a 0.79,0.79 0 1 0 0.79,0.79 0.8,0.8 0 0 0 -0.79,-0.79 z"
         id="path78"
         style="stroke-width:0.291504" />
      <path
         class="cls-13"
         d="m 84.42,25.18 a 1.08,1.08 0 1 1 1.08,-1.08 1.08,1.08 0 0 1 -1.08,1.08 z m 0,-1.87 a 0.79,0.79 0 1 0 0.79,0.79 0.8,0.8 0 0 0 -0.79,-0.79 z"
         id="path80"
         style="stroke-width:0.291504" />
      <rect
         class="cls-13"
         x="82.949997"
         y="23.57"
         width="0.56"
         height="0.28999999"
         id="rect82"
         style="stroke-width:0.291504" />
      <rect
         class="cls-13"
         x="85.209999"
         y="23.82"
         width="0.89999998"
         height="0.28999999"
         id="rect84"
         style="stroke-width:0.291504" />
      <path
         class="cls-17"
         d="m 17.45,41.65 h 18.67 a 1,1 0 0 1 1,1 v 5.85 a 1,1 0 0 1 -1,1 h -19.7 v -6.83 a 1,1 0 0 1 1.03,-1.02 z"
         id="path86"
         style="stroke-width:0.291504" />
      <rect
         class="cls-9"
         x="11.38"
         y="39.439999"
         width="29.389999"
         height="7.9000001"
         rx="0.3554588"
         ry="0.35581365"
         id="rect88"
         style="stroke-width:0.291504" />
      <path
         class="cls-4"
         d="M 37.28,42.38 H 20.93 a 0.26,0.26 0 0 1 0,-0.51 h 16.35 a 0.26,0.26 0 0 1 0,0.51 z"
         id="path90"
         style="stroke-width:0.291504" />
      <path
         class="cls-4"
         d="m 28.49,44.92 h -7.56 a 0.26,0.26 0 0 1 0,-0.51 h 7.55 a 0.26,0.26 0 0 1 0,0.51 z"
         id="path92"
         style="stroke-width:0.291504" />
      <path
         class="cls-18"
         d="M 34.81,76.44 19.88,74.08 a 0.23,0.23 0 0 1 -0.19,-0.27 v 0 a 0.23,0.23 0 0 1 0.27,-0.19 L 34.88,76 a 0.23,0.23 0 0 1 0.19,0.27 v 0 a 0.23,0.23 0 0 1 -0.26,0.17 z"
         id="path94"
         style="stroke-width:0.291504" />
      <path
         class="cls-9"
         d="M 29.8,77.44 H 16.36 a 0.21,0.21 0 0 1 -0.21,-0.21 v 0 a 0.21,0.21 0 0 1 0.21,-0.21 H 29.8 a 0.21,0.21 0 0 1 0.21,0.21 v 0 a 0.21,0.21 0 0 1 -0.21,0.21 z"
         id="path96"
         style="stroke-width:0.291504" />
      <path
         class="cls-4"
         d="m 15.45,45.62 a 0.45,0.45 0 0 1 -0.3,-0.12 l -1.78,-1.72 a 0.50204581,0.50204581 0 0 1 0.71,-0.71 v 0 l 1.43,1.43 3.39,-2.74 a 0.4615734,0.4615734 0 0 1 0.59,0.71 l -3.69,3 a 0.51,0.51 0 0 1 -0.35,0.15 z"
         id="path98"
         style="stroke-width:0.291504" />
      <path
         class="cls-19"
         d="m 50.36,38.51 -0.73,2.74 -2.68,0.06 a 10.56,10.56 0 0 1 -0.08,-9.84 v 0 l 2.39,0.44 1,2.37 a 6.29,6.29 0 0 0 0.06,4.24 z"
         id="path100"
         style="stroke-width:0.291504" />
      <path
         class="cls-20"
         d="m 66.59,34.34 a 10.54,10.54 0 0 1 -3.76,10.19 v 0 l -3,-0.15 -0.43,-2.66 a 6.28,6.28 0 0 0 2.7,-3.21 h -5.64 v -4.17 z"
         id="path102"
         style="stroke-width:0.291504" />
      <path
         class="cls-21"
         d="m 62.83,44.53 v 0 A 10.54,10.54 0 0 1 46.95,41.31 l 3.42,-2.8 a 6.27,6.27 0 0 0 9,3.21 z"
         id="path104"
         style="stroke-width:0.291504" />
      <path
         class="cls-22"
         d="M 63,28.2 59.54,31 a 6.27,6.27 0 0 0 -9.24,3.28 l -3.43,-2.81 v 0 A 10.54,10.54 0 0 1 63,28.2 Z"
         id="path106"
         style="stroke-width:0.291504" />
    </g>
  </g>
</svg>
