<?xml version="1.0" encoding="UTF-8" standalone="no"?>
<svg
   xmlns:dc="http://purl.org/dc/elements/1.1/"
   xmlns:cc="http://creativecommons.org/ns#"
   xmlns:rdf="http://www.w3.org/1999/02/22-rdf-syntax-ns#"
   xmlns:svg="http://www.w3.org/2000/svg"
   xmlns="http://www.w3.org/2000/svg"
   xmlns:sodipodi="http://sodipodi.sourceforge.net/DTD/sodipodi-0.dtd"
   xmlns:inkscape="http://www.inkscape.org/namespaces/inkscape"
   class="main-header__logo-image"
   fill="#a1a1a1"
   role="presentation"
   viewBox="0 0 435.97 435.96999"
   version="1.1"
   id="svg16"
   sodipodi:docname="google-pay.svg"
   width="435.97"
   height="435.97"
   inkscape:version="1.0.2-2 (e86c870879, 2021-01-15)">
  <metadata
     id="metadata22">
    <rdf:RDF>
      <cc:Work
         rdf:about="">
        <dc:format>image/svg+xml</dc:format>
        <dc:type
           rdf:resource="http://purl.org/dc/dcmitype/StillImage" />
        <dc:title></dc:title>
      </cc:Work>
    </rdf:RDF>
  </metadata>
  <defs
     id="defs20" />
  <sodipodi:namedview
     pagecolor="#ffffff"
     bordercolor="#666666"
     borderopacity="1"
     objecttolerance="10"
     gridtolerance="10"
     guidetolerance="10"
     inkscape:pageopacity="0"
     inkscape:pageshadow="2"
     inkscape:window-width="1920"
     inkscape:window-height="1009"
     id="namedview18"
     showgrid="false"
     units="mm"
     inkscape:zoom="0.80668502"
     inkscape:cx="217.985"
     inkscape:cy="86.565002"
     inkscape:window-x="1272"
     inkscape:window-y="-8"
     inkscape:window-maximized="1"
     inkscape:current-layer="svg16" />
  <path
     d="m 206.2,220.58 v 50.75 H 190.1 V 146 h 42.7 a 38.61,38.61 0 0 1 27.65,10.85 34.88,34.88 0 0 1 11.55,26.45 34.72,34.72 0 0 1 -11.55,26.6 q -11.2,10.68 -27.65,10.67 h -26.6 z m 0,-59.15 v 43.75 h 27 a 21.28,21.28 0 0 0 15.93,-6.48 21.36,21.36 0 0 0 0,-30.63 21,21 0 0 0 -15.93,-6.65 h -27 z"
     fill="#5f6368"
     id="path2" />
  <path
     d="m 309.1,182.78 q 17.85,0 28.18,9.54 10.33,9.54 10.32,26.16 v 52.85 h -15.4 v -11.9 h -0.7 q -10,14.7 -26.6,14.7 -14.17,0 -23.71,-8.4 a 26.82,26.82 0 0 1 -9.54,-21 q 0,-13.31 10.06,-21.17 10.06,-7.86 26.86,-7.88 14.34,0 23.62,5.25 v -3.68 A 18.33,18.33 0 0 0 325.54,203 22.8,22.8 0 0 0 310,197.13 q -13.49,0 -21.35,11.38 l -14.18,-8.93 q 11.7,-16.8 34.63,-16.8 z m -20.83,62.3 a 12.86,12.86 0 0 0 5.34,10.5 19.64,19.64 0 0 0 12.51,4.2 25.67,25.67 0 0 0 18.11,-7.52 q 8,-7.53 8,-17.67 -7.53,-6 -21,-6 -9.81,0 -16.36,4.73 c -4.41,3.2 -6.6,7.09 -6.6,11.76 z"
     fill="#5f6368"
     id="path4" />
  <path
     d="m 436,185.58 -53.76,123.55 h -16.62 l 19.95,-43.23 -35.35,-80.32 h 17.5 l 25.55,61.6 h 0.35 l 24.85,-61.6 z"
     fill="#5f6368"
     id="path6" />
  <path
     d="M 141.14,209.64 A 85.79,85.79 0 0 0 139.9,195 H 72 v 27.73 h 38.89 a 33.33,33.33 0 0 1 -14.38,21.88 v 18 h 23.21 c 13.59,-12.53 21.42,-31.06 21.42,-52.97 z"
     fill="#4285f4"
     id="path8" />
  <path
     d="m 72,280 c 19.43,0 35.79,-6.38 47.72,-17.38 l -23.21,-18 C 90.05,249 81.73,251.5 72,251.5 53.22,251.5 37.28,238.84 31.58,221.78 H 7.67 v 18.55 A 72,72 0 0 0 72,280 Z"
     fill="#34a853"
     id="path10" />
  <path
     d="m 31.58,221.78 a 43.14,43.14 0 0 1 0,-27.56 V 175.67 H 7.67 a 72,72 0 0 0 0,64.66 z"
     fill="#fbbc04"
     id="path12" />
  <path
     d="m 72,164.5 a 39.09,39.09 0 0 1 27.62,10.8 v 0 l 20.55,-20.55 A 69.18,69.18 0 0 0 72,136 72,72 0 0 0 7.67,175.67 l 23.91,18.55 C 37.28,177.16 53.22,164.5 72,164.5 Z"
     fill="#ea4335"
     id="path14" />
</svg>
