<?xml version="1.0" encoding="UTF-8" standalone="no"?>
<svg
   xmlns:dc="http://purl.org/dc/elements/1.1/"
   xmlns:cc="http://creativecommons.org/ns#"
   xmlns:rdf="http://www.w3.org/1999/02/22-rdf-syntax-ns#"
   xmlns:svg="http://www.w3.org/2000/svg"
   xmlns="http://www.w3.org/2000/svg"
   xmlns:sodipodi="http://sodipodi.sourceforge.net/DTD/sodipodi-0.dtd"
   xmlns:inkscape="http://www.inkscape.org/namespaces/inkscape"
   viewBox="0 0 40 50"
   width="50"
   height="62.5"
   version="1.1"
   id="svg16"
   sodipodi:docname="hoja-azul.svg"
   inkscape:version="1.0.1 (3bc2e813f5, 2020-09-07)">
  <metadata
     id="metadata22">
    <rdf:RDF>
      <cc:Work
         rdf:about="">
        <dc:format>image/svg+xml</dc:format>
        <dc:type
           rdf:resource="http://purl.org/dc/dcmitype/StillImage" />
        <dc:title></dc:title>
      </cc:Work>
    </rdf:RDF>
  </metadata>
  <defs
     id="defs20" />
  <sodipodi:namedview
     pagecolor="#ffffff"
     bordercolor="#666666"
     borderopacity="1"
     objecttolerance="10"
     gridtolerance="10"
     guidetolerance="10"
     inkscape:pageopacity="0"
     inkscape:pageshadow="2"
     inkscape:window-width="1920"
     inkscape:window-height="1027"
     id="namedview18"
     showgrid="false"
     inkscape:zoom="9.5555556"
     inkscape:cx="25"
     inkscape:cy="31.25"
     inkscape:window-x="1272"
     inkscape:window-y="-8"
     inkscape:window-maximized="1"
     inkscape:current-layer="svg16" />
  <g
     id="g14"
     transform="translate(-16,-11)">
    <path
       d="M 50,61 H 22 A 6,6 0 0 1 16,55 V 22 l 9,-11 h 25 a 6,6 0 0 1 6,6 v 38 a 6,6 0 0 1 -6,6 z"
       fill="#599def"
       id="path2" />
    <path
       d="M 25,20.556 A 1.444,1.444 0 0 1 23.556,22 H 16 l 9,-11 v 0 z"
       fill="#c2e1ff"
       id="path4" />
    <rect
       x="27"
       y="31"
       width="18"
       height="2"
       rx="1"
       ry="1"
       fill="#ffffff"
       id="rect6" />
    <rect
       x="27"
       y="36"
       width="18"
       height="2"
       rx="1"
       ry="1"
       fill="#ffffff"
       id="rect8" />
    <rect
       x="27"
       y="41"
       width="18"
       height="2"
       rx="1"
       ry="1"
       fill="#ffffff"
       id="rect10" />
    <rect
       x="27"
       y="46"
       width="12"
       height="2"
       rx="1"
       ry="1"
       fill="#ffffff"
       id="rect12" />
  </g>
</svg>
