<?xml version="1.0" encoding="UTF-8" standalone="no"?>
<svg
   xmlns:dc="http://purl.org/dc/elements/1.1/"
   xmlns:cc="http://creativecommons.org/ns#"
   xmlns:rdf="http://www.w3.org/1999/02/22-rdf-syntax-ns#"
   xmlns:svg="http://www.w3.org/2000/svg"
   xmlns="http://www.w3.org/2000/svg"
   xmlns:sodipodi="http://sodipodi.sourceforge.net/DTD/sodipodi-0.dtd"
   xmlns:inkscape="http://www.inkscape.org/namespaces/inkscape"
   viewBox="0 0 36 50"
   width="45"
   height="62.5"
   version="1.1"
   id="svg10"
   sodipodi:docname="hoja-pdf.svg"
   inkscape:version="1.0.1 (3bc2e813f5, 2020-09-07)">
  <metadata
     id="metadata16">
    <rdf:RDF>
      <cc:Work
         rdf:about="">
        <dc:format>image/svg+xml</dc:format>
        <dc:type
           rdf:resource="http://purl.org/dc/dcmitype/StillImage" />
        <dc:title></dc:title>
      </cc:Work>
    </rdf:RDF>
  </metadata>
  <defs
     id="defs14" />
  <sodipodi:namedview
     pagecolor="#ffffff"
     bordercolor="#666666"
     borderopacity="1"
     objecttolerance="10"
     gridtolerance="10"
     guidetolerance="10"
     inkscape:pageopacity="0"
     inkscape:pageshadow="2"
     inkscape:window-width="1280"
     inkscape:window-height="1001"
     id="namedview12"
     showgrid="false"
     inkscape:zoom="9.5555556"
     inkscape:cx="22.5"
     inkscape:cy="31.25"
     inkscape:window-x="-8"
     inkscape:window-y="-8"
     inkscape:window-maximized="1"
     inkscape:current-layer="svg10" />
  <path
     d="M 31,50 H 5 A 5.0147,5.0147 0 0 1 0,45 V 5 A 5.0147,5.0147 0 0 1 5,0 H 22.9091 L 36,11.1111 V 45 a 5.0147,5.0147 0 0 1 -5,5 z"
     fill="#e3edfc"
     id="path2" />
  <path
     d="M 36,11.1111 H 26.1818 A 3.3034,3.3034 0 0 1 22.9091,7.7778 V 0 c 0,0 1.8409,0.2083 6.9545,4.5833 C 34.8409,9.0972 36,11.1111 36,11.1111 Z"
     fill="#b7d0ea"
     id="path4" />
  <path
     d="M 1.03,48 A 4.9835,4.9835 0 0 0 5,50 h 26 a 4.9835,4.9835 0 0 0 3.97,-2 z"
     fill="#c4dbf2"
     id="path6" />
  <path
     d="M 28.3342,33.5381 A 4.326,4.326 0 0 0 25.8064,32.1092 22.436,22.436 0 0 0 21.2445,31.7264 19.3561,19.3561 0 0 1 17.82,26.9536 56.5075,56.5075 0 0 0 19.1945,20.8678 2.339,2.339 0 0 0 18.7332,19.0234 1.9429,1.9429 0 0 0 17.217,18.2704 h -0.0014 a 1.6846,1.6846 0 0 0 -1.3893,0.6966 c -1.1493,1.5257 -0.3638,5.219 -0.1941,5.9457 a 12.6118,12.6118 0 0 0 0.7236,2.1477 33.3221,33.3221 0 0 1 -2.49,6.1052 20.3467,20.3467 0 0 0 -5.9787,3.4413 2.5681,2.5681 0 0 0 -0.8861,1.8265 1.8025,1.8025 0 0 0 0.6345,1.3056 2.0613,2.0613 0 0 0 1.3942,0.5313 2.2436,2.2436 0 0 0 1.4592,-0.5459 20.0678,20.0678 0 0 0 4.2893,-5.3578 20.8384,20.8384 0 0 1 5.939,-1.1858 33.75,33.75 0 0 0 4.2428,3.605 2.6392,2.6392 0 0 0 3.416,-0.2358 2.08,2.08 0 0 0 -0.0418,-3.0119 z M 9.6194,38.6234 A 0.8344,0.8344 0 0 1 8.5347,38.6647 0.4208,0.4208 0 0 1 8.3681,38.3952 c -0.0018,-0.0657 0.0271,-0.3147 0.4408,-0.736 a 18.0382,18.0382 0 0 1 3.7608,-2.368 17.26,17.26 0 0 1 -2.9503,3.3322 z M 16.9023,19.848 a 0.343,0.343 0 0 1 0.3144,-0.1514 0.6008,0.6008 0 0 1 0.4649,0.2389 0.853,0.853 0 0 1 0.1683,0.6722 v 0 c -0.1638,0.92 -0.4235,2.381 -0.8523,4.1168 -0.0125,-0.05 -0.0249,-0.1 -0.037,-0.1506 -0.3553,-1.5231 -0.6083,-3.996 -0.0583,-4.7259 z m -1.1792,12.7027 a 34.9732,34.9732 0 0 0 1.52,-3.7664 21.2484,21.2484 0 0 0 2.2242,3.05 21.8571,21.8571 0 0 0 -3.7442,0.7164 z m 11.7054,2.97 a 1.3085,1.3085 0 0 1 -1.6943,0.0887 33.2027,33.2027 0 0 1 -3.0038,-2.43 20.9677,20.9677 0 0 1 2.8346,0.3335 2.97,2.97 0 0 1 1.7406,0.9647 c 0.5321,0.6339 0.2957,0.8707 0.1229,1.0436 z"
     fill="#f26b6b"
     id="path8" />
</svg>
