<?xml version="1.0" encoding="UTF-8" standalone="no"?>
<svg
   xmlns:dc="http://purl.org/dc/elements/1.1/"
   xmlns:cc="http://creativecommons.org/ns#"
   xmlns:rdf="http://www.w3.org/1999/02/22-rdf-syntax-ns#"
   xmlns:svg="http://www.w3.org/2000/svg"
   xmlns="http://www.w3.org/2000/svg"
   xmlns:sodipodi="http://sodipodi.sourceforge.net/DTD/sodipodi-0.dtd"
   xmlns:inkscape="http://www.inkscape.org/namespaces/inkscape"
   id="Icons"
   height="512"
   viewBox="0 0 60 60"
   width="512"
   version="1.1"
   sodipodi:docname="importar.svg"
   inkscape:version="1.0.2-2 (e86c870879, 2021-01-15)">
  <metadata
     id="metadata23">
    <rdf:RDF>
      <cc:Work
         rdf:about="">
        <dc:format>image/svg+xml</dc:format>
        <dc:type
           rdf:resource="http://purl.org/dc/dcmitype/StillImage" />
        <dc:title></dc:title>
      </cc:Work>
    </rdf:RDF>
  </metadata>
  <defs
     id="defs21" />
  <sodipodi:namedview
     pagecolor="#ffffff"
     bordercolor="#666666"
     borderopacity="1"
     objecttolerance="10"
     gridtolerance="10"
     guidetolerance="10"
     inkscape:pageopacity="0"
     inkscape:pageshadow="2"
     inkscape:window-width="1920"
     inkscape:window-height="1009"
     id="namedview19"
     showgrid="false"
     inkscape:zoom="1.6006516"
     inkscape:cx="256"
     inkscape:cy="256"
     inkscape:window-x="1272"
     inkscape:window-y="-8"
     inkscape:window-maximized="1"
     inkscape:current-layer="Icons" />
  <path
     d="m41 8v21.3l-10.66 20.89a51.578 51.578 0 0 1 -9.34.81c-11.05 0-20-3.13-20-7v-36z"
     fill="#35718a"
     id="path2" />
  <ellipse
     cx="21"
     cy="8"
     fill="#4184a9"
     rx="20"
     ry="7"
     id="ellipse4" />
  <path
     d="m30.15 38.23a52.517 52.517 0 0 1 -9.15.77c-11.05 0-20-3.13-20-7v-12c0 3.866 8.954 7 20 7s20-3.134 20-7v10z"
     fill="#4184a9"
     id="path6" />
  <circle
     cx="44"
     cy="-44"
     fill="#4ab591"
     r="15"
     id="circle8"
     transform="scale(1,-1)" />
  <path
     d="m 50.487,46.487 -0.976,-0.976 a 1.305,-1.305 0 0 0 -1.844,0 L 46,47.17 V 35 a 1,-1 0 0 0 -1,-1 h -2 a 1,-1 0 0 0 -1,1 v 12.17 l -1.667,-1.661 a 1.305,-1.305 0 0 0 -1.844,0 l -0.976,0.976 a 1.3,-1.3 0 0 0 0,1.846 l 5.077,5.079 a 1.974,-1.974 0 0 0 2.82,0 l 5.077,-5.077 a 1.3,-1.3 0 0 0 0,-1.846 z"
     fill="#ffffff"
     id="path10" />
  <path
     d="m6 19.631a1 1 0 0 1 -.369-.071q-.55-.219-1.054-.453a1 1 0 0 1 .846-1.813q.45.211.946.407a1 1 0 0 1 -.369 1.93z"
     fill="#fde05e"
     id="path12" />
  <path
     d="m11 21.063a.967.967 0 0 1 -.2-.02q-.524-.105-1.026-.221a1 1 0 1 1 .448-1.949c.319.073.643.143.974.21a1 1 0 0 1 -.2 1.98z"
     fill="#86fdaa"
     id="path14" />
  <path
     d="M 44,28 A 16,-16 0 1 0 60,44 16.019,-16.019 0 0 0 44,28 Z m 0,30 A 14,-14 0 1 1 58,44 14.015,-14.015 0 0 1 44,58 Z"
     fill="#5acca6"
     id="path16" />
</svg>
