<svg id="Capa_1" enable-background="new 0 0 512 512" height="512" viewBox="0 0 512 512" width="512" xmlns="http://www.w3.org/2000/svg"><g><g><path d="m424.073 155.137-26.834 9.29-26.834-9.29-9.29-18.815 9.29-28.106h48.507c2.85 0 5.161 2.311 5.161 5.161z" fill="#454d58"/><path d="m424.073 173.718-26.834 9.29-26.834-9.29-9.29-9.29 9.29-9.291h53.668z" fill="#3c434c"/><path d="m87.927 155.137 26.834 9.29 26.834-9.29 9.29-18.815-9.29-28.106h-48.507c-2.851 0-5.161 2.311-5.161 5.161z" fill="#454d58"/><path d="m87.927 173.718 26.834 9.29 26.834-9.29 9.29-9.29-9.29-9.291h-53.668z" fill="#3c434c"/><path d="m370.405 155.137-114.405 9.291-114.405-9.29v-101.809c0-2.85 2.311-5.161 5.161-5.161h218.488c2.85 0 5.161 2.311 5.161 5.161z" fill="#eceaec"/><path d="m141.595 173.718 114.405 9.29 114.405-9.29v-18.581h-228.81z" fill="#dad8db"/><path d="m501.677 394.628h-40.243l-9.29-9.29-9.29-101.165 9.29-110.455h28.888c17.103 0 30.968 13.865 30.968 30.968v170.329c0 5.701-1.427 19.613-10.323 19.613z" fill="#454d58"/><path d="m512 375.015v18.581c0 5.701-4.622 10.323-10.323 10.323h-49.533l-9.29-9.29 9.29-9.29h49.533c5.701-.002 10.323-4.623 10.323-10.324z" fill="#3c434c"/><path d="m10.323 394.628h40.243l9.29-9.29 9.29-101.165-9.29-110.455h-28.888c-17.103 0-30.968 13.865-30.968 30.968v170.329c0 5.701 1.427 19.613 10.323 19.613z" fill="#454d58"/><path d="m0 375.015v18.581c0 5.701 4.622 10.323 10.323 10.323h49.533l9.29-9.29-9.29-9.29h-49.533c-5.701-.002-10.323-4.623-10.323-10.324z" fill="#3c434c"/><path d="m452.144 385.337-196.144 9.291-196.144-9.291v-211.619h392.288z" fill="#a6aec4"/><path d="m59.856 385.337h392.288v18.581h-392.288z" fill="#959db0"/><path d="m365.244 463.832h-218.488c-2.85 0-5.161-2.311-5.161-5.161v-74.806l114.405-9.29 114.405 9.29v74.806c0 2.85-2.311 5.161-5.161 5.161z" fill="#eceaec"/><path d="m141.595 365.284v18.581h228.81v-18.581l-114.405-9.29z" fill="#dad8db"/><path d="m399.008 365.284h-286.016c-4.276 0-7.742-3.466-7.742-7.742s3.466-7.742 7.742-7.742h286.016c4.276 0 7.742 3.466 7.742 7.742 0 4.277-3.466 7.742-7.742 7.742z" fill="#454d58"/></g><g><path d="m399.288 229.064c4.284 0 7.757-3.473 7.757-7.757 0-4.285-3.473-7.757-7.757-7.757h-19.35c-4.284 0-7.757 3.473-7.757 7.757 0 4.285 3.473 7.757 7.757 7.757z" fill="#95d6a4"/><path d="m347.882 229.064c4.284 0 7.757-3.473 7.757-7.757 0-4.285-3.473-7.757-7.757-7.757h-19.351c-4.284 0-7.757 3.473-7.757 7.757 0 4.285 3.473 7.757 7.757 7.757z" fill="#eacc73"/><path d="m296.475 229.064c4.284 0 7.757-3.473 7.757-7.757 0-4.285-3.473-7.757-7.757-7.757h-19.351c-4.284 0-7.757 3.473-7.757 7.757 0 4.285 3.473 7.757 7.757 7.757z" fill="#df667c"/></g></g></svg>