<?xml version="1.0" encoding="UTF-8" standalone="no"?>
<svg
   xmlns:dc="http://purl.org/dc/elements/1.1/"
   xmlns:cc="http://creativecommons.org/ns#"
   xmlns:rdf="http://www.w3.org/1999/02/22-rdf-syntax-ns#"
   xmlns:svg="http://www.w3.org/2000/svg"
   xmlns="http://www.w3.org/2000/svg"
   xmlns:sodipodi="http://sodipodi.sourceforge.net/DTD/sodipodi-0.dtd"
   xmlns:inkscape="http://www.inkscape.org/namespaces/inkscape"
   version="1.1"
   id="Capa_1"
   x="0px"
   y="0px"
   viewBox="0 0 512 341.34201"
   xml:space="preserve"
   sodipodi:docname="is.svg"
   width="512"
   height="341.34201"
   inkscape:version="1.0.1 (3bc2e813f5, 2020-09-07)"><metadata
   id="metadata43"><rdf:RDF><cc:Work
       rdf:about=""><dc:format>image/svg+xml</dc:format><dc:type
         rdf:resource="http://purl.org/dc/dcmitype/StillImage" /></cc:Work></rdf:RDF></metadata><defs
   id="defs41" /><sodipodi:namedview
   pagecolor="#ffffff"
   bordercolor="#666666"
   borderopacity="1"
   objecttolerance="10"
   gridtolerance="10"
   guidetolerance="10"
   inkscape:pageopacity="0"
   inkscape:pageshadow="2"
   inkscape:window-width="1920"
   inkscape:window-height="1027"
   id="namedview39"
   showgrid="false"
   inkscape:zoom="1.6796875"
   inkscape:cx="256"
   inkscape:cy="170.671"
   inkscape:window-x="1272"
   inkscape:window-y="-8"
   inkscape:window-maximized="1"
   inkscape:current-layer="Capa_1" />
<rect
   y="0.0049996339"
   style="fill:#0052b4"
   width="512"
   height="341.33701"
   id="rect2"
   x="0" />
<polygon
   style="fill:#f0f0f0"
   points="202.195,426.666 183.652,426.666 140.978,426.666 122.435,426.666 122.435,295.883 0,295.883 0,277.329 0,234.666 0,216.111 122.435,216.111 122.435,85.329 140.978,85.329 183.652,85.329 202.195,85.329 202.195,216.111 512,216.111 512,234.666 512,277.329 512,295.883 202.195,295.883 "
   id="polygon4"
   transform="translate(0,-85.329)" />
<polygon
   style="fill:#d80027"
   points="183.652,277.329 183.652,426.666 140.978,426.666 140.978,277.329 0,277.329 0,234.666 140.978,234.666 140.978,85.329 183.652,85.329 183.652,234.666 512,234.666 512,277.329 "
   id="polygon6"
   transform="translate(0,-85.329)" />
<g
   id="g8"
   transform="translate(0,-85.329)">
</g>
<g
   id="g10"
   transform="translate(0,-85.329)">
</g>
<g
   id="g12"
   transform="translate(0,-85.329)">
</g>
<g
   id="g14"
   transform="translate(0,-85.329)">
</g>
<g
   id="g16"
   transform="translate(0,-85.329)">
</g>
<g
   id="g18"
   transform="translate(0,-85.329)">
</g>
<g
   id="g20"
   transform="translate(0,-85.329)">
</g>
<g
   id="g22"
   transform="translate(0,-85.329)">
</g>
<g
   id="g24"
   transform="translate(0,-85.329)">
</g>
<g
   id="g26"
   transform="translate(0,-85.329)">
</g>
<g
   id="g28"
   transform="translate(0,-85.329)">
</g>
<g
   id="g30"
   transform="translate(0,-85.329)">
</g>
<g
   id="g32"
   transform="translate(0,-85.329)">
</g>
<g
   id="g34"
   transform="translate(0,-85.329)">
</g>
<g
   id="g36"
   transform="translate(0,-85.329)">
</g>
</svg>
