<svg height="512pt" viewBox="0 -13 512 511" width="512pt" xmlns="http://www.w3.org/2000/svg"><path d="m488.199219 240.261719c5.449219 8.058593 8.648437 17.75 8.648437 28.1875 0 27.851562-22.667968 50.511719-50.519531 50.511719h-125.019531l17.980468 45.75c7.960938 19.410156 12 39.878906 12 60.847656 0 33.382812-27.148437 60.53125-60.527343 60.53125h-17.332031c-14.339844 0-26.601563-10.238282-29.160157-24.351563l-8.097656-44.609375-94.230469-109.007812h-47.160156v-269.449219l89.699219-33.832031h229.007812c27.851563 0 50.511719 22.660156 50.511719 50.511718 0 8.597657-2.171875 16.6875-5.980469 23.777344 19.070313 7.230469 32.671875 25.679688 32.671875 47.25 0 9.371094-2.570312 18.140625-7.019531 25.660156 8.199219 4.019532 15.148437 10.210938 20.109375 17.800782 5.199219 7.929687 8.21875 17.410156 8.21875 27.582031 0 18.046875-9.519531 33.90625-23.800781 42.839844zm0 0" fill="#ffcdc0"/><path d="m488.199219 240.261719c5.449219 8.058593 8.648437 17.75 8.648437 28.1875 0 27.851562-22.667968 50.511719-50.519531 50.511719h-125.019531l17.980468 45.75c7.960938 19.410156 12 39.878906 12 60.847656 0 33.382812-27.148437 60.53125-60.527343 60.53125h-17.332031c-14.339844 0-26.601563-10.238282-29.160157-24.351563l-8.097656-44.609375-94.230469-109.007812h-47.160156v-138.28125h409c5.199219 7.929687 8.21875 17.410156 8.21875 27.582031 0 18.046875-9.519531 33.90625-23.800781 42.839844zm0 0" fill="#ffb99d"/><path d="m0 .5h114v336.25h-114zm0 0" fill="#fc4a48"/><path d="m0 169.839844h114v166.910156h-114zm0 0" fill="#fc1c5c"/></svg>