<?xml version="1.0" encoding="iso-8859-1"?>
<!-- Generator: Adobe Illustrator 21.0.0, SVG Export Plug-In . SVG Version: 6.00 Build 0)  -->
<svg xmlns="http://www.w3.org/2000/svg" xmlns:xlink="http://www.w3.org/1999/xlink" version="1.1" id="Capa_1" x="0px" y="0px" viewBox="0 0 512 512" style="enable-background:new 0 0 512 512;" xml:space="preserve" width="512" height="512">
<g>
	<path style="fill:#575F64;" d="M451,45v452c0,8.399-6.599,15-15,15H76c-8.401,0-15-6.601-15-15V45c0-8.401,6.599-15,15-15h360   C444.401,30,451,36.599,451,45z"/>
	<path style="fill:#32393F;" d="M451,45v452c0,8.399-6.599,15-15,15H256V30h180C444.401,30,451,36.599,451,45z"/>
	<polygon style="fill:#FFF5F5;" points="421,60 421,482 91,482 91,60 166,60 196.901,30 316,30 346,60  "/>
	<polygon style="fill:#EFE2DD;" points="421,60 421,482 256,482 256,30 316,30 346,60  "/>
	<path style="fill:#FF637B;" d="M331,0H181c-8.401,0-15,6.599-15,15v45h180V15C346,6.599,339.401,0,331,0z"/>
	<path style="fill:#EFE2DD;" d="M391,166c0,8.399-6.599,15-15,15H256c-8.401,0-15-6.601-15-15c0-8.401,6.599-15,15-15h120   C384.401,151,391,157.599,391,166z"/>
	<path style="fill:#EFE2DD;" d="M391,286c0,8.399-6.599,15-15,15H256c-8.401,0-15-6.601-15-15c0-8.401,6.599-15,15-15h120   C384.401,271,391,277.599,391,286z"/>
	<path style="fill:#EFE2DD;" d="M391,406c0,8.399-6.599,15-15,15H256c-8.401,0-15-6.601-15-15c0-8.401,6.599-15,15-15h120   C384.401,391,391,397.599,391,406z"/>
	<path style="fill:#7FE881;" d="M155.395,326.605l-30-30c-5.859-5.859-5.859-15.352,0-21.211s15.352-5.859,21.211,0l16.699,16.699   l22.998-36.577c4.424-6.987,13.726-9.067,20.684-4.717c7.017,4.409,9.126,13.667,4.717,20.684l-33.003,52.5   C173.521,332.22,162.139,333.35,155.395,326.605z"/>
	<path style="fill:#E63950;" d="M346,60h-90V0h75c8.401,0,15,6.599,15,15V60z"/>
	<path style="fill:#CDBFBA;" d="M391,406c0,8.399-6.599,15-15,15H256v-30h120C384.401,391,391,397.599,391,406z"/>
	<path style="fill:#CDBFBA;" d="M391,286c0,8.399-6.599,15-15,15H256v-30h120C384.401,271,391,277.599,391,286z"/>
	<path style="fill:#CDBFBA;" d="M376,181H256v-30h120c8.401,0,15,6.599,15,15C391,174.399,384.401,181,376,181z"/>
	<path style="fill:#FF637B;" d="M166,211c-24.814,0-45-20.186-45-45s20.186-45,45-45s45,20.186,45,45S190.814,211,166,211z"/>
	<path style="fill:#FFF5F5;" d="M166,151c-8.276,0-15,6.724-15,15s6.724,15,15,15s15-6.724,15-15S174.276,151,166,151z"/>
	<path style="fill:#FF637B;" d="M166,451c-24.814,0-45-20.186-45-45s20.186-45,45-45s45,20.186,45,45S190.814,451,166,451z"/>
	<path style="fill:#FFF5F5;" d="M166,391c-8.276,0-15,6.724-15,15s6.724,15,15,15s15-6.724,15-15S174.276,391,166,391z"/>
</g>















</svg>
