<?xml version="1.0" encoding="UTF-8" standalone="no"?>
<svg
   xmlns:dc="http://purl.org/dc/elements/1.1/"
   xmlns:cc="http://creativecommons.org/ns#"
   xmlns:rdf="http://www.w3.org/1999/02/22-rdf-syntax-ns#"
   xmlns:svg="http://www.w3.org/2000/svg"
   xmlns="http://www.w3.org/2000/svg"
   xmlns:xlink="http://www.w3.org/1999/xlink"
   xmlns:sodipodi="http://sodipodi.sourceforge.net/DTD/sodipodi-0.dtd"
   xmlns:inkscape="http://www.inkscape.org/namespaces/inkscape"
   width="150"
   height="257"
   viewBox="0 0 150 257"
   version="1.1"
   id="svg30"
   sodipodi:docname="medalla-bronce.svg"
   inkscape:export-filename="Z:\imagenes para webs\ADMINISTRACIÓN GRUPO5 - Responsive web design 2021\web\medalla-oro.png"
   inkscape:export-xdpi="96"
   inkscape:export-ydpi="96"
   inkscape:version="1.0.2-2 (e86c870879, 2021-01-15)">
  <metadata
     id="metadata34">
    <rdf:RDF>
      <cc:Work
         rdf:about="">
        <dc:format>image/svg+xml</dc:format>
        <dc:type
           rdf:resource="http://purl.org/dc/dcmitype/StillImage" />
        <dc:title>Badge</dc:title>
      </cc:Work>
    </rdf:RDF>
  </metadata>
  <sodipodi:namedview
     pagecolor="#ffffff"
     bordercolor="#666666"
     borderopacity="1"
     objecttolerance="10"
     gridtolerance="10"
     guidetolerance="10"
     inkscape:pageopacity="0"
     inkscape:pageshadow="2"
     inkscape:window-width="1920"
     inkscape:window-height="1009"
     id="namedview32"
     showgrid="false"
     inkscape:zoom="3.0214649"
     inkscape:cx="38.5"
     inkscape:cy="66"
     inkscape:window-x="1272"
     inkscape:window-y="-8"
     inkscape:window-maximized="1"
     inkscape:current-layer="Badge"
     inkscape:document-rotation="0" />
  <title
     id="title2">Badge</title>
  <defs
     id="defs15">
    <polygon
       id="path-1"
       points="65.669633,0.15463545 65.669633,73.948939 0.31217203,73.948939 0.31217203,0.15463545 " />
    <linearGradient
       x1="51.857899"
       y1="8.7653294"
       x2="24.260666"
       y2="66.354256"
       id="1"
       gradientTransform="matrix(0.94110085,0,0,1.0625854,20,0)"
       gradientUnits="userSpaceOnUse"
       spreadMethod="pad">
      <stop
         stop-color="#FFDE78"
         offset="0%"
         id="stop5" />
      <stop
         stop-color="#FFBA3B"
         offset="100%"
         id="stop7" />
    </linearGradient>
    <linearGradient
       x1="0.84444427"
       y1="0.12870538"
       x2="0.24602915"
       y2="0.88536948"
       id="linearGradient-4">
      <stop
         stop-color="#FFD06D"
         offset="0%"
         id="stop10" />
      <stop
         stop-color="#F99912"
         offset="100%"
         id="stop12" />
    </linearGradient>
  </defs>
  <g
     id="⚙️-Symbols"
     stroke="none"
     stroke-width="1"
     fill="none"
     fill-rule="evenodd">
    <g
       id="28)-Widgets/1)-Advanced/Congratulations"
       transform="translate(-236)">
      <g
         id="Badge"
         transform="translate(236)">
        <polygon
           id="Fill-1"
           fill="#6359cf"
           points="51.075001,62 77,0 56.500205,0 32,62 "
           transform="scale(1.9480519,1.9477231)"
           style="stroke-width:0.513377" />
        <g
           id="Group-4"
           transform="matrix(1.9480519,0,0,1.9477231,-25.324675,112.96794)"
           style="stroke-width:0.513377">
          <mask
             id="mask-2"
             fill="#ffffff">
            <use
               xlink:href="#path-1"
               id="use18"
               x="0"
               y="0"
               width="100%"
               height="100%" />
          </mask>
          <g
             id="Clip-3"
             style="stroke-width:0.513377" />
          <path
             d="M 20.291018,10.965559 V 5.5681086 c 0,-0.8775274 0.712331,-1.5923671 1.58769,-1.5923671 h 22.224388 c 0.87536,0 1.58769,0.7148397 1.58769,1.5923671 V 10.965559 C 41.78669,9.3123899 37.495093,8.3982989 32.990902,8.3982989 c -4.50419,0 -8.795788,0.914091 -12.699884,2.5672601 m 29.210061,1.917332 V 5.5681086 c 0,-2.9850722 -2.421678,-5.41347315 -5.397983,-5.41347315 H 21.878708 c -2.976304,0 -5.397573,2.42840095 -5.397573,5.41347315 V 12.882891 C 6.8075295,18.573673 0.31217203,29.11304 0.31217203,41.173701 c 0,18.101468 14.63042697,32.775403 32.67872997,32.775403 18.047894,0 32.678731,-14.673935 32.678731,-32.775403 0,-12.060661 -6.494948,-22.600028 -16.168554,-28.29081"
             id="Fill-2"
             fill="url(#linearGradient-3)"
             mask="url(#mask-2)"
             style="opacity:1;mix-blend-mode:normal;fill:#b8734e;fill-opacity:1;stroke-width:0.513377"
             transform="translate(20)" />
        </g>
        <path
           d="m 77.921264,245.41311 c -29.002774,0 -52.596589,-23.15334 -52.596589,-51.61386 0,-28.46212 23.593815,-51.61546 52.596589,-51.61546 29.002776,0 52.598216,23.15334 52.598216,51.61546 0,28.46052 -23.59544,51.61386 -52.598216,51.61386"
           id="Fill-5"
           fill="url(#linearGradient-4)"
           style="fill:#a96744;fill-opacity:1;stroke-width:1" />
        <path
           d="M 89.166142,211.79231 78.785266,207.426 v 0 l -10.421048,4.2706 c -1.991006,0.81592 -4.266584,-0.13634 -5.082646,-2.12707 -0.231701,-0.56521 -0.327214,-1.17697 -0.278831,-1.78588 l 0.904985,-11.38906 v 0 l -7.306618,-8.78085 c -1.37619,-1.65386 -1.15087,-4.11001 0.503267,-5.48596 0.458626,-0.3815 0.998753,-0.6526 1.578735,-0.79239 l 11.007075,-2.65303 v 0 l 5.942636,-9.63884 c 1.129116,-1.8314 3.529338,-2.40087 5.36105,-1.27195 0.527716,0.32524 0.970191,0.7717 1.290665,1.30227 l 5.855526,9.69431 v 0 l 10.982986,2.75409 c 2.087122,0.52336 3.354722,2.63929 2.831262,4.72605 -0.14511,0.57854 -0.42117,1.11602 -0.80688,1.57103 l -7.385859,8.71282 v 0 l 0.801849,11.39614 c 0.150994,2.1461 -1.466629,4.00824 -3.613085,4.15921 -0.609654,0.0428 -1.22085,-0.0582 -1.784193,-0.29518 z"
           id="Fill-105"
           fill="#FFEFB9"
           style="fill:#d2a68f;fill-opacity:1;stroke-width:1" />
        <polygon
           id="Fill-116"
           fill="#7367f0"
           points="52,63 30.616819,63 1.5262791e-13,0 22.769353,0 "
           transform="scale(1.9480519,1.9477231)"
           style="stroke-width:0.513377" />
      </g>
    </g>
  </g>
</svg>
