<?xml version="1.0" encoding="iso-8859-1"?>
<!-- Generator: Adobe Illustrator 19.0.0, SVG Export Plug-In . SVG Version: 6.00 Build 0)  -->
<svg version="1.1" id="Capa_1" xmlns="http://www.w3.org/2000/svg" xmlns:xlink="http://www.w3.org/1999/xlink" x="0px" y="0px"
	 viewBox="0 0 512 512" style="enable-background:new 0 0 512 512;" xml:space="preserve">
<path style="fill:#6F6571;" d="M107.355,346.839h33.869c10.621,0,18.481-9.881,16.093-20.23l-8.671-37.577h-41.29L107.355,346.839
	L107.355,346.839z"/>
<polygon style="fill:#5D5360;" points="152.457,305.548 148.645,289.032 107.355,289.032 107.355,305.548 "/>
<path style="fill:#E6646E;" d="M173.419,487.226L173.419,487.226c-7.065,0-13.195-4.876-14.784-11.76l-43.023-186.433h-82.58
	l45.117,195.506c2.594,11.241,12.603,19.203,24.14,19.203h71.131c4.561,0,8.258-3.698,8.258-8.258
	C181.677,490.923,177.98,487.226,173.419,487.226z"/>
<path style="fill:#FF8087;" d="M33.032,140.387C14.789,140.387,0,155.176,0,173.419V256c0,18.243,14.789,33.032,33.032,33.032
	h132.129V140.387H33.032z"/>
<path style="fill:#DBD9DC;" d="M502.09,174.245l-23.122-17.342v115.613l23.122-17.342c6.238-4.678,9.91-12.021,9.91-19.819v-41.29
	C512,186.267,508.329,178.924,502.09,174.245z"/>
<g>
	<path style="fill:#5D5360;" d="M123.871,198.194H66.065c-4.565,0-8.258-3.698-8.258-8.258s3.694-8.258,8.258-8.258h57.806
		c4.565,0,8.258,3.698,8.258,8.258S128.435,198.194,123.871,198.194z"/>
	<path style="fill:#5D5360;" d="M123.871,231.226H66.065c-4.565,0-8.258-3.698-8.258-8.258s3.694-8.258,8.258-8.258h57.806
		c4.565,0,8.258,3.698,8.258,8.258S128.435,231.226,123.871,231.226z"/>
</g>
<path style="fill:#DC4655;" d="M102.923,484.538l-31.969-138.53c-4.777-20.699,10.944-40.46,32.186-40.46h16.283l-3.811-16.516
	h-82.58l45.117,195.506c2.594,11.241,12.603,19.203,24.14,19.203h24.774C115.527,503.742,105.518,495.779,102.923,484.538z"/>
<path style="fill:#E6646E;" d="M0,222.968V256c0,18.243,14.789,33.032,33.032,33.032h132.129V256H33.032
	C14.789,256,0,241.211,0,222.968z"/>
<path style="fill:#EDEBED;" d="M462.452,8.258h-7.526c-5.924,0-11.779,1.275-17.167,3.738L156.903,140.387v148.645l280.856,128.391
	c5.388,2.463,11.242,3.738,17.167,3.738h7.526c9.121,0,16.516-7.395,16.516-16.516V24.774
	C478.968,15.652,471.573,8.258,462.452,8.258z"/>
<path style="fill:#DBD9DC;" d="M462.452,338.581h-7.526c-5.924,0-11.779-0.765-17.167-2.243L156.903,256v33.032l280.856,128.391
	c5.388,2.463,11.242,3.738,17.167,3.738h7.526c9.121,0,16.516-7.395,16.516-16.516v-75.974
	C478.968,334.144,471.573,338.581,462.452,338.581z"/>
<g>
</g>
<g>
</g>
<g>
</g>
<g>
</g>
<g>
</g>
<g>
</g>
<g>
</g>
<g>
</g>
<g>
</g>
<g>
</g>
<g>
</g>
<g>
</g>
<g>
</g>
<g>
</g>
<g>
</g>
</svg>
