<svg id="Capa_1" enable-background="new 0 0 512 512" height="512" viewBox="0 0 512 512" width="512" xmlns="http://www.w3.org/2000/svg"><g><path d="m481.399 478.299c-4.497 1.8-9.302 2.701-14.399 2.701h-392c-41.4 0-75-33.6-75-75v-360c0-8.401 6.599-15 15-15h392c8.401 0 15 6.599 15 15v75l30 285z" fill="#f0f7ff"/><path d="m211 481h256c5.098 0 9.902-.901 14.399-2.701l-29.399-72.299-30-285v-75c0-8.401-6.599-15-15-15h-196z" fill="#dfe7f4"/><path d="m497 121c8.284 0 15 6.716 15 15v300c0 19.799-12.898 36.599-30.601 42.299-6.063 2.427-12.686 3.219-19.832 2.373-22.931-2.716-39.567-23.625-39.567-46.716v-312.956z" fill="#c7cfe1"/><g id="Newspaper_2_"><g><g><path d="m165 301h-90c-8.291 0-15-6.709-15-15v-60c0-8.291 6.709-15 15-15h90c8.291 0 15 6.709 15 15v60c0 8.291-6.709 15-15 15z" fill="#7ed8f6"/></g></g><g><path d="m347 181h-272c-8.291 0-15-6.709-15-15v-60c0-8.291 6.709-15 15-15h272c8.291 0 15 6.709 15 15v60c0 8.291-6.709 15-15 15z" fill="#7ed8f6"/></g><g><g><path d="m347 301h-121c-8.291 0-15-6.709-15-15s6.709-15 15-15h121c8.291 0 15 6.709 15 15s-6.709 15-15 15z" fill="#6aa9ff"/></g></g><g><g><path d="m347 361h-272c-8.291 0-15-6.709-15-15s6.709-15 15-15h272c8.291 0 15 6.709 15 15s-6.709 15-15 15z" fill="#7ed8f6"/></g></g><g><g><path d="m347 421h-272c-8.291 0-15-6.709-15-15s6.709-15 15-15h272c8.291 0 15 6.709 15 15s-6.709 15-15 15z" fill="#7ed8f6"/></g></g><g><g><path d="m347 241h-121c-8.291 0-15-6.709-15-15s6.709-15 15-15h121c8.291 0 15 6.709 15 15s-6.709 15-15 15z" fill="#6aa9ff"/></g></g></g><g fill="#6aa9ff"><path d="m211 421h136c8.291 0 15-6.709 15-15s-6.709-15-15-15h-136z"/><path d="m211 361h136c8.291 0 15-6.709 15-15s-6.709-15-15-15h-136z"/><path d="m211 181h136c8.291 0 15-6.709 15-15v-60c0-8.291-6.709-15-15-15h-136z"/></g></g></svg>