<svg height="512pt" viewBox="0 -13 512 511" width="512pt" xmlns="http://www.w3.org/2000/svg"><path d="m488.199219 246.328125c5.449219-8.058594 8.648437-17.75 8.648437-28.1875 0-27.851563-22.667968-50.511719-50.519531-50.511719h-125.019531l17.980468-45.75c7.960938-19.410156 12-39.878906 12-60.847656 0-33.382812-27.148437-60.53125-60.527343-60.53125h-17.332031c-14.339844 0-26.601563 10.238281-29.160157 24.351562l-8.097656 44.609376-94.230469 109.007812h-47.160156v269.453125l89.699219 33.828125h229.007812c27.851563 0 50.511719-22.660156 50.511719-50.511719 0-8.597656-2.171875-16.6875-5.980469-23.777343 19.070313-7.230469 32.671875-25.679688 32.671875-47.25 0-9.371094-2.570312-18.140626-7.019531-25.660157 8.199219-4.019531 15.148437-10.210937 20.109375-17.800781 5.199219-7.929688 8.21875-17.410156 8.21875-27.578125 0-18.050781-9.519531-33.910156-23.800781-42.84375zm0 0" fill="#ffb99d"/><path d="m488.199219 246.328125c5.449219-8.058594 8.648437-17.75 8.648437-28.1875 0-27.851563-22.667968-50.511719-50.519531-50.511719h-125.019531l17.980468-45.75c7.960938-19.410156 12-39.878906 12-60.847656 0-33.382812-27.148437-60.53125-60.527343-60.53125h-17.332031c-14.339844 0-26.601563 10.238281-29.160157 24.351562l-8.097656 44.609376-94.230469 109.007812h-47.160156v138.28125h409c5.199219-7.929688 8.21875-17.410156 8.21875-27.578125 0-18.050781-9.519531-33.910156-23.800781-42.84375zm0 0" fill="#ffcdc0"/><path d="m0 149.839844h114v336.25h-114zm0 0" fill="#11a9c6"/><path d="m0 149.839844h114v166.910156h-114zm0 0" fill="#4ed8df"/></svg>