<?xml version="1.0" encoding="iso-8859-1"?>
<!-- Generator: Adobe Illustrator 19.0.0, SVG Export Plug-In . SVG Version: 6.00 Build 0)  -->
<svg version="1.1" id="Capa_1" xmlns="http://www.w3.org/2000/svg" xmlns:xlink="http://www.w3.org/1999/xlink" x="0px" y="0px"
	 viewBox="0 0 511.999 511.999" style="enable-background:new 0 0 511.999 511.999;" xml:space="preserve">
<path style="fill:#0065A3;" d="M343.581,30.963C325.284,10.996,299.823,0,271.89,0L93.37,0.001c-7.777,0-14.265,5.944-14.942,13.692
	L45.63,388.581c-0.367,4.189,1.042,8.341,3.884,11.441c2.841,3.1,6.854,4.866,11.059,4.866h107.111
	c7.778,0,14.266-5.944,14.943-13.692l12.858-146.974h57.662c56.798,0,107.046-46.185,112.012-102.952l3.125-35.704
	C370.736,77.518,361.964,51.022,343.581,30.963z"/>
<path style="fill:#00AADF;" d="M441.324,138.076c-18.298-19.969-43.759-30.966-71.694-30.966l-178.52,0.001
	c-7.777,0-14.265,5.944-14.942,13.692l-32.799,374.889c-0.367,4.189,1.042,8.341,3.884,11.441c2.841,3.101,6.854,4.866,11.059,4.866
	h107.112c7.778,0,14.265-5.944,14.942-13.692l12.859-146.974h57.662c56.797,0,107.045-46.185,112.012-102.952l3.123-35.705
	C468.478,184.63,459.706,158.136,441.324,138.076z"/>
<path style="fill:#003E67;" d="M182.627,391.196l12.858-146.974h57.662c56.798,0,107.046-46.185,112.012-102.952l2.989-34.16
	l-177.038,0.001c-7.777,0-14.265,5.944-14.942,13.692l-24.854,284.085h16.37C175.462,404.889,181.949,398.944,182.627,391.196z"/>
<g>
</g>
<g>
</g>
<g>
</g>
<g>
</g>
<g>
</g>
<g>
</g>
<g>
</g>
<g>
</g>
<g>
</g>
<g>
</g>
<g>
</g>
<g>
</g>
<g>
</g>
<g>
</g>
<g>
</g>
</svg>
