<svg height="512" viewBox="0 0 64 64" width="512" xmlns="http://www.w3.org/2000/svg"><g id="_18-Percentage" data-name="18-Percentage"><path d="m28 63h8v-27a1 1 0 0 0 -1-1h-6a1 1 0 0 0 -1 1z" fill="#fc9e20"/><path d="m41 63h8v-15a1 1 0 0 0 -1-1h-6a1 1 0 0 0 -1 1z" fill="#e68c15"/><path d="m54 63h8v-7a1 1 0 0 0 -1-1h-6a1 1 0 0 0 -1 1z" fill="#c97609"/><path d="m15 63h8v-41a1 1 0 0 0 -1-1h-6a1 1 0 0 0 -1 1z" fill="#ffad39"/><path d="m2 63h8v-53a1 1 0 0 0 -1-1h-6a1 1 0 0 0 -1 1z" fill="#febd55"/><path d="m31 58v-21a2 2 0 0 1 2-2h-4a1 1 0 0 0 -1 1v27h8v-3h-3a2 2 0 0 1 -2-2z" fill="#e68c15"/><path d="m44 58v-9a2 2 0 0 1 2-2h-4a1 1 0 0 0 -1 1v15h8v-3h-3a2 2 0 0 1 -2-2z" fill="#c97609"/><path d="m57 58v-1a2 2 0 0 1 2-2h-4a1 1 0 0 0 -1 1v7h8v-3h-3a2 2 0 0 1 -2-2z" fill="#ba6e08"/><path d="m18 58v-35a2 2 0 0 1 2-2h-4a1 1 0 0 0 -1 1v41h8v-3h-3a2 2 0 0 1 -2-2z" fill="#fc9408"/><path d="m7 60a2 2 0 0 1 -2-2v-47a2 2 0 0 1 2-2h-4a1 1 0 0 0 -1 1v53h8v-3z" fill="#ffa526"/><path d="m1 62h62v1h-62z" fill="#ff6161"/><circle cx="48" cy="16" fill="#febd55" r="15"/><circle cx="48" cy="16" fill="#fc9e20" r="13"/><circle cx="48" cy="16" fill="#ffe08c" r="12"/><path d="m49.5 15h-3a2.5 2.5 0 0 1 0-5h4.5a1 1 0 0 0 0-2h-2v-1a1 1 0 0 0 -2 0v1h-.5a4.5 4.5 0 0 0 0 9h3a2.5 2.5 0 0 1 0 5h-4.5a1 1 0 0 0 0 2h2v1a1 1 0 0 0 2 0v-1h.5a4.5 4.5 0 0 0 0-9z" fill="#e68c15"/><path d="m63.972 52.14a.938.938 0 0 0 .028-.14v-5a1 1 0 0 0 -2 0v2.8l-14.342-12.553a1 1 0 0 0 -.658-.247h-3.558l-19.702-21.673a1 1 0 0 0 -.74-.327h-2.586l-13.705-13.706a1 1 0 0 0 -1.409 1.414l14 14a1 1 0 0 0 .7.292h2.558l19.7 21.673a1 1 0 0 0 .742.327h3.624l13.714 12h-2.338a1 1 0 0 0 0 2h5a1 1 0 0 0 .4-.084c.026-.011.046-.035.072-.049a1.007 1.007 0 0 0 .258-.19c.007-.008.018-.011.025-.019a1 1 0 0 0 .07-.123.926.926 0 0 0 .107-.186.993.993 0 0 0 .04-.209z" fill="#ff6161"/></g></svg>