<?xml version="1.0" encoding="UTF-8" standalone="no"?>
<svg
   xmlns:dc="http://purl.org/dc/elements/1.1/"
   xmlns:cc="http://creativecommons.org/ns#"
   xmlns:rdf="http://www.w3.org/1999/02/22-rdf-syntax-ns#"
   xmlns:svg="http://www.w3.org/2000/svg"
   xmlns="http://www.w3.org/2000/svg"
   xmlns:sodipodi="http://sodipodi.sourceforge.net/DTD/sodipodi-0.dtd"
   xmlns:inkscape="http://www.inkscape.org/namespaces/inkscape"
   viewBox="0 0 90 90"
   version="1.1"
   id="svg36"
   sodipodi:docname="plan3.svg"
   inkscape:version="1.0.2-2 (e86c870879, 2021-01-15)">
  <metadata
     id="metadata42">
    <rdf:RDF>
      <cc:Work
         rdf:about="">
        <dc:format>image/svg+xml</dc:format>
        <dc:type
           rdf:resource="http://purl.org/dc/dcmitype/StillImage" />
        <dc:title></dc:title>
      </cc:Work>
    </rdf:RDF>
  </metadata>
  <defs
     id="defs40" />
  <sodipodi:namedview
     pagecolor="#ffffff"
     bordercolor="#666666"
     borderopacity="1"
     objecttolerance="10"
     gridtolerance="10"
     guidetolerance="10"
     inkscape:pageopacity="0"
     inkscape:pageshadow="2"
     inkscape:window-width="1920"
     inkscape:window-height="1027"
     id="namedview38"
     showgrid="false"
     inkscape:pagecheckerboard="true"
     inkscape:zoom="9.5555556"
     inkscape:cx="45"
     inkscape:cy="32.44186"
     inkscape:window-x="1272"
     inkscape:window-y="-8"
     inkscape:window-maximized="1"
     inkscape:current-layer="svg36" />
  <circle
     cx="82.03"
     cy="26.32"
     r="2.97"
     fill="none"
     stroke="#c4cefe"
     stroke-linecap="round"
     stroke-linejoin="round"
     id="circle2" />
  <circle
     cx="79.41"
     cy="68.42"
     r="2.87"
     fill="#e3e7fe"
     id="circle4" />
  <circle
     cx="14.98"
     cy="82.08"
     r="1.72"
     fill="#e3e7fe"
     id="circle6" />
  <rect
     x="5"
     y="34.77"
     width="6.88"
     height="2.29"
     fill="#e3e7fe"
     id="rect8" />
  <rect
     x="5"
     y="34.77"
     width="6.88"
     height="2.29"
     transform="translate(44.36 27.47) rotate(90)"
     fill="#e3e7fe"
     id="rect10" />
  <polygon
     points="39.21 4.22 42.89 5.55 45.92 3.33 45.97 7.18 49.17 9.48 45.52 10.53 44.47 14.18 42.16 10.98 38.31 10.94 40.54 7.91 39.21 4.22"
     fill="#6576ff"
     id="polygon12" />
  <polygon
     points="29.41 10.28 31.41 11 33.06 9.79 33.08 11.88 34.82 13.14 32.84 13.71 32.27 15.69 31.02 13.95 28.92 13.93 30.13 12.28 29.41 10.28"
     fill="#b3c2ff"
     id="polygon14" />
  <polygon
     points="51.56 9.67 53.89 10.52 55.81 9.11 55.84 11.54 57.87 13 55.56 13.67 54.89 15.98 53.44 13.95 51 13.92 52.41 12 51.56 9.67"
     fill="#b3c2ff"
     id="polygon16" />
  <path
     d="M49.89,64.32a.77.77,0,0,0-1-.78,21.57,21.57,0,0,1-4.44.67A21.73,21.73,0,0,1,40,63.54a.77.77,0,0,0-1,.78v3a1,1,0,0,0,1,1h8.81a1,1,0,0,0,1-1Zm.46-.17"
     fill="#fff"
     stroke="#6576ff"
     stroke-linecap="round"
     stroke-linejoin="round"
     stroke-width="2"
     id="path18"
     style="fill:none" />
  <path
     d="M58.43,20.88H30.92A2.08,2.08,0,0,0,28.84,23V40.1a21.46,21.46,0,0,0,4.51,13.75,14.46,14.46,0,0,0,22.65,0A21.46,21.46,0,0,0,60.51,40.1V23A2.08,2.08,0,0,0,58.43,20.88Z"
     fill="#fff"
     stroke="#6576ff"
     stroke-linecap="round"
     stroke-linejoin="round"
     stroke-width="2"
     id="path20"
     style="fill:none" />
  <path
     d="M24.15,44.87c-2.71-1-4-3.51-4-7.59V27.8h4V23.85H18.31a2.07,2.07,0,0,0-2.07,2.07V37.28c0,6.93,3.16,11.15,9,12.14a26.26,26.26,0,0,1-1.06-4.55Z"
     fill="#fff"
     stroke="#6576ff"
     stroke-linecap="round"
     stroke-linejoin="round"
     stroke-width="2"
     id="path22"
     style="fill:none" />
  <path
     d="M28.5,72.92v2.16c0,.23.94.42,2.1.42H58.4c1.16,0,2.1-.19,2.1-.42V72.92c0-.23-.94-.42-2.1-.42H30.6C29.44,72.5,28.5,72.69,28.5,72.92Zm2.85.12"
     fill="#6576ff"
     stroke="#6576ff"
     stroke-linecap="round"
     stroke-linejoin="round"
     id="path24" />
  <path
     d="M28.5,78.92v2.16c0,.23.94.42,2.1.42H58.4c1.16,0,2.1-.19,2.1-.42V78.92c0-.23-.94-.42-2.1-.42H30.6C29.44,78.5,28.5,78.69,28.5,78.92Zm2.85.12"
     fill="#6576ff"
     stroke="#6576ff"
     stroke-linecap="round"
     stroke-linejoin="round"
     id="path26" />
  <path
     d="M71.64,23.85H65.71V27.8h4v8.84c0,3.89-1.24,6.22-4,7.23a24,24,0,0,1-1.06,4.33c5.81-.94,9-5,9-11.56V25.82a2,2,0,0,0-2-2Z"
     fill="#fff"
     stroke="#6576ff"
     stroke-linecap="round"
     stroke-linejoin="round"
     stroke-width="2"
     id="path28"
     style="fill:none" />
</svg>
