<?xml version="1.0" encoding="UTF-8" standalone="no"?>
<svg
   xmlns:dc="http://purl.org/dc/elements/1.1/"
   xmlns:cc="http://creativecommons.org/ns#"
   xmlns:rdf="http://www.w3.org/1999/02/22-rdf-syntax-ns#"
   xmlns:svg="http://www.w3.org/2000/svg"
   xmlns="http://www.w3.org/2000/svg"
   xmlns:sodipodi="http://sodipodi.sourceforge.net/DTD/sodipodi-0.dtd"
   xmlns:inkscape="http://www.inkscape.org/namespaces/inkscape"
   viewBox="0 0 90 90"
   version="1.1"
   id="svg40"
   sodipodi:docname="plan1.svg"
   inkscape:version="1.0.2-2 (e86c870879, 2021-01-15)">
  <metadata
     id="metadata46">
    <rdf:RDF>
      <cc:Work
         rdf:about="">
        <dc:format>image/svg+xml</dc:format>
        <dc:type
           rdf:resource="http://purl.org/dc/dcmitype/StillImage" />
        <dc:title></dc:title>
      </cc:Work>
    </rdf:RDF>
  </metadata>
  <defs
     id="defs44" />
  <sodipodi:namedview
     pagecolor="#ffffff"
     bordercolor="#666666"
     borderopacity="1"
     objecttolerance="10"
     gridtolerance="10"
     guidetolerance="10"
     inkscape:pageopacity="0"
     inkscape:pageshadow="2"
     inkscape:window-width="1920"
     inkscape:window-height="1027"
     id="namedview42"
     showgrid="false"
     inkscape:pagecheckerboard="true"
     inkscape:zoom="9.5555556"
     inkscape:cx="45"
     inkscape:cy="49.186047"
     inkscape:window-x="1272"
     inkscape:window-y="-8"
     inkscape:window-maximized="1"
     inkscape:current-layer="svg40" />
  <path
     d="M81.8,22.23a2.89,2.89,0,1,1,2.89-2.89,2.89,2.89,0,0,1-2.89,2.89"
     fill="#e3e7fe"
     id="path2" />
  <circle
     cx="72.42"
     cy="73.31"
     r="2.89"
     fill="none"
     stroke="#c4cefe"
     stroke-linecap="round"
     stroke-linejoin="round"
     id="circle4" />
  <path
     d="M15,78.12a1.93,1.93,0,1,1,1.93-1.92A1.93,1.93,0,0,1,15,78.12"
     fill="#e3e7fe"
     id="path6" />
  <path
     d="M14,51.35a1.93,1.93,0,1,1,1.93-1.93A1.94,1.94,0,0,1,14,51.35"
     fill="#e3e7fe"
     id="path8" />
  <rect
     x="6.01"
     y="13.19"
     width="5.97"
     height="1.99"
     fill="#e3e7fe"
     id="rect10" />
  <rect
     x="8"
     y="11.2"
     width="1.99"
     height="5.97"
     fill="#e3e7fe"
     id="rect12" />
  <polygon
     points="53.84 62.75 44.03 69.48 34.22 62.75 30.6 62.75 30.6 85.64 34.22 85.64 44.03 78.91 53.84 85.64 57.47 85.64 57.47 62.75 53.84 62.75"
     fill="#e3e7fe"
     id="polygon30" />
  <path
     id="polygon22-5"
     style="fill:#e3e7fe"
     d="M 22.109219,15.69 20.150235,26.119688 14.16,34.881406 h 12.517578 a 17.62,17.62 0 0 1 4.460938,-10.162109 z" />
  <path
     id="polygon16-5"
     d="M 42.539218,6.45 33.779453,12.440235 23.34,14.391407 l 9.060547,9.060547 a 17.62,17.62 0 0 1 10.138671,-4.470703 z"
     style="fill:#e3e7fe;fill-opacity:1" />
  <path
     id="polygon28-3"
     style="fill:#e3e7fe"
     d="M 45.52,6.0200765 V 18.520077 a 17.61,17.61 0 0 1 10.320313,4.320312 l 8.880859,-8.878906 -10.441406,-1.951172 z" />
  <path
     id="polygon14-5"
     style="fill:#e3e7fe"
     d="M 66.195156,15.69 57.16,24.725156 a 17.61,17.61 0 0 1 4.449219,10.15625 h 12.537109 l -6,-8.761718 z" />
  <path
     id="polygon24-4"
     style="fill:#e3e7fe"
     d="M 61.49789,37.87 A 17.62,17.62 0 0 1 57.16,48.159062 l 8.90039,8.902344 1.951172,-10.441406 6,-8.75 z" />
  <path
     id="polygon26-2"
     style="fill:#e3e7fe;stroke-width:1"
     d="M 55.841636,49.44 A 17.618924,17.62 0 0 1 45.52,53.770078 v 12.498047 l 8.759231,-6 L 64.72,58.318906 Z" />
  <path
     id="polygon20-7"
     style="fill:#e3e7fe"
     d="m 32.39664,49.44 -9.05664,9.056641 10.439453,1.949219 8.759765,6 V 53.916563 A 17.62,17.62 0 0 1 32.39664,49.44 Z" />
  <path
     id="polygon18-0"
     style="fill:#e3e7fe"
     d="m 14.16,37.73 5.990235,8.759765 1.958984,10.429688 8.826172,-8.824219 A 17.62,17.62 0 0 1 26.642422,37.73 Z" />
  <path
     d="M 61.84,36.52 A 17.62,17.62 0 1 1 44.23,18.9 17.61,17.61 0 0 1 61.84,36.52"
     fill="#ffffff"
     stroke="#6576ff"
     stroke-linecap="round"
     stroke-linejoin="round"
     stroke-width="2"
     id="path32"
     style="fill:none" />
</svg>
