<svg id="Capa_1" enable-background="new 0 0 512 512" height="512" viewBox="0 0 512 512" width="512" xmlns="http://www.w3.org/2000/svg"><g><path d="m385.303 489.458h-333.501c-28.609 0-51.802-23.193-51.802-51.802v-279.344c0-8.485 6.879-15.364 15.364-15.364h77.124c4.398 0 8.586 1.885 11.502 5.178l29.02 32.769c3.271 3.694 7.968 5.808 12.902 5.808h222.157c9.518 0 17.234 7.716 17.234 17.234z" fill="#ecbe6b"/><path d="m421.27 366.487h-251.918c-8.22 0-14.883-6.664-14.883-14.883v-283.273c0-8.22 6.664-14.883 14.883-14.883h251.918c8.22 0 14.883 6.664 14.883 14.883v283.273c0 8.22-6.663 14.883-14.883 14.883z" fill="#ddeafb"/><path d="m460.75 335.582h-251.917c-8.22 0-14.883-6.664-14.883-14.883v-283.273c0-8.22 6.664-14.883 14.883-14.883h251.917c8.22 0 14.883 6.664 14.883 14.883v283.273c0 8.219-6.663 14.883-14.883 14.883z" fill="#f4fbff"/><path d="m460.75 22.542h-26.371c8.22 0 14.883 6.663 14.883 14.883v283.273c0 8.22-6.663 14.883-14.883 14.883h26.371c8.22 0 14.883-6.663 14.883-14.883v-283.272c0-8.22-6.663-14.884-14.883-14.884z" fill="#e4f6ff"/><path d="m400.479 489.458h-348.677c-28.609 0-51.802-23.193-51.802-51.802v-22.895l75.327-169.763c3.009-6.782 9.732-11.154 17.151-11.154h400.744c12.67 0 21.698 12.298 17.902 24.386l-61.223 194.947c-6.78 21.591-26.791 36.281-49.422 36.281z" fill="#e4936b"/><path d="m493.223 233.844h-28.33c12.67 0 21.698 12.298 17.902 24.386l-61.224 194.947c-6.781 21.591-26.792 36.281-49.422 36.281h28.33c22.631 0 42.642-14.69 49.422-36.281l61.224-194.947c3.796-12.088-5.232-24.386-17.902-24.386z" fill="#e27d47"/><g><g><path d="m262.59 82.782h-23.854c-4.268 0-7.726-3.459-7.726-7.726 0-4.268 3.459-7.726 7.726-7.726h23.854c4.268 0 7.726 3.459 7.726 7.726.001 4.267-3.458 7.726-7.726 7.726z" fill="#30579d"/></g><g><path d="m430.847 82.782h-137.174c-4.268 0-7.726-3.459-7.726-7.726 0-4.268 3.459-7.726 7.726-7.726h137.174c4.268 0 7.726 3.459 7.726 7.726s-3.459 7.726-7.726 7.726z" fill="#30579d"/></g></g><g><g><path d="m262.59 121.303h-23.854c-4.268 0-7.726-3.459-7.726-7.726 0-4.268 3.459-7.726 7.726-7.726h23.854c4.268 0 7.726 3.459 7.726 7.726.001 4.267-3.458 7.726-7.726 7.726z" fill="#30579d"/></g><g><path d="m430.847 121.303h-137.174c-4.268 0-7.726-3.459-7.726-7.726 0-4.268 3.459-7.726 7.726-7.726h137.174c4.268 0 7.726 3.459 7.726 7.726s-3.459 7.726-7.726 7.726z" fill="#30579d"/></g></g><g><g><path d="m262.59 159.824h-23.854c-4.268 0-7.726-3.459-7.726-7.726s3.459-7.726 7.726-7.726h23.854c4.268 0 7.726 3.459 7.726 7.726s-3.458 7.726-7.726 7.726z" fill="#30579d"/></g><g><path d="m430.847 159.824h-137.174c-4.268 0-7.726-3.459-7.726-7.726s3.459-7.726 7.726-7.726h137.174c4.268 0 7.726 3.459 7.726 7.726s-3.459 7.726-7.726 7.726z" fill="#30579d"/></g></g><g><g><path d="m262.59 198.345h-23.854c-4.268 0-7.726-3.459-7.726-7.726 0-4.268 3.459-7.726 7.726-7.726h23.854c4.268 0 7.726 3.459 7.726 7.726.001 4.268-3.458 7.726-7.726 7.726z" fill="#30579d"/></g><g><path d="m430.847 198.345h-137.174c-4.268 0-7.726-3.459-7.726-7.726 0-4.268 3.459-7.726 7.726-7.726h137.174c4.268 0 7.726 3.459 7.726 7.726 0 4.268-3.459 7.726-7.726 7.726z" fill="#30579d"/></g></g><g><path d="m372.15 446.596h-78.477c-4.268 0-7.726-3.459-7.726-7.726s3.459-7.726 7.726-7.726h78.477c4.268 0 7.726 3.459 7.726 7.726s-3.459 7.726-7.726 7.726z" fill="#ecbe6b"/></g></g></svg>