<svg xmlns="http://www.w3.org/2000/svg" height="464pt" version="1.1" viewBox="-40 0 464 464" width="464pt">
<g id="surface1">
<path d="M 48 384 L 240 384 L 240 400 L 320 400 L 256 336 L 0 336 L 0 400 L 48 400 Z M 48 384 " style=" stroke:none;fill-rule:nonzero;fill:rgb(65.490196%,66.27451%,67.45098%);fill-opacity:1;" />
<path d="M 320 408 L 320 400 L 240 400 L 240 416 L 48 416 L 48 400 L 0 400 L 0 464 L 384 464 L 320 400 Z M 320 408 " style=" stroke:none;fill-rule:nonzero;fill:rgb(57.647059%,58.431373%,59.607843%);fill-opacity:1;" />
<path d="M 320 0 L 384 0 L 384 24 L 320 24 Z M 320 0 " style=" stroke:none;fill-rule:nonzero;fill:rgb(87.843137%,87.843137%,88.627451%);fill-opacity:1;" />
<path d="M 320 152 L 384 152 L 384 136 L 352 136 L 352 120 L 384 120 L 384 104 L 320 104 Z M 320 152 " style=" stroke:none;fill-rule:nonzero;fill:rgb(87.843137%,87.843137%,88.627451%);fill-opacity:1;" />
<path d="M 320 216 L 384 216 L 384 200 L 352 200 L 352 184 L 384 184 L 384 168 L 320 168 Z M 320 216 " style=" stroke:none;fill-rule:nonzero;fill:rgb(87.843137%,87.843137%,88.627451%);fill-opacity:1;" />
<path d="M 320 280 L 384 280 L 384 264 L 352 264 L 352 248 L 384 248 L 384 232 L 320 232 Z M 320 280 " style=" stroke:none;fill-rule:nonzero;fill:rgb(87.843137%,87.843137%,88.627451%);fill-opacity:1;" />
<path d="M 320 360 L 320 0 L 256 0 L 256 336 L 320 400 Z M 320 360 " style=" stroke:none;fill-rule:nonzero;fill:rgb(81.960784%,82.745098%,83.137255%);fill-opacity:1;" />
<path d="M 320 400 L 384 464 L 384 360 L 320 360 Z M 320 400 " style=" stroke:none;fill-rule:nonzero;fill:rgb(87.843137%,87.843137%,88.627451%);fill-opacity:1;" />
<path d="M 320 88 L 384 88 L 384 72 L 352 72 L 352 56 L 384 56 L 384 40 L 320 40 Z M 320 88 " style=" stroke:none;fill-rule:nonzero;fill:rgb(87.843137%,87.843137%,88.627451%);fill-opacity:1;" />
<path d="M 320 344 L 384 344 L 384 328 L 352 328 L 352 312 L 384 312 L 384 296 L 320 296 Z M 320 344 " style=" stroke:none;fill-rule:nonzero;fill:rgb(87.843137%,87.843137%,88.627451%);fill-opacity:1;" />
<path d="M 48 384 L 240 384 L 240 400 L 48 400 Z M 48 384 " style=" stroke:none;fill-rule:nonzero;fill:rgb(50.980392%,51.372549%,52.156863%);fill-opacity:1;" />
<path d="M 48 400 L 240 400 L 240 416 L 48 416 Z M 48 400 " style=" stroke:none;fill-rule:nonzero;fill:rgb(42.745098%,43.137255%,44.313725%);fill-opacity:1;" />
<path d="M 352 64 L 384 64 L 384 72 L 352 72 Z M 352 64 " style=" stroke:none;fill-rule:nonzero;fill:rgb(53.72549%,53.333333%,56.470588%);fill-opacity:1;" />
<path d="M 352 56 L 384 56 L 384 64 L 352 64 Z M 352 56 " style=" stroke:none;fill-rule:nonzero;fill:rgb(53.72549%,53.333333%,56.470588%);fill-opacity:1;" />
<path d="M 320 96 L 384 96 L 384 104 L 320 104 Z M 320 96 " style=" stroke:none;fill-rule:nonzero;fill:rgb(53.72549%,53.333333%,56.470588%);fill-opacity:1;" />
<path d="M 320 88 L 384 88 L 384 96 L 320 96 Z M 320 88 " style=" stroke:none;fill-rule:nonzero;fill:rgb(53.72549%,53.333333%,56.470588%);fill-opacity:1;" />
<path d="M 320 24 L 384 24 L 384 32 L 320 32 Z M 320 24 " style=" stroke:none;fill-rule:nonzero;fill:rgb(53.72549%,53.333333%,56.470588%);fill-opacity:1;" />
<path d="M 320 32 L 384 32 L 384 40 L 320 40 Z M 320 32 " style=" stroke:none;fill-rule:nonzero;fill:rgb(53.72549%,53.333333%,56.470588%);fill-opacity:1;" />
<path d="M 352 128 L 384 128 L 384 136 L 352 136 Z M 352 128 " style=" stroke:none;fill-rule:nonzero;fill:rgb(53.72549%,53.333333%,56.470588%);fill-opacity:1;" />
<path d="M 352 120 L 384 120 L 384 128 L 352 128 Z M 352 120 " style=" stroke:none;fill-rule:nonzero;fill:rgb(53.72549%,53.333333%,56.470588%);fill-opacity:1;" />
<path d="M 320 160 L 384 160 L 384 168 L 320 168 Z M 320 160 " style=" stroke:none;fill-rule:nonzero;fill:rgb(53.72549%,53.333333%,56.470588%);fill-opacity:1;" />
<path d="M 320 152 L 384 152 L 384 160 L 320 160 Z M 320 152 " style=" stroke:none;fill-rule:nonzero;fill:rgb(53.72549%,53.333333%,56.470588%);fill-opacity:1;" />
<path d="M 352 192 L 384 192 L 384 200 L 352 200 Z M 352 192 " style=" stroke:none;fill-rule:nonzero;fill:rgb(53.72549%,53.333333%,56.470588%);fill-opacity:1;" />
<path d="M 352 184 L 384 184 L 384 192 L 352 192 Z M 352 184 " style=" stroke:none;fill-rule:nonzero;fill:rgb(53.72549%,53.333333%,56.470588%);fill-opacity:1;" />
<path d="M 320 216 L 384 216 L 384 224 L 320 224 Z M 320 216 " style=" stroke:none;fill-rule:nonzero;fill:rgb(53.72549%,53.333333%,56.470588%);fill-opacity:1;" />
<path d="M 320 224 L 384 224 L 384 232 L 320 232 Z M 320 224 " style=" stroke:none;fill-rule:nonzero;fill:rgb(53.72549%,53.333333%,56.470588%);fill-opacity:1;" />
<path d="M 352 248 L 384 248 L 384 256 L 352 256 Z M 352 248 " style=" stroke:none;fill-rule:nonzero;fill:rgb(53.72549%,53.333333%,56.470588%);fill-opacity:1;" />
<path d="M 352 256 L 384 256 L 384 264 L 352 264 Z M 352 256 " style=" stroke:none;fill-rule:nonzero;fill:rgb(53.72549%,53.333333%,56.470588%);fill-opacity:1;" />
<path d="M 320 280 L 384 280 L 384 288 L 320 288 Z M 320 280 " style=" stroke:none;fill-rule:nonzero;fill:rgb(53.72549%,53.333333%,56.470588%);fill-opacity:1;" />
<path d="M 320 288 L 384 288 L 384 296 L 320 296 Z M 320 288 " style=" stroke:none;fill-rule:nonzero;fill:rgb(53.72549%,53.333333%,56.470588%);fill-opacity:1;" />
<path d="M 352 320 L 384 320 L 384 328 L 352 328 Z M 352 320 " style=" stroke:none;fill-rule:nonzero;fill:rgb(53.72549%,53.333333%,56.470588%);fill-opacity:1;" />
<path d="M 352 312 L 384 312 L 384 320 L 352 320 Z M 352 312 " style=" stroke:none;fill-rule:nonzero;fill:rgb(53.72549%,53.333333%,56.470588%);fill-opacity:1;" />
<path d="M 320 352 L 384 352 L 384 360 L 320 360 Z M 320 352 " style=" stroke:none;fill-rule:nonzero;fill:rgb(53.72549%,53.333333%,56.470588%);fill-opacity:1;" />
<path d="M 320 344 L 384 344 L 384 352 L 320 352 Z M 320 344 " style=" stroke:none;fill-rule:nonzero;fill:rgb(53.72549%,53.333333%,56.470588%);fill-opacity:1;" />
</g>
</svg>