<svg id="Capa_1" enable-background="new 0 0 512 512" height="512" viewBox="0 0 512 512" width="512" xmlns="http://www.w3.org/2000/svg"><g><path d="m323.523 146.962h25.516c11.89 0 21.529 9.639 21.529 21.529v16.132c0 11.89-9.639 21.529-21.529 21.529h-25.516z" fill="#ffa78f"/><path d="m188.477 146.962h-25.516c-11.89 0-21.529 9.639-21.529 21.529v16.132c0 11.89 9.639 21.529 21.529 21.529h25.516z" fill="#ffa78f"/><path d="m382.913 363.468-53.111-31.587-28.624.209v-85.297h-90.356v75.297l-10.667 6.91-17.713 2.797-63.355 31.671c-17.19 5.88-18.741 12.039-18.741 30.207l-10 70.323v48.002h331.307v-48.003l-20-70.323c.001-18.168-1.55-24.326-18.74-30.206z" fill="#ffcebf"/><path d="m139.692 353.468 87-29.759c2.832-.969 4.734-3.63 4.734-6.623v-70.293h-20.605v75.297l-10.666 6.91-17.713 2.797-63.355 31.671c-17.19 5.88-18.741 12.039-18.741 30.207l-10 70.323v48.002h20.605v-118.325c0-18.169 11.55-34.327 28.741-40.207z" fill="#ffb09e"/><path d="m392.913 353.468-63.111-21.587-60.108 11.165-9.586 6.38c-2.339 1.557-5.381 1.564-7.728.02l-9.81-6.457-60.129-11.191-63.355 21.671c-17.19 5.88-28.741 22.039-28.741 40.207v70.323h64.656l20.605-35.208h161.391l20 35.208h64.656v-70.323c.001-18.17-11.55-34.328-28.74-40.208z" fill="#9dc6fb"/><path d="m182.442 331.797-63.355 21.671z" fill="#9dc6fb"/><path d="m139.692 353.468 47.336-16.192-4.586-5.479-63.355 21.671c-17.19 5.88-28.741 22.039-28.741 40.207v70.323h20.605v-70.323c0-18.169 11.55-34.327 28.741-40.207z" fill="#80b4fb"/><path d="m356.998 512h-201.996v-106.21c0-3.866 3.134-7 7-7h73.092l20.906 10 20.906-10h73.092c3.866 0 7 3.134 7 7z" fill="#edba94"/><path d="m155.002 405.79v106.21h20.605v-113.21h-13.605c-3.866 0-7 3.134-7 7z" fill="#e5a87f"/><path d="m272.509 452.225-14.736-7.753c-.86-.452-1.885-.46-2.752-.022l-15.571 7.883c-1.996 1.01-4.355-.44-4.355-2.677v-50.866h41.811v50.78c0 2.257-2.4 3.706-4.397 2.655z" fill="#fd6930"/><path d="m178.477 127.771v94.072c0 39.546 32.059 71.605 71.605 71.605h11.836c39.546 0 71.605-32.059 71.605-71.605v-94.072c0-12.111-9.818-21.928-21.928-21.928h-111.189c-12.111 0-21.929 9.818-21.929 21.928z" fill="#ffcebf"/><path d="m199.082 221.843v-94.071c0-12.111 9.818-21.928 21.928-21.928h-20.605c-12.111 0-21.928 9.818-21.928 21.928v94.071c0 39.546 32.059 71.605 71.605 71.605h11.836c1.472 0 2.934-.045 4.384-.132-37.504-2.266-67.22-33.399-67.22-71.473z" fill="#ffb09e"/><g><g><path d="m222.639 194.168c-4.267 0-7.727-3.459-7.727-7.727v-10.141c0-4.267 3.459-7.727 7.727-7.727 4.267 0 7.727 3.459 7.727 7.727v10.142c-.001 4.267-3.46 7.726-7.727 7.726z" fill="#685e67"/></g></g><g><g><path d="m289.209 194.168c-4.267 0-7.727-3.459-7.727-7.727v-10.141c0-4.267 3.459-7.727 7.727-7.727s7.727 3.459 7.727 7.727v10.142c0 4.267-3.459 7.726-7.727 7.726z" fill="#685e67"/></g></g><g><path d="m256 255.561c-14.945 0-27.104-12.159-27.104-27.104 0-4.267 3.459-7.727 7.727-7.727 4.267 0 7.727 3.459 7.727 7.727 0 6.424 5.227 11.651 11.65 11.651 6.424 0 11.65-5.227 11.65-11.651 0-4.267 3.459-7.727 7.727-7.727s7.727 3.459 7.727 7.727c0 14.945-12.159 27.104-27.104 27.104z" fill="#f89580"/></g><path d="m329.802 331.88-22.038 26.329c-2.177 2.601-5.905 3.267-8.848 1.581l-29.222-16.744 31.484-20.956z" fill="#f1f6f7"/><path d="m182.442 331.797 22.06 26.355c2.177 2.601 5.905 3.267 8.848 1.581l29.222-16.744-31.75-20.899z" fill="#f1f6f7"/><path d="m210.822 322.089-28.38 9.708 4.586 5.479 30.84-10.549z" fill="#d2e4e7"/><path d="m256 0c-8.837 0-16.001 7.164-16.001 16.001v26.001l32.001-.021v-25.98c.001-8.837-7.163-16.001-16-16.001z" fill="#497090"/><path d="m352.004 141.862v-32.512c0-42.73-34.639-77.369-77.369-77.369h-36.768c-42.73 0-77.369 34.639-77.369 77.369v32.171c25.209-17.065 59.485-26.733 95.502-26.733 36.256-.001 70.749 9.796 96.004 27.074z" fill="#9dc6fb"/><path d="m181.103 109.35c0-42.73 34.639-77.369 77.369-77.369h-20.605c-42.73 0-77.369 34.639-77.369 77.369v32.171c6.334-4.288 13.241-8.109 20.605-11.427z" fill="#80b4fb"/><path d="m291.697 89.878c0-16.726-5.826-32.93-16.476-45.828l-9.967-12.07h-18.509l-9.967 12.07c-10.65 12.897-16.476 29.101-16.476 45.828v28.146c11.51-2.128 23.504-3.236 35.697-3.236s24.187 1.108 35.697 3.236v-28.146z" fill="#80b4fb"/><path d="m348.712 164.058c-3.338 0-6.7-1.077-9.53-3.297-20.3-15.93-50.619-25.067-83.183-25.067s-62.882 9.137-83.183 25.067c-6.713 5.269-16.428 4.098-21.697-2.617-5.269-6.714-4.097-16.428 2.617-21.697 25.64-20.12 62.913-31.66 102.263-31.66s76.623 11.54 102.263 31.66c6.714 5.269 7.886 14.983 2.617 21.697-3.048 3.885-7.585 5.914-12.167 5.914z" fill="#497090"/></g></svg>