<?xml version="1.0" encoding="UTF-8" standalone="no"?>
<svg
   xmlns:dc="http://purl.org/dc/elements/1.1/"
   xmlns:cc="http://creativecommons.org/ns#"
   xmlns:rdf="http://www.w3.org/1999/02/22-rdf-syntax-ns#"
   xmlns:svg="http://www.w3.org/2000/svg"
   xmlns="http://www.w3.org/2000/svg"
   xmlns:sodipodi="http://sodipodi.sourceforge.net/DTD/sodipodi-0.dtd"
   xmlns:inkscape="http://www.inkscape.org/namespaces/inkscape"
   version="1.1"
   id="Capa_1"
   x="0px"
   y="0px"
   width="790.51447"
   height="792.74786"
   viewBox="0 0 790.51447 792.74786"
   xml:space="preserve"
   sodipodi:docname="sol.svg"
   inkscape:version="1.0.1 (3bc2e813f5, 2020-09-07)"><metadata
   id="metadata44"><rdf:RDF><cc:Work
       rdf:about=""><dc:format>image/svg+xml</dc:format><dc:type
         rdf:resource="http://purl.org/dc/dcmitype/StillImage" /><dc:title /></cc:Work></rdf:RDF></metadata><defs
   id="defs42" /><sodipodi:namedview
   pagecolor="#ffffff"
   bordercolor="#666666"
   borderopacity="1"
   objecttolerance="10"
   gridtolerance="10"
   guidetolerance="10"
   inkscape:pageopacity="0"
   inkscape:pageshadow="2"
   inkscape:window-width="1920"
   inkscape:window-height="1027"
   id="namedview40"
   showgrid="false"
   inkscape:zoom="0.2979798"
   inkscape:cx="-844.75971"
   inkscape:cy="399.72986"
   inkscape:window-x="1272"
   inkscape:window-y="-8"
   inkscape:window-maximized="1"
   inkscape:current-layer="g928"
   inkscape:pagecheckerboard="true"
   inkscape:document-rotation="0" />

<g
   id="g9"
   transform="translate(-2.4207268,-2.9820101)">
</g>
<g
   id="g11"
   transform="translate(-2.4207268,-2.9820101)">
</g>
<g
   id="g13"
   transform="translate(-2.4207268,-2.9820101)">
</g>
<g
   id="g15"
   transform="translate(-2.4207268,-2.9820101)">
</g>
<g
   id="g17"
   transform="translate(-2.4207268,-2.9820101)">
</g>
<g
   id="g19"
   transform="translate(-2.4207268,-2.9820101)">
</g>
<g
   id="g21"
   transform="translate(-2.4207268,-2.9820101)">
</g>
<g
   id="g23"
   transform="translate(-2.4207268,-2.9820101)">
</g>
<g
   id="g25"
   transform="translate(-2.4207268,-2.9820101)">
</g>
<g
   id="g27"
   transform="translate(-2.4207268,-2.9820101)">
</g>
<g
   id="g29"
   transform="translate(-2.4207268,-2.9820101)">
</g>
<g
   id="g31"
   transform="translate(-2.4207268,-2.9820101)">
</g>
<g
   id="g33"
   transform="translate(-2.4207268,-2.9820101)">
</g>
<g
   id="g35"
   transform="translate(-2.4207268,-2.9820101)">
</g>
<g
   id="g37"
   transform="translate(-2.4207268,-2.9820101)">
</g>
<g
   id="g995"
   transform="matrix(35.922679,0,0,35.922679,0,0.08278193)"
   style="stroke-width:0.02783757"><g
     id="g930"
     style="stroke-width:0.02783757">
	<g
   id="g928"
   style="stroke-width:0.02783757">
		<path
   id="path910"
   d="M 4.63,6.045 C 5.024,6.438 5.658,6.444 6.051,6.051 6.441,5.661 6.444,5.03 6.044,4.63 l -1.4,-1.4 C 4.249,2.835 3.617,2.829 3.223,3.223 2.832,3.613 2.829,4.243 3.23,4.644 Z"
   style="fill:#a6b4c9;fill-opacity:1;stroke-width:0.02783757"
   inkscape:connector-curvature="0" />
		<path
   id="path912"
   d="m 20.997,10.003 h -1.98 c -0.559,0 -1.011,0.444 -1.011,1 0,0.553 0.443,1 1.011,1 h 1.98 c 0.559,0 1.009,-0.443 1.009,-1 0,-0.552 -0.444,-1 -1.009,-1 z"
   style="fill:#a6b4c9;fill-opacity:1;stroke-width:0.02783757"
   inkscape:connector-curvature="0" />
		<path
   id="path914"
   d="m 4,11.003 c 0,-0.552 -0.444,-1 -1.01,-1 H 1.009 c -0.558,0 -1.009,0.444 -1.009,1 0,0.553 0.443,1 1.009,1 H 2.99 c 0.558,0 1.01,-0.443 1.01,-1 z"
   style="fill:#a6b4c9;fill-opacity:1;stroke-width:0.02783757"
   inkscape:connector-curvature="0" />
		<path
   id="path916"
   d="m 11.003,5 c -3.313,0 -6,2.687 -6,6 0,3.313 2.687,6 6,6 3.312,0 6,-2.687 6,-6 0,-3.313 -2.688,-6 -6,-6 z m 0,10 c -2.209,0 -4,-1.791 -4,-4 0,-2.209 1.791,-4 4,-4 2.209,0 4,1.791 4,4 0,2.209 -1.791,4 -4,4 z"
   style="fill:#a6b4c9;fill-opacity:1;stroke-width:0.02783757"
   inkscape:connector-curvature="0" />
		<path
   id="path918"
   d="m 4.63,15.962 -1.4,1.4 c -0.395,0.395 -0.401,1.027 -0.007,1.421 0.391,0.39 1.021,0.393 1.421,-0.007 l 1.4,-1.4 C 6.439,16.981 6.445,16.349 6.051,15.955 5.66,15.563 5.03,15.562 4.63,15.962 Z"
   style="fill:#a6b4c9;fill-opacity:1;stroke-width:0.02783757"
   inkscape:connector-curvature="0" />
		<path
   id="path920"
   d="m 17.376,6.045 1.4,-1.401 C 19.171,4.249 19.175,3.617 18.783,3.223 18.391,2.833 17.762,2.83 17.362,3.23 l -1.4,1.4 c -0.395,0.395 -0.4,1.028 -0.007,1.421 0.392,0.39 1.021,0.393 1.421,-0.006 z"
   style="fill:#a6b4c9;fill-opacity:1;stroke-width:0.02783757"
   inkscape:connector-curvature="0" />
		<path
   id="path922"
   d="m 11.003,18.006 c -0.553,0 -1,0.444 -1,1.011 v 1.98 c 0,0.559 0.444,1.009 1,1.009 0.553,0 1,-0.442 1,-1.009 v -1.98 c 0,-0.559 -0.443,-1.011 -1,-1.011 z"
   style="fill:#a6b4c9;fill-opacity:1;stroke-width:0.02783757"
   inkscape:connector-curvature="0" />
		<path
   id="path924"
   d="m 17.376,15.962 c -0.395,-0.395 -1.027,-0.4 -1.421,-0.007 -0.39,0.392 -0.394,1.021 0.007,1.421 l 1.4,1.4 c 0.395,0.395 1.027,0.399 1.421,0.007 0.391,-0.39 0.394,-1.021 -0.007,-1.421 z"
   style="fill:#a6b4c9;fill-opacity:1;stroke-width:0.02783757"
   inkscape:connector-curvature="0" />
		<path
   id="path926"
   d="m 11.003,4 c 0.553,0 1,-0.443 1,-1.01 V 1.01 c 0,-0.558 -0.443,-1.01 -1,-1.01 -0.553,0 -1,0.444 -1,1.01 v 1.98 c 0,0.558 0.444,1.01 1,1.01 z"
   style="fill:#a6b4c9;fill-opacity:1;stroke-width:0.02783757"
   inkscape:connector-curvature="0" />
	</g>
</g><g
     id="g932"
     style="stroke-width:0.02783757">
</g><g
     id="g934"
     style="stroke-width:0.02783757">
</g><g
     id="g936"
     style="stroke-width:0.02783757">
</g><g
     id="g938"
     style="stroke-width:0.02783757">
</g><g
     id="g940"
     style="stroke-width:0.02783757">
</g><g
     id="g942"
     style="stroke-width:0.02783757">
</g><g
     id="g944"
     style="stroke-width:0.02783757">
</g><g
     id="g946"
     style="stroke-width:0.02783757">
</g><g
     id="g948"
     style="stroke-width:0.02783757">
</g><g
     id="g950"
     style="stroke-width:0.02783757">
</g><g
     id="g952"
     style="stroke-width:0.02783757">
</g><g
     id="g954"
     style="stroke-width:0.02783757">
</g><g
     id="g956"
     style="stroke-width:0.02783757">
</g><g
     id="g958"
     style="stroke-width:0.02783757">
</g><g
     id="g960"
     style="stroke-width:0.02783757">
</g></g></svg>
