<?xml version="1.0" encoding="UTF-8" standalone="no"?>
<svg
   xmlns:dc="http://purl.org/dc/elements/1.1/"
   xmlns:cc="http://creativecommons.org/ns#"
   xmlns:rdf="http://www.w3.org/1999/02/22-rdf-syntax-ns#"
   xmlns:svg="http://www.w3.org/2000/svg"
   xmlns="http://www.w3.org/2000/svg"
   xmlns:sodipodi="http://sodipodi.sourceforge.net/DTD/sodipodi-0.dtd"
   xmlns:inkscape="http://www.inkscape.org/namespaces/inkscape"
   version="1.1"
   id="Layer_1"
   x="0px"
   y="0px"
   viewBox="0 0 512 512"
   style="enable-background:new 0 0 512 512;"
   xml:space="preserve"
   sodipodi:docname="subfamilia.svg"
   inkscape:version="1.0.2-2 (e86c870879, 2021-01-15)"><metadata
   id="metadata53"><rdf:RDF><cc:Work
       rdf:about=""><dc:format>image/svg+xml</dc:format><dc:type
         rdf:resource="http://purl.org/dc/dcmitype/StillImage" /><dc:title></dc:title></cc:Work></rdf:RDF></metadata><defs
   id="defs51" /><sodipodi:namedview
   pagecolor="#ffffff"
   bordercolor="#666666"
   borderopacity="1"
   objecttolerance="10"
   gridtolerance="10"
   guidetolerance="10"
   inkscape:pageopacity="0"
   inkscape:pageshadow="2"
   inkscape:window-width="1920"
   inkscape:window-height="1027"
   id="namedview49"
   showgrid="false"
   inkscape:zoom="0.41992188"
   inkscape:cx="256"
   inkscape:cy="256"
   inkscape:window-x="1272"
   inkscape:window-y="-8"
   inkscape:window-maximized="1"
   inkscape:current-layer="g886" />


<g
   id="g886"
   transform="rotate(90,256,256)"><g
     id="g6">
	<rect
   x="177.52"
   y="252.01199"
   style="fill:#8ba0ae"
   width="108.472"
   height="8"
   id="rect2" />
	<polygon
   style="fill:#8ba0ae"
   points="284.024,441.476 284.024,70.556 364.664,70.556 364.664,78.556 292.024,78.556 292.024,433.476 364.664,433.476 364.664,441.476 "
   id="polygon4" />
</g><g
     id="g14">
	<path
   style="fill:#32bea6"
   d="m 453.728,0.004 v 0 c -32.184,0 -58.272,26.088 -58.272,58.264 v 0 c 0,32.184 26.088,58.264 58.264,58.264 v 0 c 32.184,0 58.264,-26.088 58.264,-58.264 v 0 C 512,26.092 485.912,0.004 453.728,0.004 Z"
   id="path8" />
	<path
   style="fill:#32bea6"
   d="m 453.728,395.468 v 0 c -32.184,0 -58.272,26.088 -58.272,58.264 v 0 c 0,32.184 26.088,58.264 58.264,58.264 v 0 C 485.912,512.004 512,485.916 512,453.74 v 0 c 0,-32.184 -26.088,-58.272 -58.272,-58.272 z"
   id="path10" />
	<circle
   style="fill:#32bea6"
   cx="108"
   cy="256.004"
   r="108"
   id="circle12" />
</g><polygon
     style="fill:#ffffff"
     points="67.088,251.924 51.864,268.7 91.968,308.276 162.04,221.86 145.128,206.948 90.184,274.716 "
     id="polygon16"
     transform="rotate(-90,106.952,257.612)" /></g>
<g
   id="g18">
</g>
<g
   id="g20">
</g>
<g
   id="g22">
</g>
<g
   id="g24">
</g>
<g
   id="g26">
</g>
<g
   id="g28">
</g>
<g
   id="g30">
</g>
<g
   id="g32">
</g>
<g
   id="g34">
</g>
<g
   id="g36">
</g>
<g
   id="g38">
</g>
<g
   id="g40">
</g>
<g
   id="g42">
</g>
<g
   id="g44">
</g>
<g
   id="g46">
</g>
</svg>
