<svg id="color" enable-background="new 0 0 24 24" height="512" viewBox="0 0 24 24" width="512" xmlns="http://www.w3.org/2000/svg"><path d="m13 4 7 3-7 3-7-3z" fill="#2196f3"/><path d="m6 7 7 3v8l-7-3z" fill="#64b5f6"/><path d="m13 18 7-3v-8l-7 3z" fill="#42a5f5"/><path d="m13 4-7 3 7 3z" fill="#1d83d4"/><path d="m6 7v8l7 3v-8z" fill="#579ed6"/><path d="m5.78 2.47-2.25-2.25c-.293-.293-.768-.293-1.061 0l-2.249 2.25c-.472.47-.139 1.28.53 1.28h1.25v19.25c0 .552.447 1 1 1s1-.448 1-1v-19.25h1.25c.669 0 1.002-.81.53-1.28z" fill="#cfd8dc"/><path d="m3 0c-.192 0-.384.073-.53.22l-2.25 2.25c-.472.47-.139 1.28.53 1.28h1.25v19.25c0 .552.447 1 1 1z" fill="#b4bcc0"/><path d="m23.78 20.47-2.25-2.25c-.473-.473-1.28-.136-1.28.53v1.25h-19.25c-.553 0-1 .448-1 1s.447 1 1 1h19.25v1.25c0 .669.812.999 1.28.53l2.25-2.25c.293-.293.293-.767 0-1.06z" fill="#cfd8dc"/><path d="m24 21h-24c0 .552.447 1 1 1h19.25v1.25c0 .452.371.75.757.75.184 0 .372-.068.524-.22l2.25-2.25c.146-.146.219-.338.219-.53z" fill="#b4bcc0"/></svg>