<svg id="Capa_1" enable-background="new 0 0 512 512" height="512" viewBox="0 0 512 512" width="512" xmlns="http://www.w3.org/2000/svg"><g><g><path d="m345.321 440.508s-304.076-20.473-321.725-50.913c-8.71-15.022-13.696-32.473-13.696-51.087v-236.508c0-56.333 45.667-102 102-102h233.421c56.333 0 102 45.667 102 102v236.508c0 56.333-45.667 102-102 102z" fill="#f4fbff"/></g><g><path d="m345.321 440.508h-233.421c-56.333 0-102-45.667-102-102v-236.508c0-56.333 45.667-102 102-102h233.421c56.333 0 102 45.667 102 102v236.508c0 56.333-45.667 102-102 102z" fill="#f4fbff"/></g><path d="m375.974 4.69c3.045 9.676 4.69 19.972 4.69 30.654v236.508c0 56.333-45.667 102-102 102h-233.421c-10.681 0-20.978-1.645-30.654-4.69 2.262 7.186 5.297 14.03 9.009 20.432 17.648 30.44 321.722 50.914 321.722 50.914 56.333 0 102-45.667 102-102v-236.508c.001-45.652-29.991-84.295-71.346-97.31z" fill="#e4f6ff"/><path d="m301.701 282.52h-146.182c-64.941 0-119.133 45.93-131.92 107.073 17.649 30.44 50.582 50.914 88.3 50.914h233.421c37.718 0 70.651-20.475 88.3-50.914-12.786-61.143-66.978-107.073-131.919-107.073z" fill="#365e7d"/><path d="m375.354 304.417c-13.59 40.364-51.744 69.435-96.689 69.435h-233.422c-5.74 0-11.367-.482-16.849-1.393-1.96 5.554-3.569 11.274-4.795 17.135 17.649 30.44 50.582 50.914 88.3 50.914h233.421c37.718 0 70.651-20.475 88.3-50.914-7.433-35.548-28.866-65.95-58.266-85.177z" fill="#2b4d66"/><path d="m115.652 440.508c-.074-.394-.125-.658-.145-.752-8.177-38.75-27.499-73.83-55.875-101.449l-7.576-7.373c-3.42 4.093-6.597 8.396-9.519 12.88l6.032 5.858c25.3 24.625 42.759 55.702 50.668 90.045 4.15.514 8.372.792 12.661.792h3.754z" fill="#e4f6ff"/><path d="m99.238 439.716c4.15.514 8.372.792 12.661.792h3.752c-.074-.394-.125-.658-.145-.752-4.984-23.619-14.116-45.87-26.908-65.904h-19.176c14.175 19.66 24.313 41.968 29.816 65.864z" fill="#d3effb"/><g><path d="m242.283 336.625h-27.346c-25.354 0-45.908-20.554-45.908-45.908v-73.254h119.162v73.254c0 25.355-20.554 45.908-45.908 45.908z" fill="#ffb983"/></g><g><path d="m231.408 32.178h-5.596c-51.266 0-92.826 41.56-92.826 92.826v42.033h191.247v-42.033c.001-51.266-41.559-92.826-92.825-92.826z" fill="#2b4d66"/></g><g><path d="m155.33 219.607h-7.844c-16.647 0-30.143-13.495-30.143-30.143v-8.2c0-10.183 8.255-18.438 18.438-18.438h1.111c10.183 0 18.438 8.255 18.438 18.438z" fill="#ffb983"/></g><g><path d="m301.891 219.607h7.844c16.647 0 30.143-13.495 30.143-30.143v-8.2c0-10.183-8.255-18.438-18.438-18.438h-1.111c-10.183 0-18.438 8.255-18.438 18.438z" fill="#ffb983"/></g><g><path d="m290.303 257.46-21.113 23.911c-21.549 24.405-59.61 24.405-81.16 0l-21.113-23.911c-13.937-15.784-21.628-36.115-21.628-57.171v-52.649c0-19.458 15.774-35.233 35.233-35.233h96.176c19.458 0 35.233 15.774 35.233 35.233v52.649c0 21.056-7.691 41.387-21.628 57.171z" fill="#fcd0a3"/></g><g><circle cx="188.517" cy="179.835" fill="#61a2f9" r="9.756"/></g><g><circle cx="268.703" cy="179.835" fill="#61a2f9" r="9.756"/></g><g><path d="m247.128 240.049h-37.036c-4.261 0-7.716-3.454-7.716-7.716s3.455-7.716 7.716-7.716h37.036c4.261 0 7.716 3.454 7.716 7.716s-3.455 7.716-7.716 7.716z" fill="#e4989d"/></g><g><circle cx="391.308" cy="401.208" fill="#e28086" r="110.792"/></g><g><path d="m457.922 312.676c13.973 18.541 22.26 41.609 22.26 66.614 0 61.189-49.603 110.792-110.792 110.792-25.005 0-48.073-8.287-66.614-22.26 20.22 26.83 52.349 44.178 88.532 44.178 61.189 0 110.792-49.603 110.792-110.792 0-36.184-17.348-68.313-44.178-88.532z" fill="#dd636e"/></g><path d="m401.087 401.208 31.465-31.465c3.013-3.014 3.013-7.899 0-10.913-3.013-3.012-7.899-3.012-10.912 0l-31.465 31.465-32.353-32.354c-3.013-3.012-7.899-3.012-10.912 0-3.013 3.014-3.013 7.899 0 10.913l32.353 32.353-32.353 32.353c-3.013 3.014-3.013 7.899 0 10.913 1.507 1.506 3.481 2.26 5.456 2.26s3.949-.754 5.456-2.26l32.353-32.354 31.465 31.465c1.507 1.506 3.481 2.26 5.456 2.26s3.949-.753 5.456-2.26c3.013-3.014 3.013-7.899 0-10.913z" fill="#f4fbff"/></g></svg>