<?xml version="1.0" encoding="UTF-8" standalone="no"?>
<svg
   xmlns:dc="http://purl.org/dc/elements/1.1/"
   xmlns:cc="http://creativecommons.org/ns#"
   xmlns:rdf="http://www.w3.org/1999/02/22-rdf-syntax-ns#"
   xmlns:svg="http://www.w3.org/2000/svg"
   xmlns="http://www.w3.org/2000/svg"
   xmlns:sodipodi="http://sodipodi.sourceforge.net/DTD/sodipodi-0.dtd"
   xmlns:inkscape="http://www.inkscape.org/namespaces/inkscape"
   id="Capa_1"
   enable-background="new 0 0 512 512"
   height="512"
   viewBox="0 0 512 512"
   width="512"
   version="1.1"
   sodipodi:docname="usuario-anadir.svg"
   inkscape:version="1.0.2-2 (e86c870879, 2021-01-15)">
  <metadata
     id="metadata69">
    <rdf:RDF>
      <cc:Work
         rdf:about="">
        <dc:format>image/svg+xml</dc:format>
        <dc:type
           rdf:resource="http://purl.org/dc/dcmitype/StillImage" />
        <dc:title></dc:title>
      </cc:Work>
    </rdf:RDF>
  </metadata>
  <defs
     id="defs67" />
  <sodipodi:namedview
     pagecolor="#ffffff"
     bordercolor="#666666"
     borderopacity="1"
     objecttolerance="10"
     gridtolerance="10"
     guidetolerance="10"
     inkscape:pageopacity="0"
     inkscape:pageshadow="2"
     inkscape:window-width="1920"
     inkscape:window-height="1027"
     id="namedview65"
     showgrid="false"
     inkscape:zoom="0.83984375"
     inkscape:cx="256"
     inkscape:cy="375.06977"
     inkscape:window-x="1272"
     inkscape:window-y="-8"
     inkscape:window-maximized="1"
     inkscape:current-layer="g62" />
  <g
     id="g62">
    <g
       id="g4">
      <path
         d="m345.321 440.508s-304.076-20.473-321.725-50.913c-8.71-15.022-13.696-32.473-13.696-51.087v-236.508c0-56.333 45.667-102 102-102h233.421c56.333 0 102 45.667 102 102v236.508c0 56.333-45.667 102-102 102z"
         fill="#f4fbff"
         id="path2" />
    </g>
    <g
       id="g8">
      <path
         d="m345.321 440.508h-233.421c-56.333 0-102-45.667-102-102v-236.508c0-56.333 45.667-102 102-102h233.421c56.333 0 102 45.667 102 102v236.508c0 56.333-45.667 102-102 102z"
         fill="#f4fbff"
         id="path6" />
    </g>
    <path
       d="m375.974 4.69c3.045 9.676 4.69 19.972 4.69 30.654v236.508c0 56.333-45.667 102-102 102h-233.421c-10.681 0-20.978-1.645-30.654-4.69 2.262 7.186 5.297 14.03 9.009 20.432 17.648 30.44 321.722 50.914 321.722 50.914 56.333 0 102-45.667 102-102v-236.508c.001-45.652-29.991-84.295-71.346-97.31z"
       fill="#e4f6ff"
       id="path10" />
    <path
       d="m301.701 282.52h-146.182c-64.941 0-119.133 45.93-131.92 107.073 17.649 30.44 50.582 50.914 88.3 50.914h233.421c37.718 0 70.651-20.475 88.3-50.914-12.786-61.143-66.978-107.073-131.919-107.073z"
       fill="#365e7d"
       id="path12" />
    <path
       d="m375.354 304.417c-13.59 40.364-51.744 69.435-96.689 69.435h-233.422c-5.74 0-11.367-.482-16.849-1.393-1.96 5.554-3.569 11.274-4.795 17.135 17.649 30.44 50.582 50.914 88.3 50.914h233.421c37.718 0 70.651-20.475 88.3-50.914-7.433-35.548-28.866-65.95-58.266-85.177z"
       fill="#2b4d66"
       id="path14" />
    <path
       d="m115.652 440.508c-.074-.394-.125-.658-.145-.752-8.177-38.75-27.499-73.83-55.875-101.449l-7.576-7.373c-3.42 4.093-6.597 8.396-9.519 12.88l6.032 5.858c25.3 24.625 42.759 55.702 50.668 90.045 4.15.514 8.372.792 12.661.792h3.754z"
       fill="#e4f6ff"
       id="path16" />
    <path
       d="m99.238 439.716c4.15.514 8.372.792 12.661.792h3.752c-.074-.394-.125-.658-.145-.752-4.984-23.619-14.116-45.87-26.908-65.904h-19.176c14.175 19.66 24.313 41.968 29.816 65.864z"
       fill="#d3effb"
       id="path18" />
    <g
       id="g22">
      <path
         d="m242.283 336.625h-27.346c-25.354 0-45.908-20.554-45.908-45.908v-73.254h119.162v73.254c0 25.355-20.554 45.908-45.908 45.908z"
         fill="#ffb983"
         id="path20" />
    </g>
    <g
       id="g26">
      <path
         d="m231.408 32.178h-5.596c-51.266 0-92.826 41.56-92.826 92.826v42.033h191.247v-42.033c.001-51.266-41.559-92.826-92.825-92.826z"
         fill="#2b4d66"
         id="path24" />
    </g>
    <g
       id="g30">
      <path
         d="m155.33 219.607h-7.844c-16.647 0-30.143-13.495-30.143-30.143v-8.2c0-10.183 8.255-18.438 18.438-18.438h1.111c10.183 0 18.438 8.255 18.438 18.438z"
         fill="#ffb983"
         id="path28" />
    </g>
    <g
       id="g34">
      <path
         d="m301.891 219.607h7.844c16.647 0 30.143-13.495 30.143-30.143v-8.2c0-10.183-8.255-18.438-18.438-18.438h-1.111c-10.183 0-18.438 8.255-18.438 18.438z"
         fill="#ffb983"
         id="path32" />
    </g>
    <g
       id="g38">
      <path
         d="m290.303 257.46-21.113 23.911c-21.549 24.405-59.61 24.405-81.16 0l-21.113-23.911c-13.937-15.784-21.628-36.115-21.628-57.171v-52.649c0-19.458 15.774-35.233 35.233-35.233h96.176c19.458 0 35.233 15.774 35.233 35.233v52.649c0 21.056-7.691 41.387-21.628 57.171z"
         fill="#fcd0a3"
         id="path36" />
    </g>
    <g
       id="g42">
      <circle
         cx="188.517"
         cy="179.835"
         fill="#61a2f9"
         r="9.756"
         id="circle40" />
    </g>
    <g
       id="g46">
      <circle
         cx="268.703"
         cy="179.835"
         fill="#61a2f9"
         r="9.756"
         id="circle44" />
    </g>
    <g
       id="g50">
      <path
         d="m247.128 240.049h-37.036c-4.261 0-7.716-3.454-7.716-7.716s3.455-7.716 7.716-7.716h37.036c4.261 0 7.716 3.454 7.716 7.716s-3.455 7.716-7.716 7.716z"
         fill="#e4989d"
         id="path48" />
    </g>
    <g
       id="g54">
      <circle
         cx="391.308"
         cy="401.208"
         fill="#e28086"
         r="110.792"
         id="circle52"
         style="fill:#b3e59f;fill-opacity:1" />
    </g>
    <g
       id="g58">
      <path
         d="m457.922 312.676c13.973 18.541 22.26 41.609 22.26 66.614 0 61.189-49.603 110.792-110.792 110.792-25.005 0-48.073-8.287-66.614-22.26 20.22 26.83 52.349 44.178 88.532 44.178 61.189 0 110.792-49.603 110.792-110.792 0-36.184-17.348-68.313-44.178-88.532z"
         fill="#dd636e"
         id="path56"
         style="fill:#95d6a4;fill-opacity:1" />
    </g>
    <path
       d="m 397.76055,403.23776 h 44.49823 c 4.26173,-7.1e-4 7.71595,-3.45493 7.71666,-7.71666 -7.1e-4,-4.26032 -3.45563,-7.71524 -7.71595,-7.71595 h -44.49823 l 7.1e-4,-45.75476 c -7.1e-4,-4.26031 -3.45564,-7.71524 -7.71595,-7.71595 -4.26174,7.1e-4 -7.71595,3.45493 -7.71666,7.71666 v 45.75405 h -45.75405 c -4.26173,7.1e-4 -7.71595,3.45493 -7.71666,7.71666 7.1e-4,2.13051 0.86338,4.0595 2.25992,5.45603 1.39653,1.39654 3.32552,2.25921 5.45603,2.25992 l 45.75476,-7.1e-4 v 44.49823 c 7.1e-4,2.13051 0.86338,4.0595 2.25991,5.45604 1.39654,1.39653 3.32482,2.25991 5.45604,2.25991 4.26173,-7.1e-4 7.71595,-3.45492 7.71666,-7.71666 z"
       fill="#f4fbff"
       id="path60" />
  </g>
</svg>
