<svg id="Capa_1" enable-background="new 0 0 511.002 511.002" height="512" viewBox="0 0 511.002 511.002" width="512" xmlns="http://www.w3.org/2000/svg"><g><g><g><g><path d="m450.257 217.867c-5.622-3.666-72.072-82.293-194.756-82.293-122.704 0-189.183 78.658-194.756 82.293l-60.745-66.459c5.852-3.769 94.822-105.834 255.501-105.834 160.877 0 249.529 101.987 255.501 105.834z" fill="#76e2f8"/></g><g><path d="m348.969 328.685c-99.426-94.131-179.91-6.651-186.935 0l-60.793-66.511c5.437-3.587 56.665-66.277 154.26-66.277 97.635 0 148.968 62.785 154.26 66.277z" fill="#76e2f8"/></g><g><path d="m255.501 465.428c-33.084 0-60-26.916-60-60s26.916-60 60-60 60 26.916 60 60-26.916 60-60 60z" fill="#76e2f8"/></g></g></g><g fill="#3aaaff"><path d="m450.257 217.867 60.745-66.459c-5.972-3.847-94.624-105.834-255.501-105.834v90c122.684 0 189.135 78.627 194.756 82.293z"/><path d="m348.969 328.685 60.792-66.511c-5.292-3.492-56.625-66.277-154.26-66.277v89.437c27.456.132 59.346 11.046 93.468 43.351z"/><path d="m315.501 405.428c0-33.084-26.916-60-60-60v120c33.084 0 60-26.916 60-60z"/></g></g></svg>